<?xml version="1.0" standalone="no"?>
<!DOCTYPE svg PUBLIC "-//W3C//DTD SVG 20010904//EN"
 "http://www.w3.org/TR/2001/REC-SVG-20010904/DTD/svg10.dtd">
<svg version="1.0" xmlns="http://www.w3.org/2000/svg"
 width="744.000000pt" height="744.000000pt" viewBox="0 0 744.000000 744.000000"
 preserveAspectRatio="xMidYMid meet">
<metadata>
Created by potrace 1.14, written by Peter Selinger 2001-2017
</metadata>
<g transform="translate(0.000000,744.000000) scale(0.100000,-0.100000)"
fill="#000000" stroke="none">
<path d="M1769 6798 c-45 -79 -89 -156 -98 -173 -9 -16 -19 -32 -22 -35 -3 -3
-8 -12 -12 -20 -3 -8 -19 -36 -34 -62 -44 -73 -156 -268 -180 -313 -12 -22
-26 -44 -30 -50 -9 -11 -40 -66 -75 -132 -12 -24 -26 -43 -30 -43 -4 0 -8 -5
-8 -11 0 -6 -22 -48 -50 -95 -28 -47 -50 -87 -50 -91 0 -4 -6 -14 -14 -22 -7
-9 -27 -41 -43 -71 -17 -30 -73 -128 -124 -217 -52 -90 -101 -175 -109 -190
-8 -16 -17 -30 -20 -33 -3 -3 -10 -14 -16 -25 -24 -44 -62 -112 -82 -145 -12
-19 -27 -46 -35 -60 -7 -14 -46 -80 -85 -148 -40 -68 -72 -127 -72 -132 0 -6
-4 -10 -10 -10 -5 0 -10 -4 -10 -10 0 -5 -14 -33 -31 -62 -28 -46 -97 -166
-317 -548 -30 -52 -66 -115 -80 -140 -13 -25 -32 -56 -41 -70 -10 -14 -28 -46
-42 -72 -13 -27 -27 -48 -30 -48 -4 0 -9 -9 -12 -19 -5 -21 -2 -27 58 -131 21
-36 49 -85 63 -109 14 -25 38 -68 55 -95 16 -28 37 -64 47 -81 18 -32 78 -135
95 -163 18 -29 109 -191 130 -230 11 -20 23 -39 28 -40 4 -2 7 -8 7 -14 0 -5
8 -22 18 -36 11 -15 33 -52 49 -82 17 -30 81 -143 143 -250 123 -212 131 -226
180 -315 19 -33 36 -62 39 -65 4 -3 14 -20 23 -38 10 -17 26 -47 35 -64 10
-18 21 -34 26 -36 4 -2 7 -8 7 -13 0 -5 17 -38 38 -72 21 -35 42 -70 46 -77 4
-8 12 -24 19 -35 7 -11 54 -94 106 -185 52 -91 97 -167 100 -170 3 -3 13 -18
21 -35 8 -16 43 -78 78 -137 34 -59 62 -111 62 -117 0 -6 4 -11 9 -11 5 0 12
-8 15 -17 3 -10 12 -27 19 -38 7 -11 39 -67 71 -125 33 -58 67 -116 76 -130
10 -14 29 -47 45 -75 67 -124 129 -226 139 -232 6 -4 839 -8 1851 -8 l1840 0
23 24 c12 13 22 28 22 33 0 4 12 27 26 49 23 37 37 61 97 169 10 19 23 40 27
45 4 6 19 31 34 57 69 125 80 145 96 168 9 14 20 32 23 40 4 8 21 38 37 65 17
28 33 58 36 67 4 10 10 18 15 18 5 0 9 4 9 9 0 8 53 104 134 241 15 25 33 60
41 78 9 17 20 32 27 32 6 0 9 3 6 6 -5 4 56 116 122 224 10 17 198 343 216
375 22 40 157 271 181 310 13 22 29 52 36 68 6 15 15 27 19 27 4 0 8 4 8 9 0
5 54 102 120 216 66 114 120 209 120 211 0 3 5 10 10 17 6 7 93 155 194 331
164 286 182 321 172 342 -6 13 -14 24 -18 24 -5 0 -8 4 -8 10 0 5 -14 33 -31
62 -18 29 -45 78 -62 108 -17 30 -45 79 -64 108 -18 29 -33 54 -33 56 0 2 -43
77 -95 167 -52 89 -95 164 -95 166 0 2 -22 39 -50 83 -27 44 -46 80 -43 80 3
0 -1 8 -9 18 -9 9 -24 33 -33 52 -10 19 -21 37 -24 40 -3 3 -15 23 -26 45 -11
22 -22 42 -25 45 -3 3 -17 26 -30 53 -14 26 -28 47 -32 47 -5 0 -8 7 -8 14 0
8 -13 34 -29 58 -16 24 -41 66 -55 93 -15 28 -38 68 -52 90 -13 22 -29 49 -34
60 -6 11 -14 27 -20 35 -5 8 -32 53 -59 100 -27 47 -60 105 -75 130 -14 25
-55 97 -92 160 -36 63 -73 129 -83 145 -19 31 -45 77 -82 143 -12 20 -52 90
-90 154 -38 64 -69 121 -69 127 0 6 -4 11 -10 11 -5 0 -10 5 -10 12 0 6 -13
32 -29 57 -16 25 -42 69 -58 97 -15 28 -91 159 -168 292 l-139 242 -1852 0
-1852 0 -83 -142z"/>
</g>
</svg>
