<?xml version="1.0" standalone="no"?>
<!DOCTYPE svg PUBLIC "-//W3C//DTD SVG 1.1//EN" "http://www.w3.org/Graphics/SVG/1.1/DTD/svg11.dtd" >
<svg xmlns="http://www.w3.org/2000/svg" xmlns:xlink="http://www.w3.org/1999/xlink" version="1.1">
<metadata>
Created by FontForge 20201107 at Thu Aug 16 21:16:31 2007
 By Unknown
Copyright 1992, 1994, 1997, 2000, 2004 Adobe Systems Incorporated. All rights reserved. Protected by U.S. Patents D454,582. Myriad is either a registered trademark or a trademark of Adobe Systems Incorporated in the United States and/or other countries.
</metadata>
<defs>
<font id="MyriadPro-Cond" horiz-adv-x="300" >
  <font-face 
    font-family="Myriad Pro"
    font-weight="400"
    font-stretch="condensed"
    units-per-em="1000"
    panose-1="2 11 5 6 3 4 3 2 2 4"
    ascent="750"
    descent="-250"
    x-height="484"
    cap-height="674"
    bbox="-140 -250 970 935"
    underline-thickness="50"
    underline-position="-100"
    stemh="58"
    stemv="77"
    unicode-range="U+0020-FB04"
  />
<missing-glyph horiz-adv-x="500" 
d="M0 0v700h500v-700h-500zM250 395l170 255h-340zM280 350l170 -255v510zM80 50h340l-170 255zM50 605v-510l170 255z" />
    <glyph glyph-name="f_f_j" unicode="ffj" horiz-adv-x="642" 
d="M567 677l-16 -60c-17 8 -46 19 -80 19c-78 0 -97 -54 -97 -128v-24h217v-453c0 -102 -15 -149 -49 -185c-29 -30 -76 -45 -106 -46l-10 61c22 6 49 14 65 38c17 26 23 62 23 154v373h-140v-426h-77v426h-150v-426h-77v426h-61v58h61v18c0 62 14 111 52 147
c25 25 62 39 101 39c29 0 54 -9 67 -15l-22 -59c-12 6 -27 11 -44 11c-24 0 -43 -10 -55 -26c-17 -23 -22 -57 -22 -95v-20h150v32c0 86 42 184 176 184c41 0 77 -12 94 -23z" />
    <glyph glyph-name="f_j" unicode="fj" horiz-adv-x="415" 
d="M147 0h-77v426h-61v58h61v32c0 86 42 184 176 184c41 0 77 -12 94 -23l-16 -60c-17 8 -46 19 -80 19c-78 0 -97 -54 -97 -128v-24h217v-453c0 -102 -15 -149 -49 -185c-29 -30 -76 -45 -106 -46l-10 61c22 6 49 14 65 38c17 26 23 62 23 154v373h-140v-426z" />
    <glyph glyph-name="f_f" unicode="ff" horiz-adv-x="451" 
d="M370 0h-77v426h-146v-426h-77v426h-61v58h61v24c0 60 14 110 44 142c23 24 56 38 100 38c20 0 40 -5 50 -9l-14 -61c-9 4 -23 7 -37 7c-49 0 -66 -41 -66 -116v-25h146v29c0 53 8 106 43 146c28 31 67 41 96 41c27 0 47 -5 61 -12l-13 -60c-9 4 -23 8 -42 8
c-55 0 -68 -59 -68 -121v-31h88v-58h-88v-426z" />
    <glyph glyph-name="f_f_i" unicode="ffi" horiz-adv-x="645" 
d="M567 677l-16 -60c-17 8 -46 19 -80 19c-78 0 -97 -54 -97 -128v-24h217v-484h-77v426h-140v-426h-77v426h-150v-426h-77v426h-61v58h61v18c0 62 14 111 52 147c25 25 62 39 101 39c29 0 54 -9 67 -15l-22 -59c-12 6 -27 11 -44 11c-24 0 -43 -10 -55 -26
c-17 -23 -22 -57 -22 -95v-20h150v32c0 86 42 184 176 184c41 0 77 -12 94 -23z" />
    <glyph glyph-name="f_f_l" unicode="ffl" horiz-adv-x="645" 
d="M290 673l-22 -59c-12 6 -27 11 -44 11c-24 0 -43 -10 -55 -27c-17 -22 -22 -56 -22 -94v-20h150v26c0 51 15 110 55 148c28 26 66 42 123 42c42 0 89 -11 117 -25v-675h-77v627c-14 6 -32 10 -53 10c-67 0 -88 -58 -88 -122v-31h83v-58h-83v-426h-77v426h-150v-426h-77
v426h-61v58h61v18c0 62 14 111 52 147c25 25 62 39 101 39c29 0 54 -9 67 -15z" />
    <glyph glyph-name="f_i" unicode="fi" horiz-adv-x="418" 
d="M147 0h-77v426h-61v58h61v32c0 86 42 184 176 184c41 0 77 -12 94 -23l-16 -60c-17 8 -46 19 -80 19c-78 0 -97 -54 -97 -128v-24h217v-484h-77v426h-140v-426z" />
    <glyph glyph-name="f_l" unicode="fl" horiz-adv-x="418" 
d="M147 0h-77v426h-61v58h61v26c0 51 15 110 55 148c28 26 66 42 123 42c42 0 89 -11 117 -25v-675h-77v627c-14 6 -32 10 -53 10c-67 0 -88 -58 -88 -122v-31h83v-58h-83v-426z" />
    <glyph glyph-name=".notdef" horiz-adv-x="500" 
d="M0 0v700h500v-700h-500zM250 395l170 255h-340zM280 350l170 -255v510zM80 50h340l-170 255zM50 605v-510l170 255z" />
    <glyph glyph-name="space" unicode=" " horiz-adv-x="157" 
 />
    <glyph glyph-name="exclam" unicode="!" horiz-adv-x="204" 
d="M134 187h-64l-10 487h84zM101 -8c-28 0 -48 22 -48 54c0 33 21 55 49 55c30 0 48 -22 48 -55c0 -32 -17 -54 -49 -54z" />
    <glyph glyph-name="quotedbl" unicode="&#x22;" horiz-adv-x="309" 
d="M50 683h71l-14 -233h-43zM189 683h71l-14 -233h-43z" />
    <glyph glyph-name="numbersign" unicode="#" horiz-adv-x="385" 
d="M145 252h78l19 152h-78zM113 0h-51l25 200h-64v52h71l20 152h-69v51h76l25 195h50l-25 -195h78l25 195h51l-25 -195h63v-51h-70l-19 -152h69v-51h-76l-25 -201h-52l25 201h-76z" />
    <glyph glyph-name="dollar" unicode="$" horiz-adv-x="385" 
d="M217 -84h-56v100c-46 1 -86 18 -110 33l18 60c27 -17 63 -32 101 -32c60 0 93 44 93 101c0 58 -28 95 -86 130c-61 37 -123 82 -123 165c0 81 51 138 114 155v97h55v-91c41 0 77 -14 95 -27l-19 -59c-18 11 -48 25 -87 25c-54 0 -85 -44 -85 -87c0 -59 29 -81 95 -121
c78 -46 114 -102 114 -177c0 -95 -53 -151 -119 -166v-106z" />
    <glyph glyph-name="percent" unicode="%" horiz-adv-x="645" 
d="M154 658c73 0 121 -77 121 -196c0 -137 -60 -198 -122 -198c-72 0 -123 75 -123 196c0 125 54 198 124 198zM151 610c-49 0 -62 -83 -62 -149c0 -68 13 -149 64 -149s63 82 63 148c0 65 -11 150 -65 150zM173 -14h-49l346 677h49zM494 387c73 0 121 -78 121 -197
c0 -136 -60 -197 -122 -197c-72 0 -123 74 -123 196c0 125 54 198 124 198zM491 339c-49 0 -62 -83 -62 -149c0 -68 15 -149 64 -149c51 0 63 82 63 148c0 65 -11 150 -65 150z" />
    <glyph glyph-name="ampersand" unicode="&#x26;" horiz-adv-x="491" 
d="M473 0h-85c-12 18 -23 31 -45 63c-37 -46 -92 -71 -146 -71c-112 0 -168 92 -168 186c0 74 32 140 103 193v3c-29 46 -49 96 -49 151c0 82 51 157 138 157c62 0 119 -46 119 -138c0 -67 -30 -121 -116 -182v-3c25 -42 76 -121 128 -191c29 62 38 148 40 194h69
c-7 -80 -29 -177 -74 -244c13 -20 39 -54 86 -118zM210 53c40 0 75 21 99 59c-57 78 -105 149 -145 212c-31 -29 -61 -76 -61 -137c0 -69 37 -134 107 -134zM214 625c-39 0 -60 -42 -60 -95c0 -46 12 -82 38 -123c52 39 80 81 80 133c0 41 -14 85 -58 85z" />
    <glyph glyph-name="quotesingle" unicode="'" horiz-adv-x="170" 
d="M50 683h71l-14 -233h-43z" />
    <glyph glyph-name="parenleft" unicode="(" horiz-adv-x="253" 
d="M168 692h60c-57 -90 -104 -225 -104 -407c0 -179 47 -314 104 -405h-60c-52 76 -109 210 -109 406c2 196 57 331 109 406z" />
    <glyph glyph-name="parenright" unicode=")" horiz-adv-x="253" 
d="M85 -120h-60c57 90 104 227 104 407s-47 315 -104 405h60c52 -74 109 -207 109 -405c-2 -198 -57 -330 -109 -407z" />
    <glyph glyph-name="asterisk" unicode="*" horiz-adv-x="373" 
d="M244 682l54 -30l-86 -120l1 -2l135 17v-60l-135 15l-1 -2l88 -115l-56 -32l-59 132l-2 -1l-60 -134l-51 33l85 120l-1 1l-132 -17v60l131 -16l1 2l-83 116l52 30l60 -128h2z" />
    <glyph glyph-name="plus" unicode="+" horiz-adv-x="596" 
d="M270 533h57v-238h230v-55h-230v-240h-57v240h-229v55h229v238z" />
    <glyph glyph-name="comma" unicode="," horiz-adv-x="194" 
d="M70 -119l-53 -7c21 58 48 164 58 233l87 10c-23 -81 -65 -192 -92 -236z" />
    <glyph glyph-name="hyphen" unicode="-" horiz-adv-x="279" 
d="M30 291h219v-59h-219v59z" />
    <glyph glyph-name="period" unicode="." horiz-adv-x="194" 
d="M99 -8c-28 0 -50 23 -50 58c0 34 23 58 51 58c30 0 51 -23 51 -58s-19 -58 -52 -58z" />
    <glyph glyph-name="slash" unicode="/" horiz-adv-x="281" 
d="M66 -40h-58l215 722h58z" />
    <glyph glyph-name="zero" unicode="0" horiz-adv-x="385" 
d="M198 658c105 0 160 -125 160 -332c0 -237 -75 -334 -169 -334c-101 0 -162 120 -162 332c0 219 65 334 171 334zM194 592c-63 0 -90 -110 -90 -267c-1 -157 26 -267 90 -267c62 0 87 111 87 267c0 152 -25 267 -87 267z" />
    <glyph glyph-name="one" unicode="1" horiz-adv-x="385" 
d="M188 0v572h-2l-108 -62l-15 60l137 80h63v-650h-75z" />
    <glyph glyph-name="two" unicode="2" horiz-adv-x="385" 
d="M345 0h-312v50l54 74c78 108 169 230 169 352c0 72 -31 116 -92 116c-47 0 -78 -25 -94 -36l-19 58c22 19 68 44 127 44c108 0 154 -80 154 -178c0 -122 -79 -240 -160 -350l-43 -60v-2h216v-68z" />
    <glyph glyph-name="three" unicode="3" horiz-adv-x="385" 
d="M28 22l17 61c20 -12 54 -27 93 -27c68 0 113 49 113 129c0 86 -53 135 -131 135h-18v58h15c46 0 117 35 117 116c0 66 -35 100 -86 100c-32 0 -60 -16 -81 -31l-17 58c24 19 68 37 117 37c92 0 144 -66 144 -150c0 -65 -34 -123 -97 -152v-2c58 -16 114 -68 114 -170
c0 -106 -68 -192 -186 -192c-42 0 -88 12 -114 30z" />
    <glyph glyph-name="four" unicode="4" horiz-adv-x="385" 
d="M304 0h-70v180h-216v52l211 418h75v-407h70v-63h-70v-180zM91 243h143v183c0 45 3 85 6 128h-4c-22 -52 -36 -82 -55 -122l-90 -187v-2z" />
    <glyph glyph-name="five" unicode="5" horiz-adv-x="385" 
d="M332 650v-68h-174l-27 -173c8 2 15 2 24 2c35 0 90 -16 123 -49c35 -34 55 -82 55 -148c0 -130 -81 -222 -196 -222c-40 0 -85 11 -111 29l17 60c20 -11 55 -25 91 -25c66 0 123 51 123 150c0 103 -63 146 -147 146c-24 0 -39 -1 -51 -3l41 301h232z" />
    <glyph glyph-name="six" unicode="6" horiz-adv-x="385" 
d="M319 658v-65c-13 0 -28 -2 -46 -6c-108 -27 -151 -136 -167 -235h3c25 37 61 62 110 62c82 0 140 -76 140 -200c0 -123 -56 -222 -160 -222c-114 0 -171 115 -171 265c0 126 33 223 84 293c39 54 101 90 158 102c20 3 37 5 49 6zM200 52c43 0 82 43 82 156
c0 98 -35 147 -87 147c-33 0 -66 -21 -85 -70c-2 -6 -5 -20 -5 -39c1 -133 41 -194 95 -194z" />
    <glyph glyph-name="seven" unicode="7" horiz-adv-x="385" 
d="M37 650h313v-46l-210 -604h-75l206 580v2h-234v68z" />
    <glyph glyph-name="eight" unicode="8" horiz-adv-x="385" 
d="M135 345l-1 2c-54 37 -85 94 -85 149c0 100 71 162 151 162c93 0 140 -78 140 -153c0 -57 -27 -112 -87 -154v-2c60 -40 104 -99 104 -178c0 -101 -67 -179 -167 -179c-108 0 -162 86 -162 166c0 92 54 150 107 187zM193 49c48 0 88 36 88 118c0 75 -43 117 -93 150
c-52 -32 -84 -88 -84 -146c0 -72 33 -122 89 -122zM195 601c-43 0 -72 -41 -72 -100c0 -66 40 -99 80 -125c39 28 64 71 64 120c0 63 -25 105 -72 105z" />
    <glyph glyph-name="nine" unicode="9" horiz-adv-x="385" 
d="M67 -8v66c17 0 31 2 48 6c33 8 65 26 89 51c36 39 65 99 76 184h-2c-25 -30 -59 -54 -107 -54c-81 0 -141 75 -141 193c0 119 64 220 164 220c111 0 163 -118 163 -261c0 -129 -32 -229 -86 -301c-38 -52 -93 -86 -150 -98c-21 -5 -38 -6 -54 -6zM189 598
c-39 0 -84 -42 -83 -154c0 -95 36 -141 88 -141c32 0 64 22 80 58c4 10 6 19 6 41c0 137 -39 196 -91 196z" />
    <glyph glyph-name="colon" unicode=":" horiz-adv-x="194" 
d="M99 359c-28 0 -49 23 -49 56s22 57 50 57c30 0 50 -23 50 -57c0 -33 -18 -56 -51 -56zM99 -8c-28 0 -49 23 -49 56s22 57 50 57c30 0 50 -23 50 -57c0 -33 -18 -56 -51 -56z" />
    <glyph glyph-name="semicolon" unicode=";" horiz-adv-x="194" 
d="M69 -119l-51 -7c20 58 47 164 57 233l86 10c-23 -81 -65 -192 -92 -236zM110 359c-28 0 -49 23 -49 56s22 57 50 57c30 0 50 -23 50 -57c0 -33 -18 -56 -51 -56z" />
    <glyph glyph-name="less" unicode="&#x3c;" horiz-adv-x="596" 
d="M66 243v47l464 242v-67l-388 -198v-2l388 -199v-66z" />
    <glyph glyph-name="equal" unicode="=" horiz-adv-x="596" 
d="M556 336h-516v55h516v-55zM556 147h-516v55h516v-55z" />
    <glyph glyph-name="greater" unicode="&#x3e;" horiz-adv-x="596" 
d="M530 295v-58l-464 -237v66l400 199v2l-400 199v66z" />
    <glyph glyph-name="question" unicode="?" horiz-adv-x="309" 
d="M173 184h-68l-2 15c-10 59 2 123 42 190c33 57 58 95 58 149c0 57 -33 81 -77 81c-24 0 -50 -7 -66 -18l-16 59c16 11 56 26 99 26c100 0 139 -67 139 -138c0 -73 -42 -129 -75 -184c-31 -54 -42 -96 -35 -163zM134 -8c-28 0 -49 23 -49 55c0 34 22 57 50 57
c31 0 50 -23 50 -57c0 -32 -18 -55 -51 -55z" />
    <glyph glyph-name="at" unicode="@" horiz-adv-x="590" 
d="M348 234l29 146c-7 3 -15 4 -28 4c-76 0 -136 -109 -136 -208c0 -45 17 -63 40 -63c41 0 83 63 95 121zM409 -28l13 -35c-45 -27 -95 -38 -148 -38c-132 0 -239 93 -239 288c0 222 136 408 316 408c135 0 209 -101 209 -241c0 -189 -65 -289 -154 -289
c-37 0 -62 26 -58 80h-3c-34 -62 -77 -80 -109 -80c-47 0 -81 37 -81 110c0 111 73 253 214 253c25 0 53 -6 70 -14l-40 -202c-14 -72 -5 -105 22 -105c47 0 94 92 94 228c0 137 -54 221 -171 221c-139 0 -264 -152 -264 -370c0 -163 78 -246 206 -246c49 0 86 12 123 32z
" />
    <glyph glyph-name="A" unicode="A" horiz-adv-x="435" 
d="M291 202h-150l-44 -202h-75l154 674h85l150 -674h-76zM152 264h128l-35 171c-10 48 -19 104 -27 154h-3c-8 -51 -18 -109 -28 -154z" />
    <glyph glyph-name="B" unicode="B" horiz-adv-x="416" 
d="M61 3v661c32 8 69 13 112 13c61 0 113 -13 149 -47c29 -27 44 -67 44 -115c0 -69 -38 -123 -104 -149v-3c78 -21 125 -84 125 -172c0 -56 -18 -101 -48 -134c-38 -43 -101 -61 -178 -61c-49 0 -79 3 -100 7zM137 612v-224h35c63 0 117 48 117 119c0 62 -29 110 -111 110
c-18 0 -32 -2 -41 -5zM137 329v-268c9 -2 22 -4 39 -4c79 0 131 47 131 134c0 93 -64 137 -136 138h-34z" />
    <glyph glyph-name="C" unicode="C" horiz-adv-x="373" 
d="M342 76l13 -64c-21 -11 -55 -18 -97 -18c-131 0 -226 106 -226 335c0 266 132 351 239 351c40 0 70 -8 83 -17l-17 -65c-16 7 -32 14 -67 14c-72 0 -157 -70 -157 -276s76 -274 159 -274c29 0 54 7 70 14z" />
    <glyph glyph-name="D" unicode="D" horiz-adv-x="445" 
d="M61 3v661c29 9 65 13 103 13c71 0 121 -18 158 -51c52 -45 91 -132 91 -273c0 -154 -38 -238 -81 -285c-44 -49 -108 -72 -186 -72c-31 0 -63 2 -85 7zM137 610v-548c11 -2 22 -2 29 -2c85 0 167 62 167 291c0 170 -52 263 -160 263c-12 0 -26 -1 -36 -4z" />
    <glyph glyph-name="E" unicode="E" horiz-adv-x="354" 
d="M306 385v-65h-169v-253h192v-67h-269v674h257v-67h-180v-222h169z" />
    <glyph glyph-name="F" unicode="F" horiz-adv-x="345" 
d="M60 0v674h257v-67h-180v-236h168v-65h-168v-306h-77z" />
    <glyph glyph-name="G" unicode="G" horiz-adv-x="436" 
d="M391 352v-335c-28 -12 -77 -23 -119 -23c-59 0 -114 16 -159 65c-49 52 -82 145 -81 269c1 263 135 352 254 352c42 0 75 -8 95 -19l-17 -66c-18 9 -41 16 -77 16c-84 0 -175 -67 -175 -276c0 -208 79 -275 160 -275c26 0 41 4 47 8v220h-87v64h159z" />
    <glyph glyph-name="H" unicode="H" horiz-adv-x="463" 
d="M60 674h77v-289h189v289h77v-674h-77v315h-189v-315h-77v674z" />
    <glyph glyph-name="I" unicode="I" horiz-adv-x="199" 
d="M60 674h77v-674h-77v674z" />
    <glyph glyph-name="J" unicode="J" horiz-adv-x="265" 
d="M134 189v485h77v-484c0 -151 -61 -198 -158 -198c-19 0 -37 2 -50 7l7 65c10 -3 23 -4 37 -4c54 0 87 22 87 129z" />
    <glyph glyph-name="K" unicode="K" horiz-adv-x="404" 
d="M61 0v674h76v-320h2c16 28 29 55 42 81l126 239h85l-165 -288l169 -386h-83l-138 325l-38 -65v-260h-76z" />
    <glyph glyph-name="L" unicode="L" horiz-adv-x="344" 
d="M60 0v674h77v-609h189v-65h-266z" />
    <glyph glyph-name="M" unicode="M" horiz-adv-x="599" 
d="M482 0l-14 290c-5 89 -10 188 -7 264h-4c-15 -75 -33 -155 -54 -234l-82 -316h-50l-78 303c-23 86 -42 169 -56 247h-3c1 -79 -4 -173 -8 -269l-13 -285h-69l40 674h84l78 -308c23 -89 40 -155 54 -232h3c13 77 28 141 50 232l76 308h86l39 -674h-72z" />
    <glyph glyph-name="N" unicode="N" horiz-adv-x="465" 
d="M130 0h-69v674h72l124 -316c28 -73 63 -162 86 -235h2c-6 106 -9 193 -9 310v241h69v-674h-72l-128 324c-28 68 -57 145 -81 229h-2c6 -90 8 -176 8 -320v-233z" />
    <glyph glyph-name="O" unicode="O" horiz-adv-x="446" 
d="M230 682c115 0 184 -125 184 -340c0 -253 -86 -350 -195 -350c-112 0 -187 119 -187 346c0 223 81 344 198 344zM224 614c-85 0 -112 -140 -112 -277c0 -139 27 -277 113 -277s109 147 109 279c0 126 -23 275 -110 275z" />
    <glyph glyph-name="P" unicode="P" horiz-adv-x="399" 
d="M61 0v664c31 8 67 13 111 13c62 0 115 -15 150 -49c32 -32 49 -81 49 -140c0 -62 -15 -104 -41 -138c-36 -50 -99 -75 -159 -75c-13 0 -23 0 -34 1v-276h-76zM137 609v-269c9 -1 18 -2 31 -2c75 0 126 49 126 145c0 69 -28 131 -114 131c-18 0 -33 -2 -43 -5z" />
    <glyph glyph-name="Q" unicode="Q" horiz-adv-x="446" 
d="M430 -29l-29 -62c-51 21 -119 53 -155 73c-11 6 -20 10 -25 10c-111 0 -189 111 -189 346c0 225 81 344 199 344c115 0 183 -126 183 -340c0 -184 -43 -285 -115 -319v-3c45 -20 91 -35 131 -49zM226 60c85 0 108 146 108 279c0 129 -23 275 -109 275
c-87 0 -113 -147 -113 -276c-1 -132 25 -278 114 -278z" />
    <glyph glyph-name="R" unicode="R" horiz-adv-x="409" 
d="M61 0v664c32 9 72 13 110 13c67 0 117 -14 152 -48c33 -34 47 -79 47 -132c0 -86 -40 -142 -108 -174v-2c50 -15 76 -63 90 -151c16 -92 29 -149 39 -170h-78c-10 20 -23 84 -36 166c-15 93 -44 127 -110 127h-30v-293h-76zM137 611v-258h33c73 0 122 54 122 135
c0 78 -32 126 -114 127c-16 0 -31 -1 -41 -4z" />
    <glyph glyph-name="S" unicode="S" horiz-adv-x="361" 
d="M28 23l17 66c22 -15 63 -27 96 -27c71 0 113 46 113 114c0 62 -36 100 -89 140c-54 37 -127 100 -127 187c0 102 71 177 178 177c42 0 78 -13 94 -25l-18 -66c-17 12 -45 23 -80 23c-67 0 -98 -50 -98 -96c0 -67 35 -93 99 -139c81 -57 117 -119 117 -194
c0 -116 -81 -189 -189 -189c-46 0 -94 15 -113 29z" />
    <glyph glyph-name="T" unicode="T" horiz-adv-x="354" 
d="M139 0v605h-123v69h323v-69h-123v-605h-77z" />
    <glyph glyph-name="U" unicode="U" horiz-adv-x="457" 
d="M59 674h77v-452c0 -121 41 -162 91 -162c57 0 94 44 94 162v452h77v-440c0 -175 -72 -242 -172 -242c-101 0 -167 66 -167 233v449z" />
    <glyph glyph-name="V" unicode="V" horiz-adv-x="421" 
d="M249 0h-79l-154 674h83l65 -316c16 -76 36 -173 48 -259h3c10 87 29 181 45 261l64 314h82z" />
    <glyph glyph-name="W" unicode="W" horiz-adv-x="654" 
d="M222 0h-73l-129 674h79l57 -325c15 -85 25 -160 34 -243h3c9 85 24 158 41 244l62 324h65l63 -317c15 -80 30 -157 39 -251h3c11 97 23 170 35 247l56 321h76l-131 -674h-76l-64 328c-14 71 -26 147 -35 221h-2c-9 -76 -21 -149 -37 -224z" />
    <glyph glyph-name="X" unicode="X" horiz-adv-x="392" 
d="M378 0h-80l-61 162c-14 37 -27 72 -42 118h-3l-40 -120l-58 -160h-79l138 344l-134 330h80l61 -156c12 -31 24 -63 39 -107h2c16 47 26 77 37 110l55 153h78l-132 -328z" />
    <glyph glyph-name="Y" unicode="Y" horiz-adv-x="394" 
d="M235 0h-77v285l-149 389h82l60 -169c16 -47 35 -100 50 -152h2c13 52 31 103 49 155l57 166h80l-154 -386v-288z" />
    <glyph glyph-name="Z" unicode="Z" horiz-adv-x="358" 
d="M20 0v46l231 560v2h-212v66h298v-52l-227 -553v-3h226v-66h-316z" />
    <glyph glyph-name="bracketleft" unicode="[" horiz-adv-x="253" 
d="M222 -112h-148v798h148v-53h-86v-692h86v-53z" />
    <glyph glyph-name="backslash" unicode="\" horiz-adv-x="263" 
d="M255 -40h-58l-196 722h58z" />
    <glyph glyph-name="bracketright" unicode="]" horiz-adv-x="253" 
d="M31 686h149v-798h-149v53h86v692h-86v53z" />
    <glyph glyph-name="asciicircum" unicode="^" horiz-adv-x="596" 
d="M532 189h-65l-168 388h-3l-168 -388h-64l206 461h56z" />
    <glyph glyph-name="underscore" unicode="_" horiz-adv-x="500" 
d="M0 -75h500v-50h-500v50z" />
    <glyph glyph-name="grave" unicode="`" 
d="M39 682h79l77 -135h-51z" />
    <glyph glyph-name="a" unicode="a" horiz-adv-x="364" 
d="M309 320v-210c0 -37 1 -79 5 -110h-69l-5 51h-3c-21 -37 -55 -59 -97 -59c-64 0 -114 54 -114 138c0 122 97 175 206 176v15c0 65 -17 109 -77 109c-30 0 -57 -9 -80 -25l-17 54c21 15 65 32 113 32c97 0 138 -63 138 -171zM234 153v98c-40 0 -133 -8 -133 -113
c0 -64 32 -86 59 -86c34 0 62 25 71 73c2 9 3 19 3 28z" />
    <glyph glyph-name="b" unicode="b" horiz-adv-x="399" 
d="M53 116v576h76v-266h2c25 48 61 65 103 65c76 0 132 -86 132 -245c0 -174 -72 -254 -147 -254c-51 0 -77 30 -96 71h-4l-5 -63h-65c1 28 4 83 4 116zM129 306v-136c0 -11 1 -21 3 -30c18 -71 51 -84 73 -84c62 0 84 84 84 187c0 97 -23 182 -86 182
c-36 0 -65 -44 -72 -86c-1 -11 -2 -22 -2 -33z" />
    <glyph glyph-name="c" unicode="c" horiz-adv-x="302" 
d="M279 71l11 -59c-17 -10 -46 -18 -80 -18c-106 0 -177 85 -177 245c0 139 70 252 191 252c26 0 54 -7 68 -15l-15 -63c-10 5 -30 13 -55 13c-78 0 -112 -92 -112 -187c0 -113 43 -181 114 -181c20 0 38 4 55 13z" />
    <glyph glyph-name="d" unicode="d" horiz-adv-x="399" 
d="M269 692h76v-576c0 -33 3 -88 4 -116h-66l-5 60h-3c-16 -34 -50 -68 -102 -68c-81 0 -140 88 -140 248c0 171 71 251 145 251c36 0 70 -16 89 -57h2v258zM269 171v128c0 10 0 22 -1 32c-5 51 -35 94 -72 94c-64 0 -86 -89 -86 -185c0 -102 26 -184 82 -184
c24 0 57 13 74 83c2 9 3 20 3 32z" />
    <glyph glyph-name="e" unicode="e" horiz-adv-x="363" 
d="M332 235h-224c0 -149 59 -180 114 -180c34 0 61 8 80 18l13 -56c-27 -14 -68 -23 -107 -23c-116 0 -176 95 -176 243c0 156 67 254 164 254c98 0 138 -104 138 -212c0 -19 -1 -32 -2 -44zM109 292h151c1 96 -35 139 -72 139c-51 0 -76 -73 -79 -139z" />
    <glyph glyph-name="f" unicode="f" horiz-adv-x="228" 
d="M147 0h-77v426h-61v58h61v29c0 53 8 106 43 146c28 31 67 41 97 41c26 0 46 -5 60 -12l-12 -60c-10 4 -23 8 -43 8c-55 0 -68 -59 -68 -121v-31h88v-58h-88v-426z" />
    <glyph glyph-name="g" unicode="g" horiz-adv-x="399" 
d="M346 333v-271c0 -127 -16 -175 -48 -211c-29 -32 -74 -51 -129 -51c-41 0 -81 10 -106 24l18 60c19 -10 51 -21 90 -21c61 0 99 38 99 148v49h-2c-16 -38 -52 -59 -93 -59c-86 0 -142 97 -142 239c0 178 81 251 153 251c51 0 75 -34 90 -61h2l4 54h68
c-1 -33 -4 -76 -4 -151zM270 177v140c0 12 -1 25 -4 35c-8 33 -26 73 -70 73c-56 0 -86 -75 -86 -182c0 -123 39 -179 86 -179c24 0 54 11 69 69c4 15 5 30 5 44z" />
    <glyph glyph-name="h" unicode="h" horiz-adv-x="405" 
d="M54 0v692h77v-261h2c10 17 25 32 41 43c17 11 37 17 64 17c61 0 113 -48 113 -170v-321h-77v312c0 59 -13 114 -65 114c-36 0 -63 -26 -75 -77c-2 -10 -3 -24 -3 -36v-313h-77z" />
    <glyph glyph-name="i" unicode="i" horiz-adv-x="184" 
d="M131 0h-77v484h77v-484zM91 659c28 0 46 -20 46 -50s-18 -50 -47 -50c-25 0 -44 20 -44 50s20 50 45 50z" />
    <glyph glyph-name="j" unicode="j" horiz-adv-x="188" 
d="M-18 -200l-10 61c22 6 49 14 65 38c17 26 23 62 23 154v431h77v-453c0 -102 -15 -149 -49 -185c-29 -30 -76 -45 -106 -46zM99 659c27 0 45 -20 45 -50s-18 -50 -46 -50c-26 0 -45 20 -45 50s20 50 46 50z" />
    <glyph glyph-name="k" unicode="k" horiz-adv-x="354" 
d="M129 692v-433h2c9 19 17 38 26 54l96 171h83l-128 -204l140 -280h-86l-105 228l-28 -45v-183h-76v692h76z" />
    <glyph glyph-name="l" unicode="l" horiz-adv-x="191" 
d="M54 0v692h77v-692h-77z" />
    <glyph glyph-name="m" unicode="m" horiz-adv-x="620" 
d="M54 0v359c0 57 -3 86 -4 125h67l4 -60h2c21 39 58 67 109 67c45 0 83 -21 101 -74h2c13 24 30 44 48 55c19 13 42 19 67 19c65 0 116 -47 116 -171v-320h-76v303c0 63 -9 124 -68 124c-32 0 -60 -27 -71 -73c-2 -12 -3 -27 -3 -43v-311h-76v317c0 53 -9 110 -67 110
c-32 0 -63 -27 -72 -79c-2 -12 -3 -26 -3 -41v-307h-76z" />
    <glyph glyph-name="n" unicode="n" horiz-adv-x="405" 
d="M54 0v359c0 57 -3 86 -4 125h67l4 -59h2c21 39 60 66 111 66c67 0 117 -49 117 -166v-325h-77v311c0 58 -11 115 -67 115c-32 0 -63 -27 -72 -78c-3 -12 -4 -27 -4 -44v-304h-77z" />
    <glyph glyph-name="o" unicode="o" horiz-adv-x="383" 
d="M195 491c87 0 156 -81 156 -249c0 -187 -86 -250 -161 -250c-87 0 -157 79 -157 249c0 176 79 250 162 250zM192 430c-69 0 -82 -114 -82 -188c0 -80 14 -189 84 -189c66 0 80 113 80 189c0 74 -14 188 -82 188z" />
    <glyph glyph-name="p" unicode="p" horiz-adv-x="399" 
d="M53 -192v525c0 74 -3 117 -4 151h68l4 -62h2c27 51 65 69 103 69c85 0 140 -89 140 -248c0 -180 -74 -251 -150 -251c-46 0 -72 29 -85 56h-2v-240h-76zM129 301v-124c0 -14 1 -28 4 -40c15 -69 50 -81 71 -81c64 0 85 88 85 185c0 100 -24 184 -86 184
c-35 0 -67 -43 -71 -87c-2 -11 -3 -24 -3 -37z" />
    <glyph glyph-name="q" unicode="q" horiz-adv-x="399" 
d="M269 -192v242h-3c-16 -33 -50 -58 -94 -58c-77 0 -139 85 -139 244c0 171 71 255 152 255c30 0 67 -14 90 -63l2 -1l4 57h68c-1 -33 -4 -77 -4 -151v-525h-76zM269 177v126c0 10 -1 22 -2 32c-6 50 -36 90 -71 90c-63 0 -86 -84 -86 -185c0 -102 25 -184 85 -184
c23 0 54 14 70 80c3 13 4 28 4 41z" />
    <glyph glyph-name="r" unicode="r" horiz-adv-x="248" 
d="M53 0v359c0 41 -3 89 -4 125h69l4 -77h2c16 46 57 84 102 84c6 0 11 0 16 -1v-78h-16c-49 0 -85 -45 -93 -100c-2 -13 -3 -28 -3 -44v-268h-77z" />
    <glyph glyph-name="s" unicode="s" horiz-adv-x="289" 
d="M22 22l19 58c17 -11 47 -25 78 -25c43 0 71 27 71 70c0 37 -13 62 -62 95c-63 40 -97 82 -97 137c0 79 58 134 133 134c38 0 66 -13 86 -25l-20 -58c-19 13 -39 22 -65 22c-41 0 -62 -30 -62 -62s12 -50 60 -83c56 -36 100 -80 100 -147c0 -97 -66 -144 -146 -144
c-35 0 -74 11 -95 28z" />
    <glyph glyph-name="t" unicode="t" horiz-adv-x="255" 
d="M71 566l77 31v-113h93v-58h-93v-288c0 -63 22 -80 50 -80c13 0 23 1 31 3l4 -59c-14 -5 -32 -8 -57 -8c-31 0 -58 8 -76 29c-20 22 -29 55 -29 122v281h-59v58h59v82z" />
    <glyph glyph-name="u" unicode="u" horiz-adv-x="398" 
d="M344 484v-352c0 -53 3 -96 4 -132h-67l-6 51h-2c-14 -24 -51 -59 -103 -59c-84 0 -118 66 -118 186v306h77v-295c0 -76 12 -132 65 -132c45 0 65 42 69 64c3 13 4 28 4 44v319h77z" />
    <glyph glyph-name="v" unicode="v" horiz-adv-x="347" 
d="M13 484h80l61 -272c7 -33 15 -76 21 -118h3c5 40 13 81 20 118l60 272h76l-127 -484h-68z" />
    <glyph glyph-name="w" unicode="w" horiz-adv-x="566" 
d="M13 484h80l47 -237c10 -52 20 -104 26 -154h4c7 50 19 106 30 152l56 239h59l53 -232c12 -54 23 -105 31 -159h4c6 51 15 101 26 156l46 235h77l-122 -484h-63l-56 235c-12 47 -19 90 -27 145h-2c-8 -57 -17 -102 -28 -148l-58 -232h-65z" />
    <glyph glyph-name="x" unicode="x" horiz-adv-x="340" 
d="M14 484h83l44 -104c12 -28 22 -56 33 -84h2c10 30 22 58 32 84l43 104h79l-115 -239l114 -245h-83l-46 110c-11 25 -20 50 -32 83h-2c-10 -30 -21 -56 -32 -84l-45 -109h-78l115 243z" />
    <glyph glyph-name="y" unicode="y" horiz-adv-x="346" 
d="M12 484h81l65 -278c8 -38 13 -69 20 -100h2c5 28 13 64 20 99l58 279h76l-79 -311c-30 -121 -64 -238 -120 -312c-34 -43 -70 -65 -87 -73l-29 65c23 13 47 34 69 61c20 26 35 58 43 82c4 11 6 17 6 24c0 6 -1 12 -3 18z" />
    <glyph glyph-name="z" unicode="z" horiz-adv-x="313" 
d="M16 0v47l153 300c12 24 28 50 38 71v2h-172v64h258v-51l-151 -295c-14 -24 -28 -50 -39 -72v-2h189v-64h-276z" />
    <glyph glyph-name="braceleft" unicode="{" horiz-adv-x="253" 
d="M28 263v50c55 0 69 37 69 71c0 29 -3 57 -6 85c-3 29 -6 58 -6 89c0 90 55 128 125 128h12v-52h-14c-42 -5 -59 -30 -59 -75c0 -27 3 -53 6 -78c2 -25 5 -49 5 -74c1 -77 -26 -105 -69 -118v-2c42 -12 70 -39 69 -119c0 -24 -3 -50 -6 -75c-2 -25 -5 -50 -5 -77
c0 -45 14 -71 60 -76h13v-52h-13c-65 0 -124 33 -124 128c0 31 3 60 6 90c3 28 6 57 6 86c0 32 -13 71 -69 71z" />
    <glyph glyph-name="bar" unicode="|" horiz-adv-x="201" 
d="M69 750h63v-1000h-63v1000z" />
    <glyph glyph-name="braceright" unicode="}" horiz-adv-x="253" 
d="M225 313v-50c-55 0 -69 -39 -69 -71c0 -29 3 -58 6 -86c3 -30 6 -59 6 -90c0 -95 -59 -128 -124 -128h-13v52h13c46 5 60 31 60 76c0 27 -3 52 -5 77c-3 25 -6 51 -6 75c-1 80 26 107 69 119v2c-42 13 -70 41 -69 118c0 25 3 49 6 74c2 25 5 51 5 78c0 45 -17 70 -59 75
h-14v52h12c70 0 125 -38 125 -128c0 -31 -3 -60 -6 -89c-3 -28 -6 -56 -6 -85c0 -34 13 -71 69 -71z" />
    <glyph glyph-name="asciitilde" unicode="~" horiz-adv-x="596" 
d="M127 221h-54c-3 87 44 134 110 134c36 0 79 -16 129 -42c51 -27 83 -40 111 -40c35 0 48 34 47 78h53c5 -90 -36 -135 -102 -135c-37 0 -70 9 -129 40c-47 25 -84 43 -115 43c-32 0 -51 -25 -50 -78z" />
    <glyph glyph-name="uni00A0" unicode="&#xa0;" horiz-adv-x="157" 
 />
    <glyph glyph-name="exclamdown" unicode="&#xa1;" horiz-adv-x="204" 
d="M144 -189h-84l10 486h64zM103 496c29 0 48 -22 48 -55c0 -32 -18 -54 -49 -54c-28 0 -49 22 -49 54c0 33 21 55 50 55z" />
    <glyph glyph-name="cent" unicode="&#xa2;" horiz-adv-x="385" 
d="M253 -6h-55v98c-31 6 -60 21 -86 51c-29 35 -50 95 -50 185c0 116 52 210 137 229v94h55v-89c24 -1 50 -7 67 -18l-14 -61c-20 11 -43 18 -69 18c-75 0 -99 -99 -99 -179c0 -105 38 -172 104 -172c30 0 50 6 72 17l10 -57c-18 -12 -43 -18 -72 -20v-96z" />
    <glyph glyph-name="sterling" unicode="&#xa3;" horiz-adv-x="385" 
d="M353 0h-322v49c44 18 95 99 95 174c0 32 -2 57 -6 81h-82v56h74c-6 27 -14 73 -14 116c0 116 71 182 155 182c38 0 63 -10 79 -20l-18 -61c-12 7 -33 16 -61 16c-57 0 -80 -52 -80 -106c0 -53 6 -87 13 -127h105v-56h-97c5 -42 5 -88 -4 -126c-9 -34 -28 -76 -63 -110v-2
h226v-66z" />
    <glyph glyph-name="currency" unicode="&#xa4;" horiz-adv-x="385" 
d="M194 528c33 0 71 -16 94 -41l61 73l40 -41l-73 -73c17 -34 24 -77 24 -117c0 -41 -7 -84 -24 -117l72 -74l-39 -41l-63 73c-24 -26 -63 -41 -95 -41c-33 0 -71 15 -93 41l-61 -73l-40 41l71 72c-17 33 -25 77 -25 117c0 42 9 85 26 119l-73 73l41 41l62 -74
c23 27 61 42 95 42zM192 470c-51 0 -81 -54 -81 -143c0 -83 33 -140 81 -140c51 -1 80 57 80 141c0 81 -28 142 -80 142z" />
    <glyph glyph-name="yen" unicode="&#xa5;" horiz-adv-x="385" 
d="M225 0h-72v187h-125v46h125v74h-125v46h106l-119 297h77l67 -191c14 -38 26 -75 34 -102h2c8 29 19 63 33 103l70 190h73l-127 -297h108v-46h-127v-74h127v-46h-127v-187z" />
    <glyph glyph-name="brokenbar" unicode="&#xa6;" horiz-adv-x="201" 
d="M69 174h63v-350h-63v350zM69 674h63v-350h-63v350z" />
    <glyph glyph-name="section" unicode="&#xa7;" horiz-adv-x="401" 
d="M91 352c0 -34 27 -61 80 -86c34 -16 73 -35 100 -56c26 16 39 47 39 79c0 40 -28 70 -69 90c-33 15 -73 32 -104 53c-32 -20 -46 -47 -46 -80zM328 656l-18 -52c-23 15 -52 24 -88 24c-43 0 -90 -20 -90 -73c0 -54 46 -73 99 -96c74 -31 139 -68 139 -158
c0 -52 -21 -89 -60 -121c13 -14 34 -45 34 -85c0 -98 -76 -145 -164 -145c-50 0 -100 14 -126 34l19 54c20 -14 60 -34 110 -34c49 0 94 24 94 79c0 45 -29 71 -106 107c-81 38 -140 75 -140 155c0 39 18 79 69 118c-18 16 -34 45 -35 81c0 89 77 138 161 138
c42 0 77 -10 102 -26z" />
    <glyph glyph-name="dieresis" unicode="&#xa8;" 
d="M72 566c-24 0 -44 19 -44 44c0 26 20 45 45 45c23 0 42 -19 42 -45c0 -25 -18 -44 -43 -44zM228 566c-24 0 -44 19 -44 44c0 26 20 45 45 45c23 0 42 -19 42 -45c0 -25 -18 -44 -43 -44z" />
    <glyph glyph-name="copyright" unicode="&#xa9;" horiz-adv-x="677" 
d="M341 648c170 0 303 -138 303 -308c0 -172 -133 -310 -304 -310c-172 0 -307 138 -307 310c0 170 135 308 308 308zM339 607c-145 0 -256 -118 -256 -270c0 -149 111 -266 257 -266c142 -1 254 117 254 269c0 149 -112 267 -255 267zM474 495l-12 -40c-14 7 -49 22 -97 22
c-93 0 -140 -60 -140 -140c0 -79 49 -141 140 -141c40 0 77 11 100 23l12 -37c-35 -21 -78 -29 -122 -29c-114 0 -182 81 -182 181c0 114 87 186 193 186c50 0 94 -15 108 -25z" />
    <glyph glyph-name="ordfeminine" unicode="&#xaa;" horiz-adv-x="273" 
d="M243 263h-49l-4 35h-2c-16 -26 -44 -40 -76 -40c-45 0 -84 35 -84 93c0 80 72 116 157 116v11c0 36 -18 63 -60 63c-24 0 -46 -8 -64 -21l-13 41c22 16 52 27 87 27c70 0 104 -45 104 -120v-131c0 -24 0 -52 4 -74zM186 356v69c-28 0 -104 -5 -104 -68
c0 -36 25 -53 47 -53c19 0 37 10 49 30c4 6 8 14 8 22z" />
    <glyph glyph-name="guillemotleft" unicode="&#xab;" horiz-adv-x="354" 
d="M190 427l-103 -175l103 -174h-63l-102 174l103 175h62zM333 427l-104 -175l104 -174h-63l-102 174l103 175h62z" />
    <glyph glyph-name="logicalnot" unicode="&#xac;" horiz-adv-x="596" 
d="M40 398h516v-279h-56v224h-460v55z" />
    <glyph glyph-name="uni00AD" unicode="&#xad;" horiz-adv-x="291" 
d="M30 291h219v-59h-219v59z" />
    <glyph glyph-name="registered" unicode="&#xae;" horiz-adv-x="372" 
d="M161 508v-62h-33v156c13 2 32 5 56 5c28 0 41 -5 52 -13c9 -6 16 -18 16 -33c0 -18 -15 -31 -33 -37v-2c16 -5 23 -17 28 -38c5 -23 8 -33 12 -38h-36c-5 6 -8 19 -12 38c-3 16 -13 24 -33 24h-17zM162 578v-44h17c20 0 36 6 36 22c0 15 -9 24 -33 24c-9 0 -16 -1 -20 -2
zM187 683c87 0 156 -69 156 -156s-69 -157 -157 -157c-87 0 -157 70 -157 157s70 156 158 156zM185 651c-67 0 -118 -56 -118 -124c0 -69 51 -124 120 -124c67 -1 118 55 118 123c0 69 -51 125 -120 125z" />
    <glyph glyph-name="macron" unicode="&#xaf;" 
d="M52 631h197v-51h-197v51z" />
    <glyph glyph-name="degree" unicode="&#xb0;" horiz-adv-x="280" 
d="M152 685c69 0 121 -58 121 -128c0 -76 -60 -129 -123 -129c-69 0 -122 55 -122 127c-1 73 56 130 124 130zM149 644c-41 0 -74 -40 -74 -89c0 -48 33 -86 76 -86c42 0 75 38 75 87c0 47 -30 88 -77 88z" />
    <glyph glyph-name="plusminus" unicode="&#xb1;" horiz-adv-x="596" 
d="M270 567h57v-194h230v-55h-230v-201h-57v201h-229v55h229v194zM41 55h516v-55h-516v55z" />
    <glyph glyph-name="twosuperior" unicode="&#xb2;" horiz-adv-x="245" 
d="M2 417v29l41 50c50 62 111 135 111 199c0 45 -25 65 -60 65c-28 0 -52 -15 -66 -27l-17 44c18 17 54 35 99 35c75 0 108 -50 108 -107c0 -72 -58 -144 -103 -197l-30 -37v-2h139v-52h-222z" />
    <glyph glyph-name="threesuperior" unicode="&#xb3;" horiz-adv-x="235" 
d="M30 743l-13 43c18 13 50 26 87 26c67 0 101 -41 101 -91c0 -40 -23 -73 -63 -89v-2c36 -8 75 -43 76 -98c0 -68 -51 -120 -135 -120c-32 0 -62 9 -82 22l13 46c13 -8 38 -20 70 -20c40 0 71 25 71 70c0 51 -33 76 -88 76h-8v42h6c29 0 80 20 80 64c0 34 -21 52 -52 52
c-28 0 -48 -10 -63 -21z" />
    <glyph glyph-name="acute" unicode="&#xb4;" 
d="M188 682h79l-105 -135h-51z" />
    <glyph glyph-name="mu" unicode="&#xb5;" horiz-adv-x="399" 
d="M281 50h-2c-11 -21 -44 -53 -85 -53c-27 0 -51 8 -67 36v-71c0 -60 3 -121 9 -154h-70c-8 24 -13 73 -13 146v530h77v-319c0 -57 13 -108 64 -108c46 0 66 42 70 63c3 13 4 29 4 45v319h77v-380c0 -35 6 -55 31 -54l-8 -55c-7 -2 -15 -3 -26 -3c-29 0 -52 15 -61 58z" />
    <glyph glyph-name="paragraph" unicode="&#xb6;" horiz-adv-x="401" 
d="M233 -50h-50v324h-6c-51 0 -139 53 -147 179c-6 115 62 221 223 221c33 0 59 -2 89 -6v-718h-50v674h-59v-674z" />
    <glyph glyph-name="periodcentered" unicode="&#xb7;" horiz-adv-x="194" 
d="M96 202c-27 0 -50 22 -50 57c0 33 23 57 51 57c30 0 51 -22 51 -57s-20 -57 -52 -57z" />
    <glyph glyph-name="cedilla" unicode="&#xb8;" 
d="M144 5h48l-29 -55c34 -5 66 -33 66 -71c0 -57 -47 -79 -91 -79c-25 0 -49 8 -67 18l16 42c16 -10 31 -15 50 -15s36 7 36 30c0 27 -30 40 -69 44z" />
    <glyph glyph-name="onesuperior" unicode="&#xb9;" horiz-adv-x="212" 
d="M157 417h-60v333h-2l-73 -39l-11 48l94 48h52v-390z" />
    <glyph glyph-name="ordmasculine" unicode="&#xba;" horiz-adv-x="302" 
d="M154 588c71 0 113 -55 113 -164c0 -123 -60 -166 -116 -166c-66 0 -117 54 -117 165s57 165 120 165zM149 543c-43 0 -57 -71 -57 -120c0 -54 16 -120 58 -120c50 0 59 69 59 120s-10 120 -60 120z" />
    <glyph glyph-name="guillemotright" unicode="&#xbb;" horiz-adv-x="354" 
d="M125 252l-104 175h62l103 -175l-101 -174h-64zM267 252l-103 175h62l103 -175l-102 -174h-63z" />
    <glyph glyph-name="onequarter" unicode="&#xbc;" horiz-adv-x="613" 
d="M177 263h-60v333h-2l-73 -39l-11 48l94 48h52v-390zM156 -8h-49l340 666h49zM536 0h-56v107h-147v35l144 251h59v-240h46v-46h-46v-107zM480 153v100c0 31 2 56 4 73h-2c-13 -26 -21 -43 -34 -69l-54 -102v-2h86z" />
    <glyph glyph-name="onehalf" unicode="&#xbd;" horiz-adv-x="613" 
d="M161 263h-60v333h-2l-73 -39l-11 48l94 48h52v-390zM132 -8h-49l340 666h48zM355 0v29l41 50c50 62 111 135 111 199c0 45 -25 65 -60 65c-28 0 -52 -15 -66 -27l-17 44c18 17 54 35 99 35c75 0 108 -50 108 -107c0 -72 -58 -144 -103 -197l-31 -37v-2h140v-52h-222z" />
    <glyph glyph-name="threequarters" unicode="&#xbe;" horiz-adv-x="613" 
d="M58 589l-13 43c18 12 50 26 87 26c67 0 101 -41 101 -91c0 -40 -23 -73 -64 -89v-2c36 -8 76 -43 76 -98c0 -68 -50 -120 -135 -120c-32 0 -61 9 -82 22l13 46c13 -8 39 -20 70 -20c40 0 71 25 71 70c0 51 -33 76 -88 76h-8v42h7c29 0 80 19 80 64c0 34 -21 52 -52 52
c-28 0 -48 -10 -63 -21zM173 -8h-49l340 666h49zM539 0h-56v107h-147v35l144 251h59v-240h46v-46h-46v-107zM483 153v100c0 31 2 56 4 73h-2c-13 -26 -21 -43 -35 -69l-55 -102v-2h88z" />
    <glyph glyph-name="questiondown" unicode="&#xbf;" horiz-adv-x="309" 
d="M175 496h2c28 0 49 -22 49 -56c0 -32 -20 -56 -50 -56c-31 0 -51 24 -51 56c0 34 21 56 50 56zM137 302h67l2 -15c10 -60 -1 -123 -42 -190c-33 -57 -58 -95 -58 -149c0 -57 33 -81 77 -81c25 0 50 8 66 18l16 -59c-16 -11 -56 -26 -99 -26c-100 0 -139 67 -139 138
c0 73 42 129 75 184c31 54 43 96 36 163z" />
    <glyph glyph-name="Agrave" unicode="&#xc0;" horiz-adv-x="435" 
d="M291 202h-150l-44 -202h-75l154 674h85l150 -674h-76zM152 264h128l-35 171c-10 48 -19 104 -27 154h-3c-8 -51 -18 -109 -28 -154zM87 818h91l94 -108h-61z" />
    <glyph glyph-name="Aacute" unicode="&#xc1;" horiz-adv-x="435" 
d="M291 202h-150l-44 -202h-75l154 674h85l150 -674h-76zM152 264h128l-35 171c-10 48 -19 104 -27 154h-3c-8 -51 -18 -109 -28 -154zM263 818h91l-124 -108h-61z" />
    <glyph glyph-name="Acircumflex" unicode="&#xc2;" horiz-adv-x="435" 
d="M291 202h-150l-44 -202h-75l154 674h85l150 -674h-76zM152 264h128l-35 171c-10 48 -19 104 -27 154h-3c-8 -51 -18 -109 -28 -154zM186 808h66l87 -98h-67l-52 55h-2l-52 -55h-66z" />
    <glyph glyph-name="Atilde" unicode="&#xc3;" horiz-adv-x="435" 
d="M290 202h-149l-44 -202h-75l154 674h85l149 -674h-75zM152 264h128l-35 171c-10 48 -19 104 -27 154h-3c-8 -51 -18 -109 -28 -154zM155 718h-41c-1 56 21 94 59 94c20 0 34 -9 48 -17c14 -9 26 -18 39 -18c17 0 24 9 27 37h40c1 -57 -18 -90 -62 -90c-19 0 -36 8 -49 17
c-14 8 -25 16 -37 16c-15 0 -21 -13 -24 -39z" />
    <glyph glyph-name="Adieresis" unicode="&#xc4;" horiz-adv-x="435" 
d="M291 202h-150l-44 -202h-75l154 674h85l150 -674h-76zM152 264h128l-35 171c-10 48 -19 104 -27 154h-3c-8 -51 -18 -109 -28 -154zM139 718c-24 0 -42 19 -42 47c0 26 19 46 43 46c26 0 43 -20 43 -46c0 -28 -17 -47 -44 -47zM300 718c-24 0 -42 19 -42 47
c0 26 19 46 43 46c26 0 43 -20 43 -46c0 -28 -17 -47 -44 -47z" />
    <glyph glyph-name="Aring" unicode="&#xc5;" horiz-adv-x="435" 
d="M291 202h-150l-44 -202h-75l154 674h85l150 -674h-76zM152 264h128l-35 171c-10 48 -19 104 -27 154h-3c-8 -51 -18 -109 -28 -154zM222 871c58 0 92 -40 92 -88c0 -47 -37 -87 -93 -87c-59 0 -94 40 -94 86c0 47 36 89 95 89zM219 835c-29 0 -44 -26 -44 -53
c0 -24 17 -49 45 -49c29 0 46 23 46 51c0 27 -17 51 -47 51z" />
    <glyph glyph-name="AE" unicode="&#xc6;" horiz-adv-x="556" 
d="M84 0h-76l203 674h304v-67h-186l13 -226h171v-65h-165l14 -249h179l-1 -67h-247l-13 222h-134zM162 284h112l-9 205c-2 43 -4 90 -6 131h-5c-12 -45 -27 -100 -39 -143z" />
    <glyph glyph-name="Ccedilla" unicode="&#xc7;" horiz-adv-x="396" 
d="M342 77l12 -65c-18 -9 -49 -16 -82 -17l-22 -44c33 -5 65 -33 65 -71c0 -57 -47 -79 -91 -79c-25 0 -49 8 -67 18l16 42c16 -10 31 -15 50 -15c18 0 36 7 36 31c0 27 -32 39 -68 43l35 77c-113 16 -194 118 -194 332c0 266 132 351 238 351c41 0 70 -8 84 -17l-17 -65
c-16 7 -33 14 -68 14c-71 0 -156 -70 -156 -275c0 -207 76 -274 158 -274c28 0 55 7 71 14z" />
    <glyph glyph-name="Egrave" unicode="&#xc8;" horiz-adv-x="354" 
d="M306 385v-65h-169v-253h192v-67h-269v674h257v-67h-180v-222h169zM56 818h91l94 -108h-61z" />
    <glyph glyph-name="Eacute" unicode="&#xc9;" horiz-adv-x="354" 
d="M306 385v-65h-169v-253h192v-67h-269v674h257v-67h-180v-222h169zM246 818h91l-124 -108h-61z" />
    <glyph glyph-name="Ecircumflex" unicode="&#xca;" horiz-adv-x="354" 
d="M306 385v-65h-169v-253h192v-67h-269v674h257v-67h-180v-222h169zM156 808h66l87 -98h-67l-52 55h-2l-52 -55h-66z" />
    <glyph glyph-name="Edieresis" unicode="&#xcb;" horiz-adv-x="354" 
d="M306 385v-65h-169v-253h193v-67h-270v674h257v-67h-180v-222h169zM108 725c-24 0 -42 19 -42 47c0 26 19 46 43 46c26 0 43 -20 43 -46c0 -28 -17 -47 -44 -47zM270 725c-24 0 -42 19 -42 47c0 26 19 46 43 46c26 0 43 -20 43 -46c0 -28 -17 -47 -44 -47z" />
    <glyph glyph-name="Igrave" unicode="&#xcc;" horiz-adv-x="199" 
d="M60 674h77v-674h-77v674zM-41 818h91l94 -108h-61z" />
    <glyph glyph-name="Iacute" unicode="&#xcd;" horiz-adv-x="199" 
d="M60 674h77v-674h-77v674zM141 818h91l-124 -108h-61z" />
    <glyph glyph-name="Icircumflex" unicode="&#xce;" horiz-adv-x="199" 
d="M60 674h77v-674h-77v674zM67 808h66l87 -98h-67l-52 55h-2l-52 -55h-66z" />
    <glyph glyph-name="Idieresis" unicode="&#xcf;" horiz-adv-x="199" 
d="M60 674h77v-674h-77v674zM18 725c-24 0 -42 19 -42 47c0 26 19 46 43 46c26 0 43 -20 43 -46c0 -28 -17 -47 -44 -47zM180 725c-24 0 -42 19 -42 47c0 26 19 46 43 46c26 0 43 -20 43 -46c0 -28 -17 -47 -44 -47z" />
    <glyph glyph-name="Eth" unicode="&#xd0;" horiz-adv-x="453" 
d="M0 323v58h69v283c29 9 65 13 103 13c71 0 121 -18 158 -51c52 -45 91 -132 91 -274c0 -155 -38 -239 -81 -286c-44 -49 -108 -72 -186 -72c-31 0 -63 2 -85 6v323h-69zM247 381v-58h-102v-263c11 -2 22 -2 29 -2c85 0 167 62 167 294c0 169 -52 262 -160 262
c-13 0 -26 -2 -36 -4v-229h102z" />
    <glyph glyph-name="Ntilde" unicode="&#xd1;" horiz-adv-x="465" 
d="M130 0h-69v674h72l124 -316c28 -73 63 -162 86 -235h2c-6 106 -9 193 -9 310v241h69v-674h-72l-128 324c-28 68 -57 145 -81 229h-2c6 -90 8 -176 8 -320v-233zM170 718h-41c-1 56 21 94 59 94c20 0 34 -9 48 -17c15 -9 26 -18 40 -18c16 0 23 9 26 37h40
c1 -57 -18 -90 -62 -90c-19 0 -36 8 -49 17c-14 8 -25 16 -37 16c-15 0 -21 -13 -24 -39z" />
    <glyph glyph-name="Ograve" unicode="&#xd2;" horiz-adv-x="446" 
d="M230 682c115 0 184 -125 184 -340c0 -253 -86 -350 -195 -350c-112 0 -187 119 -187 346c0 223 81 344 198 344zM224 614c-85 0 -112 -140 -112 -277c0 -139 27 -277 113 -277s109 147 109 279c0 126 -23 275 -110 275zM86 818h91l94 -108h-61z" />
    <glyph glyph-name="Oacute" unicode="&#xd3;" horiz-adv-x="446" 
d="M230 682c115 0 184 -125 184 -340c0 -253 -86 -350 -195 -350c-112 0 -187 119 -187 346c0 223 81 344 198 344zM224 614c-85 0 -112 -140 -112 -277c0 -139 27 -277 113 -277s109 147 109 279c0 126 -23 275 -110 275zM269 818h91l-124 -108h-61z" />
    <glyph glyph-name="Ocircumflex" unicode="&#xd4;" horiz-adv-x="446" 
d="M230 682c115 0 184 -125 184 -340c0 -253 -86 -350 -195 -350c-112 0 -187 119 -187 346c0 223 81 344 198 344zM224 614c-85 0 -112 -140 -112 -277c0 -139 27 -277 113 -277s109 147 109 279c0 126 -23 275 -110 275zM191 808h66l87 -98h-67l-52 55h-2l-52 -55h-66z
" />
    <glyph glyph-name="Otilde" unicode="&#xd5;" horiz-adv-x="446" 
d="M230 682c115 0 184 -125 184 -340c0 -253 -86 -350 -195 -350c-112 0 -187 119 -187 346c0 223 81 344 198 344zM224 614c-85 0 -112 -140 -112 -277c0 -139 27 -277 113 -277s109 147 109 279c0 126 -23 275 -110 275zM157 716h-41c-1 56 21 94 59 94c20 0 34 -9 48 -17
c15 -9 26 -18 40 -18c16 0 23 9 26 37h40c1 -57 -18 -90 -62 -90c-19 0 -36 8 -50 17c-13 8 -24 16 -36 16c-15 0 -21 -13 -24 -39z" />
    <glyph glyph-name="Odieresis" unicode="&#xd6;" horiz-adv-x="446" 
d="M230 682c115 0 184 -125 184 -340c0 -253 -86 -350 -195 -350c-112 0 -187 119 -187 346c0 223 81 344 198 344zM224 614c-85 0 -112 -140 -112 -277c0 -139 27 -277 113 -277s109 147 109 279c0 126 -23 275 -110 275zM141 725c-24 0 -42 19 -42 47c0 26 19 46 43 46
c26 0 43 -20 43 -46c0 -28 -17 -47 -44 -47zM302 725c-24 0 -42 19 -42 47c0 26 19 46 43 46c26 0 43 -20 43 -46c0 -28 -17 -47 -44 -47z" />
    <glyph glyph-name="multiply" unicode="&#xd7;" horiz-adv-x="596" 
d="M40 486l37 40l220 -225l222 225l37 -40l-220 -224l219 -221l-38 -41l-219 224l-220 -224l-38 41l219 222z" />
    <glyph glyph-name="Oslash" unicode="&#xd8;" horiz-adv-x="446" 
d="M86 -37l-42 23l42 95c-36 59 -54 146 -54 257c0 224 81 344 192 344c35 0 70 -11 101 -41l30 70l46 -20l-40 -91c36 -61 53 -151 53 -257c0 -252 -87 -351 -191 -351c-35 0 -73 12 -103 45zM129 172l164 398c-17 26 -42 44 -69 44c-86 0 -115 -140 -115 -276
c0 -50 2 -110 18 -166h2zM317 507l-168 -397c19 -35 45 -50 75 -50c86 0 113 142 113 279c0 51 -2 110 -18 168h-2z" />
    <glyph glyph-name="Ugrave" unicode="&#xd9;" horiz-adv-x="457" 
d="M59 674h77v-452c0 -121 41 -162 91 -162c57 0 94 44 94 162v452h77v-440c0 -175 -72 -242 -172 -242c-101 0 -167 66 -167 233v449zM86 818h91l94 -108h-61z" />
    <glyph glyph-name="Uacute" unicode="&#xda;" horiz-adv-x="457" 
d="M59 674h77v-452c0 -121 41 -162 91 -162c57 0 94 44 94 162v452h77v-440c0 -175 -72 -242 -172 -242c-101 0 -167 66 -167 233v449zM277 818h91l-124 -108h-61z" />
    <glyph glyph-name="Ucircumflex" unicode="&#xdb;" horiz-adv-x="457" 
d="M59 674h77v-452c0 -121 41 -162 91 -162c57 0 94 44 94 162v452h77v-440c0 -175 -72 -242 -172 -242c-101 0 -167 66 -167 233v449zM196 808h66l87 -98h-67l-52 55h-2l-52 -55h-66z" />
    <glyph glyph-name="Udieresis" unicode="&#xdc;" horiz-adv-x="457" 
d="M59 674h77v-452c0 -121 41 -162 91 -162c57 0 94 44 94 162v452h77v-440c0 -175 -72 -242 -172 -242c-101 0 -167 66 -167 233v449zM146 725c-24 0 -42 19 -42 47c0 26 19 46 43 46c26 0 43 -20 43 -46c0 -28 -17 -47 -44 -47zM308 725c-24 0 -42 19 -42 47
c0 26 19 46 43 46c26 0 43 -20 43 -46c0 -28 -17 -47 -44 -47z" />
    <glyph glyph-name="Yacute" unicode="&#xdd;" horiz-adv-x="394" 
d="M235 0h-77v285l-149 389h82l60 -169c16 -47 35 -100 50 -152h2c13 52 31 103 49 155l57 166h80l-154 -386v-288zM252 818h91l-124 -108h-61z" />
    <glyph glyph-name="Thorn" unicode="&#xde;" horiz-adv-x="396" 
d="M61 0v674h75v-133c13 2 30 3 51 3c56 0 101 -15 134 -48c34 -33 49 -81 49 -133c0 -138 -93 -202 -196 -202c-12 0 -27 2 -38 4v-165h-75zM136 478v-249c9 -3 22 -4 35 -4c75 0 122 49 122 132c0 68 -27 124 -116 124c-16 0 -30 -1 -41 -3z" />
    <glyph glyph-name="germandbls" unicode="&#xdf;" horiz-adv-x="430" 
d="M131 0h-77v450c0 104 23 167 63 206c30 28 70 44 117 44c75 0 147 -49 147 -156c0 -31 -12 -64 -24 -82c-40 -16 -66 -45 -66 -81c0 -35 19 -59 45 -89c42 -48 67 -90 67 -150c0 -98 -74 -150 -156 -150c-34 0 -63 8 -79 15l13 60c17 -9 41 -13 65 -13c52 0 83 36 83 80
c0 45 -24 76 -52 109c-31 36 -59 70 -59 126c0 54 33 98 80 120c8 17 9 35 9 48c0 80 -49 99 -81 99c-54 0 -95 -44 -95 -191v-445z" />
    <glyph glyph-name="agrave" unicode="&#xe0;" horiz-adv-x="364" 
d="M309 320v-210c0 -37 1 -79 5 -110h-69l-5 51h-3c-21 -37 -55 -59 -97 -59c-64 0 -114 54 -114 138c0 122 97 175 206 176v15c0 65 -17 109 -77 109c-30 0 -57 -9 -80 -25l-17 54c21 15 65 32 113 32c97 0 138 -63 138 -171zM234 153v98c-40 0 -133 -8 -133 -113
c0 -64 32 -86 59 -86c34 0 62 25 71 73c2 9 3 19 3 28zM58 682h79l77 -135h-51z" />
    <glyph glyph-name="aacute" unicode="&#xe1;" horiz-adv-x="364" 
d="M309 320v-210c0 -37 1 -79 5 -110h-69l-5 51h-3c-21 -37 -55 -59 -97 -59c-64 0 -114 54 -114 138c0 122 97 175 206 176v15c0 65 -17 109 -77 109c-30 0 -57 -9 -80 -25l-17 54c21 15 65 32 113 32c97 0 138 -63 138 -171zM234 153v98c-40 0 -133 -8 -133 -113
c0 -64 32 -86 59 -86c34 0 62 25 71 73c2 9 3 19 3 28zM218 682h79l-105 -135h-51z" />
    <glyph glyph-name="acircumflex" unicode="&#xe2;" horiz-adv-x="364" 
d="M309 320v-210c0 -37 1 -79 5 -110h-69l-5 51h-3c-21 -37 -55 -59 -97 -59c-64 0 -114 54 -114 138c0 122 97 175 206 176v15c0 65 -17 109 -77 109c-30 0 -57 -9 -80 -25l-17 54c21 15 65 32 113 32c97 0 138 -63 138 -171zM234 153v98c-40 0 -133 -8 -133 -113
c0 -64 32 -86 59 -86c34 0 62 25 71 73c2 9 3 19 3 28zM153 682h52l79 -135h-58l-46 87h-2l-46 -87h-58z" />
    <glyph glyph-name="atilde" unicode="&#xe3;" horiz-adv-x="364" 
d="M309 320v-210c0 -37 1 -79 5 -110h-69l-5 51h-3c-21 -37 -55 -59 -97 -59c-64 0 -114 54 -114 138c0 122 97 175 206 176v15c0 65 -17 109 -77 109c-30 0 -57 -9 -80 -25l-17 54c21 15 65 32 113 32c97 0 138 -63 138 -171zM234 153v98c-40 0 -133 -8 -133 -113
c0 -64 32 -86 59 -86c34 0 62 25 71 73c2 9 3 19 3 28zM116 561h-43c-1 53 21 94 62 94c20 0 35 -9 49 -18c15 -8 26 -17 40 -17c15 0 24 7 25 36h41c0 -55 -20 -89 -63 -89c-18 0 -35 9 -49 17s-25 17 -38 17c-15 0 -22 -14 -24 -40z" />
    <glyph glyph-name="adieresis" unicode="&#xe4;" horiz-adv-x="364" 
d="M309 320v-210c0 -37 1 -79 5 -110h-69l-5 51h-3c-21 -37 -55 -59 -97 -59c-64 0 -114 54 -114 138c0 122 97 175 206 176v15c0 65 -17 109 -77 109c-30 0 -57 -9 -80 -25l-17 54c21 15 65 32 113 32c97 0 138 -63 138 -171zM234 153v98c-40 0 -133 -8 -133 -113
c0 -64 32 -86 59 -86c34 0 62 25 71 73c2 9 3 19 3 28zM104 566c-24 0 -44 19 -44 44c0 26 20 45 45 45c23 0 42 -19 42 -45c0 -25 -18 -44 -43 -44zM260 566c-24 0 -44 19 -44 44c0 26 20 45 45 45c23 0 42 -19 42 -45c0 -25 -18 -44 -43 -44z" />
    <glyph glyph-name="aring" unicode="&#xe5;" horiz-adv-x="364" 
d="M309 320v-210c0 -37 1 -79 5 -110h-69l-5 51h-3c-21 -37 -55 -59 -97 -59c-64 0 -114 54 -114 138c0 122 97 175 206 176v15c0 65 -17 109 -77 109c-30 0 -57 -9 -80 -25l-17 54c21 15 65 32 113 32c97 0 138 -63 138 -171zM234 153v98c-39 0 -133 -8 -133 -113
c0 -64 32 -86 60 -86c33 0 62 25 70 73c2 9 3 19 3 28zM181 533c-57 0 -94 38 -94 85c0 49 35 89 95 89c55 0 91 -38 91 -88c0 -48 -39 -86 -92 -86zM180 568c31 0 48 24 48 52c0 27 -16 52 -49 52c-30 0 -45 -27 -45 -54c0 -23 16 -50 46 -50z" />
    <glyph glyph-name="ae" unicode="&#xe6;" horiz-adv-x="561" 
d="M531 241h-225c0 -149 51 -188 114 -188c34 0 61 9 82 21l14 -55c-35 -22 -76 -27 -112 -27c-57 0 -114 32 -133 93h-2c-21 -57 -65 -93 -124 -93c-68 0 -119 55 -119 140c0 117 96 170 207 170v27c0 57 -24 101 -81 101c-29 0 -58 -11 -78 -25l-17 53c25 18 68 33 111 33
c50 0 97 -26 111 -87h2c22 55 67 87 118 87c94 0 133 -105 133 -212c0 -13 -1 -25 -1 -38zM234 154v95c-41 0 -136 -9 -136 -112c0 -60 32 -84 63 -84c32 0 61 26 70 73c2 9 3 19 3 28zM308 296h150c3 92 -33 136 -69 136c-52 0 -79 -69 -81 -136z" />
    <glyph glyph-name="ccedilla" unicode="&#xe7;" horiz-adv-x="301" 
d="M280 72l12 -59c-18 -10 -47 -18 -77 -19l-23 -44c34 -5 66 -33 66 -71c0 -57 -47 -79 -91 -79c-25 0 -49 8 -67 18l16 42c16 -10 31 -15 50 -15s36 7 36 31c0 27 -29 39 -69 43l36 80c-82 19 -136 100 -136 240c0 139 70 252 191 252c26 0 54 -7 68 -15l-15 -63
c-10 5 -29 13 -55 13c-78 0 -112 -92 -112 -187c0 -113 43 -181 114 -181c20 0 41 5 56 14z" />
    <glyph glyph-name="egrave" unicode="&#xe8;" horiz-adv-x="363" 
d="M332 235h-224c0 -149 59 -180 114 -180c34 0 61 8 80 18l13 -56c-27 -14 -68 -23 -107 -23c-116 0 -176 95 -176 243c0 156 67 254 164 254c98 0 138 -104 138 -212c0 -19 -1 -32 -2 -44zM109 292h151c1 96 -35 139 -72 139c-51 0 -76 -73 -79 -139zM74 682h79l77 -135
h-51z" />
    <glyph glyph-name="eacute" unicode="&#xe9;" horiz-adv-x="363" 
d="M332 235h-224c0 -149 59 -180 114 -180c34 0 61 8 80 18l13 -56c-27 -14 -68 -23 -107 -23c-116 0 -176 95 -176 243c0 156 67 254 164 254c98 0 138 -104 138 -212c0 -19 -1 -32 -2 -44zM109 292h151c1 96 -35 139 -72 139c-51 0 -76 -73 -79 -139zM235 682h79
l-105 -135h-51z" />
    <glyph glyph-name="ecircumflex" unicode="&#xea;" horiz-adv-x="363" 
d="M332 235h-224c0 -149 59 -180 114 -180c34 0 61 8 80 18l13 -56c-27 -14 -68 -23 -107 -23c-116 0 -176 95 -176 243c0 156 67 254 164 254c98 0 138 -104 138 -212c0 -19 -1 -32 -2 -44zM109 292h151c1 96 -35 139 -72 139c-51 0 -76 -73 -79 -139zM168 682h52l79 -135
h-58l-46 87h-2l-46 -87h-58z" />
    <glyph glyph-name="edieresis" unicode="&#xeb;" horiz-adv-x="363" 
d="M332 235h-224c0 -149 59 -180 114 -180c34 0 61 8 80 18l13 -56c-27 -14 -68 -23 -107 -23c-116 0 -176 95 -176 243c0 156 67 254 164 254c98 0 138 -104 138 -212c0 -19 -1 -32 -2 -44zM109 292h151c1 96 -35 139 -72 139c-51 0 -76 -73 -79 -139zM119 566
c-24 0 -44 19 -44 44c0 26 20 45 45 45c23 0 42 -19 42 -45c0 -25 -18 -44 -43 -44zM275 566c-24 0 -44 19 -44 44c0 26 20 45 45 45c23 0 42 -19 42 -45c0 -25 -18 -44 -43 -44z" />
    <glyph glyph-name="igrave" unicode="&#xec;" horiz-adv-x="184" 
d="M131 0h-77v484h77v-484zM-28 682h79l77 -135h-51z" />
    <glyph glyph-name="iacute" unicode="&#xed;" horiz-adv-x="184" 
d="M131 0h-77v484h77v-484zM131 682h78l-105 -135h-51z" />
    <glyph glyph-name="icircumflex" unicode="&#xee;" horiz-adv-x="184" 
d="M131 0h-77v484h77v-484zM67 682h52l79 -135h-58l-46 87h-2l-46 -87h-58z" />
    <glyph glyph-name="idieresis" unicode="&#xef;" horiz-adv-x="184" 
d="M131 0h-77v484h77v-484zM15 566c-24 0 -44 19 -44 44c0 26 20 45 45 45c23 0 42 -19 42 -45c0 -25 -18 -44 -43 -44zM170 566c-24 0 -44 19 -44 44c0 26 20 45 45 45c23 0 42 -19 42 -45c0 -25 -18 -44 -43 -44z" />
    <glyph glyph-name="eth" unicode="&#xf0;" horiz-adv-x="381" 
d="M192 53c66 0 79 111 79 184c0 53 -1 106 -15 146c-8 26 -27 48 -64 48c-71 0 -82 -120 -82 -188c0 -80 14 -190 82 -190zM79 508l-20 33l84 48c-20 24 -46 48 -71 73l45 41c28 -26 59 -54 84 -82l91 51l20 -34l-83 -48c35 -42 61 -86 79 -125c26 -56 40 -125 40 -218
c1 -190 -86 -255 -160 -255c-87 0 -155 80 -155 249c0 165 72 240 143 245c19 1 37 -2 54 -14l2 2c-15 32 -37 61 -59 86z" />
    <glyph glyph-name="ntilde" unicode="&#xf1;" horiz-adv-x="405" 
d="M54 0v359c0 57 -3 86 -4 125h67l4 -59h2c21 39 60 66 111 66c67 0 117 -49 117 -166v-325h-77v311c0 58 -11 115 -67 115c-32 0 -63 -27 -72 -78c-3 -12 -4 -27 -4 -44v-304h-77zM138 561h-43c-1 53 21 94 62 94c20 0 35 -9 50 -18c14 -8 25 -17 39 -17c15 0 24 7 25 36
h41c0 -55 -20 -89 -63 -89c-18 0 -35 9 -49 17s-25 17 -38 17c-15 0 -22 -14 -24 -40z" />
    <glyph glyph-name="ograve" unicode="&#xf2;" horiz-adv-x="383" 
d="M195 491c87 0 156 -81 156 -249c0 -187 -86 -250 -161 -250c-87 0 -157 79 -157 249c0 176 79 250 162 250zM192 430c-69 0 -82 -114 -82 -188c0 -80 14 -189 84 -189c66 0 80 113 80 189c0 74 -14 188 -82 188zM77 682h79l77 -135h-51z" />
    <glyph glyph-name="oacute" unicode="&#xf3;" horiz-adv-x="383" 
d="M195 491c87 0 156 -81 156 -249c0 -187 -86 -250 -161 -250c-87 0 -157 79 -157 249c0 176 79 250 162 250zM192 430c-69 0 -82 -114 -82 -188c0 -80 14 -189 84 -189c66 0 80 113 80 189c0 74 -14 188 -82 188zM231 682h79l-105 -135h-51z" />
    <glyph glyph-name="ocircumflex" unicode="&#xf4;" horiz-adv-x="383" 
d="M195 491c87 0 156 -81 156 -249c0 -187 -86 -250 -161 -250c-87 0 -157 79 -157 249c0 176 79 250 162 250zM192 430c-69 0 -82 -114 -82 -188c0 -80 14 -189 84 -189c66 0 80 113 80 189c0 74 -14 188 -82 188zM166 682h52l79 -135h-58l-46 87h-2l-46 -87h-58z" />
    <glyph glyph-name="otilde" unicode="&#xf5;" horiz-adv-x="383" 
d="M195 491c87 0 156 -81 156 -249c0 -187 -86 -250 -161 -250c-87 0 -157 79 -157 249c0 176 79 250 162 250zM192 430c-69 0 -82 -114 -82 -188c0 -80 14 -189 84 -189c66 0 80 113 80 189c0 74 -14 188 -82 188zM126 561h-43c-1 53 21 94 62 94c21 0 35 -9 49 -18
c15 -8 26 -17 40 -17c15 0 24 7 25 36h41c0 -55 -20 -89 -63 -89c-18 0 -35 9 -49 17s-25 17 -38 17c-15 0 -22 -14 -24 -40z" />
    <glyph glyph-name="odieresis" unicode="&#xf6;" horiz-adv-x="383" 
d="M195 491c87 0 156 -81 156 -249c0 -187 -86 -250 -161 -250c-87 0 -157 79 -157 249c0 176 79 250 162 250zM192 430c-69 0 -82 -114 -82 -188c0 -80 14 -189 84 -189c66 0 80 113 80 189c0 74 -14 188 -82 188zM114 566c-24 0 -44 19 -44 44c0 26 20 45 45 45
c23 0 42 -19 42 -45c0 -25 -18 -44 -43 -44zM270 566c-24 0 -44 19 -44 44c0 26 20 45 45 45c23 0 42 -19 42 -45c0 -25 -18 -44 -43 -44z" />
    <glyph glyph-name="divide" unicode="&#xf7;" horiz-adv-x="596" 
d="M297 396c-26 0 -43 20 -43 46c0 27 18 47 45 47s44 -20 44 -47c0 -26 -16 -46 -46 -46zM556 239h-516v55h516v-55zM297 44c-26 0 -43 20 -43 46c0 27 18 47 45 47s44 -20 44 -47c0 -26 -16 -46 -46 -46z" />
    <glyph glyph-name="oslash" unicode="&#xf8;" horiz-adv-x="383" 
d="M194 491c27 0 55 -10 80 -30l26 53l41 -22l-33 -67c27 -41 43 -102 43 -183c0 -187 -87 -250 -158 -250c-30 0 -58 10 -82 28l-25 -53l-39 25l31 64c-28 40 -45 102 -45 185c0 176 80 250 161 250zM122 130l122 268c-9 20 -26 32 -52 32c-74 0 -85 -119 -85 -188
c0 -31 2 -70 13 -110zM263 347l-120 -264c10 -18 26 -30 50 -30c70 0 84 110 84 184c0 31 -1 69 -12 110h-2z" />
    <glyph glyph-name="ugrave" unicode="&#xf9;" horiz-adv-x="398" 
d="M344 484v-352c0 -53 3 -96 4 -132h-67l-6 51h-2c-14 -24 -51 -59 -103 -59c-84 0 -118 66 -118 186v306h77v-295c0 -76 12 -132 65 -132c45 0 65 42 69 64c3 13 4 28 4 44v319h77zM85 682h79l77 -135h-51z" />
    <glyph glyph-name="uacute" unicode="&#xfa;" horiz-adv-x="398" 
d="M344 484v-352c0 -53 3 -96 4 -132h-67l-6 51h-2c-14 -24 -51 -59 -103 -59c-84 0 -118 66 -118 186v306h77v-295c0 -76 12 -132 65 -132c45 0 65 42 69 64c3 13 4 28 4 44v319h77zM245 682h79l-105 -135h-51z" />
    <glyph glyph-name="ucircumflex" unicode="&#xfb;" horiz-adv-x="398" 
d="M344 484v-352c0 -53 3 -96 4 -132h-67l-6 51h-2c-14 -24 -51 -59 -103 -59c-84 0 -118 66 -118 186v306h77v-295c0 -76 12 -132 65 -132c45 0 65 42 69 64c3 13 4 28 4 44v319h77zM173 682h52l79 -135h-58l-46 87h-2l-46 -87h-58z" />
    <glyph glyph-name="udieresis" unicode="&#xfc;" horiz-adv-x="398" 
d="M344 484v-352c0 -53 3 -96 4 -132h-67l-6 51h-2c-14 -24 -51 -59 -103 -59c-84 0 -118 66 -118 186v306h77v-295c0 -76 12 -132 65 -132c45 0 65 42 69 64c3 13 4 28 4 44v319h77zM124 566c-24 0 -44 19 -44 44c0 26 20 45 45 45c23 0 42 -19 42 -45
c0 -25 -18 -44 -43 -44zM280 566c-24 0 -44 19 -44 44c0 26 20 45 45 45c23 0 42 -19 42 -45c0 -25 -18 -44 -43 -44z" />
    <glyph glyph-name="yacute" unicode="&#xfd;" horiz-adv-x="346" 
d="M12 484h81l65 -278c8 -38 13 -69 20 -100h2c5 28 13 64 20 99l58 279h76l-79 -311c-30 -121 -64 -238 -120 -312c-34 -43 -70 -65 -87 -73l-29 65c23 13 47 34 69 61c20 26 35 58 43 82c4 11 6 17 6 24c0 6 -1 12 -3 18zM216 682h79l-105 -135h-51z" />
    <glyph glyph-name="thorn" unicode="&#xfe;" horiz-adv-x="399" 
d="M53 664h76v-240h2c24 49 61 67 101 67c78 0 134 -90 134 -248c0 -179 -75 -251 -145 -251c-50 0 -77 29 -90 57h-2v-241h-76v856zM129 300v-124c0 -14 1 -28 5 -40c14 -68 50 -80 70 -80c64 0 85 87 85 185c0 101 -24 184 -85 184c-35 0 -66 -43 -71 -88
c-3 -12 -4 -23 -4 -37z" />
    <glyph glyph-name="ydieresis" unicode="&#xff;" horiz-adv-x="346" 
d="M12 484h81l65 -278c8 -38 13 -69 20 -100h2c5 28 13 64 20 99l58 279h76l-79 -311c-30 -121 -64 -238 -120 -312c-34 -43 -70 -65 -87 -73l-29 65c23 13 47 34 69 61c20 26 35 58 43 82c4 11 6 17 6 24c0 6 -1 12 -3 18zM99 566c-24 0 -44 19 -44 44c0 26 20 45 45 45
c23 0 42 -19 42 -45c0 -25 -18 -44 -43 -44zM255 566c-24 0 -44 19 -44 44c0 26 20 45 45 45c23 0 42 -19 42 -45c0 -25 -18 -44 -43 -44z" />
    <glyph glyph-name="Amacron" unicode="&#x100;" horiz-adv-x="435" 
d="M291 202h-150l-44 -202h-75l154 674h85l150 -674h-76zM152 264h128l-35 171c-10 48 -19 104 -27 154h-3c-8 -51 -18 -109 -28 -154zM111 788h213v-53h-213v53z" />
    <glyph glyph-name="amacron" unicode="&#x101;" horiz-adv-x="364" 
d="M309 320v-210c0 -37 1 -79 5 -110h-69l-5 51h-3c-21 -37 -55 -59 -97 -59c-64 0 -114 54 -114 138c0 122 97 175 206 176v15c0 65 -17 109 -77 109c-30 0 -57 -9 -80 -25l-17 54c21 15 65 32 113 32c97 0 138 -63 138 -171zM234 153v98c-40 0 -133 -8 -133 -113
c0 -64 32 -86 59 -86c34 0 62 25 71 73c2 9 3 19 3 28zM84 631h197v-51h-197v51z" />
    <glyph glyph-name="Abreve" unicode="&#x102;" horiz-adv-x="435" 
d="M291 202h-150l-44 -202h-75l154 674h85l150 -674h-76zM152 264h128l-35 171c-10 48 -19 104 -27 154h-3c-8 -51 -18 -109 -28 -154zM111 807h45c5 -27 28 -43 61 -43s56 13 62 43h45c0 -57 -40 -96 -106 -96c-67 0 -107 36 -107 96z" />
    <glyph glyph-name="abreve" unicode="&#x103;" horiz-adv-x="364" 
d="M309 320v-210c0 -37 1 -79 5 -110h-69l-5 51h-3c-21 -37 -55 -59 -97 -59c-64 0 -114 54 -114 138c0 122 97 175 206 176v15c0 65 -17 109 -77 109c-30 0 -57 -9 -80 -25l-17 54c21 15 65 32 113 32c97 0 138 -63 138 -171zM234 153v98c-40 0 -133 -8 -133 -113
c0 -64 32 -86 59 -86c34 0 62 25 71 73c2 9 3 19 3 28zM76 669h43c3 -36 27 -61 62 -61c39 0 63 26 64 61h43c2 -65 -40 -113 -107 -113c-69 0 -107 50 -105 113z" />
    <glyph glyph-name="Aogonek" unicode="&#x104;" horiz-adv-x="435" 
d="M261 674l149 -674h-23c-17 -21 -44 -64 -44 -97c0 -31 21 -46 41 -46c17 0 30 3 43 9l11 -43c-21 -16 -50 -22 -72 -22c-51 0 -84 31 -84 82s33 98 51 123l-43 196h-149l-45 -202h-75l155 674h85zM151 264h128l-35 171c-10 48 -19 104 -27 154h-3
c-8 -51 -18 -109 -27 -154z" />
    <glyph glyph-name="aogonek" unicode="&#x105;" horiz-adv-x="364" 
d="M309 320v-210c0 -52 1 -83 9 -110h-18c-16 -22 -41 -65 -41 -103c0 -31 21 -46 41 -46c19 0 33 3 43 8l11 -43c-23 -16 -50 -21 -72 -21c-51 0 -84 31 -84 83c0 50 31 97 47 122l-5 51h-3c-21 -37 -55 -59 -97 -59c-64 0 -114 54 -114 138c0 122 97 175 206 176v15
c0 65 -17 109 -77 109c-30 0 -57 -9 -80 -25l-17 54c21 15 65 32 113 32c97 0 138 -63 138 -171zM234 152v99c-40 0 -133 -8 -133 -113c0 -64 32 -86 59 -86c34 0 62 25 71 73c2 9 3 19 3 27z" />
    <glyph glyph-name="Cacute" unicode="&#x106;" horiz-adv-x="373" 
d="M342 76l13 -64c-21 -11 -55 -18 -97 -18c-131 0 -226 106 -226 335c0 266 132 351 239 351c40 0 70 -8 83 -17l-17 -65c-16 7 -32 14 -67 14c-72 0 -157 -70 -157 -276s76 -274 159 -274c29 0 54 7 70 14zM289 818h91l-124 -108h-61z" />
    <glyph glyph-name="cacute" unicode="&#x107;" horiz-adv-x="302" 
d="M279 71l11 -59c-17 -10 -46 -18 -80 -18c-106 0 -177 85 -177 245c0 139 70 252 191 252c26 0 54 -7 68 -15l-15 -63c-10 5 -30 13 -55 13c-78 0 -112 -92 -112 -187c0 -113 43 -181 114 -181c20 0 38 4 55 13zM234 682h79l-105 -135h-51z" />
    <glyph glyph-name="Ccircumflex" unicode="&#x108;" horiz-adv-x="373" 
d="M342 76l13 -64c-21 -11 -55 -18 -97 -18c-131 0 -226 106 -226 335c0 266 132 351 239 351c40 0 70 -8 83 -17l-17 -65c-16 7 -32 14 -67 14c-72 0 -157 -70 -157 -276s76 -274 159 -274c29 0 54 7 70 14zM202 808h66l87 -98h-67l-52 55h-2l-52 -55h-66z" />
    <glyph glyph-name="ccircumflex" unicode="&#x109;" horiz-adv-x="302" 
d="M279 71l11 -59c-17 -10 -46 -18 -80 -18c-106 0 -177 85 -177 245c0 139 70 252 191 252c26 0 54 -7 68 -15l-15 -63c-10 5 -30 13 -55 13c-78 0 -112 -92 -112 -187c0 -113 43 -181 114 -181c20 0 38 4 55 13zM167 682h52l79 -135h-58l-46 87h-2l-46 -87h-58z" />
    <glyph glyph-name="Cdotaccent" unicode="&#x10a;" horiz-adv-x="373" 
d="M342 76l13 -64c-21 -11 -55 -18 -97 -18c-131 0 -226 106 -226 335c0 266 132 351 239 351c40 0 70 -8 83 -17l-17 -65c-16 7 -32 14 -67 14c-72 0 -157 -70 -157 -276s76 -274 159 -274c29 0 54 7 70 14zM241 720c-24 0 -44 20 -44 44c0 26 20 45 45 45s44 -19 44 -45
c0 -24 -19 -44 -45 -44z" />
    <glyph glyph-name="cdotaccent" unicode="&#x10b;" horiz-adv-x="302" 
d="M279 71l11 -59c-17 -10 -46 -18 -80 -18c-106 0 -177 85 -177 245c0 139 70 252 191 252c26 0 54 -7 68 -15l-15 -63c-10 5 -30 13 -55 13c-78 0 -112 -92 -112 -187c0 -113 43 -181 114 -181c20 0 38 4 55 13zM191 566c-24 0 -44 19 -44 44c0 26 20 45 45 45
c23 0 42 -19 42 -45c0 -25 -18 -44 -43 -44z" />
    <glyph glyph-name="Ccaron" unicode="&#x10c;" horiz-adv-x="373" 
d="M342 76l13 -64c-21 -11 -55 -18 -97 -18c-131 0 -226 106 -226 335c0 266 132 351 239 351c40 0 70 -8 83 -17l-17 -65c-16 7 -32 14 -67 14c-72 0 -157 -70 -157 -276s76 -274 159 -274c29 0 54 7 70 14zM276 710h-66l-87 98h67l52 -58h2l52 58h66z" />
    <glyph glyph-name="ccaron" unicode="&#x10d;" horiz-adv-x="302" 
d="M279 71l11 -59c-17 -10 -46 -18 -80 -18c-106 0 -177 85 -177 245c0 139 70 252 191 252c26 0 54 -7 68 -15l-15 -63c-10 5 -30 13 -55 13c-78 0 -112 -92 -112 -187c0 -113 43 -181 114 -181c20 0 38 4 55 13zM216 547h-52l-79 135h58l46 -87h2l47 87h58z" />
    <glyph glyph-name="Dcaron" unicode="&#x10e;" horiz-adv-x="445" 
d="M61 3v661c29 9 65 13 103 13c71 0 121 -18 158 -51c52 -45 91 -132 91 -273c0 -154 -38 -238 -81 -285c-44 -49 -108 -72 -186 -72c-31 0 -63 2 -85 7zM137 610v-548c11 -2 22 -2 29 -2c85 0 167 62 167 291c0 170 -52 263 -160 263c-12 0 -26 -1 -36 -4zM228 710h-66
l-87 98h67l52 -58h2l52 58h66z" />
    <glyph glyph-name="dcaron" unicode="&#x10f;" horiz-adv-x="409" 
d="M269 692h76v-576c0 -33 3 -88 4 -116h-66l-5 60h-3c-16 -34 -50 -68 -102 -68c-81 0 -140 88 -140 248c0 171 71 251 145 251c36 0 70 -16 89 -57h2v258zM269 171v128c0 10 0 22 -1 32c-5 51 -35 94 -72 94c-64 0 -86 -89 -86 -185c0 -102 26 -184 82 -184
c24 0 57 13 74 83c2 9 3 20 3 32zM422 504l-34 23c13 20 29 54 29 90c0 31 -15 55 -32 69l57 11c17 -12 33 -38 33 -72c0 -60 -37 -102 -53 -121z" />
    <glyph glyph-name="Dcroat" unicode="&#x110;" horiz-adv-x="453" 
d="M0 323v58h69v283c29 9 65 13 103 13c71 0 121 -18 158 -51c52 -45 91 -132 91 -274c0 -155 -38 -239 -81 -286c-44 -49 -108 -72 -186 -72c-31 0 -63 2 -85 6v323h-69zM247 381v-58h-102v-263c11 -2 22 -2 29 -2c85 0 167 62 167 294c0 169 -52 262 -160 262
c-13 0 -26 -2 -36 -4v-229h102z" />
    <glyph glyph-name="dcroat" unicode="&#x111;" horiz-adv-x="399" 
d="M403 544h-58v-428c0 -33 3 -88 4 -116h-66l-5 60h-3c-16 -34 -50 -68 -102 -68c-81 0 -140 88 -140 248c0 171 71 251 145 251c36 0 70 -16 89 -57h2v110h-131v53h131v95h76v-95h58v-53zM269 171v128c0 10 0 22 -1 32c-5 51 -35 94 -72 94c-64 0 -86 -89 -86 -185
c0 -102 26 -184 82 -184c24 0 57 13 74 83c2 9 3 20 3 32z" />
    <glyph glyph-name="Emacron" unicode="&#x112;" horiz-adv-x="354" 
d="M306 385v-65h-169v-253h192v-67h-269v674h257v-67h-180v-222h169zM86 788h213v-53h-213v53z" />
    <glyph glyph-name="emacron" unicode="&#x113;" horiz-adv-x="363" 
d="M332 235h-224c0 -149 59 -180 114 -180c34 0 61 8 80 18l13 -56c-27 -14 -68 -23 -107 -23c-116 0 -176 95 -176 243c0 156 67 254 164 254c98 0 138 -104 138 -212c0 -19 -1 -32 -2 -44zM109 292h151c1 96 -35 139 -72 139c-51 0 -76 -73 -79 -139zM89 631h197v-51h-197
v51z" />
    <glyph glyph-name="Ebreve" unicode="&#x114;" horiz-adv-x="354" 
d="M306 385v-65h-169v-253h192v-67h-269v674h257v-67h-180v-222h169zM84 809h45c5 -27 28 -43 61 -43s56 13 62 43h45c0 -57 -40 -96 -106 -96c-67 0 -107 36 -107 96z" />
    <glyph glyph-name="ebreve" unicode="&#x115;" horiz-adv-x="363" 
d="M332 235h-224c0 -149 59 -180 114 -180c34 0 61 8 80 18l13 -56c-27 -14 -68 -23 -107 -23c-116 0 -176 95 -176 243c0 156 67 254 164 254c98 0 138 -104 138 -212c0 -19 -1 -32 -2 -44zM109 292h151c1 96 -35 139 -72 139c-51 0 -76 -73 -79 -139zM83 669h43
c3 -36 27 -61 62 -61c39 0 63 26 64 61h43c2 -65 -40 -113 -107 -113c-69 0 -107 50 -105 113z" />
    <glyph glyph-name="Edotaccent" unicode="&#x116;" horiz-adv-x="354" 
d="M306 385v-65h-169v-253h192v-67h-269v674h257v-67h-180v-222h169zM193 727c-24 0 -44 20 -44 44c0 26 20 45 45 45s44 -19 44 -45c0 -24 -19 -44 -45 -44z" />
    <glyph glyph-name="edotaccent" unicode="&#x117;" horiz-adv-x="363" 
d="M332 235h-224c0 -149 59 -180 114 -180c34 0 61 8 80 18l13 -56c-27 -14 -68 -23 -107 -23c-116 0 -176 95 -176 243c0 156 67 254 164 254c98 0 138 -104 138 -212c0 -19 -1 -32 -2 -44zM109 292h151c1 96 -35 139 -72 139c-51 0 -76 -73 -79 -139zM190 566
c-24 0 -44 19 -44 44c0 26 20 45 45 45c23 0 42 -19 42 -45c0 -25 -18 -44 -43 -44z" />
    <glyph glyph-name="Eogonek" unicode="&#x118;" horiz-adv-x="354" 
d="M323 -137l11 -42c-21 -16 -51 -22 -75 -22c-50 0 -81 29 -81 77c0 51 42 98 82 124h-200v674h257v-67h-180v-222h169v-65h-169v-253h192v-67c-3 -1 -7 -2 -11 -3c-43 -29 -78 -67 -78 -102c0 -29 21 -40 40 -40c14 0 29 2 43 8z" />
    <glyph glyph-name="eogonek" unicode="&#x119;" horiz-adv-x="363" 
d="M276 -132l14 -42c-22 -18 -52 -25 -75 -25c-50 0 -82 30 -82 75c0 48 41 95 76 117v1h-4c-114 2 -173 96 -173 243c0 156 67 254 164 254c98 0 137 -104 137 -212c0 -19 0 -34 -1 -44h-224c0 -149 59 -180 114 -180c34 0 61 8 80 18l13 -56c-9 -4 -20 -8 -27 -11
c-47 -24 -94 -71 -94 -112c0 -28 18 -39 37 -39c15 0 31 5 45 13zM109 292h151c1 96 -35 139 -72 139c-51 0 -76 -73 -79 -139z" />
    <glyph glyph-name="Ecaron" unicode="&#x11a;" horiz-adv-x="354" 
d="M306 385v-65h-169v-253h192v-67h-269v674h257v-67h-180v-222h169zM223 710h-66l-87 98h67l52 -58h2l52 58h66z" />
    <glyph glyph-name="ecaron" unicode="&#x11b;" horiz-adv-x="363" 
d="M332 235h-224c0 -149 59 -180 114 -180c34 0 61 8 80 18l13 -56c-27 -14 -68 -23 -107 -23c-116 0 -176 95 -176 243c0 156 67 254 164 254c98 0 138 -104 138 -212c0 -19 -1 -32 -2 -44zM109 292h151c1 96 -35 139 -72 139c-51 0 -76 -73 -79 -139zM213 547h-52l-79 135
h58l46 -87h2l47 87h58z" />
    <glyph glyph-name="Gcircumflex" unicode="&#x11c;" horiz-adv-x="436" 
d="M391 352v-335c-28 -12 -77 -23 -119 -23c-59 0 -114 16 -159 65c-49 52 -82 145 -81 269c1 263 135 352 254 352c42 0 75 -8 95 -19l-17 -66c-18 9 -41 16 -77 16c-84 0 -175 -67 -175 -276c0 -208 79 -275 160 -275c26 0 41 4 47 8v220h-87v64h159zM221 808h67l87 -98
h-67l-52 55h-2l-52 -55h-66z" />
    <glyph glyph-name="gcircumflex" unicode="&#x11d;" horiz-adv-x="399" 
d="M346 333v-271c0 -127 -16 -175 -48 -211c-29 -32 -74 -51 -129 -51c-41 0 -81 10 -106 24l18 60c19 -10 51 -21 90 -21c61 0 99 38 99 148v49h-2c-16 -38 -52 -59 -93 -59c-86 0 -142 97 -142 239c0 178 81 251 153 251c51 0 75 -34 90 -61h2l4 54h68
c-1 -33 -4 -76 -4 -151zM270 177v140c0 12 -1 25 -4 35c-8 33 -26 73 -70 73c-56 0 -86 -75 -86 -182c0 -123 39 -179 86 -179c24 0 54 11 69 69c4 15 5 30 5 44zM172 682h51l79 -135h-58l-45 87h-2l-47 -87h-58z" />
    <glyph glyph-name="Gbreve" unicode="&#x11e;" horiz-adv-x="436" 
d="M391 352v-335c-28 -12 -77 -23 -119 -23c-59 0 -114 16 -159 65c-49 52 -82 145 -81 269c1 263 135 352 254 352c42 0 75 -8 95 -19l-17 -66c-18 9 -41 16 -77 16c-84 0 -175 -67 -175 -276c0 -208 79 -275 160 -275c26 0 41 4 47 8v220h-87v64h159zM147 807h45
c5 -27 28 -43 61 -43s56 13 62 43h45c0 -57 -40 -96 -106 -96c-67 0 -107 36 -107 96z" />
    <glyph glyph-name="gbreve" unicode="&#x11f;" horiz-adv-x="399" 
d="M346 333v-271c0 -127 -16 -175 -48 -211c-29 -32 -74 -51 -129 -51c-41 0 -81 10 -106 24l18 60c19 -10 51 -21 90 -21c61 0 99 38 99 148v49h-2c-16 -38 -52 -59 -93 -59c-86 0 -142 97 -142 239c0 178 81 251 153 251c51 0 75 -34 90 -61h2l4 54h68
c-1 -33 -4 -76 -4 -151zM270 177v140c0 12 -1 25 -4 35c-8 33 -26 73 -70 73c-56 0 -86 -75 -86 -182c0 -123 39 -179 86 -179c24 0 54 11 69 69c4 15 5 30 5 44zM94 669h43c3 -36 27 -61 61 -61c39 0 63 26 64 61h43c2 -65 -40 -113 -107 -113c-68 0 -106 50 -104 113z" />
    <glyph glyph-name="Gdotaccent" unicode="&#x120;" horiz-adv-x="436" 
d="M391 352v-335c-28 -12 -77 -23 -119 -23c-59 0 -114 16 -159 65c-49 52 -82 145 -81 269c1 263 135 352 254 352c42 0 75 -8 95 -19l-17 -66c-18 9 -41 16 -77 16c-84 0 -175 -67 -175 -276c0 -208 79 -275 160 -275c26 0 41 4 47 8v220h-87v64h159zM255 720
c-24 0 -44 20 -44 44c0 26 20 45 45 45s44 -19 44 -45c0 -24 -19 -44 -45 -44z" />
    <glyph glyph-name="gdotaccent" unicode="&#x121;" horiz-adv-x="399" 
d="M346 333v-271c0 -127 -16 -175 -48 -211c-29 -32 -74 -51 -129 -51c-41 0 -81 10 -106 24l18 60c19 -10 51 -21 90 -21c61 0 99 38 99 148v49h-2c-16 -38 -52 -59 -93 -59c-86 0 -142 97 -142 239c0 178 81 251 153 251c51 0 75 -34 90 -61h2l4 54h68
c-1 -33 -4 -76 -4 -151zM270 177v140c0 12 -1 25 -4 35c-8 33 -26 73 -70 73c-56 0 -86 -75 -86 -182c0 -123 39 -179 86 -179c24 0 54 11 69 69c4 15 5 30 5 44zM201 566c-24 0 -44 19 -44 44c0 26 20 45 45 45c23 0 42 -19 42 -45c0 -25 -18 -44 -43 -44z" />
    <glyph glyph-name="Gcommaaccent" unicode="&#x122;" horiz-adv-x="436" 
d="M391 352v-335c-28 -12 -77 -23 -119 -23c-59 0 -114 16 -159 65c-49 52 -82 145 -81 269c1 263 135 352 254 352c42 0 75 -8 95 -19l-17 -66c-18 9 -41 16 -77 16c-84 0 -175 -67 -175 -276c0 -208 79 -275 160 -275c26 0 41 4 47 8v220h-87v64h159zM206 -214l-17 37
c30 8 64 28 64 62c0 26 -16 47 -34 61l62 12c17 -12 35 -37 35 -70c0 -63 -54 -93 -110 -102z" />
    <glyph glyph-name="gcommaaccent" unicode="&#x123;" horiz-adv-x="399" 
d="M346 333v-271c0 -127 -16 -175 -48 -211c-29 -32 -74 -51 -129 -51c-41 0 -81 10 -106 24l18 60c19 -10 51 -21 90 -21c61 0 99 38 99 148v49h-2c-16 -38 -52 -59 -93 -59c-86 0 -142 97 -142 239c0 178 81 251 153 251c51 0 75 -34 90 -61h2l4 54h68
c-1 -33 -4 -76 -4 -151zM270 177v140c0 12 -1 25 -4 35c-8 33 -26 73 -70 73c-56 0 -86 -75 -86 -182c0 -123 39 -179 86 -179c24 0 54 11 69 69c4 15 5 30 5 44zM259 701l17 -35c-35 -8 -68 -28 -68 -64c0 -27 17 -47 36 -62l-61 -11c-17 12 -35 39 -35 70
c0 64 54 93 111 102z" />
    <glyph glyph-name="Hcircumflex" unicode="&#x124;" horiz-adv-x="463" 
d="M60 674h77v-289h189v289h77v-674h-77v315h-189v-315h-77v674zM201 808h66l87 -98h-67l-52 55h-2l-52 -55h-66z" />
    <glyph glyph-name="hcircumflex" unicode="&#x125;" horiz-adv-x="405" 
d="M54 0v692h77v-261h2c10 17 25 32 41 43c17 11 37 17 64 17c61 0 113 -48 113 -170v-321h-77v312c0 59 -13 114 -65 114c-36 0 -63 -26 -75 -77c-2 -10 -3 -24 -3 -36v-313h-77zM61 818h66l87 -98h-67l-52 55h-2l-52 -55h-66z" />
    <glyph glyph-name="Hbar" unicode="&#x126;" horiz-adv-x="463" 
d="M450 483h-47v-483h-77v305h-189v-305h-77v483h-47v55h47v136h77v-136h189v136h77v-136h47v-55zM326 375v108h-189v-108h189z" />
    <glyph glyph-name="hbar" unicode="&#x127;" horiz-adv-x="405" 
d="M351 0h-77v312c0 59 -13 114 -65 114c-36 0 -63 -26 -75 -77c-2 -10 -3 -24 -3 -36v-313h-77v544h-60v53h60v95h77v-95h133v-53h-133v-113h2c10 17 25 32 41 43c17 11 37 17 64 17c61 0 113 -48 113 -170v-321z" />
    <glyph glyph-name="Itilde" unicode="&#x128;" horiz-adv-x="199" 
d="M60 674h77v-674h-77v674zM35 718h-41c-1 56 21 94 59 94c20 0 34 -9 47 -17c15 -9 26 -18 40 -18c16 0 23 9 26 37h40c1 -57 -18 -90 -62 -90c-19 0 -36 8 -49 17c-13 8 -24 16 -36 16c-15 0 -21 -13 -24 -39z" />
    <glyph glyph-name="itilde" unicode="&#x129;" horiz-adv-x="184" 
d="M131 0h-77v484h77v-484zM27 561h-43c-1 53 21 94 62 94c21 0 35 -9 49 -18c15 -8 26 -17 40 -17c15 0 24 7 25 36h41c0 -55 -20 -89 -63 -89c-18 0 -35 9 -49 17s-25 17 -38 17c-15 0 -22 -14 -24 -40z" />
    <glyph glyph-name="Imacron" unicode="&#x12a;" horiz-adv-x="199" 
d="M60 674h77v-674h-77v674zM-6 788h213v-53h-213v53z" />
    <glyph glyph-name="imacron" unicode="&#x12b;" horiz-adv-x="184" 
d="M131 0h-77v484h77v-484zM-5 631h197v-51h-197v51z" />
    <glyph glyph-name="Ibreve" unicode="&#x12c;" horiz-adv-x="199" 
d="M60 674h77v-674h-77v674zM-8 809h45c5 -27 28 -43 61 -43s56 13 62 43h45c0 -57 -40 -96 -106 -96c-67 0 -107 36 -107 96z" />
    <glyph glyph-name="ibreve" unicode="&#x12d;" horiz-adv-x="184" 
d="M131 0h-77v484h77v-484zM-13 669h43c3 -36 27 -61 62 -61c39 0 63 26 64 61h43c2 -65 -40 -113 -107 -113c-69 0 -107 50 -105 113z" />
    <glyph glyph-name="Iogonek" unicode="&#x12e;" horiz-adv-x="199" 
d="M137 674v-674h-22c-16 -22 -41 -65 -41 -102c0 -32 21 -47 41 -47c19 0 33 3 43 8l11 -43c-23 -16 -50 -21 -72 -21c-51 0 -84 31 -84 82s31 98 47 123v674h77z" />
    <glyph glyph-name="iogonek" unicode="&#x12f;" horiz-adv-x="184" 
d="M90 559c-25 0 -44 20 -44 50s20 50 45 50c28 0 46 -20 46 -50s-18 -50 -47 -50zM131 484v-484h-23c-16 -22 -41 -65 -41 -103c0 -31 21 -46 41 -46c19 0 33 3 43 8l11 -43c-23 -16 -50 -21 -72 -21c-51 0 -84 31 -84 83c0 50 31 97 48 122v484h77z" />
    <glyph glyph-name="Idotaccent" unicode="&#x130;" horiz-adv-x="199" 
d="M60 674h77v-674h-77v674zM99 727c-24 0 -44 20 -44 44c0 26 20 45 45 45s44 -19 44 -45c0 -24 -19 -44 -45 -44z" />
    <glyph glyph-name="dotlessi" unicode="&#x131;" horiz-adv-x="184" 
d="M131 0h-77v484h77v-484z" />
    <glyph glyph-name="IJ" unicode="&#x132;" horiz-adv-x="464" 
d="M60 674h77v-674h-77v674zM333 189v485h77v-484c0 -151 -61 -198 -158 -198c-19 0 -37 2 -50 7l7 65c10 -3 23 -4 37 -4c54 0 87 22 87 129z" />
    <glyph glyph-name="ij" unicode="&#x133;" horiz-adv-x="373" 
d="M131 0h-77v484h77v-484zM91 659c28 0 46 -20 46 -50s-18 -50 -47 -50c-25 0 -44 20 -44 50s20 50 45 50zM166 -200l-10 61c22 6 49 14 65 38c17 26 23 62 23 154v431h77v-453c0 -102 -15 -149 -49 -185c-29 -30 -76 -45 -106 -46zM283 659c27 0 45 -20 45 -50
s-18 -50 -46 -50c-26 0 -45 20 -45 50s20 50 46 50z" />
    <glyph glyph-name="Jcircumflex" unicode="&#x134;" horiz-adv-x="265" 
d="M134 189v485h77v-484c0 -151 -61 -198 -158 -198c-19 0 -37 2 -50 7l7 65c10 -3 23 -4 37 -4c54 0 87 22 87 129zM135 808h66l87 -98h-67l-52 55h-2l-52 -55h-66z" />
    <glyph glyph-name="jcircumflex" unicode="&#x135;" horiz-adv-x="188" 
d="M-18 -200l-10 61c22 6 49 14 65 38c17 26 23 62 23 154v431h77v-453c0 -102 -15 -149 -49 -185c-29 -30 -76 -45 -106 -46zM69 674h52l79 -135h-58l-45 87h-2l-47 -87h-58z" />
    <glyph glyph-name="Kcommaaccent" unicode="&#x136;" horiz-adv-x="404" 
d="M61 0v674h76v-320h2c16 28 29 55 42 81l126 239h85l-165 -288l169 -386h-83l-138 325l-38 -65v-260h-76zM159 -207l-16 37c30 8 64 28 64 62c0 26 -16 47 -34 61l62 12c17 -12 35 -37 35 -70c0 -63 -54 -93 -111 -102z" />
    <glyph glyph-name="kcommaaccent" unicode="&#x137;" horiz-adv-x="354" 
d="M129 692v-433h2c9 19 17 38 26 54l96 171h83l-128 -204l140 -280h-86l-105 228l-28 -45v-183h-76v692h76zM129 -214l-16 37c30 8 64 28 64 62c0 26 -16 47 -34 61l62 12c17 -12 35 -37 35 -70c0 -63 -54 -93 -111 -102z" />
    <glyph glyph-name="kgreenlandic" unicode="&#x138;" horiz-adv-x="354" 
d="M129 484v-225h2c9 19 17 38 26 54l96 171h83l-128 -204l140 -280h-86l-105 228l-28 -45v-183h-76v484h76z" />
    <glyph glyph-name="Lacute" unicode="&#x139;" horiz-adv-x="344" 
d="M60 0v674h77v-609h189v-65h-266zM160 818h91l-124 -108h-61z" />
    <glyph glyph-name="lacute" unicode="&#x13a;" horiz-adv-x="191" 
d="M54 0v692h77v-692h-77zM144 828h91l-124 -108h-61z" />
    <glyph glyph-name="Lcommaaccent" unicode="&#x13b;" horiz-adv-x="344" 
d="M60 0v674h77v-609h189v-65h-266zM125 -214l-16 37c30 8 64 28 64 62c0 26 -16 47 -34 61l62 12c17 -12 35 -37 35 -70c0 -63 -54 -93 -111 -102z" />
    <glyph glyph-name="lcommaaccent" unicode="&#x13c;" horiz-adv-x="191" 
d="M54 0v692h77v-692h-77zM43 -214l-16 37c30 8 64 28 64 62c0 26 -16 47 -34 61l62 12c17 -12 35 -37 35 -70c0 -63 -54 -93 -111 -102z" />
    <glyph glyph-name="Lcaron" unicode="&#x13d;" horiz-adv-x="344" 
d="M60 0v674h77v-609h189v-65h-266zM200 502l-16 37c30 8 64 28 64 62c0 26 -16 47 -34 61l62 12c17 -12 35 -37 35 -70c0 -63 -54 -93 -111 -102z" />
    <glyph glyph-name="lcaron" unicode="&#x13e;" horiz-adv-x="194" 
d="M54 0v692h77v-692h-77zM208 505l-34 23c13 20 29 53 29 90c0 30 -15 54 -32 68l57 11c17 -12 33 -38 33 -72c0 -60 -37 -101 -53 -120z" />
    <glyph glyph-name="Ldot" unicode="&#x13f;" horiz-adv-x="344" 
d="M60 0v674h77v-609h189v-65h-266zM240 317c-24 0 -44 20 -44 44c0 26 20 45 45 45s44 -19 44 -45c0 -24 -19 -44 -45 -44z" />
    <glyph glyph-name="ldot" unicode="&#x140;" horiz-adv-x="235" 
d="M54 0v692h77v-692h-77zM211 350c-23 0 -41 19 -41 44c0 26 18 44 42 44c22 0 39 -18 39 -44c0 -25 -17 -44 -40 -44z" />
    <glyph glyph-name="Lslash" unicode="&#x141;" horiz-adv-x="351" 
d="M333 0h-266v256l-68 -65v70l68 65v348h77v-286l106 102v-71l-106 -101v-253h189v-65z" />
    <glyph glyph-name="lslash" unicode="&#x142;" horiz-adv-x="198" 
d="M138 0h-77v296l-62 -63v68l62 64v327h77v-267l64 66v-70l-64 -66v-355z" />
    <glyph glyph-name="Nacute" unicode="&#x143;" horiz-adv-x="465" 
d="M130 0h-69v674h72l124 -316c28 -73 63 -162 86 -235h2c-6 106 -9 193 -9 310v241h69v-674h-72l-128 324c-28 68 -57 145 -81 229h-2c6 -90 8 -176 8 -320v-233zM291 818h90l-124 -108h-61z" />
    <glyph glyph-name="nacute" unicode="&#x144;" horiz-adv-x="405" 
d="M54 0v359c0 57 -3 86 -4 125h67l4 -59h2c21 39 60 66 111 66c67 0 117 -49 117 -166v-325h-77v311c0 58 -11 115 -67 115c-32 0 -63 -27 -72 -78c-3 -12 -4 -27 -4 -44v-304h-77zM247 682h79l-105 -135h-51z" />
    <glyph glyph-name="Ncommaaccent" unicode="&#x145;" horiz-adv-x="465" 
d="M130 0h-69v674h72l124 -316c28 -73 63 -162 86 -235h2c-6 106 -9 193 -9 310v241h69v-674h-72l-128 324c-28 68 -57 145 -81 229h-2c6 -90 8 -176 8 -320v-233zM176 -211l-16 37c30 8 64 28 64 62c0 26 -16 47 -34 61l62 12c17 -12 35 -37 35 -70
c0 -63 -54 -93 -111 -102z" />
    <glyph glyph-name="ncommaaccent" unicode="&#x146;" horiz-adv-x="405" 
d="M54 0v359c0 57 -3 86 -4 125h67l4 -59h2c21 39 60 66 111 66c67 0 117 -49 117 -166v-325h-77v311c0 58 -11 115 -67 115c-32 0 -63 -27 -72 -78c-3 -12 -4 -27 -4 -44v-304h-77zM158 -208l-16 37c29 8 63 28 63 62c0 26 -16 47 -33 61l61 12c17 -12 35 -37 35 -70
c0 -63 -54 -93 -110 -102z" />
    <glyph glyph-name="Ncaron" unicode="&#x147;" horiz-adv-x="465" 
d="M130 0h-69v674h72l124 -316c28 -73 63 -162 86 -235h2c-6 106 -9 193 -9 310v241h69v-674h-72l-128 324c-28 68 -57 145 -81 229h-2c6 -90 8 -176 8 -320v-233zM265 710h-66l-87 98h67l52 -58h2l52 58h66z" />
    <glyph glyph-name="ncaron" unicode="&#x148;" horiz-adv-x="405" 
d="M54 0v359c0 57 -3 86 -4 125h67l4 -59h2c21 39 60 66 111 66c67 0 117 -49 117 -166v-325h-77v311c0 58 -11 115 -67 115c-32 0 -63 -27 -72 -78c-3 -12 -4 -27 -4 -44v-304h-77zM229 547h-53l-79 135h58l46 -87h2l47 87h58z" />
    <glyph glyph-name="napostrophe" unicode="&#x149;" horiz-adv-x="405" 
d="M54 0v359c0 57 -3 86 -4 125h67l4 -59h2c21 39 60 66 111 66c67 0 117 -49 117 -166v-325h-77v311c0 58 -11 115 -67 115c-32 0 -63 -27 -72 -78c-3 -12 -4 -27 -4 -44v-304h-77zM53 528l-37 19c13 18 29 48 29 81c0 27 -15 49 -32 61l60 10c17 -11 33 -34 33 -65
c0 -53 -37 -90 -53 -106z" />
    <glyph glyph-name="Eng" unicode="&#x14a;" horiz-adv-x="465" 
d="M130 0h-69v674h72l124 -316c28 -72 63 -162 86 -235h2c-6 106 -9 193 -9 310v241h69v-653c0 -110 -36 -184 -140 -207l-19 59c58 17 89 53 90 121l-131 330c-28 68 -57 145 -81 229h-2c6 -90 8 -176 8 -319v-234z" />
    <glyph glyph-name="eng" unicode="&#x14b;" horiz-adv-x="405" 
d="M54 0v359c0 57 -3 86 -4 125h67l4 -59h2c21 39 60 66 111 66c67 0 117 -49 117 -166v-294c0 -133 -60 -189 -140 -204l-16 62c49 12 79 46 79 138v284c0 58 -11 115 -67 115c-32 0 -63 -27 -72 -78c-3 -12 -4 -27 -4 -44v-304h-77z" />
    <glyph glyph-name="Omacron" unicode="&#x14c;" horiz-adv-x="446" 
d="M230 682c115 0 184 -125 184 -340c0 -253 -86 -350 -195 -350c-112 0 -187 119 -187 346c0 223 81 344 198 344zM224 614c-85 0 -112 -140 -112 -277c0 -139 27 -277 113 -277s109 147 109 279c0 126 -23 275 -110 275zM118 788h213v-53h-213v53z" />
    <glyph glyph-name="omacron" unicode="&#x14d;" horiz-adv-x="383" 
d="M195 491c87 0 156 -81 156 -249c0 -187 -86 -250 -161 -250c-87 0 -157 79 -157 249c0 176 79 250 162 250zM192 430c-69 0 -82 -114 -82 -188c0 -80 14 -189 84 -189c66 0 80 113 80 189c0 74 -14 188 -82 188zM94 631h197v-51h-197v51z" />
    <glyph glyph-name="Obreve" unicode="&#x14e;" horiz-adv-x="446" 
d="M230 682c115 0 184 -125 184 -340c0 -253 -86 -350 -195 -350c-112 0 -187 119 -187 346c0 223 81 344 198 344zM224 614c-85 0 -112 -140 -112 -277c0 -139 27 -277 113 -277s109 147 109 279c0 126 -23 275 -110 275zM115 810h45c5 -27 28 -43 61 -43s56 13 62 43h45
c0 -57 -40 -96 -106 -96c-67 0 -107 36 -107 96z" />
    <glyph glyph-name="obreve" unicode="&#x14f;" horiz-adv-x="383" 
d="M195 491c87 0 156 -81 156 -249c0 -187 -86 -250 -161 -250c-87 0 -157 79 -157 249c0 176 79 250 162 250zM192 430c-69 0 -82 -114 -82 -188c0 -80 14 -189 84 -189c66 0 80 113 80 189c0 74 -14 188 -82 188zM85 669h43c3 -36 27 -61 61 -61c39 0 63 26 64 61h43
c2 -65 -40 -113 -107 -113c-68 0 -106 50 -104 113z" />
    <glyph glyph-name="Ohungarumlaut" unicode="&#x150;" horiz-adv-x="446" 
d="M230 682c115 0 184 -125 184 -340c0 -253 -86 -350 -195 -350c-112 0 -187 119 -187 346c0 223 81 344 198 344zM224 614c-85 0 -112 -140 -112 -277c0 -139 27 -277 113 -277s109 147 109 279c0 126 -23 275 -110 275zM203 818h81l-99 -99h-54zM331 818h80l-99 -99h-54z
" />
    <glyph glyph-name="ohungarumlaut" unicode="&#x151;" horiz-adv-x="383" 
d="M195 491c87 0 156 -81 156 -249c0 -187 -86 -250 -161 -250c-87 0 -157 79 -157 249c0 176 79 250 162 250zM192 430c-69 0 -82 -114 -82 -188c0 -80 14 -189 84 -189c66 0 80 113 80 189c0 74 -14 188 -82 188zM179 682h70l-104 -135h-44zM303 682h70l-104 -135h-44z
" />
    <glyph glyph-name="OE" unicode="&#x152;" horiz-adv-x="610" 
d="M585 67v-67h-247c-12 -1 -26 -3 -37 -5c-14 -2 -26 -3 -38 -3c-175 0 -231 163 -231 341c0 237 106 349 240 349c13 0 26 -1 38 -3c13 -2 25 -4 35 -5h228v-67h-180v-222h169v-65h-169v-253h192zM316 68v535c-12 7 -29 11 -54 11c-67 0 -150 -69 -150 -276
c-1 -213 76 -278 155 -278c18 0 38 2 49 8z" />
    <glyph glyph-name="oe" unicode="&#x153;" horiz-adv-x="609" 
d="M580 237h-225c2 -147 51 -184 113 -184c33 0 59 10 84 19l13 -54c-34 -21 -76 -26 -113 -26c-56 0 -112 33 -134 101h-2c-21 -71 -74 -101 -125 -101c-88 0 -158 80 -158 249c0 173 79 250 163 250c52 0 104 -31 123 -98h2c24 61 69 98 126 98c95 0 134 -106 134 -213
c0 -17 0 -31 -1 -41zM196 430c-74 0 -86 -118 -86 -188c0 -79 14 -189 88 -189c73 0 85 108 85 190c0 78 -13 187 -87 187zM357 292h150c3 95 -34 139 -68 139c-52 0 -80 -70 -82 -139z" />
    <glyph glyph-name="Racute" unicode="&#x154;" horiz-adv-x="409" 
d="M61 0v664c32 9 72 13 110 13c67 0 117 -14 152 -48c33 -34 47 -79 47 -132c0 -86 -40 -142 -108 -174v-2c50 -15 76 -63 90 -151c16 -92 29 -149 39 -170h-78c-10 20 -23 84 -36 166c-15 93 -44 127 -110 127h-30v-293h-76zM137 611v-258h33c73 0 122 54 122 135
c0 78 -32 126 -114 127c-16 0 -31 -1 -41 -4zM244 818h91l-124 -108h-61z" />
    <glyph glyph-name="racute" unicode="&#x155;" horiz-adv-x="248" 
d="M53 0v359c0 41 -3 89 -4 125h69l4 -77h2c16 46 57 84 102 84c6 0 11 0 16 -1v-78h-16c-49 0 -85 -45 -93 -100c-2 -13 -3 -28 -3 -44v-268h-77zM180 682h79l-105 -135h-51z" />
    <glyph glyph-name="Rcommaaccent" unicode="&#x156;" horiz-adv-x="409" 
d="M61 0v664c32 9 72 13 110 13c67 0 117 -14 152 -48c33 -34 47 -79 47 -132c0 -86 -40 -142 -108 -174v-2c50 -15 76 -63 90 -151c16 -92 29 -149 39 -170h-78c-10 20 -23 84 -36 166c-15 93 -44 127 -110 127h-30v-293h-76zM137 611v-258h33c73 0 122 54 122 135
c0 78 -32 126 -114 127c-16 0 -31 -1 -41 -4zM156 -207l-16 37c30 8 64 28 64 62c0 26 -16 47 -34 61l62 12c17 -12 35 -37 35 -70c0 -63 -54 -93 -111 -102z" />
    <glyph glyph-name="rcommaaccent" unicode="&#x157;" horiz-adv-x="248" 
d="M53 0v359c0 41 -3 89 -4 125h69l4 -77h2c16 46 57 84 102 84c6 0 11 0 16 -1v-78h-16c-49 0 -85 -45 -93 -100c-2 -13 -3 -28 -3 -44v-268h-77zM55 -214l-16 37c30 8 64 28 64 62c0 26 -16 47 -34 61l62 12c17 -12 35 -37 35 -70c0 -63 -54 -93 -111 -102z" />
    <glyph glyph-name="Rcaron" unicode="&#x158;" horiz-adv-x="409" 
d="M61 0v664c32 9 72 13 110 13c67 0 117 -14 152 -48c33 -34 47 -79 47 -132c0 -86 -40 -142 -108 -174v-2c50 -15 76 -63 90 -151c16 -92 29 -149 39 -170h-78c-10 20 -23 84 -36 166c-15 93 -44 127 -110 127h-30v-293h-76zM137 611v-258h33c73 0 122 54 122 135
c0 78 -32 126 -114 127c-16 0 -31 -1 -41 -4zM229 710h-66l-87 98h67l52 -58h2l52 58h66z" />
    <glyph glyph-name="rcaron" unicode="&#x159;" horiz-adv-x="248" 
d="M53 0v359c0 41 -3 89 -4 125h69l4 -77h2c16 46 57 84 102 84c6 0 11 0 16 -1v-78h-16c-49 0 -85 -45 -93 -100c-2 -13 -3 -28 -3 -44v-268h-77zM162 547h-53l-79 135h58l46 -87h2l47 87h58z" />
    <glyph glyph-name="Sacute" unicode="&#x15a;" horiz-adv-x="361" 
d="M28 23l17 66c22 -15 63 -27 96 -27c71 0 113 46 113 114c0 62 -36 100 -89 140c-54 37 -127 100 -127 187c0 102 71 177 178 177c42 0 78 -13 94 -25l-18 -66c-17 12 -45 23 -80 23c-67 0 -98 -50 -98 -96c0 -67 35 -93 99 -139c81 -57 117 -119 117 -194
c0 -116 -81 -189 -189 -189c-46 0 -94 15 -113 29zM229 818h91l-124 -108h-61z" />
    <glyph glyph-name="sacute" unicode="&#x15b;" horiz-adv-x="289" 
d="M22 22l19 58c17 -11 47 -25 78 -25c43 0 71 27 71 70c0 37 -13 62 -62 95c-63 40 -97 82 -97 137c0 79 58 134 133 134c38 0 66 -13 86 -25l-20 -58c-19 13 -39 22 -65 22c-41 0 -62 -30 -62 -62s12 -50 60 -83c56 -36 100 -80 100 -147c0 -97 -66 -144 -146 -144
c-35 0 -74 11 -95 28zM189 682h79l-105 -135h-51z" />
    <glyph glyph-name="Scircumflex" unicode="&#x15c;" horiz-adv-x="361" 
d="M28 23l17 66c22 -15 63 -27 96 -27c71 0 113 46 113 114c0 62 -36 100 -89 140c-54 37 -127 100 -127 187c0 102 71 177 178 177c42 0 78 -13 94 -25l-18 -66c-17 12 -45 23 -80 23c-67 0 -98 -50 -98 -96c0 -67 35 -93 99 -139c81 -57 117 -119 117 -194
c0 -116 -81 -189 -189 -189c-46 0 -94 15 -113 29zM155 808h66l87 -98h-67l-52 55h-2l-52 -55h-66z" />
    <glyph glyph-name="scircumflex" unicode="&#x15d;" horiz-adv-x="289" 
d="M22 22l19 58c17 -11 47 -25 78 -25c43 0 71 27 71 70c0 37 -13 62 -62 95c-63 40 -97 82 -97 137c0 79 58 134 133 134c38 0 66 -13 86 -25l-20 -58c-19 13 -39 22 -65 22c-41 0 -62 -30 -62 -62s12 -50 60 -83c56 -36 100 -80 100 -147c0 -97 -66 -144 -146 -144
c-35 0 -74 11 -95 28zM119 682h52l79 -135h-58l-46 87h-2l-46 -87h-58z" />
    <glyph glyph-name="Scedilla" unicode="&#x15e;" horiz-adv-x="361" 
d="M28 23l17 66c22 -15 63 -27 96 -27c71 0 113 46 113 114c0 62 -36 100 -89 140c-54 37 -127 100 -127 187c0 102 71 177 178 177c42 0 78 -13 94 -25l-18 -66c-17 12 -45 23 -80 23c-67 0 -98 -50 -98 -96c0 -67 35 -93 99 -139c81 -57 117 -119 117 -194
c0 -94 -53 -159 -129 -181l-28 -52c34 -5 66 -33 66 -71c0 -57 -47 -79 -91 -79c-25 0 -49 8 -67 18l16 42c15 -10 31 -15 50 -15c18 0 36 7 36 31c0 27 -32 39 -69 43l35 75h-8c-46 0 -94 15 -113 29z" />
    <glyph glyph-name="scedilla" unicode="&#x15f;" horiz-adv-x="289" 
d="M22 22l19 58c17 -11 47 -25 78 -25c43 0 71 27 71 70c0 37 -13 62 -62 95c-63 40 -97 82 -97 137c0 79 58 134 133 134c38 0 66 -13 86 -25l-20 -58c-19 13 -39 22 -65 22c-41 0 -62 -30 -62 -62s12 -50 60 -83c56 -36 100 -80 100 -147c0 -76 -41 -121 -95 -137l-27 -51
c34 -5 66 -33 66 -71c0 -57 -47 -79 -91 -79c-25 0 -49 8 -67 18l16 42c16 -10 31 -15 50 -15s36 7 36 30c0 27 -30 40 -69 44l35 75h-4c-28 0 -67 9 -91 28z" />
    <glyph glyph-name="Scaron" unicode="&#x160;" horiz-adv-x="361" 
d="M28 23l17 66c22 -15 63 -27 96 -27c71 0 113 46 113 114c0 62 -36 100 -89 140c-54 37 -127 100 -127 187c0 102 71 177 178 177c42 0 78 -13 94 -25l-18 -66c-17 12 -45 23 -80 23c-67 0 -98 -50 -98 -96c0 -67 35 -93 99 -139c81 -57 117 -119 117 -194
c0 -116 -81 -189 -189 -189c-46 0 -94 15 -113 29zM229 710h-66l-87 98h67l52 -58h2l52 58h66z" />
    <glyph glyph-name="scaron" unicode="&#x161;" horiz-adv-x="289" 
d="M22 22l19 58c17 -11 47 -25 78 -25c43 0 71 27 71 70c0 37 -13 62 -62 95c-63 40 -97 82 -97 137c0 79 58 134 133 134c38 0 66 -13 86 -25l-20 -58c-19 13 -39 22 -65 22c-41 0 -62 -30 -62 -62s12 -50 60 -83c56 -36 100 -80 100 -147c0 -97 -66 -144 -146 -144
c-35 0 -74 11 -95 28zM173 547h-52l-79 135h58l45 -87h2l48 87h58z" />
    <glyph glyph-name="Tcommaaccent" unicode="&#x162;" horiz-adv-x="354" 
d="M139 0v605h-123v69h323v-69h-123v-605h-77zM122 -214l-16 37c30 8 64 28 64 62c0 26 -16 47 -34 61l62 12c17 -12 35 -37 35 -70c0 -63 -54 -93 -111 -102z" />
    <glyph glyph-name="tcommaaccent" unicode="&#x163;" horiz-adv-x="255" 
d="M71 566l77 31v-113h93v-58h-93v-288c0 -63 22 -80 50 -80c13 0 23 1 31 3l4 -59c-14 -5 -32 -8 -57 -8c-31 0 -58 8 -76 29c-20 22 -29 55 -29 122v281h-59v58h59v82zM85 -214l-16 37c30 8 64 28 64 62c0 26 -16 47 -34 61l62 12c17 -12 35 -37 35 -70
c0 -63 -54 -93 -111 -102z" />
    <glyph glyph-name="Tcaron" unicode="&#x164;" horiz-adv-x="354" 
d="M139 0v605h-123v69h323v-69h-123v-605h-77zM209 710h-66l-87 98h67l52 -58h2l52 58h66z" />
    <glyph glyph-name="tcaron" unicode="&#x165;" horiz-adv-x="265" 
d="M71 566l77 31v-113h93v-58h-93v-288c0 -63 23 -80 51 -80c12 0 22 1 31 3l3 -59c-13 -5 -32 -8 -57 -8c-31 0 -58 8 -76 29c-20 22 -29 55 -29 122v281h-59v58h59v82zM263 536l-37 20c14 18 29 49 29 82c0 28 -14 50 -30 62l60 11c16 -11 33 -33 33 -66
c0 -54 -38 -92 -55 -109z" />
    <glyph glyph-name="Tbar" unicode="&#x166;" horiz-adv-x="354" 
d="M339 605h-123v-226h84v-56h-84v-323h-77v323h-84v56h84v226h-123v69h323v-69z" />
    <glyph glyph-name="tbar" unicode="&#x167;" horiz-adv-x="255" 
d="M241 426h-93v-117h73v-53h-73v-118c0 -63 22 -80 50 -80c13 0 23 1 31 3l4 -59c-14 -5 -32 -8 -57 -8c-31 0 -58 8 -76 29c-20 22 -29 55 -29 122v111h-55v53h55v117h-59v58h59v82l77 31v-113h93v-58z" />
    <glyph glyph-name="Utilde" unicode="&#x168;" horiz-adv-x="457" 
d="M59 674h77v-452c0 -121 41 -162 91 -162c57 0 94 44 94 162v452h77v-440c0 -175 -72 -242 -172 -242c-101 0 -167 66 -167 233v449zM163 718h-41c-1 56 21 94 59 94c20 0 34 -9 47 -17c15 -9 26 -18 40 -18c16 0 23 9 26 37h40c1 -57 -18 -90 -62 -90c-19 0 -36 8 -49 17
c-13 8 -24 16 -36 16c-15 0 -21 -13 -24 -39z" />
    <glyph glyph-name="utilde" unicode="&#x169;" horiz-adv-x="398" 
d="M344 484v-352c0 -53 3 -96 4 -132h-67l-6 51h-2c-14 -24 -51 -59 -103 -59c-84 0 -118 66 -118 186v306h77v-295c0 -76 12 -132 65 -132c45 0 65 42 69 64c3 13 4 28 4 44v319h77zM133 561h-43c-1 53 21 94 62 94c20 0 35 -9 50 -18c14 -8 25 -17 39 -17c15 0 24 7 25 36
h41c0 -55 -20 -89 -63 -89c-18 0 -35 9 -49 17s-25 17 -38 17c-15 0 -22 -14 -24 -40z" />
    <glyph glyph-name="Umacron" unicode="&#x16a;" horiz-adv-x="457" 
d="M59 674h77v-452c0 -121 41 -162 91 -162c57 0 94 44 94 162v452h77v-440c0 -175 -72 -242 -172 -242c-101 0 -167 66 -167 233v449zM121 788h213v-53h-213v53z" />
    <glyph glyph-name="umacron" unicode="&#x16b;" horiz-adv-x="398" 
d="M344 484v-352c0 -53 3 -96 4 -132h-67l-6 51h-2c-14 -24 -51 -59 -103 -59c-84 0 -118 66 -118 186v306h77v-295c0 -76 12 -132 65 -132c45 0 65 42 69 64c3 13 4 28 4 44v319h77zM99 631h197v-51h-197v51z" />
    <glyph glyph-name="Ubreve" unicode="&#x16c;" horiz-adv-x="457" 
d="M59 674h77v-452c0 -121 41 -162 91 -162c57 0 94 44 94 162v452h77v-440c0 -175 -72 -242 -172 -242c-101 0 -167 66 -167 233v449zM121 807h45c5 -27 28 -43 61 -43s56 13 62 43h45c0 -57 -40 -96 -106 -96c-67 0 -107 36 -107 96z" />
    <glyph glyph-name="ubreve" unicode="&#x16d;" horiz-adv-x="398" 
d="M344 484v-352c0 -53 3 -96 4 -132h-67l-6 51h-2c-14 -24 -51 -59 -103 -59c-84 0 -118 66 -118 186v306h77v-295c0 -76 12 -132 65 -132c45 0 65 42 69 64c3 13 4 28 4 44v319h77zM93 669h43c3 -36 27 -61 62 -61c39 0 63 26 64 61h43c2 -65 -40 -113 -107 -113
c-69 0 -107 50 -105 113z" />
    <glyph glyph-name="Uring" unicode="&#x16e;" horiz-adv-x="457" 
d="M59 674h77v-452c0 -121 41 -162 91 -162c57 0 94 44 94 162v452h77v-440c0 -175 -72 -242 -172 -242c-101 0 -167 66 -167 233v449zM230 862c58 0 92 -40 92 -88c0 -47 -37 -87 -93 -87c-60 0 -95 40 -95 86c0 47 36 89 96 89zM226 826c-29 0 -44 -26 -44 -53
c0 -24 17 -49 45 -49c30 0 47 23 47 51c0 27 -17 51 -48 51z" />
    <glyph glyph-name="uring" unicode="&#x16f;" horiz-adv-x="398" 
d="M344 484v-352c0 -53 3 -96 4 -132h-67l-6 51h-2c-14 -24 -51 -59 -103 -59c-84 0 -118 66 -118 186v306h77v-295c0 -76 12 -132 65 -132c45 0 65 42 69 64c3 13 4 28 4 44v319h77zM200 533c-57 0 -94 38 -94 85c0 49 35 89 95 89c55 0 91 -38 91 -88
c0 -48 -39 -86 -92 -86zM199 568c31 0 48 24 48 52c0 27 -16 52 -49 52c-30 0 -45 -27 -45 -54c0 -23 16 -50 46 -50z" />
    <glyph glyph-name="Uhungarumlaut" unicode="&#x170;" horiz-adv-x="457" 
d="M59 674h77v-452c0 -121 41 -162 91 -162c57 0 94 44 94 162v452h77v-440c0 -175 -72 -242 -172 -242c-101 0 -167 66 -167 233v449zM198 818h81l-99 -99h-54zM326 818h80l-99 -99h-54z" />
    <glyph glyph-name="uhungarumlaut" unicode="&#x171;" horiz-adv-x="398" 
d="M344 484v-352c0 -53 3 -96 4 -132h-67l-6 51h-2c-14 -24 -51 -59 -103 -59c-84 0 -118 66 -118 186v306h77v-295c0 -76 12 -132 65 -132c45 0 65 42 69 64c3 13 4 28 4 44v319h77zM188 682h70l-104 -135h-44zM312 682h70l-104 -135h-44z" />
    <glyph glyph-name="Uogonek" unicode="&#x172;" horiz-adv-x="457" 
d="M323 -127l11 -43c-21 -15 -50 -22 -72 -22c-51 0 -84 30 -84 76c0 40 25 81 50 109c-4 0 -8 -1 -12 0c-93 4 -157 69 -157 232v449h77v-452c0 -122 41 -162 91 -162c57 0 94 43 94 162v452h77v-440c0 -121 -35 -194 -93 -222c-36 -28 -66 -73 -66 -108
c0 -30 19 -42 40 -42c15 0 31 4 44 11z" />
    <glyph glyph-name="uogonek" unicode="&#x173;" horiz-adv-x="398" 
d="M344 484v-352c0 -54 3 -100 6 -132h-15c-16 -22 -41 -65 -41 -103c0 -31 21 -46 41 -46c19 0 33 3 43 8l11 -43c-23 -16 -50 -21 -72 -21c-51 0 -84 31 -84 83c0 50 31 97 48 122l-6 51h-2c-14 -24 -51 -59 -103 -59c-84 0 -118 66 -118 186v306h77v-295
c0 -76 12 -132 65 -132c45 0 65 42 69 64c3 13 4 28 4 44v319h77z" />
    <glyph glyph-name="Wcircumflex" unicode="&#x174;" horiz-adv-x="654" 
d="M222 0h-73l-129 674h79l57 -325c15 -85 25 -160 34 -243h3c9 85 24 158 41 244l62 324h65l63 -317c15 -80 30 -157 39 -251h3c11 97 23 170 35 247l56 321h76l-131 -674h-76l-64 328c-14 71 -26 147 -35 221h-2c-9 -76 -21 -149 -37 -224zM296 808h66l87 -98h-67l-52 55
h-2l-52 -55h-66z" />
    <glyph glyph-name="wcircumflex" unicode="&#x175;" horiz-adv-x="566" 
d="M13 484h80l47 -237c10 -52 20 -104 26 -154h4c7 50 19 106 30 152l56 239h59l53 -232c12 -54 23 -105 31 -159h4c6 51 15 101 26 156l46 235h77l-122 -484h-63l-56 235c-12 47 -19 90 -27 145h-2c-8 -57 -17 -102 -28 -148l-58 -232h-65zM257 682h52l79 -135h-58l-46 87
h-2l-46 -87h-58z" />
    <glyph glyph-name="Ycircumflex" unicode="&#x176;" horiz-adv-x="394" 
d="M235 0h-77v285l-149 389h82l60 -169c16 -47 35 -100 50 -152h2c13 52 31 103 49 155l57 166h80l-154 -386v-288zM167 808h66l87 -98h-67l-52 55h-2l-52 -55h-66z" />
    <glyph glyph-name="ycircumflex" unicode="&#x177;" horiz-adv-x="346" 
d="M12 484h81l65 -278c8 -38 13 -69 20 -100h2c5 28 13 64 20 99l58 279h76l-79 -311c-30 -121 -64 -238 -120 -312c-34 -43 -70 -65 -87 -73l-29 65c23 13 47 34 69 61c20 26 35 58 43 82c4 11 6 17 6 24c0 6 -1 12 -3 18zM148 682h52l79 -135h-58l-46 87h-2l-46 -87h-58z
" />
    <glyph glyph-name="Ydieresis" unicode="&#x178;" horiz-adv-x="394" 
d="M235 0h-77v285l-149 389h82l60 -169c16 -47 35 -100 50 -152h2c13 52 31 103 49 155l57 166h80l-154 -386v-288zM121 718c-24 0 -42 19 -42 47c0 26 19 46 43 46c26 0 43 -20 43 -46c0 -28 -17 -47 -44 -47zM283 718c-24 0 -42 19 -42 47c0 26 19 46 43 46
c26 0 43 -20 43 -46c0 -28 -17 -47 -44 -47z" />
    <glyph glyph-name="Zacute" unicode="&#x179;" horiz-adv-x="358" 
d="M20 0v46l231 560v2h-212v66h298v-52l-227 -553v-3h226v-66h-316zM235 818h90l-124 -108h-61z" />
    <glyph glyph-name="zacute" unicode="&#x17a;" horiz-adv-x="313" 
d="M16 0v47l153 300c12 24 28 50 38 71v2h-172v64h258v-51l-151 -295c-14 -24 -28 -50 -39 -72v-2h189v-64h-276zM206 682h80l-105 -135h-51z" />
    <glyph glyph-name="Zdotaccent" unicode="&#x17b;" horiz-adv-x="358" 
d="M20 0v46l231 560v2h-212v66h298v-52l-227 -553v-3h226v-66h-316zM192 721c-24 0 -44 20 -44 44c0 26 20 45 45 45s44 -19 44 -45c0 -24 -19 -44 -45 -44z" />
    <glyph glyph-name="zdotaccent" unicode="&#x17c;" horiz-adv-x="313" 
d="M16 0v47l153 300c12 24 28 50 38 71v2h-172v64h258v-51l-151 -295c-14 -24 -28 -50 -39 -72v-2h189v-64h-276zM161 566c-24 0 -44 19 -44 44c0 26 20 45 45 45c23 0 42 -19 42 -45c0 -25 -18 -44 -43 -44z" />
    <glyph glyph-name="Zcaron" unicode="&#x17d;" horiz-adv-x="358" 
d="M20 0v46l231 560v2h-212v66h298v-52l-227 -553v-3h226v-66h-316zM222 710h-66l-87 98h67l52 -58h2l52 58h66z" />
    <glyph glyph-name="zcaron" unicode="&#x17e;" horiz-adv-x="313" 
d="M16 0v47l153 300c12 24 28 50 38 71v2h-172v64h258v-51l-151 -295c-14 -24 -28 -50 -39 -72v-2h189v-64h-276zM191 547h-52l-79 135h58l46 -87h2l47 87h58z" />
    <glyph glyph-name="florin" unicode="&#x192;" horiz-adv-x="385" 
d="M78 346v60h81l7 55c12 98 48 197 157 197c19 0 40 -4 55 -12l-12 -57c-14 5 -28 7 -43 7c-54 0 -74 -59 -83 -127l-8 -63h91v-60h-96l-28 -230c-14 -117 -46 -196 -148 -196c-25 1 -49 7 -63 17l15 56c12 -6 31 -11 45 -11c43 0 67 39 81 151l25 213h-76z" />
    <glyph glyph-name="Ohorn" unicode="&#x1a0;" horiz-adv-x="446" 
d="M225 60c86 0 109 147 109 279c0 126 -23 275 -110 275s-112 -148 -112 -276c-1 -131 25 -278 113 -278zM361 728l59 10c9 -17 16 -41 16 -67c0 -43 -23 -80 -72 -79c28 -49 50 -127 50 -250c0 -253 -86 -350 -195 -350c-112 0 -187 119 -187 346c0 223 81 344 198 344
c24 0 50 -7 71 -18c25 -13 36 -23 49 -23c19 0 26 10 26 31c0 22 -8 41 -15 56z" />
    <glyph glyph-name="ohorn" unicode="&#x1a1;" horiz-adv-x="383" 
d="M192 430c-69 0 -82 -114 -82 -188c0 -80 14 -189 84 -189c66 0 80 113 80 189c0 74 -14 188 -82 188zM315 547l58 9c9 -16 17 -40 17 -66c0 -47 -27 -76 -75 -76c21 -37 36 -97 36 -172c0 -187 -86 -250 -161 -250c-87 0 -157 79 -157 249c0 176 79 250 162 250
c20 0 40 -6 56 -12c14 -6 30 -17 50 -17c17 0 29 10 29 31c0 20 -7 39 -15 54z" />
    <glyph glyph-name="Uhorn" unicode="&#x1af;" horiz-adv-x="474" 
d="M406 757l59 9c8 -18 14 -40 14 -65c0 -42 -19 -73 -71 -75l-10 -1v-391c0 -175 -72 -242 -172 -242c-101 0 -167 66 -167 233v449h77v-452c0 -121 41 -162 91 -162c57 0 94 44 94 162v452h62c26 0 36 7 36 29c0 19 -5 38 -13 54z" />
    <glyph glyph-name="uhorn" unicode="&#x1b0;" horiz-adv-x="398" 
d="M346 569l59 10c9 -16 16 -40 16 -65c0 -40 -21 -71 -71 -74h-6v-309c0 -53 3 -95 4 -131h-67l-6 50h-2c-14 -23 -51 -58 -103 -58c-84 0 -118 66 -118 186v306h77v-295c0 -76 12 -133 65 -132c45 0 65 42 69 64c3 13 4 28 4 44v319h58c27 0 35 10 35 32
c0 18 -6 38 -14 53z" />
    <glyph glyph-name="Aringacute" unicode="&#x1fa;" horiz-adv-x="435" 
d="M222 688c-57 0 -85 33 -85 72c0 40 31 75 86 75s83 -33 83 -74c0 -39 -29 -73 -84 -73zM221 721c27 0 41 17 41 41c0 20 -13 40 -41 40s-40 -21 -40 -41c0 -21 14 -40 40 -40zM285 935h98l-137 -82h-65zM291 202h-150l-44 -202h-75l154 674h86l149 -674h-76zM152 264h128
l-35 171c-10 48 -19 104 -27 154h-3c-8 -51 -18 -109 -28 -154z" />
    <glyph glyph-name="aringacute" unicode="&#x1fb;" horiz-adv-x="364" 
d="M234 806h81l-116 -95h-53zM309 320v-210c0 -37 1 -79 6 -110h-70l-5 51h-2c-22 -37 -55 -59 -97 -59c-65 0 -115 54 -115 138c0 122 97 175 206 176v15c0 65 -16 109 -77 109c-30 0 -57 -9 -80 -25l-16 54c20 15 64 32 112 32c97 0 138 -63 138 -171zM234 152v99
c-39 0 -133 -8 -133 -113c0 -64 32 -86 60 -86c33 0 61 25 70 73c2 9 3 19 3 27zM185 516c-57 0 -94 38 -94 85c0 49 35 89 95 89c55 0 90 -38 90 -88c0 -48 -38 -86 -91 -86zM184 551c31 0 47 24 47 52c0 27 -15 52 -48 52c-30 0 -45 -27 -45 -54c0 -24 17 -50 46 -50z" />
    <glyph glyph-name="AEacute" unicode="&#x1fc;" horiz-adv-x="556" 
d="M84 0h-76l203 674h304v-67h-186l13 -226h171v-65h-165l14 -249h179l-1 -67h-247l-13 222h-134zM162 284h112l-9 205c-2 43 -4 90 -6 131h-5c-12 -45 -27 -100 -39 -143zM384 818h91l-124 -108h-61z" />
    <glyph glyph-name="aeacute" unicode="&#x1fd;" horiz-adv-x="561" 
d="M531 241h-225c0 -149 51 -188 114 -188c34 0 61 9 82 21l14 -55c-35 -22 -76 -27 -112 -27c-57 0 -114 32 -133 93h-2c-21 -57 -65 -93 -124 -93c-68 0 -119 55 -119 140c0 117 96 170 207 170v27c0 57 -24 101 -81 101c-29 0 -58 -11 -78 -25l-17 53c25 18 68 33 111 33
c50 0 97 -26 111 -87h2c22 55 67 87 118 87c94 0 133 -105 133 -212c0 -13 -1 -25 -1 -38zM234 154v95c-41 0 -136 -9 -136 -112c0 -60 32 -84 63 -84c32 0 61 26 70 73c2 9 3 19 3 28zM308 296h150c3 92 -33 136 -69 136c-52 0 -79 -69 -81 -136zM331 682h79l-105 -135h-51
z" />
    <glyph glyph-name="Oslashacute" unicode="&#x1fe;" horiz-adv-x="446" 
d="M86 -37l-42 23l42 95c-36 59 -54 146 -54 257c0 224 81 344 192 344c35 0 70 -11 101 -41l30 70l46 -20l-40 -91c36 -61 53 -151 53 -257c0 -252 -87 -351 -191 -351c-35 0 -73 12 -103 45zM129 172l164 398c-17 26 -42 44 -69 44c-86 0 -115 -140 -115 -276
c0 -50 2 -110 18 -166h2zM317 507l-168 -397c19 -35 45 -50 75 -50c86 0 113 142 113 279c0 51 -2 110 -18 168h-2zM275 818h91l-124 -108h-61z" />
    <glyph glyph-name="oslashacute" unicode="&#x1ff;" horiz-adv-x="383" 
d="M194 491c27 0 55 -10 80 -30l26 53l41 -22l-33 -67c27 -41 43 -102 43 -183c0 -187 -87 -250 -158 -250c-30 0 -58 10 -82 28l-25 -53l-39 25l31 64c-28 40 -45 102 -45 185c0 176 80 250 161 250zM122 130l122 268c-9 20 -26 32 -52 32c-74 0 -85 -119 -85 -188
c0 -31 2 -70 13 -110zM263 347l-120 -264c10 -18 26 -30 50 -30c70 0 84 110 84 184c0 31 -1 69 -12 110h-2zM230 682h78l-105 -135h-51z" />
    <glyph glyph-name="Scommaaccent" unicode="&#x218;" horiz-adv-x="361" 
d="M28 23l17 66c22 -15 63 -27 96 -27c71 0 113 46 113 114c0 62 -36 100 -89 140c-54 37 -127 100 -127 187c0 102 71 177 178 177c42 0 78 -13 94 -25l-18 -66c-17 12 -45 23 -80 23c-67 0 -98 -50 -98 -96c0 -67 35 -93 99 -139c81 -57 117 -119 117 -194
c0 -116 -81 -189 -189 -189c-46 0 -94 15 -113 29zM118 -214l-16 37c30 8 64 28 64 62c0 26 -16 47 -34 61l62 12c17 -12 35 -37 35 -70c0 -63 -54 -93 -111 -102z" />
    <glyph glyph-name="scommaaccent" unicode="&#x219;" horiz-adv-x="289" 
d="M22 22l19 58c17 -11 47 -25 78 -25c43 0 71 27 71 70c0 37 -13 62 -62 95c-63 40 -97 82 -97 137c0 79 58 134 133 134c38 0 66 -13 86 -25l-20 -58c-19 13 -39 22 -65 22c-41 0 -62 -30 -62 -62s12 -50 60 -83c56 -36 100 -80 100 -147c0 -97 -66 -144 -146 -144
c-35 0 -74 11 -95 28zM90 -214l-16 37c30 8 64 28 64 62c0 26 -16 47 -34 61l62 12c17 -12 35 -37 35 -70c0 -63 -54 -93 -111 -102z" />
    <glyph glyph-name="uni021A" unicode="&#x21a;" horiz-adv-x="354" 
d="M139 0v605h-123v69h323v-69h-123v-605h-77zM122 -214l-16 37c30 8 64 28 64 62c0 26 -16 47 -34 61l62 12c17 -12 35 -37 35 -70c0 -63 -54 -93 -111 -102z" />
    <glyph glyph-name="uni021B" unicode="&#x21b;" horiz-adv-x="255" 
d="M71 566l77 31v-113h93v-58h-93v-288c0 -63 22 -80 50 -80c13 0 23 1 31 3l4 -59c-14 -5 -32 -8 -57 -8c-31 0 -58 8 -76 29c-20 22 -29 55 -29 122v281h-59v58h59v82zM85 -214l-16 37c30 8 64 28 64 62c0 26 -16 47 -34 61l62 12c17 -12 35 -37 35 -70
c0 -63 -54 -93 -111 -102z" />
    <glyph glyph-name="uni021C" unicode="&#x21c;" horiz-adv-x="340" 
d="M32 -106l-9 62c107 18 209 96 209 223c0 73 -40 129 -105 128c-22 0 -42 -4 -63 -11l-11 58c69 15 145 84 144 175c0 51 -31 89 -81 89c-33 0 -59 -12 -77 -21l-15 56c24 15 68 29 110 29c86 0 138 -68 137 -142c0 -81 -43 -145 -92 -176v-3c71 -14 131 -75 131 -179
c0 -169 -152 -277 -278 -288z" />
    <glyph glyph-name="uni021D" unicode="&#x21d;" horiz-adv-x="311" 
d="M20 -200l-6 63c92 8 201 68 201 182c0 54 -33 105 -105 105c-20 0 -37 -3 -57 -8l-10 58c71 17 138 58 138 136c0 57 -32 91 -78 91c-33 0 -56 -13 -73 -21l-16 55c23 15 63 30 105 30c85 0 135 -64 135 -138c0 -72 -38 -122 -87 -149v-3c68 -12 124 -64 124 -151
c0 -150 -144 -241 -271 -250z" />
    <glyph glyph-name="uni0232" unicode="&#x232;" horiz-adv-x="394" 
d="M235 0h-77v285l-149 389h82l60 -169c16 -47 35 -100 50 -152h2c13 52 31 103 49 155l57 166h80l-154 -386v-288zM90 788h213v-53h-213v53z" />
    <glyph glyph-name="uni0233" unicode="&#x233;" horiz-adv-x="346" 
d="M12 484h81l65 -278c8 -38 13 -69 20 -100h2c5 28 13 64 20 99l58 279h76l-79 -311c-30 -121 -64 -238 -120 -312c-34 -43 -70 -65 -87 -73l-29 65c23 13 47 34 69 61c20 26 35 58 43 82c4 11 6 17 6 24c0 6 -1 12 -3 18zM75 631h197v-51h-197v51z" />
    <glyph glyph-name="circumflex" unicode="&#x2c6;" 
d="M124 682h52l79 -135h-58l-46 87h-2l-46 -87h-58z" />
    <glyph glyph-name="caron" unicode="&#x2c7;" 
d="M177 547h-53l-79 135h58l46 -87h2l47 87h58z" />
    <glyph glyph-name="uni02C9" unicode="&#x2c9;" 
d="M52 631h197v-51h-197v51z" />
    <glyph glyph-name="breve" unicode="&#x2d8;" 
d="M44 669h43c3 -36 27 -61 62 -61c39 0 63 26 64 61h43c2 -65 -40 -113 -107 -113c-69 0 -107 50 -105 113z" />
    <glyph glyph-name="dotaccent" unicode="&#x2d9;" 
d="M151 566c-24 0 -44 19 -44 44c0 26 20 45 45 45c23 0 42 -19 42 -45c0 -25 -18 -44 -43 -44z" />
    <glyph glyph-name="ring" unicode="&#x2da;" 
d="M117 533c-57 0 -94 38 -94 85c0 49 35 89 95 89c55 0 91 -38 91 -88c0 -48 -39 -86 -92 -86zM116 568c31 0 48 24 48 52c0 27 -16 52 -49 52c-30 0 -45 -27 -45 -54c0 -23 16 -50 46 -50z" />
    <glyph glyph-name="ogonek" unicode="&#x2db;" 
d="M123 5h54c-16 -24 -44 -69 -44 -102c0 -31 21 -46 41 -46c17 0 30 3 43 9l11 -43c-21 -16 -50 -22 -72 -22c-51 0 -84 31 -84 81c0 52 33 100 51 123z" />
    <glyph glyph-name="tilde" unicode="&#x2dc;" 
d="M84 561h-43c-1 53 21 94 62 94c21 0 35 -9 49 -18c15 -8 26 -17 40 -17c15 0 24 7 25 36h41c0 -55 -20 -89 -63 -89c-18 0 -35 9 -49 17s-25 17 -38 17c-15 0 -22 -14 -24 -40z" />
    <glyph glyph-name="hungarumlaut" unicode="&#x2dd;" 
d="M112 682h70l-104 -135h-44zM236 682h70l-104 -135h-44z" />
    <glyph glyph-name="uni037E" unicode="&#x37e;" horiz-adv-x="200" 
d="M82 -119l-51 -7c17 58 40 164 45 233l85 5c-17 -76 -56 -187 -79 -231zM111 329c-30 0 -52 25 -52 59c0 35 23 61 53 61c32 0 53 -25 53 -61c0 -34 -20 -59 -54 -59z" />
    <glyph glyph-name="tonos" unicode="&#x384;" horiz-adv-x="305" 
d="M108 683h68l-56 -135h-45z" />
    <glyph glyph-name="dieresistonos" unicode="&#x385;" horiz-adv-x="350" 
d="M152 692h66l-36 -147h-42zM72 568c-23 0 -42 17 -42 41c0 25 19 41 43 41c20 0 38 -16 38 -41c0 -24 -18 -41 -39 -41zM273 568c-21 0 -40 17 -40 41c0 25 19 41 41 41s40 -16 40 -41c0 -24 -18 -41 -41 -41z" />
    <glyph glyph-name="Alphatonos" unicode="&#x386;" horiz-adv-x="444" 
d="M299 202h-149l-45 -202h-74l154 674h85l149 -674h-75zM160 264h129l-36 171c-10 48 -19 104 -27 154h-3c-8 -51 -18 -109 -27 -154zM44 674h66l-29 -148h-41z" />
    <glyph glyph-name="anoteleia" unicode="&#x387;" horiz-adv-x="200" 
d="M99 257c-30 0 -54 25 -54 62s25 63 55 63c33 0 55 -25 55 -63c0 -37 -21 -62 -56 -62z" />
    <glyph glyph-name="Epsilontonos" unicode="&#x388;" horiz-adv-x="406" 
d="M358 385v-65h-169v-253h192v-67h-269v674h257v-67h-180v-222h169zM4 674h66l-29 -148h-41z" />
    <glyph glyph-name="Etatonos" unicode="&#x389;" horiz-adv-x="515" 
d="M113 674h76v-289h189v289h77v-674h-77v315h-189v-315h-76v674zM4 674h66l-29 -148h-40z" />
    <glyph glyph-name="Iotatonos" unicode="&#x38a;" horiz-adv-x="249" 
d="M112 674h77v-674h-77v674zM4 674h66l-29 -148h-41z" />
    <glyph glyph-name="Omicrontonos" unicode="&#x38c;" horiz-adv-x="482" 
d="M255 -8c-112 0 -187 119 -187 346c0 223 81 344 198 344c115 0 184 -125 184 -340c0 -253 -86 -350 -195 -350zM261 60c86 0 109 147 109 279c0 126 -23 275 -110 275s-112 -148 -112 -276c-1 -131 25 -278 113 -278zM4 674h66l-29 -148h-41z" />
    <glyph glyph-name="Upsilontonos" unicode="&#x38e;" horiz-adv-x="514" 
d="M95 615l16 65c11 -1 50 -15 79 -42c54 -50 101 -152 111 -284h4c13 127 64 218 108 267c34 36 73 55 83 59l16 -67c-67 -35 -138 -144 -165 -316c-6 -37 -10 -74 -10 -118v-179h-77v179c0 42 -3 81 -6 117c-24 184 -84 287 -159 319zM4 674h66l-29 -148h-41z" />
    <glyph glyph-name="Omegatonos" unicode="&#x38f;" horiz-adv-x="504" 
d="M372 69v-3h99v-66h-177v52c57 63 90 188 89 307c-1 114 -27 255 -115 255c-87 0 -116 -139 -116 -252c0 -112 38 -253 89 -310v-52h-177v66h99v3c-49 69 -91 179 -91 304c0 195 86 309 203 309c116 0 188 -120 188 -304c0 -131 -42 -244 -91 -309zM4 674h66l-29 -148h-41
z" />
    <glyph glyph-name="iotadieresistonos" unicode="&#x390;" horiz-adv-x="188" 
d="M131 484v-383c0 -38 9 -49 37 -49l-6 -57c-10 -2 -20 -3 -30 -3c-38 0 -78 15 -78 104v388h77zM84 683h63l-35 -145h-40zM4 562c-23 0 -42 17 -42 41s20 40 43 40c20 0 38 -16 38 -40s-18 -41 -39 -41zM202 562c-21 0 -40 17 -40 41s20 40 41 40c22 0 40 -16 40 -40
s-18 -41 -41 -41z" />
    <glyph glyph-name="Alpha" unicode="&#x391;" horiz-adv-x="435" 
d="M291 202h-150l-44 -202h-75l154 674h85l150 -674h-76zM152 264h128l-35 171c-10 48 -19 104 -27 154h-3c-8 -51 -18 -109 -28 -154z" />
    <glyph glyph-name="Beta" unicode="&#x392;" horiz-adv-x="416" 
d="M61 3v661c32 8 69 13 112 13c61 0 113 -13 149 -47c29 -27 44 -67 44 -115c0 -69 -38 -123 -104 -149v-3c78 -21 125 -84 125 -172c0 -56 -18 -101 -48 -134c-38 -43 -101 -61 -178 -61c-49 0 -79 3 -100 7zM137 612v-224h35c63 0 117 48 117 119c0 62 -29 110 -111 110
c-18 0 -32 -2 -41 -5zM137 329v-268c9 -2 22 -4 39 -4c79 0 131 47 131 134c0 93 -64 137 -136 138h-34z" />
    <glyph glyph-name="Gamma" unicode="&#x393;" horiz-adv-x="331" 
d="M60 674h257v-65h-180v-609h-77v674z" />
    <glyph glyph-name="uni0394" unicode="&#x394;" horiz-adv-x="436" 
d="M24 0v44l153 630h86l150 -629v-45h-389zM101 68h234l-83 350c-12 53 -25 121 -33 171h-3c-8 -51 -21 -116 -33 -169z" />
    <glyph glyph-name="Epsilon" unicode="&#x395;" horiz-adv-x="354" 
d="M306 385v-65h-169v-253h192v-67h-269v674h257v-67h-180v-222h169z" />
    <glyph glyph-name="Zeta" unicode="&#x396;" horiz-adv-x="358" 
d="M20 0v46l231 560v2h-212v66h298v-52l-227 -553v-3h226v-66h-316z" />
    <glyph glyph-name="Eta" unicode="&#x397;" horiz-adv-x="463" 
d="M60 674h77v-289h189v289h77v-674h-77v315h-189v-315h-77v674z" />
    <glyph glyph-name="Theta" unicode="&#x398;" horiz-adv-x="449" 
d="M220 -8c-112 0 -188 119 -188 346c0 223 81 344 199 344c116 0 186 -125 186 -340c0 -253 -87 -350 -197 -350zM226 59c88 0 112 147 112 280c0 127 -24 276 -113 276c-88 0 -114 -148 -114 -277c0 -132 26 -279 115 -279zM150 382h149v-70h-149v70z" />
    <glyph glyph-name="Iota" unicode="&#x399;" horiz-adv-x="199" 
d="M60 674h77v-674h-77v674z" />
    <glyph glyph-name="Kappa" unicode="&#x39a;" horiz-adv-x="404" 
d="M61 0v674h76v-320h2c16 28 29 55 42 81l126 239h85l-165 -288l169 -386h-83l-138 325l-38 -65v-260h-76z" />
    <glyph glyph-name="Lambda" unicode="&#x39b;" horiz-adv-x="434" 
d="M412 0h-79l-87 405c-12 58 -21 114 -30 175h-4c-8 -62 -18 -119 -28 -176l-85 -404h-78l155 674h81z" />
    <glyph glyph-name="Mu" unicode="&#x39c;" horiz-adv-x="599" 
d="M482 0l-14 290c-5 89 -10 188 -7 264h-4c-15 -75 -33 -155 -54 -234l-82 -316h-50l-78 303c-23 86 -42 169 -56 247h-3c1 -79 -4 -173 -8 -269l-13 -285h-69l40 674h84l78 -308c23 -89 40 -155 54 -232h3c13 77 28 141 50 232l76 308h86l39 -674h-72z" />
    <glyph glyph-name="Nu" unicode="&#x39d;" horiz-adv-x="465" 
d="M130 0h-69v674h72l124 -316c28 -73 63 -162 86 -235h2c-6 106 -9 193 -9 310v241h69v-674h-72l-128 324c-28 68 -57 145 -81 229h-2c6 -90 8 -176 8 -320v-233z" />
    <glyph glyph-name="Xi" unicode="&#x39e;" horiz-adv-x="362" 
d="M35 674h292v-67h-292v67zM53 383h254v-66h-254v66zM29 67h304v-67h-304v67z" />
    <glyph glyph-name="Omicron" unicode="&#x39f;" horiz-adv-x="446" 
d="M219 -8c-112 0 -187 119 -187 346c0 223 81 344 198 344c115 0 184 -125 184 -340c0 -253 -86 -350 -195 -350zM225 60c86 0 109 147 109 279c0 126 -23 275 -110 275s-112 -148 -112 -276c-1 -131 25 -278 113 -278z" />
    <glyph glyph-name="Pi" unicode="&#x3a0;" horiz-adv-x="451" 
d="M391 674v-674h-77v604h-177v-604h-77v674h331z" />
    <glyph glyph-name="Rho" unicode="&#x3a1;" horiz-adv-x="399" 
d="M61 0v664c31 8 67 13 111 13c62 0 115 -15 150 -49c32 -32 49 -81 49 -140c0 -62 -15 -104 -41 -138c-36 -50 -99 -75 -159 -75c-13 0 -23 0 -34 1v-276h-76zM137 609v-269c9 -1 18 -2 31 -2c75 0 126 49 126 145c0 69 -28 131 -114 131c-18 0 -33 -2 -43 -5z" />
    <glyph glyph-name="Sigma" unicode="&#x3a3;" horiz-adv-x="407" 
d="M106 71v-4h272v-67h-362v51l173 285l-163 287v51h329v-66h-235v-4l148 -264z" />
    <glyph glyph-name="Tau" unicode="&#x3a4;" horiz-adv-x="354" 
d="M139 0v605h-123v69h323v-69h-123v-605h-77z" />
    <glyph glyph-name="Upsilon" unicode="&#x3a5;" horiz-adv-x="425" 
d="M6 615l16 65c11 -1 50 -15 79 -42c54 -50 101 -152 111 -284h4c13 127 64 218 108 267c34 36 73 55 83 59l16 -67c-67 -35 -138 -144 -165 -316c-6 -37 -10 -75 -10 -118v-179h-77v179c0 42 -3 81 -6 116c-24 185 -84 288 -159 320z" />
    <glyph glyph-name="Phi" unicode="&#x3a6;" horiz-adv-x="504" 
d="M287 37v-51h-71v51c-87 13 -186 94 -186 300c0 197 97 291 187 302v48h71v-48c103 -11 186 -119 186 -297c0 -206 -94 -294 -187 -305zM217 95v486c-55 -9 -109 -91 -109 -246c0 -140 51 -223 109 -240zM287 581v-486c65 12 109 99 109 246c0 153 -59 233 -109 240z" />
    <glyph glyph-name="Chi" unicode="&#x3a7;" horiz-adv-x="392" 
d="M378 0h-80l-61 162c-14 37 -27 72 -42 118h-3l-40 -120l-59 -160h-78l138 344l-134 330h80l61 -156c12 -31 24 -63 39 -107h2c16 47 25 77 37 110l55 153h78l-132 -328z" />
    <glyph glyph-name="Psi" unicode="&#x3a8;" horiz-adv-x="515" 
d="M472 674v-187c0 -169 -63 -256 -179 -273v-214h-71v214c-118 17 -179 95 -179 256v204h72v-200c0 -127 34 -189 108 -199v399h69v-399c74 9 108 78 108 215v184h72z" />
    <glyph glyph-name="uni03A9" unicode="&#x3a9;" horiz-adv-x="472" 
d="M340 69v-3h99v-66h-177v52c57 63 90 188 89 307c-1 114 -27 255 -115 255c-87 0 -116 -139 -116 -252c0 -112 38 -253 89 -310v-52h-176v66h98v3c-49 69 -91 179 -91 304c0 195 86 309 203 309c116 0 188 -120 188 -304c0 -131 -42 -244 -91 -309z" />
    <glyph glyph-name="Iotadieresis" unicode="&#x3aa;" horiz-adv-x="199" 
d="M22 710c-24 0 -43 19 -43 44c0 26 20 44 44 44s42 -18 42 -44c0 -25 -18 -44 -43 -44zM176 710c-24 0 -43 19 -43 44c0 26 20 44 44 44s42 -18 42 -44c0 -25 -18 -44 -43 -44zM60 674h77v-674h-77v674z" />
    <glyph glyph-name="Upsilondieresis" unicode="&#x3ab;" horiz-adv-x="425" 
d="M140 697c-24 0 -43 19 -43 44c0 26 20 44 44 44s42 -18 42 -44c0 -25 -18 -44 -43 -44zM295 697c-24 0 -43 19 -43 44c0 26 20 44 44 44s42 -18 42 -44c0 -25 -18 -44 -43 -44zM6 615l16 65c11 -1 50 -15 79 -42c54 -50 101 -152 111 -284h4c13 127 64 218 108 267
c34 36 73 55 83 59l16 -67c-67 -35 -138 -144 -165 -316c-6 -37 -10 -75 -10 -118v-179h-77v179c0 42 -3 81 -6 116c-24 185 -84 288 -159 320z" />
    <glyph glyph-name="alphatonos" unicode="&#x3ac;" horiz-adv-x="397" 
d="M207 674h68l-55 -135h-45zM290 484h59c-4 -27 -11 -198 -10 -380c0 -33 8 -53 32 -53l-8 -57c-7 -2 -13 -2 -19 -2c-32 0 -60 18 -64 79h-4c-13 -35 -47 -79 -103 -79c-83 0 -140 89 -140 238c0 171 81 261 154 261c37 0 70 -17 90 -71h4c3 26 6 45 9 64zM110 233v-2
c0 -90 29 -175 78 -175c34 0 64 44 73 107c4 28 5 56 5 81c0 30 -1 49 -2 73c-3 61 -33 110 -68 110c-54 0 -86 -91 -86 -194z" />
    <glyph glyph-name="epsilontonos" unicode="&#x3ad;" horiz-adv-x="324" 
d="M187 674h68l-56 -135h-45zM134 260v4c-47 14 -78 49 -79 103c0 63 54 124 150 124c38 0 72 -9 89 -23l-15 -54c-15 8 -38 16 -70 16c-53 0 -79 -34 -79 -69c0 -54 54 -73 109 -73h15v-57h-20c-65 -1 -123 -26 -123 -90c0 -56 42 -87 95 -87c39 0 78 12 89 19l11 -57
c-27 -16 -72 -24 -115 -24c-82 0 -159 42 -159 143c0 69 51 115 102 125z" />
    <glyph glyph-name="etatonos" unicode="&#x3ae;" horiz-adv-x="405" 
d="M207 674h68l-55 -135h-45zM121 426l2 -1c21 39 60 66 111 66c67 0 117 -49 117 -166v-363c0 -61 2 -121 7 -154h-70c-9 24 -14 70 -14 140v363c0 58 -11 115 -67 115c-32 0 -63 -27 -72 -78c-3 -12 -4 -26 -4 -43v-305h-77v359c0 51 -5 99 -13 125h67
c6 -14 11 -36 13 -58z" />
    <glyph glyph-name="iotatonos" unicode="&#x3af;" horiz-adv-x="188" 
d="M97 676h71l-55 -135h-48zM131 484v-383c0 -38 9 -49 37 -49l-7 -57c-9 -2 -20 -3 -29 -3c-38 0 -78 15 -78 104v388h77z" />
    <glyph glyph-name="upsilondieresistonos" unicode="&#x3b0;" horiz-adv-x="377" 
d="M238 484h72c16 -38 31 -112 31 -193c0 -155 -33 -299 -161 -299c-80 0 -131 53 -131 148v183c0 66 0 131 -8 161h74c8 -14 10 -52 10 -98v-237c0 -63 28 -92 61 -92c61 0 80 87 80 217c0 92 -13 173 -28 210zM165 682h64l-36 -145h-41zM84 560c-23 0 -42 17 -42 41
s20 40 43 40c20 0 38 -15 38 -40c0 -24 -18 -41 -39 -41zM284 560c-21 0 -40 17 -40 41s20 40 41 40c22 0 40 -15 40 -40c0 -24 -18 -41 -41 -41z" />
    <glyph glyph-name="alpha" unicode="&#x3b1;" horiz-adv-x="397" 
d="M290 484h59c-4 -27 -11 -198 -10 -380c0 -33 8 -53 32 -53l-8 -57c-7 -2 -13 -2 -19 -2c-32 0 -60 18 -64 79h-4c-13 -35 -47 -79 -103 -79c-83 0 -140 89 -140 238c0 171 81 261 154 261c37 0 70 -17 90 -71h4c3 26 6 45 9 64zM110 233v-2c0 -90 29 -175 78 -175
c34 0 64 44 73 107c4 28 5 56 5 81c0 30 -1 49 -2 73c-3 61 -33 110 -68 110c-54 0 -86 -91 -86 -194z" />
    <glyph glyph-name="beta" unicode="&#x3b2;" horiz-adv-x="404" 
d="M130 28h-2v-66c0 -61 3 -121 9 -154h-70c-9 24 -15 70 -15 139v518c0 97 16 152 52 192c27 31 60 43 99 43c92 0 134 -85 134 -168c0 -86 -42 -133 -80 -154v-4c51 -16 115 -65 114 -185c0 -126 -70 -197 -152 -197c-38 0 -70 16 -89 36zM128 481v-376
c23 -41 54 -49 78 -49c56 0 88 62 88 134c0 87 -43 141 -104 147c-6 1 -11 1 -15 1v60c5 0 9 1 14 2c41 12 74 50 74 128c0 42 -17 108 -63 108c-51 0 -72 -63 -72 -155z" />
    <glyph glyph-name="gamma" unicode="&#x3b3;" horiz-adv-x="339" 
d="M200 -192h-75c5 145 2 226 -24 331c-33 145 -74 271 -106 345h81c28 -73 73 -223 95 -372h3c33 95 70 232 70 332c0 14 -1 28 0 40h70c1 -7 2 -18 2 -33c0 -111 -46 -265 -114 -413c-3 -9 -5 -15 -5 -23c3 -63 3 -136 3 -207z" />
    <glyph glyph-name="delta" unicode="&#x3b4;" horiz-adv-x="390" 
d="M337 658l-22 -51c-18 12 -53 32 -92 32c-33 0 -50 -19 -50 -40c0 -22 16 -46 45 -83l59 -75c41 -53 79 -123 79 -210c0 -152 -72 -239 -163 -239c-89 0 -161 84 -161 230c0 122 69 204 130 245v4l-12 16c-19 24 -54 72 -54 112c0 46 38 101 124 101c53 0 93 -20 117 -42z
M224 391l-24 32c-58 -44 -90 -109 -90 -202c0 -113 45 -168 86 -168c54 0 83 70 83 167c0 77 -21 128 -55 171z" />
    <glyph glyph-name="epsilon" unicode="&#x3b5;" horiz-adv-x="324" 
d="M134 261v4c-46 13 -78 50 -79 102c0 63 54 124 150 124c38 0 72 -9 89 -23l-15 -54c-15 8 -38 16 -70 16c-53 0 -79 -34 -79 -69c0 -54 54 -73 109 -73h15v-57h-20c-65 -1 -123 -26 -123 -90c0 -56 42 -87 95 -87c39 0 78 13 89 20l11 -58c-27 -16 -72 -24 -115 -24
c-82 0 -159 42 -159 143c0 69 51 116 102 126z" />
    <glyph glyph-name="zeta" unicode="&#x3b6;" horiz-adv-x="314" 
d="M250 -129l-54 15c23 39 34 82 36 102c-26 6 -53 14 -86 30c-58 27 -113 85 -113 199c0 145 82 308 188 406v4h-46c-34 0 -69 1 -90 8l9 55c26 -2 65 -3 100 -3h110l14 -54c-101 -68 -207 -246 -207 -397c0 -105 38 -144 92 -168c29 -13 68 -22 97 -27c5 -1 8 -5 8 -12
c0 -56 -30 -125 -58 -158z" />
    <glyph glyph-name="eta" unicode="&#x3b7;" horiz-adv-x="405" 
d="M121 426l2 -1c21 39 60 66 111 66c67 0 117 -49 117 -166v-363c0 -61 2 -121 7 -154h-70c-9 24 -14 70 -14 140v363c0 58 -11 115 -67 115c-32 0 -63 -27 -72 -78c-3 -12 -4 -26 -4 -43v-305h-77v359c0 51 -5 99 -13 125h67c6 -14 11 -36 13 -58z" />
    <glyph glyph-name="theta" unicode="&#x3b8;" horiz-adv-x="382" 
d="M188 -8c-84 0 -155 79 -155 361c0 261 84 347 161 347c84 0 155 -88 155 -347c0 -301 -80 -361 -161 -361zM107 387h167c0 151 -30 253 -84 253c-47 0 -83 -101 -83 -253zM274 324h-167c1 -178 32 -272 85 -272c58 0 82 103 82 272z" />
    <glyph glyph-name="iota" unicode="&#x3b9;" horiz-adv-x="188" 
d="M131 484v-383c0 -38 9 -49 37 -49l-7 -57c-9 -2 -20 -3 -29 -3c-38 0 -78 15 -78 104v388h77z" />
    <glyph glyph-name="kappa" unicode="&#x3ba;" horiz-adv-x="370" 
d="M201 262v-2c44 -18 77 -92 104 -150l54 -110h-85l-51 111c-25 56 -54 110 -84 110h-8v-221h-76v369c0 56 -4 95 -10 115h73c8 -11 13 -36 13 -83v-134h3c51 76 109 172 139 217h83v-3c-43 -61 -89 -126 -155 -219z" />
    <glyph glyph-name="lambda" unicode="&#x3bb;" horiz-adv-x="337" 
d="M251 0l-59 259c-7 32 -12 62 -23 114h-3c-6 -39 -12 -72 -22 -112l-61 -261h-76l121 452c2 8 3 15 3 22c0 6 -2 18 -4 27c-26 98 -58 130 -93 130c-3 0 -5 0 -11 -1l8 63c6 1 16 2 23 2c86 0 120 -86 150 -206l124 -489h-77z" />
    <glyph glyph-name="uni03BC" unicode="&#x3bc;" horiz-adv-x="399" 
d="M281 50h-2c-11 -21 -44 -53 -85 -53c-27 0 -51 8 -67 36v-71c0 -60 3 -121 9 -154h-70c-8 24 -13 73 -13 146v530h77v-319c0 -57 13 -108 64 -108c46 0 66 42 70 63c3 13 4 29 4 45v319h77v-380c0 -35 6 -55 31 -54l-8 -55c-7 -2 -15 -3 -26 -3c-29 0 -52 15 -61 58z" />
    <glyph glyph-name="nu" unicode="&#x3bd;" horiz-adv-x="333" 
d="M6 484h78l55 -272c7 -33 14 -76 22 -122h3c27 85 75 261 75 361c0 9 1 23 0 33h70c1 -8 2 -20 2 -31c0 -115 -67 -308 -124 -453h-69z" />
    <glyph glyph-name="xi" unicode="&#x3be;" horiz-adv-x="328" 
d="M278 414v-60h-17c-86 -3 -150 -57 -150 -144c0 -83 50 -123 107 -144c25 -9 54 -18 95 -26c7 -1 10 -5 10 -12c0 -54 -31 -125 -58 -158l-55 16c23 39 34 82 36 102c-113 27 -213 77 -213 212c0 94 53 159 129 188v5c-57 25 -91 80 -91 141c0 96 66 166 165 166
c35 0 62 -8 80 -19l-14 -57c-12 6 -32 14 -63 14c-67 0 -91 -60 -91 -104c0 -73 52 -114 114 -119c5 -1 11 -1 16 -1z" />
    <glyph glyph-name="omicron" unicode="&#x3bf;" horiz-adv-x="383" 
d="M190 -8c-87 0 -157 79 -157 249c0 176 79 250 162 250c87 0 156 -81 156 -249c0 -187 -86 -250 -161 -250zM194 53c66 0 80 113 80 189c0 74 -14 188 -82 188c-69 0 -82 -114 -82 -188c0 -80 14 -189 84 -189z" />
    <glyph glyph-name="pi" unicode="&#x3c0;" horiz-adv-x="400" 
d="M380 420h-47v-302c0 -60 4 -96 10 -118h-72c-8 15 -14 58 -14 116v304h-99c-1 -128 -19 -324 -50 -420h-71c31 103 47 289 47 420c-31 0 -50 -3 -61 -5l-11 48c12 11 49 21 116 21h259z" />
    <glyph glyph-name="rho" unicode="&#x3c1;" horiz-adv-x="395" 
d="M128 39h-2v-77c0 -61 3 -121 7 -154h-71c-8 24 -12 70 -12 138v298c0 114 24 165 53 197c27 34 67 50 101 50c101 0 159 -90 159 -248c0 -178 -74 -251 -153 -251c-40 0 -68 23 -82 47zM126 263v-95c0 -14 1 -27 4 -39c15 -61 48 -73 67 -73c66 0 89 93 89 189
c0 95 -23 179 -83 179c-40 0 -77 -43 -77 -161z" />
    <glyph glyph-name="uni03C2" unicode="&#x3c2;" horiz-adv-x="306" 
d="M293 478l-14 -60c-14 4 -29 7 -44 7c-85 0 -124 -96 -124 -185c0 -78 21 -138 89 -172c22 -10 48 -18 84 -29c5 -2 7 -5 7 -9c0 -58 -30 -127 -57 -160l-54 16c24 39 35 81 37 101c-26 8 -52 18 -70 27c-65 33 -114 106 -114 219c0 140 79 258 202 258c23 0 44 -4 58 -13
z" />
    <glyph glyph-name="sigma" unicode="&#x3c3;" horiz-adv-x="383" 
d="M286 436l-1 -3c45 -44 61 -125 61 -191c0 -186 -87 -250 -158 -250c-85 0 -155 79 -155 249c0 176 79 250 163 250h39h37h99l-4 -60c-18 0 -47 1 -81 5zM192 53c64 0 77 113 77 189c0 74 -16 188 -79 188c-67 0 -80 -114 -80 -188c0 -80 15 -189 82 -189z" />
    <glyph glyph-name="tau" unicode="&#x3c4;" horiz-adv-x="304" 
d="M243 54l-3 -57c-9 -3 -20 -5 -36 -5c-76 0 -93 64 -93 137v291h-42c-29 0 -46 -5 -57 -10l-12 50c8 10 38 24 88 24h212l-9 -64h-103v-294c0 -58 21 -73 39 -73c5 0 11 0 16 1z" />
    <glyph glyph-name="upsilon" unicode="&#x3c5;" horiz-adv-x="377" 
d="M238 484h72c16 -38 31 -112 31 -193c0 -155 -33 -299 -161 -299c-80 0 -131 53 -131 148v183c0 66 0 131 -8 161h74c8 -14 10 -52 10 -98v-237c0 -63 28 -92 61 -92c61 0 80 87 80 217c0 92 -13 173 -28 210z" />
    <glyph glyph-name="phi" unicode="&#x3c6;" horiz-adv-x="491" 
d="M144 487l40 -37c-41 -44 -74 -113 -74 -204c0 -95 34 -173 100 -190v303c0 94 47 127 96 127c74 0 152 -84 152 -234c0 -165 -91 -243 -176 -254v-190h-72v190c-71 10 -177 67 -177 245c0 132 68 212 111 244zM282 371v-316c70 11 100 100 100 194c0 111 -44 177 -71 177
c-17 0 -29 -12 -29 -55z" />
    <glyph glyph-name="chi" unicode="&#x3c7;" horiz-adv-x="339" 
d="M11 484h78l83 -257h4c9 35 17 65 28 99l52 158h74l-121 -327l119 -342l-71 -18l-95 290h-2c-9 -40 -21 -82 -33 -122l-54 -168l-68 17l122 346z" />
    <glyph glyph-name="psi" unicode="&#x3c8;" horiz-adv-x="487" 
d="M210 -192v184c-74 10 -164 44 -164 227v149c0 46 0 89 -5 116h68c5 -14 8 -52 8 -98v-151c0 -136 38 -178 94 -186v536h70v-536c71 7 98 117 98 245c0 94 -13 166 -22 190h67c13 -32 27 -103 27 -180c0 -176 -45 -300 -169 -312v-184h-72z" />
    <glyph glyph-name="omega" unicode="&#x3c9;" horiz-adv-x="521" 
d="M296 333l-1 -191c0 -32 16 -85 51 -85c36 0 65 61 65 184c0 106 -32 193 -67 241v2h70c36 -35 74 -130 74 -243c0 -159 -58 -249 -139 -249c-45 0 -72 32 -87 70h-3c-14 -39 -46 -70 -94 -70c-68 0 -132 71 -132 240c0 123 42 218 74 252h69v-2
c-35 -47 -67 -129 -67 -245c0 -125 30 -180 65 -180c36 0 51 51 51 86l-1 190h72z" />
    <glyph glyph-name="iotadieresis" unicode="&#x3ca;" horiz-adv-x="188" 
d="M15 558c-24 0 -44 19 -44 45s20 45 45 45c24 0 43 -18 43 -45c0 -26 -18 -45 -44 -45zM169 558c-24 0 -44 19 -44 45s20 45 45 45c24 0 43 -18 43 -45c0 -26 -18 -45 -44 -45zM131 484v-383c0 -38 9 -49 37 -49l-7 -57c-9 -2 -20 -3 -29 -3c-38 0 -78 15 -78 104v388h77z
" />
    <glyph glyph-name="upsilondieresis" unicode="&#x3cb;" horiz-adv-x="377" 
d="M103 558c-24 0 -44 19 -44 45s20 45 45 45c24 0 43 -18 43 -45c0 -26 -18 -45 -44 -45zM257 558c-24 0 -44 19 -44 45s20 45 45 45c24 0 43 -18 43 -45c0 -26 -18 -45 -44 -45zM237 484h73c16 -38 31 -112 31 -193c0 -155 -33 -299 -161 -299c-80 0 -131 53 -131 148v183
c0 66 0 131 -8 161h74c8 -14 10 -52 10 -98v-237c0 -63 28 -92 61 -92c61 0 80 87 80 217c0 92 -13 173 -29 210z" />
    <glyph glyph-name="omicrontonos" unicode="&#x3cc;" horiz-adv-x="383" 
d="M195 674h68l-56 -135h-45zM190 -8c-87 0 -157 79 -157 249c0 176 79 250 162 250c87 0 156 -81 156 -249c0 -187 -86 -250 -161 -250zM194 53c66 0 80 113 80 189c0 74 -14 188 -82 188c-69 0 -82 -114 -82 -188c0 -80 14 -189 84 -189z" />
    <glyph glyph-name="upsilontonos" unicode="&#x3cd;" horiz-adv-x="377" 
d="M188 676h71l-56 -135h-48zM238 484h72c16 -38 31 -112 31 -193c0 -155 -33 -299 -161 -299c-80 0 -131 53 -131 148v183c0 66 0 131 -8 161h74c8 -14 10 -52 10 -98v-237c0 -63 28 -92 61 -92c61 0 80 87 80 217c0 92 -13 173 -28 210z" />
    <glyph glyph-name="omegatonos" unicode="&#x3ce;" horiz-adv-x="521" 
d="M269 674h68l-56 -135h-44zM296 333l-1 -191c0 -32 16 -85 51 -85c36 0 65 61 65 184c0 106 -32 193 -67 241v2h70c36 -35 74 -130 74 -243c0 -159 -58 -249 -139 -249c-45 0 -72 32 -87 70h-3c-14 -39 -46 -70 -94 -70c-68 0 -132 71 -132 240c0 123 42 218 74 252h69v-2
c-35 -47 -67 -129 -67 -245c0 -125 30 -180 65 -180c36 0 51 51 51 86l-1 190h72z" />
    <glyph glyph-name="uni0401" unicode="&#x401;" horiz-adv-x="354" 
d="M306 385v-65h-169v-253h192v-67h-269v674h257v-67h-180v-222h169zM108 725c-24 0 -42 19 -42 47c0 26 19 46 43 46c26 0 43 -20 43 -46c0 -28 -17 -47 -44 -47zM270 725c-24 0 -42 19 -42 47c0 26 19 46 43 46c26 0 43 -20 43 -46c0 -28 -17 -47 -44 -47z" />
    <glyph glyph-name="uni0402" unicode="&#x402;" horiz-adv-x="486" 
d="M15 674h357v-70h-158v-193h2c20 13 49 24 80 24c54 0 101 -32 130 -91c29 -61 32 -121 32 -178c0 -78 -18 -157 -58 -211c-36 -50 -78 -74 -110 -84l-20 64c32 13 57 37 76 69c20 34 33 90 33 166c0 60 -6 104 -25 143c-17 34 -47 55 -81 55c-22 0 -41 -7 -59 -19v-349
h-77v604h-122v70z" />
    <glyph glyph-name="uni0403" unicode="&#x403;" horiz-adv-x="339" 
d="M60 674h264v-67h-187v-607h-77v674zM225 818h91l-124 -108h-61z" />
    <glyph glyph-name="uni0404" unicode="&#x404;" horiz-adv-x="384" 
d="M355 662l-17 -66c-15 9 -41 16 -63 16c-125 0 -163 -144 -165 -235h204v-67h-203c3 -97 38 -248 162 -248c31 0 61 8 80 16l13 -63c-20 -10 -55 -22 -98 -22c-165 0 -236 158 -236 345c0 153 58 343 240 343c41 0 63 -10 83 -19z" />
    <glyph glyph-name="uni0405" unicode="&#x405;" horiz-adv-x="361" 
d="M28 23l17 66c22 -15 63 -27 96 -27c71 0 113 46 113 114c0 62 -36 100 -89 140c-54 37 -127 100 -127 187c0 102 71 177 178 177c42 0 78 -13 94 -25l-18 -66c-17 12 -45 23 -80 23c-67 0 -98 -50 -98 -96c0 -67 35 -93 99 -139c81 -57 117 -119 117 -194
c0 -116 -81 -189 -189 -189c-46 0 -94 15 -113 29z" />
    <glyph glyph-name="uni0406" unicode="&#x406;" horiz-adv-x="199" 
d="M60 674h77v-674h-77v674z" />
    <glyph glyph-name="uni0407" unicode="&#x407;" horiz-adv-x="199" 
d="M60 674h77v-674h-77v674zM18 725c-24 0 -42 19 -42 47c0 26 19 46 43 46c26 0 43 -20 43 -46c0 -28 -17 -47 -44 -47zM180 725c-24 0 -42 19 -42 47c0 26 19 46 43 46c26 0 43 -20 43 -46c0 -28 -17 -47 -44 -47z" />
    <glyph glyph-name="uni0408" unicode="&#x408;" horiz-adv-x="265" 
d="M134 189v485h77v-484c0 -151 -61 -198 -158 -198c-19 0 -37 2 -50 7l7 65c10 -3 23 -4 37 -4c54 0 87 22 87 129z" />
    <glyph glyph-name="uni0409" unicode="&#x409;" horiz-adv-x="635" 
d="M80 674h274v-268c16 2 34 3 51 3c121 0 201 -78 201 -200c0 -61 -17 -109 -49 -144c-38 -44 -99 -69 -179 -69c-49 0 -79 3 -100 7v604h-127v-231c0 -174 -8 -310 -82 -364c-17 -13 -41 -20 -61 -20l-15 64c12 4 27 10 36 20c39 35 51 122 51 291v307zM354 342v-280
c13 -3 25 -4 39 -4c86 0 133 63 133 147c0 83 -52 140 -134 140c-12 0 -24 -1 -38 -3z" />
    <glyph glyph-name="uni040A" unicode="&#x40a;" horiz-adv-x="669" 
d="M60 674h77v-280h174v280h76v-272c16 2 34 3 51 3c122 0 202 -75 202 -196c0 -61 -17 -109 -49 -144c-38 -44 -100 -69 -180 -69c-49 0 -79 3 -100 7v323h-174v-326h-77v674zM387 338v-276c13 -3 25 -4 39 -4c87 0 134 64 134 147c0 84 -53 136 -135 136
c-12 0 -24 -1 -38 -3z" />
    <glyph glyph-name="uni040B" unicode="&#x40b;" horiz-adv-x="501" 
d="M16 674h346v-70h-150v-206h2c26 19 63 37 104 37c43 0 74 -16 94 -43c24 -31 36 -77 36 -128v-264h-76v256c0 40 -5 67 -21 87c-12 17 -32 27 -58 27c-33 0 -62 -16 -81 -31v-339h-77v604h-119v70z" />
    <glyph glyph-name="uni040C" unicode="&#x40c;" horiz-adv-x="391" 
d="M61 674h75v-306h14l143 306h84l-165 -315c83 -18 110 -89 127 -171c14 -64 24 -130 45 -188h-78c-16 44 -27 111 -39 168c-17 82 -39 143 -119 143h-12v-311h-75v674zM247 813h91l-124 -108h-61z" />
    <glyph glyph-name="uni040E" unicode="&#x40e;" horiz-adv-x="369" 
d="M5 674h83l80 -276c12 -42 22 -80 31 -117h3c8 33 16 77 25 119l60 274h78l-81 -302c-20 -74 -48 -196 -94 -286c-31 -58 -76 -97 -127 -97c-14 0 -26 1 -36 5l3 62c6 -1 13 -2 21 -2c55 0 92 78 106 126c3 12 4 23 -1 39zM74 791h56c5 -29 17 -56 57 -56
c37 0 52 26 56 56h57c-9 -66 -46 -97 -114 -97c-64 0 -106 31 -112 97z" />
    <glyph glyph-name="uni040F" unicode="&#x40f;" horiz-adv-x="458" 
d="M60 674h77v-607h184v607h77v-674h-132l-5 -143h-63l-5 143h-133v674z" />
    <glyph glyph-name="uni0410" unicode="&#x410;" horiz-adv-x="435" 
d="M291 202h-150l-44 -202h-75l154 674h85l150 -674h-76zM152 264h128l-35 171c-10 48 -19 104 -27 154h-3c-8 -51 -18 -109 -28 -154z" />
    <glyph glyph-name="uni0411" unicode="&#x411;" horiz-adv-x="418" 
d="M61 674h284v-67h-208v-202c18 3 34 4 51 4c59 0 109 -19 144 -53c36 -34 57 -84 57 -147c0 -61 -17 -110 -49 -146c-38 -44 -99 -67 -179 -67c-49 0 -79 3 -100 7v671zM137 342v-280c13 -3 25 -4 39 -4c46 0 80 18 103 47c19 25 30 60 30 99c0 41 -13 75 -35 100
c-24 26 -57 41 -99 41c-12 0 -24 -1 -38 -3z" />
    <glyph glyph-name="uni0412" unicode="&#x412;" horiz-adv-x="416" 
d="M61 3v661c32 8 69 13 112 13c61 0 113 -13 149 -47c29 -27 44 -67 44 -115c0 -69 -38 -123 -104 -149v-3c78 -21 125 -84 125 -172c0 -56 -18 -101 -48 -134c-38 -43 -101 -61 -178 -61c-49 0 -79 3 -100 7zM137 612v-224h35c63 0 117 48 117 119c0 62 -29 110 -111 110
c-18 0 -32 -2 -41 -5zM137 329v-268c9 -2 22 -4 39 -4c79 0 131 47 131 134c0 93 -64 137 -136 138h-34z" />
    <glyph glyph-name="uni0413" unicode="&#x413;" horiz-adv-x="339" 
d="M60 674h264v-67h-187v-607h-77v674z" />
    <glyph glyph-name="uni0414" unicode="&#x414;" horiz-adv-x="474" 
d="M130 674h271v-608l45 -1l-4 -204h-61l-4 139h-298l-4 -139h-61l-4 204l45 1c25 61 43 121 55 182c16 87 20 176 20 274v152zM201 607v-101c0 -94 -5 -185 -19 -269c-10 -59 -27 -116 -48 -170h191v540h-124z" />
    <glyph glyph-name="uni0415" unicode="&#x415;" horiz-adv-x="354" 
d="M306 385v-65h-169v-253h192v-67h-269v674h257v-67h-180v-222h169z" />
    <glyph glyph-name="uni0416" unicode="&#x416;" horiz-adv-x="589" 
d="M13 674h85l146 -307h14v307h72v-307h15l145 307h85l-173 -314c87 -15 117 -97 134 -179c13 -61 23 -123 45 -181h-76c-17 39 -30 119 -39 162c-17 76 -40 149 -125 149h-11v-311h-72v311h-10c-87 0 -110 -73 -127 -149c-10 -43 -22 -123 -39 -162h-74
c21 58 31 120 44 181c17 82 49 164 134 179z" />
    <glyph glyph-name="uni0417" unicode="&#x417;" horiz-adv-x="381" 
d="M49 580l-20 59c30 23 78 43 137 43c107 0 165 -69 165 -162c0 -73 -49 -139 -118 -160v-2c86 -14 139 -82 139 -173c0 -120 -84 -193 -203 -193c-47 0 -98 12 -131 33l19 64c27 -17 62 -31 107 -31c83 0 129 53 129 127c0 90 -67 137 -153 137h-21v61h15
c70 0 139 54 139 126c0 65 -40 106 -105 106c-36 0 -74 -17 -99 -35z" />
    <glyph glyph-name="uni0418" unicode="&#x418;" horiz-adv-x="464" 
d="M60 674h70v-241c0 -117 -3 -203 -9 -309h2c23 73 59 162 87 235l121 315h72v-674h-69v233c0 144 2 228 8 318h-2c-24 -84 -55 -158 -81 -226l-126 -325h-73v674z" />
    <glyph glyph-name="uni0419" unicode="&#x419;" horiz-adv-x="464" 
d="M60 674h70v-241c0 -117 -3 -203 -9 -309h2c23 73 59 162 87 235l121 315h72v-674h-69v233c0 144 2 228 8 318h-2c-24 -84 -55 -158 -81 -226l-126 -325h-73v674zM119 795h56c5 -29 17 -56 57 -56c37 0 52 26 56 56h57c-9 -66 -46 -97 -114 -97c-64 0 -106 31 -112 97z
" />
    <glyph glyph-name="uni041A" unicode="&#x41a;" horiz-adv-x="391" 
d="M61 674h75v-306h14l143 306h84l-165 -315c83 -18 110 -89 127 -171c14 -64 24 -130 45 -188h-78c-16 44 -27 111 -39 168c-17 82 -39 143 -119 143h-12v-311h-75v674z" />
    <glyph glyph-name="uni041B" unicode="&#x41b;" horiz-adv-x="432" 
d="M81 674h290v-674h-77v607h-142v-230c0 -175 -6 -311 -82 -364c-17 -13 -37 -21 -61 -21l-16 65c14 2 26 8 36 17c41 36 52 126 52 292v308z" />
    <glyph glyph-name="uni041C" unicode="&#x41c;" horiz-adv-x="599" 
d="M482 0l-14 290c-5 89 -10 188 -7 264h-4c-15 -75 -33 -155 -54 -234l-82 -316h-50l-78 303c-23 86 -42 169 -56 247h-3c1 -79 -4 -173 -8 -269l-13 -285h-69l40 674h84l78 -308c23 -89 40 -155 54 -232h3c13 77 28 141 50 232l76 308h86l39 -674h-72z" />
    <glyph glyph-name="uni041D" unicode="&#x41d;" horiz-adv-x="463" 
d="M60 674h77v-289h189v289h77v-674h-77v315h-189v-315h-77v674z" />
    <glyph glyph-name="uni041E" unicode="&#x41e;" horiz-adv-x="446" 
d="M230 682c115 0 184 -125 184 -340c0 -253 -86 -350 -195 -350c-112 0 -187 119 -187 346c0 223 81 344 198 344zM224 614c-85 0 -112 -140 -112 -277c0 -139 27 -277 113 -277s109 147 109 279c0 126 -23 275 -110 275z" />
    <glyph glyph-name="uni041F" unicode="&#x41f;" horiz-adv-x="458" 
d="M60 674h338v-674h-77v607h-184v-607h-77v674z" />
    <glyph glyph-name="uni0420" unicode="&#x420;" horiz-adv-x="399" 
d="M61 0v664c31 8 67 13 111 13c62 0 115 -15 150 -49c32 -32 49 -81 49 -140c0 -62 -15 -104 -41 -138c-36 -50 -99 -75 -159 -75c-13 0 -23 0 -34 1v-276h-76zM137 609v-269c9 -1 18 -2 31 -2c75 0 126 49 126 145c0 69 -28 131 -114 131c-18 0 -33 -2 -43 -5z" />
    <glyph glyph-name="uni0421" unicode="&#x421;" horiz-adv-x="373" 
d="M342 76l13 -64c-21 -11 -55 -18 -97 -18c-131 0 -226 106 -226 335c0 266 132 351 239 351c40 0 70 -8 83 -17l-17 -65c-16 7 -32 14 -67 14c-72 0 -157 -70 -157 -276s76 -274 159 -274c29 0 54 7 70 14z" />
    <glyph glyph-name="uni0422" unicode="&#x422;" horiz-adv-x="354" 
d="M139 0v605h-123v69h323v-69h-123v-605h-77z" />
    <glyph glyph-name="uni0423" unicode="&#x423;" horiz-adv-x="369" 
d="M5 674h83l80 -276c12 -42 22 -80 31 -117h3c8 33 16 77 25 119l60 274h78l-81 -302c-20 -74 -48 -196 -94 -286c-31 -58 -76 -97 -127 -97c-14 0 -26 1 -36 5l3 62c6 -1 13 -2 21 -2c55 0 92 78 106 126c3 12 4 23 -1 39z" />
    <glyph glyph-name="uni0424" unicode="&#x424;" horiz-adv-x="507" 
d="M219 693h71v-54c103 -9 186 -99 186 -298c0 -228 -95 -294 -187 -304v-56h-71v56c-94 12 -186 74 -186 301c0 213 97 292 187 301v54zM219 94v489c-55 -8 -109 -71 -109 -248c0 -161 51 -228 109 -241zM289 583v-489c65 11 109 77 109 248c0 174 -59 235 -109 241z" />
    <glyph glyph-name="uni0425" unicode="&#x425;" horiz-adv-x="392" 
d="M378 0h-80l-61 162c-14 37 -27 72 -42 118h-3l-40 -120l-58 -160h-79l138 344l-134 330h80l61 -156c12 -31 24 -63 39 -107h2c16 47 26 77 37 110l55 153h78l-132 -328z" />
    <glyph glyph-name="uni0426" unicode="&#x426;" horiz-adv-x="470" 
d="M60 674h77v-607h183v607h77v-608l45 -1l-4 -204h-60l-5 139h-313v674z" />
    <glyph glyph-name="uni0427" unicode="&#x427;" horiz-adv-x="436" 
d="M54 674h76v-230c0 -64 21 -116 92 -116c27 0 56 8 78 21v325h76v-681h-76v294h-3c-32 -15 -66 -24 -101 -24c-88 0 -142 53 -142 166v245z" />
    <glyph glyph-name="uni0428" unicode="&#x428;" horiz-adv-x="632" 
d="M61 674h75v-607h143v607h75v-607h143v607h75v-674h-511v674z" />
    <glyph glyph-name="uni0429" unicode="&#x429;" horiz-adv-x="644" 
d="M61 674h75v-607h143v607h75v-607h143v607h75v-608l44 -1l-4 -204h-60l-5 139h-486v674z" />
    <glyph glyph-name="uni042A" unicode="&#x42a;" horiz-adv-x="512" 
d="M15 674h217v-268c16 2 34 3 51 3c122 0 202 -78 202 -200c0 -61 -17 -110 -49 -146c-38 -44 -100 -67 -180 -67c-49 0 -79 3 -100 7v605h-141v66zM232 342v-280c13 -2 25 -4 39 -4c87 0 134 63 134 146c0 84 -52 141 -135 141c-12 0 -24 -1 -38 -3z" />
    <glyph glyph-name="uni042B" unicode="&#x42b;" horiz-adv-x="586" 
d="M61 674h76v-269c16 3 34 4 50 4c119 0 199 -78 199 -199c0 -61 -17 -109 -48 -144c-39 -45 -100 -70 -181 -70c-46 0 -75 3 -96 7v671zM137 342v-281c13 -2 24 -3 37 -3c84 0 132 63 132 146c0 84 -52 141 -131 141c-14 0 -27 -1 -38 -3zM448 675h77v-675h-77v675z" />
    <glyph glyph-name="uni042C" unicode="&#x42c;" horiz-adv-x="417" 
d="M61 674h76v-268c14 2 31 3 51 3c122 0 201 -77 201 -200c0 -61 -17 -108 -48 -143c-39 -45 -100 -70 -181 -70c-49 0 -78 3 -99 7v671zM137 342v-281c13 -2 24 -3 37 -3c86 0 135 63 135 147c0 82 -51 140 -134 140c-14 0 -27 -1 -38 -3z" />
    <glyph glyph-name="uni042D" unicode="&#x42d;" horiz-adv-x="387" 
d="M73 311v69h204c-1 92 -34 233 -151 233c-25 0 -52 -6 -73 -16l-20 62c24 11 56 22 96 22c188 0 226 -192 226 -341c0 -172 -69 -347 -239 -347c-42 0 -78 12 -99 22l18 64c19 -9 42 -17 77 -17c127 0 162 152 164 249h-203z" />
    <glyph glyph-name="uni042E" unicode="&#x42e;" horiz-adv-x="604" 
d="M60 674h76v-288h74c11 196 87 296 187 296c109 0 176 -125 176 -340c0 -253 -84 -350 -186 -350c-100 0 -173 106 -177 326h-74v-318h-76v674zM392 60c81 0 103 147 103 280c0 125 -23 274 -104 274s-105 -148 -105 -275c0 -132 24 -279 106 -279z" />
    <glyph glyph-name="uni042F" unicode="&#x42f;" horiz-adv-x="406" 
d="M91 0h-80c10 21 17 45 23 69c17 71 20 166 65 219c13 17 32 29 51 33v2c-65 20 -114 73 -114 165c0 67 26 118 66 149c34 26 80 40 134 40c37 0 77 -3 109 -12v-665h-76v293h-28c-31 0 -57 -7 -77 -30c-35 -43 -41 -143 -55 -204c-4 -20 -9 -40 -18 -59zM269 354v257
c-10 2 -22 4 -40 4c-79 0 -115 -56 -115 -129c0 -83 54 -133 127 -133c11 0 18 0 28 1z" />
    <glyph glyph-name="uni0430" unicode="&#x430;" horiz-adv-x="364" 
d="M309 320v-210c0 -37 1 -79 5 -110h-69l-5 51h-3c-21 -37 -55 -59 -97 -59c-64 0 -114 54 -114 138c0 122 97 175 206 176v15c0 65 -17 109 -77 109c-30 0 -57 -9 -80 -25l-17 54c21 15 65 32 113 32c97 0 138 -63 138 -171zM234 153v98c-40 0 -133 -8 -133 -113
c0 -64 32 -86 59 -86c34 0 62 25 71 73c2 9 3 19 3 28z" />
    <glyph glyph-name="uni0431" unicode="&#x431;" horiz-adv-x="388" 
d="M324 700l-4 -67c-20 -8 -55 -14 -88 -23c-53 -12 -81 -39 -100 -80c-18 -39 -26 -84 -30 -126h2c16 43 59 80 110 80c79 0 141 -67 141 -238c0 -170 -61 -255 -157 -255c-133 0 -161 170 -161 295c0 114 12 210 46 277c29 60 73 95 135 111c33 9 82 16 106 26zM278 240
c0 69 -13 182 -82 182c-35 0 -57 -24 -68 -54c-13 -34 -16 -75 -16 -103c0 -56 10 -211 86 -211c68 0 80 119 80 186z" />
    <glyph glyph-name="uni0432" unicode="&#x432;" horiz-adv-x="394" 
d="M54 -2v483c32 6 71 10 109 10c80 0 180 -23 180 -120c0 -57 -41 -100 -96 -114v-2c70 -12 116 -55 116 -121c0 -113 -117 -141 -210 -141c-44 0 -80 3 -99 5zM130 431v-152h34c47 0 105 30 105 82c0 55 -46 74 -100 74c-14 0 -27 -2 -39 -4zM129 224v-173
c9 -1 24 -3 39 -3c59 0 118 21 118 87c0 64 -64 89 -124 89h-33z" />
    <glyph glyph-name="uni0433" unicode="&#x433;" horiz-adv-x="292" 
d="M54 484h225v-65h-149v-419h-76v484z" />
    <glyph glyph-name="uni0434" unicode="&#x434;" horiz-adv-x="417" 
d="M106 484h246v-424l41 -1l-4 -188h-59l-5 129h-250l-5 -129h-59l-4 188l32 1c20 31 35 67 45 103c15 55 22 114 22 180v141zM174 422v-71c0 -67 -4 -133 -21 -192c-9 -35 -21 -68 -38 -98h161v361h-102z" />
    <glyph glyph-name="uni0435" unicode="&#x435;" horiz-adv-x="363" 
d="M332 235h-224c0 -149 59 -180 114 -180c34 0 61 8 80 18l13 -56c-27 -14 -68 -23 -107 -23c-116 0 -176 95 -176 243c0 156 67 254 164 254c98 0 138 -104 138 -212c0 -19 -1 -32 -2 -44zM109 292h151c1 96 -35 139 -72 139c-51 0 -76 -73 -79 -139z" />
    <glyph glyph-name="uni0436" unicode="&#x436;" horiz-adv-x="536" 
d="M13 484h85l118 -213h16v213h73v-213h17l117 213h85l-144 -221c60 -12 94 -67 109 -133c11 -47 25 -100 39 -130h-75c-13 23 -23 63 -33 107c-22 84 -57 112 -107 112h-8v-219h-73v219h-8c-69 0 -85 -36 -109 -117c-10 -42 -18 -75 -31 -102h-75c15 34 28 85 40 126
c17 65 48 124 109 137z" />
    <glyph glyph-name="uni0437" unicode="&#x437;" horiz-adv-x="337" 
d="M84 223l1 56h26c48 0 99 30 99 83c0 48 -33 72 -77 72c-31 0 -61 -12 -86 -25l-15 48c32 22 77 34 120 34c79 0 135 -44 135 -120c0 -59 -43 -99 -99 -114v-1c67 -10 117 -53 117 -122c0 -97 -89 -142 -178 -142c-41 0 -83 10 -114 27l17 55c23 -12 58 -24 91 -24
c64 0 106 39 106 84c0 66 -60 89 -115 89h-28z" />
    <glyph glyph-name="uni0438" unicode="&#x438;" horiz-adv-x="406" 
d="M54 484h70v-166c0 -84 -1 -156 -7 -232h2c22 64 50 133 72 189l81 209h81v-484h-71v159c0 105 3 162 8 237h-3c-17 -61 -37 -115 -58 -168c-16 -40 -60 -150 -96 -228h-79v484z" />
    <glyph glyph-name="uni0439" unicode="&#x439;" horiz-adv-x="406" 
d="M54 484h70v-166c0 -84 -1 -156 -7 -232h2c22 64 50 133 72 189l81 209h81v-484h-71v159c0 105 3 162 8 237h-3c-17 -61 -37 -115 -58 -168c-16 -40 -60 -150 -96 -228h-79v484zM90 668h54c4 -43 23 -68 59 -68c38 0 56 26 60 68h54c-9 -80 -50 -112 -115 -112
c-63 0 -103 32 -112 112z" />
    <glyph glyph-name="uni043A" unicode="&#x43a;" horiz-adv-x="367" 
d="M54 484h75v-210h11l127 210h85l-151 -218c67 -11 100 -70 118 -137c11 -40 24 -92 40 -129h-79c-12 30 -23 71 -35 113c-18 66 -45 105 -108 105h-8v-218h-75v484z" />
    <glyph glyph-name="uni043B" unicode="&#x43b;" horiz-adv-x="383" 
d="M74 484h256v-484h-77v421h-106v-154c0 -137 -10 -228 -81 -263c-16 -7 -34 -11 -52 -11l-13 61c19 3 31 12 40 22c29 29 33 97 33 186v222z" />
    <glyph glyph-name="uni043C" unicode="&#x43c;" horiz-adv-x="538" 
d="M38 0l34 484h90l64 -212c17 -57 28 -96 43 -155h2c16 62 25 97 41 155l62 212h92l33 -484h-72l-10 208c-3 64 -5 111 -7 204h-2c-12 -50 -28 -115 -48 -186l-66 -223h-56l-63 215c-19 67 -36 136 -49 194h-3c0 -77 -3 -139 -6 -208l-9 -204h-70z" />
    <glyph glyph-name="uni043D" unicode="&#x43d;" horiz-adv-x="405" 
d="M54 484h77v-205h143v205h77v-484h-77v213h-143v-213h-77v484z" />
    <glyph glyph-name="uni043E" unicode="&#x43e;" horiz-adv-x="383" 
d="M195 491c87 0 156 -81 156 -249c0 -187 -86 -250 -161 -250c-87 0 -157 79 -157 249c0 176 79 250 162 250zM192 430c-69 0 -82 -114 -82 -188c0 -80 14 -189 84 -189c66 0 80 113 80 189c0 74 -14 188 -82 188z" />
    <glyph glyph-name="uni043F" unicode="&#x43f;" horiz-adv-x="400" 
d="M54 484h293v-484h-77v420h-139v-420h-77v484z" />
    <glyph glyph-name="uni0440" unicode="&#x440;" horiz-adv-x="399" 
d="M53 -192v525c0 74 -3 117 -4 151h68l4 -62h2c27 51 65 69 103 69c85 0 140 -89 140 -248c0 -180 -74 -251 -150 -251c-46 0 -72 29 -85 56h-2v-240h-76zM129 301v-124c0 -14 1 -28 4 -40c15 -69 50 -81 71 -81c64 0 85 88 85 185c0 100 -24 184 -86 184
c-35 0 -67 -43 -71 -87c-2 -11 -3 -24 -3 -37z" />
    <glyph glyph-name="uni0441" unicode="&#x441;" horiz-adv-x="302" 
d="M279 71l11 -59c-17 -10 -46 -18 -80 -18c-106 0 -177 85 -177 245c0 139 70 252 191 252c26 0 54 -7 68 -15l-15 -63c-10 5 -30 13 -55 13c-78 0 -112 -92 -112 -187c0 -113 43 -181 114 -181c20 0 38 4 55 13z" />
    <glyph glyph-name="uni0442" unicode="&#x442;" horiz-adv-x="317" 
d="M10 484h297v-64h-110v-420h-77v420h-110v64z" />
    <glyph glyph-name="uni0443" unicode="&#x443;" horiz-adv-x="346" 
d="M12 484h81l65 -278c8 -38 13 -69 20 -100h2c5 28 13 64 20 99l58 279h76l-79 -311c-30 -121 -64 -238 -120 -312c-34 -43 -70 -65 -87 -73l-29 65c23 13 47 34 69 61c20 26 35 58 43 82c4 11 6 17 6 24c0 6 -1 12 -3 18z" />
    <glyph glyph-name="uni0444" unicode="&#x444;" horiz-adv-x="477" 
d="M204 684h70v-193c102 -13 171 -93 171 -250c0 -156 -66 -237 -171 -249v-184h-70v184c-104 11 -171 91 -171 249c0 154 67 235 171 249v194zM205 45v393c-79 -19 -100 -116 -100 -196c0 -82 21 -179 100 -197zM273 438v-393c79 18 100 113 100 197c0 80 -20 175 -100 196
z" />
    <glyph glyph-name="uni0445" unicode="&#x445;" horiz-adv-x="340" 
d="M14 484h83l44 -104c12 -28 22 -56 33 -84h2c10 30 22 58 32 84l43 104h79l-115 -239l114 -245h-83l-46 110c-11 25 -20 50 -32 83h-2c-10 -30 -21 -56 -32 -84l-45 -109h-78l115 243z" />
    <glyph glyph-name="uni0446" unicode="&#x446;" horiz-adv-x="411" 
d="M54 484h77v-420h138v420h77v-424l41 -1l-4 -188h-59l-5 129h-265v484z" />
    <glyph glyph-name="uni0447" unicode="&#x447;" horiz-adv-x="393" 
d="M47 484h77v-185c0 -49 13 -86 68 -86c27 0 51 10 71 22v249h76v-486h-76v181h-2c-24 -16 -59 -25 -93 -25c-74 0 -121 44 -121 133v197z" />
    <glyph glyph-name="uni0448" unicode="&#x448;" horiz-adv-x="590" 
d="M54 484h76v-420h127v420h76v-420h127v420h76v-484h-482v484z" />
    <glyph glyph-name="uni0449" unicode="&#x449;" horiz-adv-x="602" 
d="M54 484h76v-420h127v420h76v-420h128v420h75v-424l41 -1l-4 -188h-59l-5 129h-455v484z" />
    <glyph glyph-name="uni044A" unicode="&#x44a;" horiz-adv-x="464" 
d="M13 484h193v-171c19 1 33 3 46 3c98 0 185 -47 185 -154c0 -54 -21 -94 -54 -120c-40 -33 -96 -47 -154 -47c-33 0 -68 3 -99 8v418h-117v63zM206 254v-196c12 -2 22 -3 36 -3c62 0 116 32 116 102s-56 99 -120 99c-13 0 -22 -1 -32 -2z" />
    <glyph glyph-name="uni044B" unicode="&#x44b;" horiz-adv-x="528" 
d="M54 484h76v-171c8 1 26 3 46 3c93 0 174 -52 174 -154c0 -54 -21 -94 -54 -120c-40 -33 -97 -47 -143 -47c-33 0 -68 3 -99 8v481zM130 254v-196c12 -2 22 -3 34 -3c57 0 107 38 107 102c0 66 -51 99 -109 99c-13 0 -22 -1 -32 -2zM400 484h74v-484h-74v484z" />
    <glyph glyph-name="uni044C" unicode="&#x44c;" horiz-adv-x="388" 
d="M54 484h76v-171c19 1 33 3 46 3c99 0 185 -47 185 -156c0 -52 -21 -92 -54 -118c-40 -33 -96 -47 -154 -47c-33 0 -68 3 -99 8v481zM130 254v-197c12 -1 22 -2 34 -2c64 0 118 32 118 102s-56 99 -120 99c-13 0 -22 -1 -32 -2z" />
    <glyph glyph-name="uni044D" unicode="&#x44d;" horiz-adv-x="324" 
d="M50 219v56h163c-2 72 -31 155 -115 155c-26 0 -49 -7 -64 -14l-13 53c19 13 56 22 91 22c55 0 103 -27 132 -69c33 -46 48 -111 48 -177c0 -128 -63 -252 -194 -252c-27 0 -64 7 -85 20l14 57c17 -9 41 -15 68 -15c67 0 117 68 119 164h-164z" />
    <glyph glyph-name="uni044E" unicode="&#x44e;" horiz-adv-x="524" 
d="M54 484h75v-203h60c11 148 80 210 152 210c82 0 150 -81 150 -249c0 -187 -84 -250 -154 -250c-78 0 -143 71 -149 227h-59v-219h-75v484zM340 53c61 0 75 113 75 189c0 74 -14 188 -77 188c-64 0 -77 -114 -77 -188c0 -80 15 -189 79 -189z" />
    <glyph glyph-name="uni044F" unicode="&#x44f;" horiz-adv-x="379" 
d="M326 480v-480h-75v207h-23c-35 0 -57 -10 -71 -23c-32 -29 -38 -89 -54 -148c-4 -14 -8 -26 -13 -36h-81c9 15 16 29 22 50c13 47 22 113 55 150c13 14 34 28 60 32v2c-57 12 -107 49 -107 119c0 46 18 77 49 101c29 23 81 36 134 36c40 0 77 -3 104 -10zM251 259v175
c-10 2 -21 3 -33 3c-54 0 -102 -25 -102 -87c0 -58 53 -91 105 -91h30z" />
    <glyph glyph-name="uni0451" unicode="&#x451;" horiz-adv-x="363" 
d="M332 235h-224c0 -149 59 -180 114 -180c34 0 61 8 80 18l13 -56c-27 -14 -68 -23 -107 -23c-116 0 -176 95 -176 243c0 156 67 254 164 254c98 0 138 -104 138 -212c0 -19 -1 -32 -2 -44zM109 292h151c1 96 -35 139 -72 139c-51 0 -76 -73 -79 -139zM119 566
c-24 0 -44 19 -44 44c0 26 20 45 45 45c23 0 42 -19 42 -45c0 -25 -18 -44 -43 -44zM275 566c-24 0 -44 19 -44 44c0 26 20 45 45 45c23 0 42 -19 42 -45c0 -25 -18 -44 -43 -44z" />
    <glyph glyph-name="uni0452" unicode="&#x452;" horiz-adv-x="414" 
d="M12 614h52v78h77v-78h175v-54h-175v-131h2c21 34 58 60 100 60c46 0 82 -24 105 -76c20 -43 30 -109 30 -192c0 -128 -20 -218 -71 -280c-26 -34 -68 -59 -97 -63l-19 62c18 4 45 19 63 45c31 46 47 130 47 230c0 50 -1 108 -21 157c-12 31 -31 52 -61 52
c-24 0 -43 -15 -55 -34c-16 -25 -23 -57 -23 -81v-309h-77v560h-52v54z" />
    <glyph glyph-name="uni0453" unicode="&#x453;" horiz-adv-x="292" 
d="M54 484h225v-65h-149v-419h-76v484zM200 682h79l-105 -135h-51z" />
    <glyph glyph-name="uni0454" unicode="&#x454;" horiz-adv-x="331" 
d="M318 469l-17 -55c-14 7 -36 17 -65 17c-87 0 -122 -86 -124 -156h170v-56h-171c3 -97 51 -165 125 -165c23 0 50 6 67 15l14 -55c-24 -14 -53 -21 -92 -21c-133 0 -192 123 -192 248c0 126 61 250 202 250c32 0 66 -9 83 -22z" />
    <glyph glyph-name="uni0455" unicode="&#x455;" horiz-adv-x="289" 
d="M22 22l19 58c17 -11 47 -25 78 -25c43 0 71 27 71 70c0 37 -13 62 -62 95c-63 40 -97 82 -97 137c0 79 58 134 133 134c38 0 66 -13 86 -25l-20 -58c-19 13 -39 22 -65 22c-41 0 -62 -30 -62 -62s12 -50 60 -83c56 -36 100 -80 100 -147c0 -97 -66 -144 -146 -144
c-35 0 -74 11 -95 28z" />
    <glyph glyph-name="uni0456" unicode="&#x456;" horiz-adv-x="184" 
d="M131 0h-77v484h77v-484zM91 659c28 0 46 -20 46 -50s-18 -50 -47 -50c-25 0 -44 20 -44 50s20 50 45 50z" />
    <glyph glyph-name="uni0457" unicode="&#x457;" horiz-adv-x="184" 
d="M131 0h-77v484h77v-484zM15 566c-24 0 -44 19 -44 44c0 26 20 45 45 45c23 0 42 -19 42 -45c0 -25 -18 -44 -43 -44zM170 566c-24 0 -44 19 -44 44c0 26 20 45 45 45c23 0 42 -19 42 -45c0 -25 -18 -44 -43 -44z" />
    <glyph glyph-name="uni0458" unicode="&#x458;" horiz-adv-x="188" 
d="M-18 -200l-10 61c22 6 49 14 65 38c17 26 23 62 23 154v431h77v-453c0 -102 -15 -149 -49 -185c-29 -30 -76 -45 -106 -46zM99 659c27 0 45 -20 45 -50s-18 -50 -46 -50c-26 0 -45 20 -45 50s20 50 46 50z" />
    <glyph glyph-name="uni0459" unicode="&#x459;" horiz-adv-x="590" 
d="M74 484h258v-171c19 1 33 3 46 3c98 0 185 -48 185 -156c0 -52 -21 -91 -53 -117c-41 -33 -100 -48 -158 -48c-32 0 -65 3 -96 8v418h-109v-154c0 -139 -10 -228 -81 -263c-15 -6 -34 -11 -52 -11l-13 61c19 3 31 12 40 22c29 28 33 92 33 186v222zM332 254v-196
c12 -2 22 -3 34 -3c64 0 118 32 118 102c0 71 -55 99 -120 99c-13 0 -22 -1 -32 -2z" />
    <glyph glyph-name="uni045A" unicode="&#x45a;" horiz-adv-x="601" 
d="M54 484h77v-188h136v188h76v-176c19 1 33 3 47 3c98 0 184 -49 184 -156c0 -51 -21 -87 -53 -114c-41 -32 -100 -46 -158 -46c-32 0 -65 3 -96 7v231h-136v-233h-77v484zM343 249v-191c12 -2 22 -3 38 -3c60 0 114 31 114 99c0 70 -57 97 -120 97c-13 0 -22 -1 -32 -2z
" />
    <glyph glyph-name="uni045B" unicode="&#x45b;" horiz-adv-x="415" 
d="M12 614h52v78h77v-78h175v-54h-175v-131h2c10 17 25 32 41 43c17 11 37 17 64 17c61 0 113 -49 113 -169v-320h-77v309c0 60 -13 115 -65 115c-43 0 -66 -36 -75 -77c-2 -10 -3 -27 -3 -41v-306h-77v560h-52v54z" />
    <glyph glyph-name="uni045C" unicode="&#x45c;" horiz-adv-x="367" 
d="M54 484h75v-210h11l127 210h85l-151 -218c67 -11 100 -70 118 -137c11 -40 24 -92 40 -129h-79c-12 30 -23 71 -35 113c-18 66 -45 105 -108 105h-8v-218h-75v484zM220 682h80l-105 -135h-51z" />
    <glyph glyph-name="uni045E" unicode="&#x45e;" horiz-adv-x="346" 
d="M60 668h54c4 -43 23 -68 59 -68c38 0 56 26 60 68h54c-9 -80 -50 -112 -115 -112c-63 0 -103 32 -112 112zM12 484h81l65 -278c8 -38 13 -69 20 -100h2c5 28 13 64 20 99l58 279h76l-79 -311c-30 -121 -64 -238 -120 -312c-34 -43 -70 -65 -87 -73l-29 65
c23 13 47 34 69 61c20 26 35 58 43 82c4 11 6 17 6 24c0 6 -1 12 -3 18z" />
    <glyph glyph-name="uni045F" unicode="&#x45f;" horiz-adv-x="400" 
d="M54 484h77v-420h138v420h77v-484h-110l-6 -133h-59l-6 133h-111v484z" />
    <glyph glyph-name="uni0490" unicode="&#x490;" horiz-adv-x="334" 
d="M61 674h200l13 112h56l-10 -179h-183v-607h-76v674z" />
    <glyph glyph-name="uni0491" unicode="&#x491;" horiz-adv-x="289" 
d="M54 484h162l11 95h56l-7 -159h-146v-420h-76v484z" />
    <glyph glyph-name="uni04D9" unicode="&#x4d9;" horiz-adv-x="328" 
d="M60 411l-13 54c29 17 69 26 108 26c115 0 175 -95 175 -243c0 -156 -66 -254 -163 -254c-99 0 -139 104 -139 213c0 15 1 32 2 42h224c0 150 -57 181 -113 181c-35 0 -62 -9 -81 -19zM253 192h-151c-1 -95 36 -138 72 -138c51 0 76 73 79 138z" />
    <glyph glyph-name="Wgrave" unicode="&#x1e80;" horiz-adv-x="654" 
d="M222 0h-73l-129 674h79l57 -325c15 -85 25 -160 34 -243h3c9 85 24 158 41 244l62 324h65l63 -317c15 -80 30 -157 39 -251h3c11 97 23 170 35 247l56 321h76l-131 -674h-76l-64 328c-14 71 -26 147 -35 221h-2c-9 -76 -21 -149 -37 -224zM189 818h91l94 -108h-61z" />
    <glyph glyph-name="wgrave" unicode="&#x1e81;" horiz-adv-x="566" 
d="M13 484h80l47 -237c10 -52 20 -104 26 -154h4c7 50 19 106 30 152l56 239h59l53 -232c12 -54 23 -105 31 -159h4c6 51 15 101 26 156l46 235h77l-122 -484h-63l-56 235c-12 47 -19 90 -27 145h-2c-8 -57 -17 -102 -28 -148l-58 -232h-65zM168 682h79l77 -135h-51z" />
    <glyph glyph-name="Wacute" unicode="&#x1e82;" horiz-adv-x="654" 
d="M222 0h-73l-129 674h79l57 -325c15 -85 25 -160 34 -243h3c9 85 24 158 41 244l62 324h65l63 -317c15 -80 30 -157 39 -251h3c11 97 23 170 35 247l56 321h76l-131 -674h-76l-64 328c-14 71 -26 147 -35 221h-2c-9 -76 -21 -149 -37 -224zM379 818h91l-124 -108h-61z" />
    <glyph glyph-name="wacute" unicode="&#x1e83;" horiz-adv-x="566" 
d="M13 484h80l47 -237c10 -52 20 -104 26 -154h4c7 50 19 106 30 152l56 239h59l53 -232c12 -54 23 -105 31 -159h4c6 51 15 101 26 156l46 235h77l-122 -484h-63l-56 235c-12 47 -19 90 -27 145h-2c-8 -57 -17 -102 -28 -148l-58 -232h-65zM327 682h79l-105 -135h-51z" />
    <glyph glyph-name="Wdieresis" unicode="&#x1e84;" horiz-adv-x="654" 
d="M222 0h-73l-129 674h79l57 -325c15 -85 25 -160 34 -243h3c9 85 24 158 41 244l62 324h65l63 -317c15 -80 30 -157 39 -251h3c11 97 23 170 35 247l56 321h76l-131 -674h-76l-64 328c-14 71 -26 147 -35 221h-2c-9 -76 -21 -149 -37 -224zM247 725c-24 0 -42 19 -42 47
c0 26 19 46 43 46c26 0 43 -20 43 -46c0 -28 -17 -47 -44 -47zM409 725c-24 0 -42 19 -42 47c0 26 19 46 43 46c26 0 43 -20 43 -46c0 -28 -17 -47 -44 -47z" />
    <glyph glyph-name="wdieresis" unicode="&#x1e85;" horiz-adv-x="566" 
d="M13 484h80l47 -237c10 -52 20 -104 26 -154h4c7 50 19 106 30 152l56 239h59l53 -232c12 -54 23 -105 31 -159h4c6 51 15 101 26 156l46 235h77l-122 -484h-63l-56 235c-12 47 -19 90 -27 145h-2c-8 -57 -17 -102 -28 -148l-58 -232h-65zM205 566c-24 0 -44 19 -44 44
c0 26 20 45 45 45c23 0 42 -19 42 -45c0 -25 -18 -44 -43 -44zM360 566c-24 0 -44 19 -44 44c0 26 20 45 45 45c23 0 42 -19 42 -45c0 -25 -18 -44 -43 -44z" />
    <glyph glyph-name="uni1EA0" unicode="&#x1ea0;" horiz-adv-x="435" 
d="M291 202h-150l-44 -202h-75l154 674h85l150 -674h-76zM152 264h128l-35 171c-10 48 -19 104 -27 154h-3c-8 -51 -18 -109 -28 -155zM216 -80c23 0 42 -18 42 -45c0 -25 -18 -44 -43 -44c-24 0 -44 19 -44 44c0 26 20 45 45 45z" />
    <glyph glyph-name="uni1EA1" unicode="&#x1ea1;" horiz-adv-x="364" 
d="M309 320v-210c0 -37 1 -79 5 -110h-69l-5 51h-3c-21 -37 -55 -59 -97 -59c-64 0 -114 54 -114 138c0 122 97 175 206 176v15c0 65 -17 109 -77 109c-30 0 -57 -9 -80 -25l-17 54c21 15 65 32 113 32c97 0 138 -63 138 -171zM234 153v98c-40 0 -133 -8 -133 -113
c0 -64 32 -86 59 -86c34 0 62 25 71 73c2 9 3 19 3 28zM179 -80c23 0 42 -18 42 -45c0 -25 -18 -44 -43 -44c-24 0 -44 19 -44 44c0 26 20 45 45 45z" />
    <glyph glyph-name="uni1EA2" unicode="&#x1ea2;" horiz-adv-x="435" 
d="M291 202h-150l-44 -202h-75l154 674h85l150 -674h-76zM152 264h128l-35 171c-10 48 -19 104 -27 154h-3c-8 -51 -18 -109 -28 -154zM234 706l-41 9c12 35 45 46 45 78c0 17 -11 29 -29 29c-19 0 -31 -16 -42 -32l-28 21c16 32 43 58 85 58c40 0 71 -29 71 -64
c0 -44 -39 -59 -61 -99z" />
    <glyph glyph-name="uni1EA3" unicode="&#x1ea3;" horiz-adv-x="364" 
d="M309 320v-210c0 -37 1 -79 5 -110h-69l-5 51h-3c-21 -37 -55 -59 -97 -59c-64 0 -114 54 -114 138c0 122 97 175 206 176v15c0 65 -17 109 -77 109c-30 0 -57 -9 -80 -25l-17 54c21 15 65 32 113 32c97 0 138 -63 138 -171zM234 153v98c-40 0 -133 -8 -133 -113
c0 -64 32 -86 59 -86c34 0 62 25 71 73c2 9 3 19 3 28zM196 530l-41 9c11 41 48 58 48 93c0 20 -13 34 -32 34c-18 0 -30 -14 -39 -32l-28 21c14 33 41 59 81 59c44 0 75 -30 75 -70c0 -51 -43 -68 -64 -114z" />
    <glyph glyph-name="uni1EA4" unicode="&#x1ea4;" horiz-adv-x="435" 
d="M290 202h-149l-44 -202h-75l154 674h85l150 -674h-76zM152 264h128l-35 172c-10 47 -19 103 -27 153h-4c-7 -51 -17 -109 -27 -154zM192 808h60l78 -98h-63l-44 57h-2l-43 -57h-62zM358 882h80l-100 -101h-47z" />
    <glyph glyph-name="uni1EA5" unicode="&#x1ea5;" horiz-adv-x="364" 
d="M309 320v-210c0 -37 1 -79 5 -110h-69l-5 51h-3c-21 -37 -55 -59 -97 -59c-64 0 -114 54 -114 138c0 122 97 175 206 176v15c0 65 -17 109 -77 109c-30 0 -57 -9 -80 -25l-17 54c21 15 65 32 113 32c97 0 138 -63 138 -171zM234 153v98c-40 0 -133 -8 -133 -113
c0 -64 32 -86 59 -86c34 0 62 25 71 73c2 9 3 19 3 28zM149 682h55l62 -135h-55l-33 84h-4l-31 -84h-56zM299 742h68l-77 -117h-41z" />
    <glyph glyph-name="uni1EA6" unicode="&#x1ea6;" horiz-adv-x="435" 
d="M290 202h-149l-44 -202h-75l154 674h84l150 -674h-76zM152 264h128l-35 172c-10 47 -19 103 -28 153h-3c-8 -51 -18 -109 -27 -154zM236 868h80l66 -101h-46zM189 808h60l77 -98h-62l-44 57h-2l-44 -57h-61z" />
    <glyph glyph-name="uni1EA7" unicode="&#x1ea7;" horiz-adv-x="364" 
d="M309 320v-210c0 -37 1 -79 5 -110h-69l-5 51h-3c-21 -37 -55 -59 -97 -59c-64 0 -114 54 -114 138c0 122 97 175 206 176v15c0 65 -17 109 -77 109c-30 0 -57 -9 -80 -25l-17 54c21 15 65 32 113 32c97 0 138 -63 138 -171zM234 152v99c-40 0 -133 -8 -133 -113
c0 -64 32 -86 59 -86c34 0 62 25 71 73c2 9 3 19 3 27zM205 743h67l45 -117h-40zM151 682h54l62 -135h-55l-32 84h-4l-32 -84h-56z" />
    <glyph glyph-name="uni1EA8" unicode="&#x1ea8;" horiz-adv-x="435" 
d="M291 202h-150l-44 -202h-75l154 674h85l150 -674h-76zM152 264h128l-35 171c-10 48 -19 104 -27 154h-3c-8 -51 -18 -109 -28 -154zM190 807h60l77 -97h-62l-44 57h-2l-44 -57h-61zM343 752l-36 9c11 34 45 46 45 76c0 17 -12 29 -29 29c-19 0 -32 -16 -42 -32l-26 20
c15 31 41 55 82 55c38 0 67 -27 67 -60c0 -43 -39 -59 -61 -97z" />
    <glyph glyph-name="uni1EA9" unicode="&#x1ea9;" horiz-adv-x="364" 
d="M309 320v-210c0 -37 1 -79 6 -110h-70l-5 51h-3c-21 -37 -55 -59 -97 -59c-64 0 -114 54 -114 138c0 122 97 175 206 176v15c0 65 -17 109 -77 109c-30 0 -57 -9 -80 -25l-17 54c21 15 65 32 113 32c97 0 138 -63 138 -171zM234 152v99c-40 0 -133 -8 -133 -113
c0 -64 32 -86 59 -86c34 0 62 25 71 73c2 9 3 19 3 27zM148 682h54l62 -135h-55l-33 84h-3l-32 -84h-56zM290 625l-38 8c12 34 44 45 44 75c0 17 -12 29 -29 29c-18 0 -30 -15 -41 -31l-26 20c15 31 41 56 80 56c40 0 70 -28 70 -63c0 -42 -38 -56 -60 -94z" />
    <glyph glyph-name="uni1EAA" unicode="&#x1eaa;" horiz-adv-x="435" 
d="M291 202h-150l-44 -202h-75l154 674h85l150 -674h-76zM152 264h128l-35 171c-10 48 -19 104 -27 154h-3c-8 -51 -18 -109 -28 -154zM186 808h66l87 -98h-67l-52 55h-2l-52 -55h-66zM155 820h-41c-1 44 21 85 61 85c20 0 34 -9 48 -17s27 -17 40 -17c15 0 24 8 25 35h41
c0 -51 -20 -85 -63 -85c-18 0 -35 10 -48 18c-14 8 -25 16 -38 16c-14 0 -22 -12 -25 -35z" />
    <glyph glyph-name="uni1EAB" unicode="&#x1eab;" horiz-adv-x="364" 
d="M309 320v-210c0 -37 1 -79 5 -110h-69l-5 51h-3c-21 -37 -55 -59 -97 -59c-64 0 -114 54 -114 138c0 122 97 175 206 176v15c0 65 -17 109 -77 109c-30 0 -57 -9 -80 -25l-17 54c21 15 65 32 113 32c97 0 138 -63 138 -171zM234 153v98c-40 0 -133 -8 -133 -113
c0 -64 32 -86 59 -86c34 0 62 25 71 73c2 9 3 19 3 28zM156 650h53l76 -104h-61l-40 60h-2l-41 -60h-61zM118 661h-41c-1 44 21 84 61 84c20 0 34 -9 48 -17s27 -16 40 -16c15 0 24 8 25 35h41c0 -51 -19 -85 -63 -85c-18 0 -34 10 -48 18s-25 16 -38 16
c-14 0 -22 -12 -25 -35z" />
    <glyph glyph-name="uni1EAC" unicode="&#x1eac;" horiz-adv-x="435" 
d="M291 202h-150l-44 -202h-75l154 674h85l150 -674h-76zM152 264h128l-35 171c-10 48 -19 104 -27 154h-3c-8 -51 -18 -109 -28 -154zM186 808h66l87 -98h-67l-52 55h-2l-52 -55h-66zM217 -169c-24 0 -44 20 -44 44c0 26 20 45 45 45s44 -19 44 -45c0 -24 -19 -44 -45 -44z
" />
    <glyph glyph-name="uni1EAD" unicode="&#x1ead;" horiz-adv-x="364" 
d="M309 320v-210c0 -37 1 -79 5 -110h-69l-5 51h-3c-21 -37 -55 -59 -97 -59c-64 0 -114 54 -114 138c0 122 97 175 206 176v15c0 65 -17 109 -77 109c-30 0 -57 -9 -80 -25l-17 54c21 15 65 32 113 32c97 0 138 -63 138 -171zM234 153v98c-40 0 -133 -8 -133 -113
c0 -64 32 -86 59 -86c34 0 62 25 71 73c2 9 3 19 3 28zM156 682h52l79 -135h-58l-46 87h-2l-46 -87h-58zM179 -80c23 0 42 -18 42 -45c0 -25 -18 -44 -43 -44c-24 0 -44 19 -44 44c0 26 20 45 45 45z" />
    <glyph glyph-name="uni1EAE" unicode="&#x1eae;" horiz-adv-x="435" 
d="M290 202h-149l-44 -202h-75l154 674h85l150 -674h-76zM152 264h128l-35 171c-10 48 -19 104 -27 154h-4c-7 -51 -17 -109 -27 -155zM114 785h40c7 -28 31 -43 65 -43c35 0 60 12 68 43h40c-8 -55 -50 -90 -108 -90c-57 0 -98 34 -105 90zM257 875h79l-99 -100h-47z" />
    <glyph glyph-name="uni1EAF" unicode="&#x1eaf;" horiz-adv-x="364" 
d="M309 320v-210c0 -37 1 -79 5 -110h-69l-5 51h-3c-21 -37 -55 -59 -97 -59c-64 0 -114 54 -114 138c0 122 97 175 206 176v15c0 65 -17 109 -77 109c-30 0 -57 -9 -80 -25l-17 54c21 15 65 32 113 32c97 0 138 -63 138 -171zM234 153v98c-40 0 -133 -8 -133 -113
c0 -64 32 -86 59 -86c34 0 62 25 71 73c2 9 3 19 3 28zM213 738h74l-92 -115h-47zM71 644h42c3 -36 29 -61 66 -61c42 0 67 25 69 61h42c1 -66 -44 -111 -111 -111c-68 0 -109 48 -108 111z" />
    <glyph glyph-name="uni1EB0" unicode="&#x1eb0;" horiz-adv-x="435" 
d="M290 202h-149l-44 -202h-75l154 674h85l150 -674h-76zM152 264h128l-35 171c-10 48 -19 104 -27 154h-4c-7 -51 -17 -109 -27 -155zM106 875h80l67 -100h-47zM111 785h40c7 -28 31 -43 66 -43c34 0 59 12 67 43h40c-8 -55 -50 -90 -107 -90c-58 0 -99 34 -106 90z" />
    <glyph glyph-name="uni1EB1" unicode="&#x1eb1;" horiz-adv-x="364" 
d="M309 320v-210c0 -37 1 -79 6 -110h-69l-5 51h-3c-22 -37 -55 -59 -97 -59c-65 0 -115 54 -115 138c0 122 97 175 206 176v15c0 65 -17 109 -78 109c-29 0 -56 -9 -79 -25l-17 54c21 15 65 32 113 32c97 0 138 -63 138 -171zM234 152v99c-39 0 -133 -8 -133 -113
c0 -64 32 -86 59 -86c34 0 62 25 71 73c2 9 3 19 3 27zM73 738h73l66 -114h-48zM72 645h42c4 -37 30 -62 67 -62c41 0 67 25 69 62h42c1 -66 -44 -112 -111 -112c-69 0 -110 48 -109 112z" />
    <glyph glyph-name="uni1EB2" unicode="&#x1eb2;" horiz-adv-x="435" 
d="M290 202h-149l-44 -202h-75l154 674h85l149 -674h-75zM152 264h128l-35 171c-10 48 -19 104 -27 154h-3c-8 -51 -18 -109 -28 -154zM229 764l-36 9c11 34 45 46 45 76c0 17 -12 29 -29 29c-19 0 -32 -15 -42 -32l-26 20c15 31 41 56 82 56c38 0 66 -27 66 -61
c0 -43 -38 -59 -60 -97zM112 786h40c8 -28 32 -44 66 -44s59 12 67 44h40c-8 -56 -50 -90 -107 -90c-58 0 -98 33 -106 90z" />
    <glyph glyph-name="uni1EB3" unicode="&#x1eb3;" horiz-adv-x="364" 
d="M309 320v-210c0 -37 1 -79 6 -110h-70l-5 51h-3c-21 -37 -55 -59 -96 -59c-65 0 -115 54 -115 138c0 122 97 175 206 176v15c0 65 -17 109 -77 109c-30 0 -57 -9 -80 -25l-16 54c20 15 64 32 112 32c97 0 138 -63 138 -171zM234 152v99c-40 0 -133 -8 -133 -113
c0 -64 32 -86 59 -86c34 0 62 25 71 73c2 9 3 19 3 27zM194 615l-38 8c12 34 44 45 44 76c0 15 -12 28 -30 28c-17 0 -30 -15 -40 -31l-26 20c15 31 41 56 80 56c40 0 71 -27 71 -63c0 -42 -39 -56 -61 -94zM73 644h42c3 -37 29 -62 66 -62c42 0 67 25 69 62h42
c1 -66 -44 -112 -111 -112c-68 0 -109 48 -108 112z" />
    <glyph glyph-name="uni1EB4" unicode="&#x1eb4;" horiz-adv-x="435" 
d="M290 202h-149l-44 -202h-75l154 674h85l150 -674h-76zM152 264h128l-35 171c-10 48 -19 104 -27 154h-4c-7 -51 -17 -109 -27 -155zM154 819h-43c2 36 21 74 61 74c20 0 34 -9 48 -17s27 -16 40 -16c15 0 24 8 25 35h41c0 -51 -20 -85 -63 -85c-18 0 -35 10 -48 18
c-14 7 -26 16 -38 16c-14 0 -20 -12 -23 -25zM109 785h40c8 -28 31 -43 66 -43c34 0 59 12 67 43h40c-8 -55 -50 -90 -107 -90c-58 0 -99 34 -106 90z" />
    <glyph glyph-name="uni1EB5" unicode="&#x1eb5;" horiz-adv-x="364" 
d="M309 320v-210c0 -37 1 -79 5 -110h-69l-5 51h-3c-21 -37 -55 -59 -97 -59c-64 0 -114 54 -114 138c0 122 97 175 206 176v15c0 65 -17 109 -77 109c-30 0 -57 -9 -80 -25l-17 54c21 15 65 32 113 32c97 0 138 -63 138 -171zM234 153v98c-40 0 -133 -8 -133 -113
c0 -64 32 -86 59 -86c34 0 62 25 71 73c2 9 3 19 3 28zM118 680h-43c2 36 21 75 61 75c20 0 34 -9 48 -17s27 -17 40 -17c15 0 24 8 25 35h41c0 -51 -20 -85 -63 -85c-18 0 -35 10 -48 18c-14 8 -26 16 -38 16c-14 0 -20 -12 -23 -25zM73 645h41c3 -36 29 -63 67 -63
c41 0 66 27 68 63h41c2 -66 -43 -112 -109 -112c-69 0 -109 49 -108 112z" />
    <glyph glyph-name="uni1EB6" unicode="&#x1eb6;" horiz-adv-x="435" 
d="M291 202h-150l-44 -202h-75l154 674h85l150 -674h-76zM152 264h128l-35 171c-10 48 -19 104 -27 154h-3c-8 -51 -18 -109 -28 -154zM113 811h45c5 -27 28 -43 61 -43s56 13 62 43h45c0 -57 -40 -96 -106 -96c-67 0 -107 36 -107 96zM217 -169c-24 0 -44 20 -44 44
c0 26 20 45 45 45s44 -19 44 -45c0 -24 -19 -44 -45 -44z" />
    <glyph glyph-name="uni1EB7" unicode="&#x1eb7;" horiz-adv-x="364" 
d="M309 320v-210c0 -37 1 -79 5 -110h-69l-5 51h-3c-21 -37 -55 -59 -97 -59c-64 0 -114 54 -114 138c0 122 97 175 206 176v15c0 65 -17 109 -77 109c-30 0 -57 -9 -80 -25l-17 54c21 15 65 32 113 32c97 0 138 -63 138 -171zM234 153v98c-40 0 -133 -8 -133 -113
c0 -64 32 -86 59 -86c34 0 62 25 71 73c2 9 3 19 3 28zM76 669h43c3 -36 27 -61 62 -61c39 0 63 26 64 61h43c2 -65 -40 -113 -107 -113c-69 0 -107 50 -105 113zM179 -80c23 0 42 -18 42 -45c0 -25 -18 -44 -43 -44c-24 0 -44 19 -44 44c0 26 20 45 45 45z" />
    <glyph glyph-name="uni1EB8" unicode="&#x1eb8;" horiz-adv-x="354" 
d="M306 385v-65h-169v-253h192v-67h-269v674h257v-67h-180v-222h169zM176 -169c-24 0 -44 20 -44 44c0 26 20 45 45 45s44 -19 44 -45c0 -24 -19 -44 -45 -44z" />
    <glyph glyph-name="uni1EB9" unicode="&#x1eb9;" horiz-adv-x="363" 
d="M332 235h-224c0 -149 59 -180 114 -180c34 0 61 8 80 18l13 -56c-27 -14 -68 -23 -107 -23c-116 0 -176 95 -176 243c0 157 67 255 164 255c98 0 138 -104 138 -213c0 -19 -1 -32 -2 -44zM109 292h151c1 97 -35 140 -72 140c-51 0 -76 -74 -79 -140zM179 -81
c23 0 42 -18 42 -44s-18 -45 -43 -45c-24 0 -44 19 -44 45s20 44 45 44z" />
    <glyph glyph-name="uni1EBA" unicode="&#x1eba;" horiz-adv-x="354" 
d="M306 385v-65h-169v-253h192v-67h-269v674h257v-67h-180v-222h169zM205 706l-41 9c12 35 45 46 45 78c0 17 -11 29 -29 29c-19 0 -31 -16 -42 -32l-28 21c16 32 43 58 85 58c40 0 71 -28 71 -64c0 -43 -39 -59 -61 -99z" />
    <glyph glyph-name="uni1EBB" unicode="&#x1ebb;" horiz-adv-x="363" 
d="M332 235h-224c0 -149 59 -180 114 -180c34 0 61 8 80 18l13 -56c-27 -14 -68 -23 -107 -23c-116 0 -176 95 -176 243c0 156 67 254 164 254c98 0 138 -104 138 -212c0 -19 -1 -32 -2 -44zM109 292h151c1 96 -35 139 -72 139c-51 0 -76 -73 -79 -139zM195 530l-41 9
c11 40 49 58 49 93c0 20 -13 34 -33 34c-18 0 -29 -15 -39 -32l-28 21c14 33 41 59 81 59c44 0 75 -30 75 -70c0 -51 -43 -69 -64 -114z" />
    <glyph glyph-name="uni1EBC" unicode="&#x1ebc;" horiz-adv-x="354" 
d="M306 385v-65h-169v-253h192v-67h-269v674h257v-67h-180v-222h169zM124 718h-41c-1 56 21 94 59 94c20 0 34 -9 48 -17c15 -9 26 -18 39 -18c17 0 24 9 27 37h40c1 -57 -18 -90 -62 -90c-19 0 -36 8 -49 17c-14 8 -25 16 -37 16c-15 0 -21 -13 -24 -39z" />
    <glyph glyph-name="uni1EBD" unicode="&#x1ebd;" horiz-adv-x="363" 
d="M332 235h-224c0 -149 59 -180 114 -180c34 0 61 8 80 18l13 -56c-27 -14 -68 -23 -107 -23c-116 0 -176 95 -176 243c0 156 67 254 164 254c98 0 138 -104 138 -212c0 -19 -1 -32 -2 -44zM109 292h151c1 96 -35 139 -72 139c-51 0 -76 -73 -79 -139zM116 561h-43
c-1 53 21 94 62 94c20 0 35 -9 49 -18c14 -8 26 -17 40 -17c15 0 24 7 25 36h41c0 -55 -20 -89 -63 -89c-18 0 -35 9 -49 17s-25 17 -38 17c-15 0 -22 -14 -24 -40z" />
    <glyph glyph-name="uni1EBE" unicode="&#x1ebe;" horiz-adv-x="354" 
d="M306 385v-65h-169v-253h192v-67h-269v674h257v-67h-180v-222h169zM162 808h60l77 -98h-63l-43 57h-2l-44 -57h-61zM327 882h80l-100 -101h-46z" />
    <glyph glyph-name="uni1EBF" unicode="&#x1ebf;" horiz-adv-x="363" 
d="M332 235h-224c0 -149 59 -180 114 -180c34 0 61 8 80 18l13 -56c-27 -14 -68 -23 -107 -23c-116 0 -176 95 -176 243c0 156 67 254 164 254c98 0 138 -104 138 -212c0 -19 -1 -32 -2 -44zM109 292h151c1 96 -35 139 -72 139c-51 0 -76 -73 -79 -139zM169 682h55l62 -135
h-55l-33 84h-3l-32 -84h-56zM319 742h68l-77 -117h-41z" />
    <glyph glyph-name="uni1EC0" unicode="&#x1ec0;" horiz-adv-x="354" 
d="M306 385v-65h-169v-253h192v-67h-269v674h257v-67h-180v-222h169zM203 867h80l66 -100h-46zM156 808h60l77 -98h-63l-43 57h-2l-44 -57h-61z" />
    <glyph glyph-name="uni1EC1" unicode="&#x1ec1;" horiz-adv-x="363" 
d="M332 235h-224c0 -149 59 -180 114 -180c34 0 61 8 80 18l13 -56c-27 -14 -68 -23 -107 -23c-116 0 -176 95 -176 243c0 156 67 254 164 254c98 0 138 -104 138 -212c0 -19 -1 -32 -2 -44zM109 292h151c1 96 -35 139 -72 139c-51 0 -76 -73 -79 -139zM223 743h68l45 -117
h-41zM169 682h54l62 -135h-55l-32 84h-4l-32 -84h-56z" />
    <glyph glyph-name="uni1EC2" unicode="&#x1ec2;" horiz-adv-x="354" 
d="M306 385v-65h-168v-253h192v-67h-269v674h256v-67h-179v-222h168zM159 808h61l77 -98h-63l-44 57h-2l-43 -57h-62zM312 752l-36 9c12 34 45 46 45 76c0 17 -12 29 -29 29c-19 0 -32 -16 -42 -32l-26 20c15 31 41 56 82 56c38 0 67 -27 67 -61c0 -43 -39 -59 -61 -97z" />
    <glyph glyph-name="uni1EC3" unicode="&#x1ec3;" horiz-adv-x="363" 
d="M333 235h-225c0 -149 59 -180 114 -180c34 0 61 8 80 18l13 -56c-27 -14 -68 -23 -107 -23c-116 0 -176 95 -176 243c0 156 67 254 164 254c98 0 138 -104 138 -212c0 -19 -1 -32 -1 -44zM109 292h151c1 96 -35 139 -72 139c-51 0 -76 -73 -79 -139zM161 682h55l62 -135
h-55l-33 84h-3l-33 -84h-56zM305 625l-39 8c12 34 44 45 44 75c0 17 -11 29 -29 29s-30 -15 -41 -31l-26 20c15 31 42 56 80 56c40 0 70 -28 70 -63c0 -42 -37 -56 -59 -94z" />
    <glyph glyph-name="uni1EC4" unicode="&#x1ec4;" horiz-adv-x="354" 
d="M306 385v-65h-169v-253h192v-67h-269v674h257v-67h-180v-222h169zM159 808h66l87 -98h-67l-52 55h-2l-52 -55h-66zM128 820h-41c-1 44 21 85 61 85c20 0 34 -9 48 -17s27 -17 40 -17c15 0 24 8 25 35h41c0 -51 -20 -85 -63 -85c-18 0 -35 10 -48 18c-14 8 -25 16 -38 16
c-14 0 -22 -12 -25 -35z" />
    <glyph glyph-name="uni1EC5" unicode="&#x1ec5;" horiz-adv-x="363" 
d="M332 235h-224c0 -149 59 -180 114 -180c34 0 61 8 80 18l13 -56c-27 -14 -68 -23 -107 -23c-116 0 -176 95 -176 243c0 156 67 254 164 254c98 0 138 -104 138 -212c0 -19 -1 -32 -2 -44zM109 292h151c1 96 -35 139 -72 139c-51 0 -76 -73 -79 -139zM168 650h53l76 -104
h-61l-41 60h-2l-40 -60h-61zM130 661h-41c-1 44 21 84 61 84c20 0 34 -9 48 -17s27 -16 40 -16c15 0 24 8 25 35h41c0 -51 -19 -85 -63 -85c-18 0 -34 10 -48 18s-25 16 -38 16c-14 0 -22 -12 -25 -35z" />
    <glyph glyph-name="uni1EC6" unicode="&#x1ec6;" horiz-adv-x="354" 
d="M306 385v-65h-169v-253h192v-67h-269v674h257v-67h-180v-222h169zM156 808h66l87 -98h-67l-52 55h-2l-52 -55h-66zM189 -169c-24 0 -44 20 -44 44c0 26 20 45 45 45s44 -19 44 -45c0 -24 -19 -44 -45 -44z" />
    <glyph glyph-name="uni1EC7" unicode="&#x1ec7;" horiz-adv-x="363" 
d="M332 235h-224c0 -149 59 -180 114 -180c34 0 61 8 80 18l13 -56c-27 -14 -68 -23 -107 -23c-116 0 -176 95 -176 243c0 157 67 255 164 255c98 0 138 -104 138 -213c0 -19 -1 -32 -2 -44zM109 292h151c1 97 -35 140 -72 140c-51 0 -76 -74 -79 -140zM155 682h52l79 -135
h-58l-46 87h-2l-46 -87h-58zM179 -79c23 0 42 -19 42 -45c0 -25 -18 -45 -43 -45c-24 0 -44 20 -44 45c0 26 20 45 45 45z" />
    <glyph glyph-name="uni1EC8" unicode="&#x1ec8;" horiz-adv-x="199" 
d="M60 674h77v-674h-77v674zM115 706l-41 9c13 35 46 46 46 78c0 17 -12 29 -29 29c-19 0 -32 -16 -42 -32l-28 21c15 32 43 58 85 58c40 0 70 -29 70 -64c0 -44 -38 -59 -61 -99z" />
    <glyph glyph-name="uni1EC9" unicode="&#x1ec9;" horiz-adv-x="184" 
d="M131 0h-77v484h77v-484zM107 531l-41 9c11 40 48 58 48 93c0 20 -12 34 -32 34c-18 0 -30 -15 -39 -32l-29 21c15 33 42 59 82 59c44 0 75 -30 75 -70c0 -51 -43 -69 -64 -114z" />
    <glyph glyph-name="uni1ECA" unicode="&#x1eca;" horiz-adv-x="199" 
d="M60 674h77v-674h-77v674zM99 -169c-24 0 -44 20 -44 44c0 26 20 45 45 45s44 -19 44 -45c0 -24 -19 -44 -45 -44z" />
    <glyph glyph-name="uni1ECB" unicode="&#x1ecb;" horiz-adv-x="184" 
d="M131 0h-77v484h77v-484zM91 659c28 0 46 -20 46 -50s-18 -50 -47 -50c-25 0 -44 20 -44 50s20 50 45 50zM90 -80c23 0 42 -18 42 -45c0 -25 -18 -44 -43 -44c-24 0 -44 19 -44 44c0 26 20 45 45 45z" />
    <glyph glyph-name="uni1ECC" unicode="&#x1ecc;" horiz-adv-x="446" 
d="M230 682c115 0 184 -125 184 -340c0 -253 -86 -350 -195 -350c-112 0 -187 119 -187 346c0 223 81 344 198 344zM224 614c-85 0 -112 -140 -112 -277c0 -139 27 -277 113 -277s109 147 109 279c0 126 -23 275 -110 275zM222 -169c-24 0 -44 20 -44 44c0 26 20 45 45 45
s44 -19 44 -45c0 -24 -19 -44 -45 -44z" />
    <glyph glyph-name="uni1ECD" unicode="&#x1ecd;" horiz-adv-x="383" 
d="M195 491c87 0 156 -81 156 -249c0 -187 -86 -250 -161 -250c-87 0 -157 79 -157 249c0 176 79 250 162 250zM192 430c-69 0 -82 -114 -82 -188c0 -80 14 -189 84 -189c66 0 80 113 80 189c0 74 -14 188 -82 188zM189 -80c23 0 42 -19 42 -45c0 -25 -18 -45 -43 -45
c-24 0 -44 20 -44 45c0 26 20 45 45 45z" />
    <glyph glyph-name="uni1ECE" unicode="&#x1ece;" horiz-adv-x="446" 
d="M230 682c115 0 184 -125 184 -340c0 -253 -86 -350 -195 -350c-112 0 -187 119 -187 346c0 223 81 344 198 344zM224 614c-85 0 -112 -140 -112 -277c0 -139 27 -277 113 -277s109 147 109 279c0 126 -23 275 -110 275zM238 706l-40 9c12 35 45 46 45 78
c0 17 -12 29 -29 29c-19 0 -32 -16 -42 -32l-28 21c16 32 43 58 85 58c40 0 71 -28 71 -64c0 -43 -39 -59 -62 -99z" />
    <glyph glyph-name="uni1ECF" unicode="&#x1ecf;" horiz-adv-x="383" 
d="M195 491c87 0 156 -81 156 -249c0 -187 -86 -250 -161 -250c-87 0 -157 79 -157 249c0 176 79 250 162 250zM192 430c-69 0 -82 -114 -82 -188c0 -80 14 -189 84 -189c66 0 80 113 80 189c0 74 -14 188 -82 188zM206 530l-42 8c12 41 49 59 49 94c0 19 -12 33 -32 33
c-18 0 -30 -14 -40 -32l-28 22c15 33 42 59 82 59c44 0 75 -30 75 -70c0 -51 -43 -69 -64 -114z" />
    <glyph glyph-name="uni1ED0" unicode="&#x1ed0;" horiz-adv-x="446" 
d="M229 682c115 0 184 -125 185 -340c0 -253 -86 -350 -195 -350c-112 0 -187 119 -187 346c0 224 81 344 197 344zM223 614c-85 0 -111 -140 -111 -277c0 -139 27 -277 113 -277s109 147 109 279c0 126 -23 276 -111 275zM200 808h60l77 -98h-62l-44 57h-2l-44 -57h-61z
M365 882h80l-100 -101h-46z" />
    <glyph glyph-name="uni1ED1" unicode="&#x1ed1;" horiz-adv-x="383" 
d="M195 491c87 0 156 -81 156 -249c0 -187 -86 -250 -161 -250c-87 0 -157 79 -157 249c0 176 79 250 162 250zM192 430c-69 0 -82 -114 -82 -188c0 -80 14 -189 84 -189c66 0 80 113 80 189c0 74 -14 188 -82 188zM168 682h54l62 -135h-55l-32 84h-4l-32 -84h-56zM317 742
h68l-77 -117h-41z" />
    <glyph glyph-name="uni1ED2" unicode="&#x1ed2;" horiz-adv-x="446" 
d="M230 682c115 0 184 -125 184 -340c0 -253 -86 -350 -195 -350c-112 0 -187 119 -187 346c0 224 81 344 198 344zM224 614c-85 0 -112 -140 -112 -277c0 -139 27 -277 113 -277s109 147 109 279c0 126 -23 276 -110 275zM244 867h80l66 -100h-46zM197 808h60l77 -98h-62
l-44 57h-2l-44 -57h-61z" />
    <glyph glyph-name="uni1ED3" unicode="&#x1ed3;" horiz-adv-x="383" 
d="M195 491c87 0 156 -81 156 -249c0 -187 -86 -250 -161 -250c-87 0 -157 79 -157 249c0 176 79 250 162 250zM192 430c-69 0 -82 -114 -82 -188c0 -80 14 -189 84 -189c66 0 80 113 80 189c0 74 -14 188 -82 188zM223 743h68l45 -117h-40zM169 682h54l63 -135h-56l-32 84
h-4l-32 -84h-56z" />
    <glyph glyph-name="uni1ED4" unicode="&#x1ed4;" horiz-adv-x="446" 
d="M230 682c115 0 184 -125 184 -340c0 -253 -86 -350 -195 -350c-112 0 -187 119 -187 346c0 223 81 344 198 344zM224 614c-85 0 -112 -140 -112 -277c0 -139 27 -277 113 -277s109 147 109 279c0 126 -23 275 -110 275zM196 808h60l77 -98h-62l-44 57h-2l-44 -57h-61z
M349 753l-36 8c11 34 44 46 44 77c0 16 -11 28 -28 28c-19 0 -32 -15 -43 -31l-26 19c16 31 42 56 83 56c38 0 66 -27 66 -60c0 -44 -38 -60 -60 -97z" />
    <glyph glyph-name="uni1ED5" unicode="&#x1ed5;" horiz-adv-x="383" 
d="M195 491c87 0 156 -81 156 -249c0 -187 -86 -250 -161 -250c-87 0 -157 79 -157 249c0 176 79 250 162 250zM192 430c-69 0 -82 -114 -82 -188c0 -80 14 -189 84 -189c66 0 80 113 80 189c0 74 -14 188 -82 188zM167 682h54l63 -135h-56l-32 84h-3l-33 -84h-56zM310 625
l-38 8c12 34 44 45 44 75c0 17 -12 29 -29 29c-18 0 -30 -15 -41 -31l-26 20c15 31 42 56 80 56c40 0 70 -28 70 -63c0 -42 -38 -56 -60 -94z" />
    <glyph glyph-name="uni1ED6" unicode="&#x1ed6;" horiz-adv-x="446" 
d="M230 682c115 0 184 -125 184 -340c0 -253 -86 -350 -195 -350c-112 0 -187 119 -187 346c0 223 81 344 198 344zM224 614c-85 0 -112 -140 -112 -277c0 -139 27 -277 113 -277s109 147 109 279c0 126 -23 275 -110 275zM192 808h66l87 -98h-67l-52 55h-2l-52 -55h-66z
M161 820h-41c-1 44 21 85 61 85c20 0 34 -9 48 -17s27 -17 40 -17c15 0 24 8 25 35h41c0 -51 -20 -85 -63 -85c-18 0 -35 10 -48 18c-14 8 -25 16 -38 16c-14 0 -22 -12 -25 -35z" />
    <glyph glyph-name="uni1ED7" unicode="&#x1ed7;" horiz-adv-x="383" 
d="M195 491c87 0 156 -81 156 -249c0 -187 -86 -250 -161 -250c-87 0 -157 79 -157 249c0 176 79 250 162 250zM192 430c-69 0 -82 -114 -82 -188c0 -80 14 -189 84 -189c66 0 80 113 80 189c0 74 -14 188 -82 188zM166 650h53l76 -104h-61l-40 60h-2l-41 -60h-61zM128 661
h-41c-1 44 21 84 61 84c20 0 34 -9 48 -17s27 -16 40 -16c15 0 24 8 25 35h41c0 -51 -19 -85 -63 -85c-18 0 -34 10 -48 18s-25 16 -38 16c-14 0 -22 -12 -25 -35z" />
    <glyph glyph-name="uni1ED8" unicode="&#x1ed8;" horiz-adv-x="446" 
d="M230 682c115 0 184 -125 184 -340c0 -253 -86 -350 -195 -350c-112 0 -187 119 -187 346c0 223 81 344 198 344zM224 614c-85 0 -112 -140 -112 -277c0 -139 27 -277 113 -277s109 147 109 279c0 126 -23 275 -110 275zM191 808h66l87 -98h-67l-52 55h-2l-52 -55h-66z
M222 -169c-24 0 -44 20 -44 44c0 26 20 45 45 45s44 -19 44 -45c0 -24 -19 -44 -45 -44z" />
    <glyph glyph-name="uni1ED9" unicode="&#x1ed9;" horiz-adv-x="383" 
d="M195 491c87 0 156 -81 156 -249c0 -187 -86 -250 -161 -250c-87 0 -157 79 -157 249c0 176 79 250 162 250zM192 430c-69 0 -82 -114 -82 -188c0 -80 14 -189 84 -189c66 0 80 113 80 189c0 74 -14 188 -82 188zM166 682h52l79 -135h-58l-46 87h-2l-46 -87h-58zM189 -79
c23 0 42 -19 42 -45c0 -25 -18 -45 -43 -45c-24 0 -44 20 -44 45c0 26 20 45 45 45z" />
    <glyph glyph-name="uni1EDA" unicode="&#x1eda;" horiz-adv-x="446" 
d="M225 60c86 0 109 147 109 279c0 126 -23 275 -110 275s-112 -148 -112 -276c-1 -131 25 -278 113 -278zM361 728l59 10c9 -17 16 -41 16 -67c0 -43 -23 -80 -72 -79c28 -49 50 -127 50 -250c0 -253 -86 -350 -195 -350c-112 0 -187 119 -187 346c0 223 81 344 198 344
c24 0 50 -7 71 -18c25 -13 36 -23 49 -23c19 0 26 10 26 31c0 22 -8 41 -15 56zM271 818h91l-124 -108h-61z" />
    <glyph glyph-name="uni1EDB" unicode="&#x1edb;" horiz-adv-x="383" 
d="M192 430c-69 0 -82 -114 -82 -188c0 -80 14 -189 84 -189c66 0 80 113 80 189c0 74 -14 188 -82 188zM315 548l58 9c9 -16 17 -40 17 -67c0 -47 -27 -76 -75 -76c21 -37 36 -97 36 -172c0 -187 -86 -250 -161 -250c-87 0 -157 79 -157 249c0 176 79 250 162 250
c20 0 40 -6 56 -12c14 -6 30 -17 50 -17c17 0 29 10 29 32c0 20 -7 39 -15 54zM231 682h79l-105 -135h-51z" />
    <glyph glyph-name="uni1EDC" unicode="&#x1edc;" horiz-adv-x="446" 
d="M225 60c86 0 109 147 109 279c0 126 -23 275 -110 275s-112 -148 -112 -276c-1 -131 25 -278 113 -278zM361 728l59 10c9 -17 16 -41 16 -67c0 -43 -23 -80 -72 -79c28 -49 50 -127 50 -250c0 -253 -86 -350 -195 -350c-112 0 -187 119 -187 346c0 223 81 344 198 344
c24 0 50 -7 71 -18c25 -13 36 -23 49 -23c19 0 26 10 26 31c0 22 -8 41 -15 56zM96 818h91l94 -108h-61z" />
    <glyph glyph-name="uni1EDD" unicode="&#x1edd;" horiz-adv-x="383" 
d="M192 430c-69 0 -82 -114 -82 -188c0 -80 14 -189 84 -189c66 0 80 113 80 189c0 74 -14 188 -82 188zM315 548l58 9c9 -16 17 -40 17 -67c0 -47 -27 -76 -75 -76c21 -37 36 -97 36 -172c0 -187 -86 -250 -161 -250c-87 0 -157 79 -157 249c0 176 79 250 162 250
c20 0 40 -6 56 -12c14 -6 30 -17 50 -17c17 0 29 10 29 32c0 20 -7 39 -15 54zM87 682h79l77 -135h-51z" />
    <glyph glyph-name="uni1EDE" unicode="&#x1ede;" horiz-adv-x="446" 
d="M225 60c86 0 109 147 109 279c0 126 -23 275 -110 275s-112 -148 -112 -276c-1 -131 25 -278 113 -278zM361 728l59 10c9 -17 16 -41 16 -67c0 -43 -23 -80 -72 -79c28 -49 50 -127 50 -250c0 -253 -86 -350 -195 -350c-112 0 -187 119 -187 346c0 223 81 344 198 344
c24 0 50 -7 71 -18c25 -13 36 -23 49 -23c19 0 26 10 26 31c0 22 -8 41 -15 56zM238 706l-40 9c12 35 45 46 45 78c0 17 -12 29 -29 29c-19 0 -32 -16 -42 -32l-28 21c16 32 43 58 85 58c40 0 71 -28 71 -64c0 -43 -39 -59 -62 -99z" />
    <glyph glyph-name="uni1EDF" unicode="&#x1edf;" horiz-adv-x="383" 
d="M192 430c-69 0 -82 -114 -82 -188c0 -80 14 -189 84 -189c66 0 80 113 80 189c0 74 -14 188 -82 188zM315 547l58 9c9 -16 17 -40 17 -66c0 -47 -27 -76 -75 -76c21 -37 36 -97 36 -172c0 -187 -86 -250 -161 -250c-87 0 -157 79 -157 249c0 176 79 250 162 250
c20 0 40 -6 56 -12c14 -6 30 -17 50 -17c17 0 29 10 29 31c0 20 -7 39 -15 54zM206 530l-42 8c11 41 49 59 49 94c0 19 -13 33 -32 33c-18 0 -30 -14 -40 -32l-28 22c14 33 42 59 82 59c44 0 75 -30 75 -70c0 -51 -43 -69 -64 -114z" />
    <glyph glyph-name="uni1EE0" unicode="&#x1ee0;" horiz-adv-x="446" 
d="M225 60c86 0 109 147 109 279c0 126 -23 275 -111 275c-87 0 -112 -148 -111 -276c-1 -131 25 -278 113 -278zM361 727l59 10c9 -16 16 -40 16 -66c0 -43 -23 -80 -72 -79c28 -50 50 -127 50 -251c0 -252 -86 -349 -195 -349c-112 0 -187 119 -187 346
c0 223 81 344 198 344c24 0 50 -7 71 -19c25 -13 36 -23 49 -23c19 0 26 10 26 32s-8 40 -15 55zM158 718h-41c-1 56 21 93 59 94c20 0 34 -9 48 -17c14 -9 26 -18 39 -18c17 0 24 9 27 37h40c1 -57 -18 -90 -63 -91c-19 0 -35 9 -49 18c-13 8 -24 16 -36 16
c-15 0 -21 -13 -24 -39z" />
    <glyph glyph-name="uni1EE1" unicode="&#x1ee1;" horiz-adv-x="383" 
d="M192 430c-68 0 -82 -114 -82 -188c0 -80 14 -189 84 -189c66 0 79 113 80 189c0 74 -14 188 -82 188zM315 547l58 10c9 -16 17 -40 17 -67c0 -47 -27 -76 -75 -76c21 -37 36 -97 36 -172c0 -187 -86 -250 -161 -250c-87 0 -157 79 -157 249c0 176 79 250 162 250
c20 0 39 -6 55 -12c14 -6 30 -17 51 -17c16 0 28 10 29 32c0 20 -7 38 -15 53zM126 561h-43c-1 53 21 94 62 94c20 0 35 -9 49 -18c14 -8 26 -17 39 -17c15 0 24 7 25 36h41c0 -55 -20 -89 -63 -89c-18 0 -35 9 -48 17c-15 8 -25 17 -38 17c-15 0 -22 -14 -24 -40z" />
    <glyph glyph-name="uni1EE2" unicode="&#x1ee2;" horiz-adv-x="446" 
d="M225 60c86 0 109 147 109 279c0 126 -23 275 -110 275s-112 -148 -112 -276c-1 -131 25 -278 113 -278zM361 728l59 10c9 -17 16 -41 16 -67c0 -43 -23 -80 -72 -79c28 -49 50 -127 50 -250c0 -253 -86 -350 -195 -350c-112 0 -187 119 -187 346c0 223 81 344 198 344
c24 0 50 -7 71 -18c25 -13 36 -23 49 -23c19 0 26 10 26 31c0 22 -8 41 -15 56zM222 -169c-24 0 -44 20 -44 44c0 26 20 45 45 45s44 -19 44 -45c0 -24 -19 -44 -45 -44z" />
    <glyph glyph-name="uni1EE3" unicode="&#x1ee3;" horiz-adv-x="383" 
d="M192 430c-69 0 -82 -114 -82 -188c0 -80 14 -189 84 -189c66 0 80 113 80 189c0 74 -14 188 -82 188zM315 547l58 9c9 -16 17 -40 17 -66c0 -47 -27 -76 -75 -76c21 -37 36 -97 36 -172c0 -187 -86 -250 -161 -250c-87 0 -157 79 -157 249c0 176 79 250 162 250
c20 0 40 -6 56 -12c14 -6 30 -17 50 -17c17 0 29 10 29 31c0 20 -7 39 -15 54zM192 -80c23 0 42 -18 42 -45c0 -25 -18 -44 -43 -44c-24 0 -44 19 -44 44c0 26 20 45 45 45z" />
    <glyph glyph-name="uni1EE4" unicode="&#x1ee4;" horiz-adv-x="457" 
d="M59 674h77v-452c0 -121 41 -162 91 -162c57 0 94 44 94 162v452h77v-440c0 -175 -72 -242 -172 -242c-101 0 -167 66 -167 233v449zM228 -169c-24 0 -44 20 -44 44c0 26 20 45 45 45s44 -19 44 -45c0 -24 -19 -44 -45 -44z" />
    <glyph glyph-name="uni1EE5" unicode="&#x1ee5;" horiz-adv-x="398" 
d="M344 484v-352c0 -53 3 -96 4 -132h-67l-6 51h-2c-14 -24 -51 -59 -103 -59c-84 0 -118 66 -118 186v306h77v-295c0 -76 12 -132 65 -132c45 0 65 42 69 64c3 13 4 28 4 44v319h77zM196 -80c23 0 42 -18 42 -45c0 -25 -18 -44 -43 -44c-24 0 -44 19 -44 44
c0 26 20 45 45 45z" />
    <glyph glyph-name="uni1EE6" unicode="&#x1ee6;" horiz-adv-x="457" 
d="M59 674h77v-452c0 -121 41 -162 91 -162c57 0 94 44 94 162v452h77v-440c0 -175 -72 -242 -172 -242c-101 0 -167 66 -167 233v449zM244 706l-40 9c12 35 45 46 45 78c0 17 -12 29 -29 29c-19 0 -32 -16 -42 -32l-28 21c16 32 43 58 85 58c40 0 70 -29 70 -64
c0 -44 -38 -59 -61 -99z" />
    <glyph glyph-name="uni1EE7" unicode="&#x1ee7;" horiz-adv-x="398" 
d="M344 484v-352c0 -53 3 -96 4 -132h-67l-6 51h-2c-14 -24 -51 -59 -103 -59c-84 0 -118 66 -118 186v306h77v-295c0 -76 12 -132 65 -132c45 0 65 42 69 64c3 13 4 28 4 44v319h77zM213 531l-42 9c12 40 49 58 49 93c0 20 -13 34 -32 34c-18 0 -30 -15 -39 -32l-29 21
c15 33 42 59 82 59c43 0 75 -30 75 -70c0 -51 -43 -69 -64 -114z" />
    <glyph glyph-name="uni1EE8" unicode="&#x1ee8;" horiz-adv-x="474" 
d="M406 757l59 9c8 -18 14 -40 14 -65c0 -42 -19 -73 -71 -75l-10 -1v-391c0 -175 -72 -242 -172 -242c-101 0 -167 66 -167 233v449h77v-452c0 -121 41 -162 91 -162c57 0 94 44 94 162v452h62c26 0 36 7 36 29c0 19 -5 38 -13 54zM278 818h91l-124 -108h-61z" />
    <glyph glyph-name="uni1EE9" unicode="&#x1ee9;" horiz-adv-x="398" 
d="M346 569l59 10c9 -16 16 -40 16 -65c0 -40 -21 -71 -71 -74h-6v-309c0 -53 3 -95 4 -131h-67l-6 50h-2c-14 -23 -51 -58 -103 -58c-84 0 -118 66 -118 186v306h77v-295c0 -76 12 -133 65 -132c45 0 65 42 69 64c3 13 4 28 4 44v319h58c27 0 35 10 35 32
c0 19 -6 39 -14 53zM247 682h79l-105 -135h-51z" />
    <glyph glyph-name="uni1EEA" unicode="&#x1eea;" horiz-adv-x="474" 
d="M406 757l59 9c8 -18 14 -40 14 -65c0 -42 -19 -73 -71 -75l-10 -1v-391c0 -175 -72 -242 -172 -242c-101 0 -167 66 -167 233v449h77v-452c0 -121 41 -162 91 -162c57 0 94 44 94 162v452h62c26 0 36 7 36 29c0 19 -5 38 -13 54zM87 818h91l94 -108h-61z" />
    <glyph glyph-name="uni1EEB" unicode="&#x1eeb;" horiz-adv-x="398" 
d="M346 569l59 10c9 -16 16 -40 16 -65c0 -40 -21 -71 -71 -74h-6v-309c0 -53 3 -95 4 -131h-67l-6 50h-2c-14 -23 -51 -58 -103 -58c-84 0 -118 66 -118 186v306h77v-295c0 -76 12 -133 65 -132c45 0 65 42 69 64c3 13 4 28 4 44v319h58c27 0 35 10 35 32
c0 19 -6 39 -14 53zM86 682h79l77 -135h-51z" />
    <glyph glyph-name="uni1EEC" unicode="&#x1eec;" horiz-adv-x="474" 
d="M406 757l59 9c8 -18 14 -40 14 -65c0 -42 -19 -73 -71 -75l-10 -1v-391c0 -175 -72 -242 -172 -242c-101 0 -167 66 -167 233v449h77v-452c0 -121 41 -162 91 -162c57 0 94 44 94 162v452h62c26 0 36 7 36 29c0 19 -5 38 -13 54zM253 706l-41 9c12 35 45 46 45 78
c0 17 -11 29 -29 29s-31 -16 -41 -32l-28 21c15 32 43 58 84 58c40 0 71 -29 71 -64c0 -44 -39 -59 -61 -99z" />
    <glyph glyph-name="uni1EED" unicode="&#x1eed;" horiz-adv-x="398" 
d="M346 569l59 10c9 -16 16 -40 16 -65c0 -40 -21 -71 -71 -74h-6v-309c0 -53 3 -95 4 -131h-67l-6 50h-2c-14 -23 -51 -58 -103 -58c-84 0 -118 66 -118 186v306h77v-295c0 -76 12 -133 65 -132c45 0 65 42 69 64c3 13 4 28 4 44v319h58c27 0 35 10 35 32
c0 18 -6 38 -14 53zM222 531l-42 9c12 40 49 58 49 93c0 20 -13 34 -32 34c-18 0 -30 -15 -40 -32l-28 21c15 33 42 59 82 59c43 0 75 -30 75 -70c0 -51 -43 -69 -64 -114z" />
    <glyph glyph-name="uni1EEE" unicode="&#x1eee;" horiz-adv-x="474" 
d="M406 757l59 10c8 -18 14 -40 14 -66c0 -42 -19 -73 -71 -75l-10 -1v-391c0 -175 -72 -242 -172 -242c-101 0 -167 66 -167 233v449h77v-452c0 -121 41 -162 91 -162c57 0 94 44 94 162v452h62c26 0 36 7 36 29c0 20 -5 39 -13 54zM172 718h-41c-1 56 21 94 59 94
c20 0 34 -9 47 -17c15 -9 26 -18 40 -18c16 0 23 9 26 37h40c1 -57 -18 -90 -62 -90c-19 0 -36 8 -49 17c-13 8 -24 16 -36 16c-15 0 -21 -13 -24 -39z" />
    <glyph glyph-name="uni1EEF" unicode="&#x1eef;" horiz-adv-x="398" 
d="M346 569l59 9c9 -16 16 -40 16 -64c0 -40 -21 -71 -71 -74h-6v-309c0 -53 3 -95 4 -131h-67l-6 50h-2c-14 -23 -51 -58 -103 -58c-84 0 -118 66 -118 186v306h77v-295c0 -76 12 -133 65 -132c45 0 65 42 69 64c3 13 4 28 4 44v319h58c27 0 35 10 35 32c0 18 -6 38 -14 53
zM135 561h-43c-1 53 21 94 62 94c20 0 35 -9 50 -18c14 -8 25 -17 39 -17c15 0 24 7 25 36h41c0 -55 -20 -89 -63 -89c-18 0 -35 9 -49 17s-25 17 -38 17c-15 0 -22 -14 -24 -40z" />
    <glyph glyph-name="uni1EF0" unicode="&#x1ef0;" horiz-adv-x="474" 
d="M406 757l59 9c8 -18 14 -40 14 -65c0 -42 -19 -73 -71 -75l-10 -1v-391c0 -175 -72 -242 -172 -242c-101 0 -167 66 -167 233v449h77v-452c0 -121 41 -162 91 -162c57 0 94 44 94 162v452h62c26 0 36 7 36 29c0 19 -5 38 -13 54zM235 -80c23 0 42 -18 42 -45
c0 -25 -18 -44 -43 -44c-24 0 -44 19 -44 44c0 26 20 45 45 45z" />
    <glyph glyph-name="uni1EF1" unicode="&#x1ef1;" horiz-adv-x="398" 
d="M346 569l59 10c9 -16 16 -40 16 -65c0 -40 -21 -71 -71 -74h-6v-309c0 -53 3 -95 4 -131h-67l-6 50h-2c-14 -23 -51 -58 -103 -58c-84 0 -118 66 -118 186v306h77v-295c0 -76 12 -133 65 -132c45 0 65 42 69 64c3 13 4 28 4 44v319h58c27 0 35 10 35 32
c0 18 -6 38 -14 53zM194 -80c23 0 42 -18 42 -45c0 -25 -18 -44 -43 -44c-24 0 -44 19 -44 44c0 26 20 45 45 45z" />
    <glyph glyph-name="Ygrave" unicode="&#x1ef2;" horiz-adv-x="394" 
d="M235 0h-77v285l-149 389h82l60 -169c16 -47 35 -100 50 -152h2c13 52 31 103 49 155l57 166h80l-154 -386v-288zM62 811h91l94 -108h-61z" />
    <glyph glyph-name="ygrave" unicode="&#x1ef3;" horiz-adv-x="346" 
d="M12 484h81l65 -278c8 -38 13 -69 20 -100h2c5 28 13 64 20 99l58 279h76l-79 -311c-30 -121 -64 -238 -120 -312c-34 -43 -70 -65 -87 -73l-29 65c23 13 47 34 69 61c20 26 35 58 43 82c4 11 6 17 6 24c0 6 -1 12 -3 18zM62 682h79l77 -135h-51z" />
    <glyph glyph-name="uni1EF4" unicode="&#x1ef4;" horiz-adv-x="394" 
d="M235 0h-77v285l-149 389h82l60 -169c16 -47 35 -100 50 -152h2c13 52 31 103 49 155l57 166h80l-154 -386v-288zM196 -169c-24 0 -44 20 -44 44c0 26 20 45 45 45s44 -19 44 -45c0 -24 -19 -44 -45 -44z" />
    <glyph glyph-name="uni1EF5" unicode="&#x1ef5;" horiz-adv-x="346" 
d="M13 484h80l65 -278c8 -38 13 -69 20 -100h2c5 27 13 64 20 99l58 279h76l-79 -311c-30 -122 -64 -239 -120 -312c-34 -43 -70 -65 -87 -73l-29 65c23 13 47 34 69 61c20 25 36 58 44 81c4 12 5 17 5 24c0 6 0 12 -2 18zM247 -80c23 0 42 -18 42 -45
c0 -25 -18 -44 -43 -44c-24 0 -44 19 -44 44c0 26 20 45 45 45z" />
    <glyph glyph-name="uni1EF6" unicode="&#x1ef6;" horiz-adv-x="394" 
d="M235 0h-77v285l-149 389h82l60 -169c16 -47 35 -100 50 -152h2c13 52 31 103 49 155l57 166h80l-154 -386v-288zM212 706l-40 9c12 35 45 46 45 78c0 17 -12 29 -29 29c-19 0 -32 -16 -42 -32l-28 21c16 32 43 58 85 58c40 0 71 -29 71 -64c0 -44 -39 -59 -62 -99z" />
    <glyph glyph-name="uni1EF7" unicode="&#x1ef7;" horiz-adv-x="346" 
d="M12 484h81l65 -278c8 -38 13 -69 20 -100h2c5 28 13 64 20 99l58 279h76l-79 -311c-30 -121 -64 -238 -120 -312c-34 -43 -70 -65 -87 -73l-29 65c23 13 47 34 69 61c20 26 35 58 43 82c4 11 6 17 6 24c0 6 -1 12 -3 18zM189 531l-42 9c12 40 49 58 49 93
c0 20 -13 34 -32 34c-18 0 -30 -15 -40 -32l-28 21c15 33 42 59 82 59c44 0 75 -30 75 -70c0 -51 -43 -69 -64 -114z" />
    <glyph glyph-name="uni1EF8" unicode="&#x1ef8;" horiz-adv-x="394" 
d="M235 0h-77v285l-149 389h82l60 -169c16 -47 35 -100 50 -152h2c13 52 31 103 49 155l57 166h80l-154 -386v-288zM132 718h-41c-1 56 21 94 59 94c20 0 34 -9 47 -17c15 -9 26 -18 40 -18c16 0 23 9 26 37h40c1 -57 -18 -90 -62 -90c-19 0 -36 8 -49 17
c-13 8 -24 16 -36 16c-15 0 -21 -13 -24 -39z" />
    <glyph glyph-name="uni1EF9" unicode="&#x1ef9;" horiz-adv-x="346" 
d="M12 484h81l65 -278c8 -38 13 -69 20 -100h2c5 28 13 64 20 99l58 279h76l-79 -311c-30 -121 -64 -238 -120 -312c-34 -43 -70 -65 -87 -73l-29 65c23 13 47 34 69 61c20 26 35 58 43 82c4 11 6 17 6 24c0 6 -1 12 -3 18zM114 561h-43c-1 53 21 94 62 94
c20 0 35 -9 49 -18c14 -8 26 -17 39 -17c15 0 24 7 25 36h41c0 -55 -20 -89 -63 -89c-18 0 -35 9 -48 17c-15 8 -25 17 -38 17c-15 0 -22 -14 -24 -40z" />
    <glyph glyph-name="uni2010" unicode="&#x2010;" horiz-adv-x="279" 
d="M30 291h219v-59h-219v59z" />
    <glyph glyph-name="endash" unicode="&#x2013;" horiz-adv-x="500" 
d="M30 288h440v-55h-440v55z" />
    <glyph glyph-name="emdash" unicode="&#x2014;" horiz-adv-x="1000" 
d="M30 288h940v-55h-940v55z" />
    <glyph glyph-name="quoteleft" unicode="&#x2018;" horiz-adv-x="177" 
d="M100 456l-78 -10c22 81 64 186 90 230l46 7c-21 -58 -48 -158 -58 -227z" />
    <glyph glyph-name="quoteright" unicode="&#x2019;" horiz-adv-x="177" 
d="M78 674l78 10c-22 -81 -64 -185 -90 -230l-46 -7c21 58 48 158 58 227z" />
    <glyph glyph-name="quotesinglbase" unicode="&#x201a;" horiz-adv-x="177" 
d="M66 -113l-46 -7c21 58 48 158 58 227l78 10c-22 -81 -64 -186 -90 -230z" />
    <glyph glyph-name="quotedblleft" unicode="&#x201c;" horiz-adv-x="307" 
d="M98 456l-78 -10c22 81 64 186 91 230l45 7c-21 -58 -48 -158 -58 -227zM231 456l-78 -10c21 81 64 186 90 230l46 7c-21 -58 -48 -158 -58 -227z" />
    <glyph glyph-name="quotedblright" unicode="&#x201d;" horiz-adv-x="307" 
d="M77 674l78 10c-21 -81 -64 -185 -90 -230l-46 -7c21 58 48 158 58 227zM210 674l78 10c-22 -81 -64 -185 -91 -230l-45 -7c21 58 48 158 58 227z" />
    <glyph glyph-name="quotedblbase" unicode="&#x201e;" horiz-adv-x="307" 
d="M65 -113l-46 -7c21 58 48 158 58 227l78 10c-21 -81 -64 -186 -90 -230zM197 -113l-45 -7c21 58 48 158 58 227l78 10c-22 -81 -64 -186 -91 -230z" />
    <glyph glyph-name="dagger" unicode="&#x2020;" horiz-adv-x="380" 
d="M155 674h70l-6 -198l131 6v-67l-131 6l6 -470h-70l6 470l-131 -6v67l131 -6z" />
    <glyph glyph-name="daggerdbl" unicode="&#x2021;" horiz-adv-x="380" 
d="M155 674h70l-5 -195l130 6v-67l-130 6v-216l130 7v-67l-130 6l5 -203h-70l4 203l-129 -6v67l130 -7v216l-130 -6v67l130 -6z" />
    <glyph glyph-name="bullet" unicode="&#x2022;" horiz-adv-x="257" 
d="M127 162c-52 0 -94 40 -94 96c-1 56 42 97 95 97s96 -40 96 -97c0 -55 -41 -96 -97 -96z" />
    <glyph glyph-name="ellipsis" unicode="&#x2026;" horiz-adv-x="1000" 
d="M166 -8c-28 0 -50 23 -50 58c0 34 23 58 51 58c30 0 51 -23 51 -58s-19 -58 -52 -58zM499 -8c-28 0 -50 23 -50 58c0 34 23 58 51 58c30 0 51 -23 51 -58s-19 -58 -52 -58zM832 -8c-28 0 -50 23 -50 58c0 34 23 58 51 58c30 0 51 -23 51 -58s-19 -58 -52 -58z" />
    <glyph glyph-name="perthousand" unicode="&#x2030;" horiz-adv-x="934" 
d="M154 658c73 0 121 -77 121 -196c0 -137 -60 -198 -122 -198c-72 0 -123 75 -123 196c0 125 54 198 124 198zM151 610c-49 0 -62 -83 -62 -149c0 -68 13 -149 64 -149s63 82 63 148c0 65 -11 150 -65 150zM173 -14h-50l347 677h48zM494 387c73 0 121 -78 121 -197
c0 -136 -60 -197 -122 -197c-72 0 -123 74 -123 196c0 125 54 198 124 198zM491 339c-49 0 -62 -83 -62 -149c0 -68 13 -149 64 -149s63 82 63 148c0 65 -11 150 -65 150zM784 387c72 0 120 -78 120 -197c0 -136 -60 -197 -122 -197c-71 0 -122 74 -122 196
c0 125 54 198 124 198zM781 339c-49 0 -62 -83 -62 -149c0 -68 13 -149 63 -149c51 0 63 82 63 148c0 65 -11 150 -64 150z" />
    <glyph glyph-name="guilsinglleft" unicode="&#x2039;" horiz-adv-x="210" 
d="M190 427l-103 -175l103 -174h-63l-102 174l103 175h62z" />
    <glyph glyph-name="guilsinglright" unicode="&#x203a;" horiz-adv-x="210" 
d="M124 252l-103 175h62l103 -175l-102 -174h-63z" />
    <glyph glyph-name="fraction" unicode="&#x2044;" horiz-adv-x="109" 
d="M-91 -8h-49l340 666h49z" />
    <glyph glyph-name="zero.superior" unicode="&#x2070;" horiz-adv-x="265" 
d="M130 412c-74 0 -113 79 -113 199c0 124 43 201 118 201c79 0 112 -83 112 -198c0 -138 -48 -202 -117 -202zM133 462c36 0 53 57 53 151c0 90 -16 149 -53 149c-35 0 -55 -56 -55 -149c0 -95 18 -151 55 -151z" />
    <glyph glyph-name="four.superior" unicode="&#x2074;" horiz-adv-x="270" 
d="M212 417h-56v107h-147v35l144 251h59v-240h46v-46h-46v-107zM156 570v100c0 31 2 56 4 73h-2c-13 -26 -21 -43 -35 -69l-55 -102v-2h88z" />
    <glyph glyph-name="five.superior" unicode="&#x2075;" horiz-adv-x="246" 
d="M219 807v-53h-117l-13 -89c4 1 12 1 17 1c24 0 57 -8 79 -28c23 -19 39 -50 39 -92c0 -76 -53 -134 -133 -134c-31 0 -62 8 -78 18l12 47c14 -7 37 -15 63 -15c41 0 75 27 75 78c0 56 -37 81 -94 81c-15 0 -27 -2 -36 -3l24 189h162z" />
    <glyph glyph-name="six.superior" unicode="&#x2076;" horiz-adv-x="266" 
d="M217 812v-50c-9 0 -20 0 -32 -3c-66 -13 -96 -69 -106 -125h2c16 21 39 36 71 36c56 0 96 -47 96 -122c0 -73 -39 -136 -112 -136c-75 0 -118 68 -118 162c0 78 24 137 58 176c27 32 67 52 106 59c15 2 28 3 35 3zM137 458c29 0 50 31 50 88c0 49 -20 80 -54 80
c-20 0 -40 -13 -51 -38c-2 -5 -4 -14 -4 -27c0 -65 23 -103 59 -103z" />
    <glyph glyph-name="seven.superior" unicode="&#x2077;" horiz-adv-x="228" 
d="M10 807h214v-39l-137 -351h-60l135 336v1h-152v53z" />
    <glyph glyph-name="eight.superior" unicode="&#x2078;" horiz-adv-x="266" 
d="M138 812c63 0 99 -45 99 -94c0 -32 -15 -66 -55 -90v-2c38 -21 66 -55 66 -102c0 -67 -49 -112 -116 -112c-73 0 -114 49 -114 103c0 51 30 86 65 107v1c-35 22 -52 56 -52 88c0 62 47 101 107 101zM135 455c31 0 53 24 53 65c0 42 -26 66 -59 81
c-31 -15 -51 -45 -51 -78c0 -40 21 -68 57 -68zM134 770c-29 0 -46 -25 -46 -56c0 -35 23 -55 52 -68c23 13 40 38 40 66c0 32 -14 58 -46 58z" />
    <glyph glyph-name="nine.superior" unicode="&#x2079;" horiz-adv-x="262" 
d="M45 412v50c11 0 21 1 34 3c22 4 43 14 59 29c22 21 38 54 45 97h-2c-15 -19 -38 -31 -68 -31c-55 0 -96 46 -96 117s44 135 115 135c74 0 112 -69 112 -160c0 -82 -25 -143 -60 -183c-26 -30 -62 -49 -102 -55c-14 -2 -27 -2 -37 -2zM128 766c-26 0 -51 -29 -51 -85
c0 -48 20 -78 53 -78c21 0 40 12 49 31c3 6 4 12 4 28c0 67 -21 104 -55 104z" />
    <glyph glyph-name="parenleft.superior" unicode="&#x207d;" horiz-adv-x="159" 
d="M104 846h45c-36 -55 -65 -135 -65 -245c0 -107 29 -186 65 -242h-45c-33 46 -69 125 -69 242c0 118 36 199 69 245z" />
    <glyph glyph-name="parenright.superior" unicode="&#x207e;" horiz-adv-x="159" 
d="M54 359h-45c36 56 65 135 65 244c0 108 -29 187 -65 243h45c33 -45 70 -125 70 -243c0 -117 -37 -197 -70 -244z" />
    <glyph glyph-name="zero.inferior" unicode="&#x2080;" horiz-adv-x="265" 
d="M130 -152c-74 0 -113 79 -113 199c0 124 43 201 118 201c79 0 112 -83 112 -198c0 -138 -48 -202 -117 -202zM133 -102c36 0 53 57 53 151c0 90 -16 149 -53 149c-35 0 -55 -56 -55 -149c0 -95 18 -151 55 -151z" />
    <glyph glyph-name="one.inferior" unicode="&#x2081;" horiz-adv-x="212" 
d="M157 -147h-60v333h-2l-73 -39l-11 48l94 48h52v-390z" />
    <glyph glyph-name="two.inferior" unicode="&#x2082;" horiz-adv-x="245" 
d="M2 -147v29l41 50c50 62 111 135 111 199c0 45 -25 65 -60 65c-28 0 -52 -15 -66 -27l-17 44c18 17 54 35 99 35c75 0 108 -50 108 -107c0 -72 -58 -144 -103 -197l-30 -37v-2h139v-52h-222z" />
    <glyph glyph-name="three.inferior" unicode="&#x2083;" horiz-adv-x="235" 
d="M30 179l-13 43c18 12 50 26 87 26c67 0 101 -41 101 -91c0 -40 -23 -73 -63 -89v-2c36 -8 75 -43 76 -98c0 -68 -51 -120 -135 -120c-32 0 -62 9 -82 22l13 46c13 -8 38 -20 70 -20c40 0 71 25 71 70c0 51 -33 76 -88 76h-8v42h6c29 0 80 19 80 64c0 34 -21 52 -52 52
c-28 0 -48 -10 -63 -21z" />
    <glyph glyph-name="four.inferior" unicode="&#x2084;" horiz-adv-x="270" 
d="M212 -147h-56v107h-147v35l144 251h59v-240h46v-46h-46v-107zM156 6v100c0 31 2 56 4 73h-2c-13 -27 -21 -43 -35 -69l-55 -102v-2h88z" />
    <glyph glyph-name="five.inferior" unicode="&#x2085;" horiz-adv-x="246" 
d="M219 243v-53h-117l-13 -89c4 1 12 1 17 1c24 0 57 -8 79 -28c23 -19 39 -50 39 -92c0 -76 -53 -134 -133 -134c-31 0 -62 8 -78 18l12 47c14 -7 37 -15 63 -15c41 0 75 27 75 78c0 56 -37 81 -94 81c-15 0 -27 -2 -36 -3l24 189h162z" />
    <glyph glyph-name="six.inferior" unicode="&#x2086;" horiz-adv-x="266" 
d="M217 248v-50c-9 0 -20 0 -32 -3c-66 -13 -96 -69 -106 -125h2c16 21 39 36 71 36c56 0 96 -47 96 -122c0 -73 -39 -136 -112 -136c-75 0 -118 68 -118 162c0 78 24 137 58 177c27 31 67 52 106 58c15 2 28 3 35 3zM137 -106c29 0 50 31 50 88c0 49 -20 80 -54 80
c-20 0 -40 -13 -51 -38c-2 -5 -4 -14 -4 -27c0 -65 23 -103 59 -103z" />
    <glyph glyph-name="seven.inferior" unicode="&#x2087;" horiz-adv-x="228" 
d="M10 243h214v-39l-137 -351h-60l135 336v1h-152v53z" />
    <glyph glyph-name="eight.inferior" unicode="&#x2088;" horiz-adv-x="266" 
d="M138 248c63 0 99 -45 99 -94c0 -32 -15 -66 -55 -90v-2c38 -21 66 -55 66 -102c0 -67 -49 -112 -116 -112c-73 0 -114 49 -114 103c0 51 30 86 65 107v1c-35 22 -52 56 -52 88c0 62 47 101 107 101zM135 -109c31 0 53 24 53 65c0 42 -26 66 -59 81
c-31 -15 -51 -45 -51 -78c0 -40 21 -68 57 -68zM134 206c-29 0 -46 -25 -46 -56c0 -35 23 -55 52 -68c23 13 40 38 40 66c0 32 -14 58 -46 58z" />
    <glyph glyph-name="nine.inferior" unicode="&#x2089;" horiz-adv-x="262" 
d="M45 -152v50c11 0 21 1 34 3c22 4 43 14 59 30c22 20 38 53 45 96h-2c-15 -18 -38 -31 -68 -31c-55 0 -96 46 -96 117s44 135 115 135c74 0 112 -69 112 -160c0 -82 -25 -143 -60 -183c-26 -30 -62 -49 -102 -55c-14 -2 -27 -2 -37 -2zM128 202c-26 0 -51 -29 -51 -85
c0 -48 20 -78 53 -78c21 0 40 12 49 31c3 6 4 13 4 28c0 67 -21 104 -55 104z" />
    <glyph glyph-name="parenleft.inferior" unicode="&#x208d;" horiz-adv-x="159" 
d="M104 282h45c-36 -55 -65 -135 -65 -245c0 -107 29 -186 65 -242h-45c-33 46 -69 125 -69 242c0 118 36 199 69 245z" />
    <glyph glyph-name="parenright.inferior" unicode="&#x208e;" horiz-adv-x="159" 
d="M54 -205h-45c36 56 65 135 65 244c0 108 -29 187 -65 243h45c33 -45 70 -125 70 -243c0 -117 -37 -197 -70 -244z" />
    <glyph glyph-name="dong" unicode="&#x20ab;" horiz-adv-x="385" 
d="M72 107h248v-55h-248v55zM251 654h67v-67h40v-44h-40v-302c0 -23 2 -62 3 -83h-57l-5 44h-3c-13 -24 -41 -49 -84 -49c-70 0 -121 63 -121 176c0 121 62 178 125 178c29 0 56 -11 74 -41h1v77h-95v44h95v67zM251 282v87c0 7 0 14 -1 22c-4 33 -29 62 -59 62
c-51 0 -69 -59 -69 -124c0 -69 21 -123 65 -123c19 0 47 8 62 55c1 5 2 14 2 21z" />
    <glyph glyph-name="Euro" unicode="&#x20ac;" horiz-adv-x="385" 
d="M358 81l13 -61c-19 -12 -58 -28 -100 -28c-50 0 -100 18 -139 64c-34 41 -58 103 -66 198h-48v47h45v14c0 16 0 31 1 43h-47v47h51c10 90 39 149 71 187c39 46 85 66 140 66c39 0 68 -13 85 -24l-17 -63c-13 9 -42 20 -68 20c-32 0 -59 -11 -82 -38
c-25 -27 -44 -74 -52 -148h170v-47h-174c-1 -10 -1 -24 -1 -38v-19h175v-47h-172c5 -71 21 -116 41 -145c25 -38 61 -50 96 -50c30 0 63 13 78 22z" />
    <glyph glyph-name="uni2113" unicode="&#x2113;" horiz-adv-x="396" 
d="M166 500v-172c54 74 91 157 91 246c0 57 -21 73 -41 73c-26 0 -50 -32 -50 -147zM337 108l35 -36c-27 -45 -79 -82 -143 -82c-97 0 -136 68 -138 188v12c-14 -12 -27 -22 -42 -34l-24 40c24 19 46 38 66 58v243c0 162 56 212 123 212c56 0 103 -43 103 -133
c0 -115 -59 -225 -151 -326v-35c0 -128 33 -158 80 -158c39 0 67 23 91 51z" />
    <glyph glyph-name="uni2116" unicode="&#x2116;" horiz-adv-x="705" 
d="M559 654c74 0 116 -55 116 -165c0 -122 -60 -165 -119 -165c-69 0 -120 54 -120 165s56 165 123 165zM554 609c-43 0 -57 -72 -57 -120c0 -54 16 -120 58 -120c50 0 59 69 59 120s-10 120 -60 120zM659 235h-207v47h207v-47zM128 0h-68v667h71l117 -314
c27 -72 59 -160 82 -233h1c-5 106 -8 191 -8 306v241h67v-667h-72l-120 321c-26 67 -51 143 -76 227h-1c5 -90 7 -174 7 -316v-232z" />
    <glyph glyph-name="trademark" unicode="&#x2122;" horiz-adv-x="509" 
d="M25 674h178v-43h-65v-229h-49v229h-64v43zM488 402h-47l-8 159c0 22 -1 47 -2 77h-2c-5 -27 -11 -59 -17 -81l-36 -151h-49l-36 155c-3 20 -10 53 -15 77h-2c0 -25 -1 -52 -2 -77l-8 -159h-45l16 272h72l33 -129c5 -23 9 -41 14 -69h1c5 24 10 49 14 67l34 131h69z" />
    <glyph glyph-name="Omega" unicode="&#x2126;" horiz-adv-x="472" 
d="M340 69v-3h99v-66h-177v52c57 63 90 188 89 307c-1 114 -27 255 -115 255c-87 0 -116 -139 -116 -252c0 -112 38 -253 89 -310v-52h-176v66h98v3c-49 69 -91 179 -91 304c0 195 86 309 203 309c116 0 188 -120 188 -304c0 -131 -42 -244 -91 -309z" />
    <glyph glyph-name="estimated" unicode="&#x212e;" horiz-adv-x="817" 
d="M782 316h-605c-3 0 -5 -1 -5 -4v-183c0 -8 4 -15 9 -21c57 -61 139 -99 229 -99c96 0 182 43 240 111h55c-68 -79 -176 -131 -296 -131c-206 0 -374 150 -374 336s168 336 374 336s373 -150 373 -336v-9zM646 340v184c0 9 -4 16 -10 22c-58 58 -138 95 -226 95
c-90 0 -170 -38 -228 -98c-6 -6 -10 -14 -10 -23v-180c0 -3 2 -5 5 -5h464c3 0 5 2 5 5z" />
    <glyph glyph-name="partialdiff" unicode="&#x2202;" horiz-adv-x="375" 
d="M70 632l-23 52c31 21 70 44 127 44c101 0 204 -100 204 -342c0 -284 -108 -394 -203 -394c-84 0 -144 69 -144 204c0 150 83 248 175 248c46 0 76 -22 96 -54h1v18c0 177 -68 254 -139 254c-43 0 -74 -15 -94 -30zM183 56c59 0 111 117 115 257c-17 44 -47 68 -79 68
c-60 0 -111 -80 -111 -186c0 -104 36 -139 75 -139z" />
    <glyph glyph-name="Delta" unicode="&#x2206;" horiz-adv-x="412" 
d="M392 0h-373v44l148 612h79l146 -611v-45zM316 66l-77 331c-12 53 -25 118 -33 169h-3c-8 -51 -21 -114 -33 -167l-76 -333h222z" />
    <glyph glyph-name="product" unicode="&#x220f;" horiz-adv-x="449" 
d="M439 582h-60v-672h-71v672h-170v-672h-71v672h-60v68h432v-68z" />
    <glyph glyph-name="summation" unicode="&#x2211;" horiz-adv-x="381" 
d="M378 -90h-368v51l185 318l-175 320v51h335v-66h-242v-4l161 -297l-175 -302v-4h279v-67z" />
    <glyph glyph-name="minus" unicode="&#x2212;" horiz-adv-x="596" 
d="M40 295h516v-55h-516v55z" />
    <glyph glyph-name="uni2215" unicode="&#x2215;" horiz-adv-x="109" 
d="M-91 -8h-49l340 666h49z" />
    <glyph glyph-name="uni2219" unicode="&#x2219;" horiz-adv-x="194" 
d="M96 202c-27 0 -50 22 -50 57c0 33 23 57 51 57c30 0 51 -22 51 -57s-20 -57 -52 -57z" />
    <glyph glyph-name="radical" unicode="&#x221a;" horiz-adv-x="530" 
d="M518 825l-198 -919h-55l-129 427l-71 -26l-16 45l128 47l94 -327c9 -32 17 -65 18 -81h1c2 16 7 50 13 80l157 754h58z" />
    <glyph glyph-name="infinity" unicode="&#x221e;" horiz-adv-x="725" 
d="M539 119c-74 0 -129 61 -176 107c-48 -48 -102 -107 -185 -107c-82 0 -141 61 -141 144c0 79 63 146 149 146c75 0 130 -61 177 -108c48 49 102 108 185 108c82 0 141 -61 141 -146c0 -77 -63 -144 -150 -144zM542 174c51 0 89 41 89 89c0 52 -36 91 -87 91
c-60 0 -107 -52 -144 -91c40 -36 80 -89 142 -89zM183 174c59 0 106 51 143 89c-40 37 -80 91 -141 91c-52 0 -90 -42 -90 -91c0 -51 36 -89 88 -89z" />
    <glyph glyph-name="integral" unicode="&#x222b;" horiz-adv-x="311" 
d="M289 786l-11 -53c-8 2 -18 4 -27 4c-15 0 -29 -7 -40 -22c-20 -26 -26 -73 -26 -158c0 -145 7 -321 7 -472c0 -101 -14 -157 -38 -190c-20 -29 -48 -44 -87 -44c-18 0 -34 4 -43 8l12 54c8 -2 19 -4 27 -4c14 0 29 6 39 21c17 24 27 62 27 155c0 151 -7 331 -7 477
c0 101 12 158 47 196c22 24 52 35 82 35c14 0 29 -3 38 -7z" />
    </font>
</defs>
</svg>
