<?xml version="1.0" standalone="no"?>
<!DOCTYPE svg PUBLIC "-//W3C//DTD SVG 1.1//EN" "http://www.w3.org/Graphics/SVG/1.1/DTD/svg11.dtd" >
<svg xmlns="http://www.w3.org/2000/svg" xmlns:xlink="http://www.w3.org/1999/xlink" version="1.1">
<metadata>
Created by FontForge 20200427 at Sat Nov  3 01:31:46 2012
 By www
Copyright (c) 2000 Adobe Systems Incorporated. All Rights Reserved. U.S. Patent Des. pending.
</metadata>
<defs>
<font id="MyriadPro-BoldCond" horiz-adv-x="300" >
  <font-face 
    font-family="Myriad Pro Cond"
    font-weight="700"
    font-stretch="condensed"
    units-per-em="1000"
    panose-1="2 11 7 6 3 4 3 2 2 4"
    ascent="750"
    descent="-250"
    x-height="489"
    cap-height="674"
    bbox="-68 -250 970 884"
    underline-thickness="50"
    underline-position="-100"
    unicode-range="U+0020-FB04"
  />
<missing-glyph horiz-adv-x="500" 
d="M0 700h500v-700h-500v700zM420 650h-340l170 -255zM450 95v510l-170 -255zM420 50l-170 255l-170 -255h340zM50 95l170 255l-170 255v-510z" />
    <glyph glyph-name="uniFB01" unicode="fi" horiz-adv-x="489" 
d="M69 0v396h-66v93h66v26q0 27 9 55q11 35 33 61q27 32 66 49q47 20 109 20q68 0 115 -20l-18 -103q-21 7 -40 11q-25 5 -52 5q-49 0 -72 -26q-19 -22 -19 -61v-17h243v-489h-131v396h-112v-396h-131z" />
    <glyph glyph-name="uniFB02" unicode="fl" horiz-adv-x="489" 
d="M69 0v396h-66v93h66v18q0 33 14 70q16 45 46 72q27 24 62 36q42 15 97 15q89 0 156 -27v-673h-131v590q-14 7 -43 7q-70 0 -70 -83v-25h72v-93h-72v-396h-131z" />
    <glyph glyph-name="uniFB00" unicode="ff" horiz-adv-x="531" 
d="M314 0v396h-114v-396h-131v396h-66v93h66v11q0 90 47 140q44 46 127 46q32 0 57 -9l-22 -100q-13 6 -31 6q-47 0 -47 -81v-13h114v19q0 95 51 147q43 45 116 45q44 0 79 -11l-15 -102q-15 6 -40 6q-60 0 -60 -81v-23h85v-93h-85v-396h-131z" />
    <glyph glyph-name="uniFB03" unicode="ffi" horiz-adv-x="745" 
d="M640 577q-21 7 -40 11q-25 5 -52 5q-50 0 -73 -26q-19 -22 -19 -61v-17h244v-489h-131v396h-113v-396h-131v396h-125v-396h-131v396h-66v93h66v8q0 106 71 157q44 32 108 32q39 0 74 -13l-33 -97q-16 7 -34 7q-23 0 -37 -17q-18 -20 -18 -65v-12h125v26q0 27 9 55
q11 35 33 61q27 32 67 49q46 20 109 20q68 0 115 -20z" />
    <glyph glyph-name="uniFB04" unicode="ffl" horiz-adv-x="745" 
d="M289 576q-16 7 -34 7q-23 0 -37 -17q-18 -20 -18 -65v-12h125v18q0 33 14 70q16 45 46 72q27 24 62 36q42 15 97 15q89 0 156 -27v-673h-131v590q-14 7 -43 7q-70 0 -70 -83v-25h72v-93h-72v-396h-131v396h-125v-396h-131v396h-66v93h66v8q0 106 71 157q44 32 108 32
q39 0 74 -13z" />
    <glyph glyph-name="uniE002" unicode="fj" horiz-adv-x="489" 
d="M69 0v396h-66v93h66v26q0 27 9 55q11 35 33 61q27 32 66 49q47 20 109 20q68 0 115 -20l-18 -103q-21 7 -40 11q-25 5 -52 5q-49 0 -72 -26q-19 -22 -19 -61v-17h243v-454q0 -79 -17 -125q-15 -42 -48 -68q-25 -20 -67 -31q-36 -10 -75 -11l-10 104q46 6 64 26
q22 24 22 130v336h-112v-396h-131z" />
    <glyph glyph-name="uniE001" unicode="ffj" horiz-adv-x="745" 
d="M640 577q-21 7 -40 11q-25 5 -52 5q-50 0 -73 -26q-19 -22 -19 -61v-17h244v-454q0 -79 -17 -125q-15 -42 -48 -68q-25 -20 -67 -31q-36 -10 -76 -11l-10 104q46 6 64 26q23 24 23 130v336h-113v-396h-131v396h-125v-396h-131v396h-66v93h66v8q0 106 71 157q44 32 108 32
q39 0 74 -13l-33 -97q-16 7 -34 7q-23 0 -37 -17q-18 -20 -18 -65v-12h125v26q0 27 9 55q11 35 33 61q27 32 67 49q46 20 109 20q68 0 115 -20z" />
    <glyph glyph-name=".notdef" horiz-adv-x="500" 
d="M0 700h500v-700h-500v700zM420 650h-340l170 -255zM450 95v510l-170 -255zM420 50l-170 255l-170 -255h340zM50 95l170 255l-170 255v-510z" />
    <glyph glyph-name="space" unicode=" " horiz-adv-x="159" 
 />
    <glyph glyph-name="space" unicode="&#xa0;" horiz-adv-x="159" 
 />
    <glyph glyph-name="exclam" unicode="!" horiz-adv-x="236" 
d="M63 219l-16 455h143l-16 -455h-111zM118 -8q-75 0 -75 80q0 81 75 81t75 -81q0 -80 -74 -80h-1z" />
    <glyph glyph-name="quotedbl" unicode="&#x22;" horiz-adv-x="331" 
d="M138 684l-20 -260h-65l-20 260h105zM299 684l-20 -260h-65l-20 260h105z" />
    <glyph glyph-name="numbersign" unicode="#" horiz-adv-x="426" 
d="M242 270l14 115h-71l-14 -115h71zM62 0l25 195h-72v75h82l14 115h-75v75h85l23 190h74l-23 -190h71l24 190h74l-24 -190h71v-75h-81l-14 -115h75v-75h-84l-25 -195h-75l25 195h-71l-24 -195h-75z" />
    <glyph glyph-name="dollar" unicode="$" horiz-adv-x="426" 
d="M162 -84v101q-61 3 -107 26l20 103q48 -28 103 -28q74 0 74 66q0 54 -76 102q-120 74 -120 174q0 121 120 163v102h86v-92q54 -1 98 -26l-22 -99q-5 3 -8 4q-5 3 -9 4q-10 5 -19 8q-23 8 -50 8q-73 0 -73 -62q0 -26 15 -44q17 -20 67 -50q114 -68 114 -179
q0 -138 -128 -171v-110h-85z" />
    <glyph glyph-name="percent" unicode="%" horiz-adv-x="657" 
d="M151 658q66 0 100 -65q27 -53 27 -132q0 -98 -40 -152q-35 -49 -89 -49q-64 0 -100 62q-31 54 -31 134q0 84 34 141q37 61 98 61h1zM148 589q-42 0 -42 -130q-2 -130 43 -130q41 0 41 129q0 131 -41 131h-1zM119 -10l351 669h67l-350 -669h-68zM512 392q66 0 100 -65
q27 -53 27 -132q0 -98 -40 -152q-35 -49 -89 -49q-64 0 -100 62q-31 54 -31 135q0 83 34 140q37 61 98 61h1zM509 323q-42 0 -42 -129q-2 -131 43 -131q41 0 41 129q0 131 -41 131h-1z" />
    <glyph glyph-name="ampersand" unicode="&#x26;" horiz-adv-x="530" 
d="M383 0q-3 4 -7 10l-25 34q-58 -52 -146 -52q-86 0 -137 55q-49 52 -49 134q0 117 106 185v2q-50 69 -50 146q0 71 45 119q47 49 124 49q65 0 106 -41q42 -42 42 -110q0 -51 -22 -89q-27 -47 -95 -94v-4l52 -76q31 -46 48 -67q15 29 22 76q3 19 5 42l2 40h111
q-13 -153 -84 -238l94 -121h-142zM229 89q43 0 70 32q-23 29 -59 80q-15 20 -32 45l-31 44q-17 -17 -26 -38q-12 -26 -12 -55q0 -45 24 -76q26 -32 65 -32h1zM238 595q-47 0 -47 -75q0 -54 33 -101q58 46 58 106q0 29 -8 47q-11 23 -35 23h-1z" />
    <glyph glyph-name="quoteright" unicode="&#x2019;" horiz-adv-x="190" 
d="M184 684q-20 -65 -51 -133q-28 -62 -61 -119l-68 -9q25 70 40 127q19 69 27 124z" />
    <glyph glyph-name="parenleft" unicode="(" horiz-adv-x="258" 
d="M241 692q-48 -76 -75 -168q-31 -109 -31 -240q0 -126 31 -235q26 -90 75 -169h-94q-49 65 -79 158q-18 54 -27 113q-10 65 -10 134q1 70 12 135q9 60 26 113q30 95 78 159h94z" />
    <glyph glyph-name="parenright" unicode=")" horiz-adv-x="258" 
d="M17 -120q48 76 75 170q31 110 31 238q0 127 -31 236q-27 91 -75 168h94q49 -63 79 -155q18 -53 27 -113q10 -65 10 -136q-1 -71 -12 -136q-9 -60 -26 -113q-29 -93 -78 -159h-94z" />
    <glyph glyph-name="asterisk" unicode="*" horiz-adv-x="385" 
d="M327 636l-99 -117l1 -3l141 26v-92l-141 26l-2 -3l100 -113l-84 -47l-53 145l-59 -146l-75 47l99 119l-2 2l-138 -30v92l137 -25l2 2l-98 115l82 47l53 -140h3l52 141z" />
    <glyph glyph-name="plus" unicode="+" horiz-adv-x="596" 
d="M340 532v-224h216v-82h-216v-226h-84v226h-216v82h216v224h84z" />
    <glyph glyph-name="comma" unicode="," horiz-adv-x="233" 
d="M10 -126q50 143 67 266l133 10q-25 -75 -53 -140q-32 -76 -63 -127z" />
    <glyph glyph-name="hyphen" unicode="-" horiz-adv-x="259" 
d="M229 323v-94h-199v94h199z" />
    <glyph glyph-name="hyphen" unicode="&#xad;" horiz-adv-x="259" 
d="M229 323v-94h-199v94h199z" />
    <glyph glyph-name="period" unicode="." horiz-adv-x="233" 
d="M123 -8q-75 0 -75 86q0 88 77 88q76 0 76 -88q0 -86 -77 -86h-1z" />
    <glyph glyph-name="slash" unicode="/" horiz-adv-x="280" 
d="M-22 -40l235 722h85l-235 -722h-85z" />
    <glyph glyph-name="zero" unicode="0" horiz-adv-x="426" 
d="M213 -8q-98 0 -147 102q-22 44 -32 106q-10 56 -10 122q0 149 46 238q51 98 147 98q103 0 149 -107q19 -44 28 -106q8 -53 8 -117q0 -167 -55 -255q-50 -81 -133 -81h-1zM216 104q55 0 55 221t-55 221q-62 0 -61 -221q-3 -221 60 -221h1z" />
    <glyph glyph-name="one" unicode="1" horiz-adv-x="426" 
d="M179 527h-2l-110 -57l-22 103l149 77h115v-650h-130v527z" />
    <glyph glyph-name="two" unicode="2" horiz-adv-x="426" 
d="M25 0v88l64 82q21 26 31 40q16 21 28 38q30 41 49 73q45 76 45 139q0 89 -83 89q-27 0 -55 -11q-11 -4 -23 -10l-19 -11l-24 101q26 16 62 27q42 13 83 13q98 0 147 -59q41 -49 41 -129q0 -82 -47 -167q-20 -34 -49 -72q-21 -29 -55 -68l-39 -46v-2h199v-115h-355z" />
    <glyph glyph-name="three" unicode="3" horiz-adv-x="426" 
d="M42 124q46 -25 97 -25q99 0 99 94q0 51 -36 78q-32 24 -85 25h-18v96h13q43 1 73 19q36 22 36 65q0 75 -75 75q-42 0 -82 -25l-18 98q54 34 134 34q82 0 129 -47q43 -43 43 -110q0 -102 -94 -146v-2q49 -17 79 -58q32 -44 32 -107q0 -80 -56 -135q-61 -61 -162 -61
q-76 0 -127 29z" />
    <glyph glyph-name="four" unicode="4" horiz-adv-x="426" 
d="M234 0v155h-223v90l213 405h126v-390h64v-105h-64v-155h-116zM234 260v133q0 22 2 53l5 54h-4q-9 -24 -21 -50l-93 -188v-2h111z" />
    <glyph glyph-name="five" unicode="5" horiz-adv-x="426" 
d="M365 536h-172l-15 -117q4 1 9 1h10q26 -1 58 -12q39 -13 65 -37q56 -54 56 -150q0 -98 -60 -162q-63 -67 -166 -67q-74 0 -122 26l20 103q44 -22 93 -22q106 0 106 110q0 62 -42 92q-37 25 -99 25h-25l-22 -2l37 326h269v-114z" />
    <glyph glyph-name="six" unicode="6" horiz-adv-x="426" 
d="M355 552q-28 -2 -54 -7q-61 -13 -99 -62q-33 -44 -47 -111h4q39 52 101 52q66 0 106 -55q41 -55 41 -146q0 -94 -45 -158q-52 -73 -141 -73q-92 0 -145 74q-53 73 -53 195q0 100 31 180q26 70 75 122q64 70 160 88q19 4 40 5q3 1 8 1l18 1v-106zM221 87q30 0 44 39
q12 34 12 97q-1 46 -15 74q-16 33 -46 33q-36 0 -54 -43q-6 -16 -6 -58q0 -142 64 -142h1z" />
    <glyph glyph-name="seven" unicode="7" horiz-adv-x="426" 
d="M394 650v-85l-205 -565h-127l199 535h-221v115h354z" />
    <glyph glyph-name="eight" unicode="8" horiz-adv-x="426" 
d="M222 658q71 0 119 -44q49 -45 49 -116q0 -39 -17 -72q-22 -43 -69 -72v-3q101 -54 101 -169q0 -88 -57 -140q-55 -50 -138 -50q-85 0 -137 48q-53 49 -53 129q0 57 29 104q25 41 69 69v2q-80 51 -80 143q0 77 54 125q52 46 129 46h1zM214 80q64 0 64 96q0 43 -24 76
q-19 28 -51 45q-56 -39 -56 -114q0 -103 66 -103h1zM217 570q-56 0 -56 -80q0 -63 64 -97q45 23 45 92q0 85 -52 85h-1z" />
    <glyph glyph-name="nine" unicode="9" horiz-adv-x="426" 
d="M74 101q33 0 59 5q43 8 77 39q47 45 63 131h-3q-37 -40 -93 -40q-65 0 -108 52q-45 55 -45 142q0 90 50 156q54 72 143 72t138 -75q47 -71 47 -192q0 -104 -31 -188q-27 -74 -76 -126q-62 -67 -161 -82q-13 -2 -30 -3h-30v109zM210 563q-60 0 -57 -122q1 -50 16 -81
q16 -34 45 -34q36 0 50 34q6 14 6 69q0 134 -59 134h-1z" />
    <glyph glyph-name="colon" unicode=":" horiz-adv-x="233" 
d="M124 320q-73 0 -73 83t74 83t74 -83t-74 -83h-1zM124 -8q-73 0 -73 83t74 83t74 -83t-74 -83h-1z" />
    <glyph glyph-name="semicolon" unicode=";" horiz-adv-x="233" 
d="M11 -125q50 143 67 266l129 10q-24 -74 -52 -140q-32 -76 -64 -127zM129 320q-73 0 -73 83t74 83t74 -83t-74 -83h-1z" />
    <glyph glyph-name="less" unicode="&#x3c;" horiz-adv-x="596" 
d="M58 297l480 235v-102l-352 -164v-2l352 -163v-101l-480 235v62z" />
    <glyph glyph-name="equal" unicode="=" horiz-adv-x="596" 
d="M40 320v82h516v-82h-516zM40 133v82h516v-82h-516z" />
    <glyph glyph-name="greater" unicode="&#x3e;" horiz-adv-x="596" 
d="M538 222l-481 -222v99l384 166v2l-384 166v99l481 -222v-88z" />
    <glyph glyph-name="question" unicode="?" horiz-adv-x="334" 
d="M88 210l-2 19q-5 42 10 85q13 37 43 85q43 65 43 112q0 62 -66 62q-39 0 -64 -17l-22 100q45 30 117 30q90 0 134 -51q35 -41 35 -103q0 -46 -24 -95q-9 -20 -24 -43q-5 -9 -13 -20l-13 -19q-23 -35 -32 -60q-12 -31 -11 -63v-22h-111zM143 -8q-74 0 -74 80t75 82
q75 0 75 -82q0 -80 -75 -80h-1z" />
    <glyph glyph-name="at" unicode="@" horiz-adv-x="621" 
d="M371 362q-7 5 -26 5q-37 0 -68 -51q-32 -53 -32 -126q0 -56 35 -56q22 0 43 31q19 29 25 67zM442 -59q-71 -40 -160 -40q-103 0 -173 76q-77 83 -77 224q0 157 88 271q94 121 235 121q114 0 178 -79q58 -71 58 -180q0 -269 -157 -269q-74 0 -74 85h-3q-36 -85 -110 -85
q-86 0 -86 120q0 99 55 168q59 75 153 75q54 0 92 -21l-34 -184q-17 -103 28 -103q33 0 56 50q26 56 26 150q0 102 -46 162q-50 66 -147 66q-103 0 -178 -95q-80 -101 -80 -252q0 -123 60 -191q56 -63 150 -63q70 0 131 36z" />
    <glyph glyph-name="A" unicode="A" horiz-adv-x="458" 
d="M165 154l-30 -154h-127l146 674h157l131 -674h-128l-28 154h-121zM274 256l-22 141l-11 75q-3 17 -6 41l-5 37h-3l-24 -153l-25 -141h96z" />
    <glyph glyph-name="B" unicode="B" horiz-adv-x="483" 
d="M58 664q58 13 149 13q54 0 92 -9q47 -11 79 -39q51 -42 51 -123q0 -103 -97 -146v-4q119 -34 119 -161q0 -80 -50 -132q-62 -68 -221 -68q-69 0 -122 7v662zM189 397h28q83 0 83 94q0 88 -76 88q-24 0 -35 -4v-178zM189 98q8 -2 29 -2q97 0 97 101q0 49 -29 77
q-28 26 -69 26h-28v-202z" />
    <glyph glyph-name="C" unicode="C" horiz-adv-x="395" 
d="M381 10q-34 -16 -101 -16q-125 0 -192 95q-63 88 -63 238q0 91 24 162q22 65 63 110q74 81 185 81q32 0 58 -6q21 -5 33 -12l-22 -110q-28 13 -61 13q-61 0 -98 -53q-43 -61 -43 -178q0 -115 41 -172q36 -52 100 -52q31 0 63 10z" />
    <glyph glyph-name="D" unicode="D" horiz-adv-x="491" 
d="M58 664q54 13 133 13q123 0 187 -60q88 -79 88 -272q0 -202 -94 -285q-70 -65 -205 -65q-28 0 -60 2q-24 2 -49 5v662zM189 104q5 -1 12 -2h11q52 0 83 54q35 64 35 194q0 222 -115 222q-18 0 -26 -3v-465z" />
    <glyph glyph-name="E" unicode="E" horiz-adv-x="394" 
d="M342 296h-153v-182h173v-114h-304v674h293v-114h-162v-155h153v-109z" />
    <glyph glyph-name="F" unicode="F" horiz-adv-x="392" 
d="M58 674h293v-114h-162v-173h152v-109h-152v-278h-131v674z" />
    <glyph glyph-name="G" unicode="G" horiz-adv-x="472" 
d="M435 18q-58 -24 -139 -24q-115 0 -181 67q-90 89 -87 272q1 89 26 158q23 63 64 107q78 82 197 82q35 0 66 -6q25 -5 43 -14l-22 -113q-33 15 -77 15q-73 0 -114 -53q-47 -60 -47 -183q0 -113 39 -172q34 -49 86 -49q19 0 26 4v162h-61v107h181v-360z" />
    <glyph glyph-name="H" unicode="H" horiz-adv-x="515" 
d="M189 674v-270h137v270h131v-674h-131v282h-137v-282h-131v674h131z" />
    <glyph glyph-name="I" unicode="I" horiz-adv-x="248" 
d="M189 674v-674h-131v674h131z" />
    <glyph glyph-name="J" unicode="J" horiz-adv-x="296" 
d="M115 674h131v-459q0 -132 -59 -184q-24 -22 -60 -31q-30 -8 -70 -8q-43 0 -66 10l11 110q20 -5 43 -5q33 0 49 19q21 24 21 83v465z" />
    <glyph glyph-name="K" unicode="K" horiz-adv-x="459" 
d="M58 674h131v-303h3q4 9 8 21l16 44q4 13 8 22l90 216h145l-152 -293l154 -381h-144l-98 279l-30 -55v-224h-131v674z" />
    <glyph glyph-name="L" unicode="L" horiz-adv-x="380" 
d="M58 674h131v-563h172v-111h-303v674z" />
    <glyph glyph-name="M" unicode="M" horiz-adv-x="637" 
d="M470 236q-4 57 -5 108q-3 65 -2 115h-2q-8 -51 -21 -111q-11 -54 -22 -96l-59 -241h-92l-56 237q-11 47 -22 98q-12 63 -20 113h-2l-22 -459h-112l48 674h139l80 -365q13 -66 21 -115h3q7 51 18 114l24 122l54 244h138l41 -674h-117z" />
    <glyph glyph-name="N" unicode="N" horiz-adv-x="516" 
d="M58 0v674h120l104 -265q38 -93 72 -196h2l-12 221q-1 48 -1 91v149h115v-674h-120l-103 257q-43 105 -69 202h-2q2 -30 3 -58q2 -35 3 -70l2 -84q1 -47 1 -95v-152h-115z" />
    <glyph glyph-name="O" unicode="O" horiz-adv-x="481" 
d="M238 -8q-108 0 -164 104q-49 92 -49 243q0 147 55 241q61 102 168 102q58 0 101 -30q38 -28 64 -79q22 -45 33 -107q10 -55 10 -117q0 -183 -61 -274q-55 -83 -156 -83h-1zM243 106q40 0 60 67q17 60 17 170q0 100 -16 157q-20 68 -62 68q-41 0 -63 -68q-19 -61 -18 -160
q-2 -106 18 -167q21 -67 63 -67h1z" />
    <glyph glyph-name="P" unicode="P" horiz-adv-x="457" 
d="M58 664q60 13 137 13q63 0 105 -11q47 -12 78 -41q58 -52 58 -148q0 -102 -57 -162q-30 -32 -77 -49q-43 -16 -87 -16q-17 0 -26 1v-251h-131v664zM189 357q5 -1 11 -1h11q95 0 95 110q0 105 -85 105q-19 0 -32 -5v-209z" />
    <glyph glyph-name="Q" unicode="Q" horiz-adv-x="481" 
d="M441 -110q-82 35 -173 88l-19 10q-9 4 -12 4q-99 0 -155 91q-57 92 -57 256q0 145 55 239q61 104 169 104q58 0 101 -30q39 -28 64 -79q22 -45 33 -107q9 -54 9 -117q0 -250 -101 -305v-5q26 -11 66 -26l66 -24zM244 106q38 0 58 66q18 61 18 171q0 103 -17 160
q-19 65 -60 65q-40 0 -62 -66q-21 -63 -20 -162q-2 -107 18 -168q21 -66 64 -66h1z" />
    <glyph glyph-name="R" unicode="R" horiz-adv-x="470" 
d="M58 664q67 13 143 13q60 0 101 -10q49 -12 79 -40q54 -49 54 -140q0 -121 -104 -168v-2q63 -26 82 -134q11 -61 22 -110q12 -55 21 -73h-137q-17 36 -34 162q-15 107 -76 107h-20v-269h-131v664zM189 370h24q89 0 89 105q0 97 -81 100q-10 0 -18 -1q-9 -1 -14 -3v-201z
" />
    <glyph glyph-name="S" unicode="S" horiz-adv-x="394" 
d="M43 134q47 -26 111 -26q92 0 92 76q0 34 -22 60q-17 19 -65 50q-65 40 -98 92q-29 46 -29 96q0 85 54 140q57 58 158 58q65 0 106 -24l-21 -113q-36 23 -85 23q-83 0 -83 -69q0 -50 92 -106q64 -39 95 -90q27 -46 27 -103q0 -92 -62 -148q-61 -56 -160 -56q-81 0 -129 27
z" />
    <glyph glyph-name="T" unicode="T" horiz-adv-x="393" 
d="M131 553h-119v121h370v-121h-120v-553h-131v553z" />
    <glyph glyph-name="U" unicode="U" horiz-adv-x="500" 
d="M185 674v-438q0 -69 19 -102q16 -27 45 -27q31 0 47 26q18 31 18 103v438h131v-415q0 -267 -195 -267q-103 0 -151 70q-45 65 -45 196v416h131z" />
    <glyph glyph-name="V" unicode="V" horiz-adv-x="452" 
d="M152 0l-150 674h145l66 -406q5 -33 8 -59q5 -32 8 -60h2q13 119 32 237l46 288h144l-154 -674h-147z" />
    <glyph glyph-name="W" unicode="W" horiz-adv-x="679" 
d="M128 0l-115 674h136l33 -269l6 -58q3 -25 6 -58l11 -120h3q6 52 17 119l69 386h106l63 -381q9 -66 14 -124h2q6 63 13 123l13 115l33 267h128l-119 -674h-135l-40 221q-8 45 -16 103q-7 53 -14 118h-2l-18 -117q-10 -61 -19 -105l-45 -220h-130z" />
    <glyph glyph-name="X" unicode="X" horiz-adv-x="407" 
d="M275 0l-42 124l-19 59l-17 61h-3q-3 -14 -8 -32l-23 -90l-36 -122h-130l126 345l-121 329h136l40 -125l30 -108h2l63 233h131l-126 -335l133 -339h-136z" />
    <glyph glyph-name="Y" unicode="Y" horiz-adv-x="402" 
d="M133 0v258l-148 416h140l45 -161q22 -72 36 -143h2q6 35 14 73q7 34 17 73l40 158h136l-151 -411v-263h-131z" />
    <glyph glyph-name="Z" unicode="Z" horiz-adv-x="387" 
d="M11 76l213 481v3h-193v114h341v-96l-204 -461v-3h203v-114h-360v76z" />
    <glyph glyph-name="bracketleft" unicode="[" horiz-adv-x="258" 
d="M50 -112v798h184v-84h-85v-630h85v-84h-184z" />
    <glyph glyph-name="backslash" unicode="\" horiz-adv-x="233" 
d="M170 -40l-187 722h85l187 -722h-85z" />
    <glyph glyph-name="bracketright" unicode="]" horiz-adv-x="258" 
d="M208 686v-798h-184v84h85v630h-85v84h184z" />
    <glyph glyph-name="asciicircum" unicode="^" horiz-adv-x="596" 
d="M452 177l-152 361h-5l-152 -361h-98l212 473h83l212 -473h-100z" />
    <glyph glyph-name="underscore" unicode="_" horiz-adv-x="500" 
d="M500 -75v-50h-500v50h500z" />
    <glyph glyph-name="quoteleft" unicode="&#x2018;" horiz-adv-x="190" 
d="M8 423q20 65 51 133q28 62 61 119l68 9q-25 -71 -40 -127q-19 -69 -27 -124z" />
    <glyph glyph-name="a" unicode="a" horiz-adv-x="422" 
d="M376 112q0 -66 7 -112h-117l-7 48h-3q-38 -56 -108 -56q-56 0 -92 42q-37 42 -37 106q0 90 70 139q61 42 154 43v11q0 67 -69 67q-52 0 -100 -29l-24 89q12 6 26 12q17 7 35 12q46 13 92 13q101 0 142 -64q17 -27 25 -66q6 -32 6 -74v-181zM247 238q-42 -1 -68 -17
q-36 -21 -36 -67q0 -66 47 -66q41 0 54 42q3 9 3 23v85z" />
    <glyph glyph-name="b" unicode="b" horiz-adv-x="447" 
d="M45 692h131v-253h2q38 58 102 58q67 0 104 -70q34 -65 34 -169q0 -126 -45 -197q-44 -69 -114 -69q-61 0 -96 65h-3l-7 -57h-112q2 37 3 71q1 41 1 73v548zM176 175q0 -19 5 -32q14 -44 45 -44q62 0 62 148q0 139 -63 139q-31 0 -44 -45q-5 -13 -5 -30v-136z" />
    <glyph glyph-name="c" unicode="c" horiz-adv-x="323" 
d="M317 9q-28 -15 -83 -15q-95 0 -149 63q-56 65 -56 182q0 114 61 185q62 71 163 71q22 0 43 -4q18 -4 29 -9l-17 -103l-20 6q-14 3 -29 3q-100 0 -100 -144q0 -143 98 -143q29 0 49 10z" />
    <glyph glyph-name="d" unicode="d" horiz-adv-x="447" 
d="M401 692v-548q0 -31 1 -72l3 -72h-113l-7 55h-3q-32 -63 -101 -63q-74 0 -115 75q-37 67 -37 176q0 121 48 191q43 63 109 63q59 0 82 -50h2v245h131zM270 301q0 19 -2 28q-8 57 -46 57q-33 0 -49 -43q-14 -38 -14 -103q0 -141 61 -141q33 0 46 42q4 11 4 31v129z" />
    <glyph glyph-name="e" unicode="e" horiz-adv-x="419" 
d="M156 198q1 -104 103 -104q25 0 51 5q21 4 42 11l17 -93q-54 -23 -133 -23q-207 0 -207 241q0 120 57 193q54 69 139 69q166 0 166 -231q0 -24 -1 -42l-3 -26h-231zM272 290q0 111 -55 111q-30 0 -46 -37q-14 -31 -15 -74h116z" />
    <glyph glyph-name="f" unicode="f" horiz-adv-x="286" 
d="M69 0v396h-66v93h66v19q0 95 51 147q43 45 116 45q44 0 79 -11l-15 -102q-15 6 -40 6q-60 0 -60 -81v-23h85v-93h-85v-396h-131z" />
    <glyph glyph-name="g" unicode="g" horiz-adv-x="447" 
d="M403 55q0 -144 -59 -201q-57 -54 -159 -54q-68 0 -122 23l24 100q44 -20 93 -20q92 0 92 119v30h-2q-27 -49 -88 -49q-76 0 -117 75q-35 64 -35 162q0 118 48 189q46 68 116 68q60 0 90 -58h2l7 50h115q-5 -75 -5 -155v-279zM272 310q0 19 -5 36q-11 40 -42 40
q-33 0 -51 -42q-15 -37 -15 -101q0 -137 64 -137q30 0 43 35q6 13 6 39v130z" />
    <glyph glyph-name="h" unicode="h" horiz-adv-x="458" 
d="M46 692h131v-254h2q17 24 42 41q31 18 66 18q125 0 125 -200v-297h-131v297q0 41 -9 63q-12 27 -39 27q-37 0 -51 -46q-5 -20 -5 -37v-304h-131v692z" />
    <glyph glyph-name="i" unicode="i" horiz-adv-x="223" 
d="M48 0v489h131v-489h-131zM110 547q-67 0 -65 71q-2 72 67 72q67 0 67 -72q1 -71 -68 -71h-1z" />
    <glyph glyph-name="j" unicode="j" horiz-adv-x="224" 
d="M-38 -96q46 6 64 26q22 24 22 130v429h131v-454q0 -79 -17 -125q-15 -42 -48 -68q-25 -20 -67 -31q-36 -10 -75 -11zM111 547q-67 0 -65 71q-2 72 67 72q67 0 67 -72q2 -71 -68 -71h-1z" />
    <glyph glyph-name="k" unicode="k" horiz-adv-x="413" 
d="M176 275h2q13 41 24 68l64 146h141l-119 -205l126 -284h-146l-70 201l-22 -42v-159h-131v692h131v-417z" />
    <glyph glyph-name="l" unicode="l" horiz-adv-x="225" 
d="M46 692h131v-692h-131v692z" />
    <glyph glyph-name="m" unicode="m" horiz-adv-x="680" 
d="M45 342q0 35 -1 76l-3 71h114l7 -57h2q45 65 116 65q80 0 107 -67h2q18 29 50 49q30 18 68 18q127 0 127 -187v-310h-131v288q0 48 -8 71q-10 29 -37 29q-36 0 -49 -44q-2 -5 -3 -15q-1 -8 -1 -20v-309h-131v306q0 36 -7 55q-10 27 -37 27q-36 0 -49 -44q-5 -13 -5 -37
v-307h-131v342z" />
    <glyph glyph-name="n" unicode="n" horiz-adv-x="458" 
d="M46 342q0 35 -1 76l-3 71h113l7 -56h2q42 64 118 64q67 0 100 -51q30 -46 30 -132v-314h-131v306q0 36 -10 56q-12 25 -38 25q-35 0 -49 -44q-7 -17 -7 -45v-298h-131v342z" />
    <glyph glyph-name="o" unicode="o" horiz-adv-x="431" 
d="M216 -8q-187 0 -187 251q0 124 58 193q52 61 131 61q87 0 136 -68q49 -67 49 -183q0 -72 -19 -125q-16 -47 -47 -78q-26 -27 -60 -40q-29 -11 -60 -11h-1zM219 92q29 0 43 50q11 39 11 103q0 62 -11 102q-14 50 -45 50q-32 0 -47 -50q-11 -39 -11 -102q0 -70 12 -108
q15 -45 47 -45h1z" />
    <glyph glyph-name="p" unicode="p" horiz-adv-x="447" 
d="M45 334q0 40 -1 82l-3 73h114l7 -57h2q33 65 103 65q76 0 116 -75q35 -67 35 -177q0 -123 -48 -192q-44 -61 -111 -61q-27 0 -50 15q-19 12 -31 32h-2v-231h-131v526zM176 178q0 -27 7 -41q13 -38 42 -38q32 0 49 44q14 37 14 100q0 143 -62 143q-35 0 -44 -41
q-6 -12 -6 -35v-132z" />
    <glyph glyph-name="q" unicode="q" horiz-adv-x="447" 
d="M271 42h-2q-34 -50 -93 -50q-67 0 -108 71q-38 68 -38 170q0 122 47 194q45 70 117 70q62 0 90 -59l2 -2l7 53h113l-3 -73q-1 -43 -1 -82v-526h-131v234zM271 309q0 19 -4 30q-11 47 -45 47q-62 0 -62 -143q0 -144 62 -144q32 0 44 43q5 13 5 32v135z" />
    <glyph glyph-name="r" unicode="r" horiz-adv-x="294" 
d="M46 342q0 33 -1 74l-3 73h113l7 -72h4q32 80 96 80q9 0 17 -1l11 -1v-130q-8 1 -28 1q-24 0 -45 -16q-24 -18 -34 -53q-6 -16 -6 -49v-248h-131v342z" />
    <glyph glyph-name="s" unicode="s" horiz-adv-x="324" 
d="M42 118q41 -26 88 -26q53 0 53 43q0 33 -57 67q-55 31 -79 70q-20 32 -20 70q0 67 44 111q45 44 117 44q53 0 99 -23l-23 -96q-35 20 -68 20q-49 0 -49 -41q0 -29 57 -62q99 -56 99 -147q0 -73 -49 -114q-46 -40 -124 -40q-75 0 -111 28z" />
    <glyph glyph-name="t" unicode="t" horiz-adv-x="311" 
d="M200 616v-127h96v-93h-96v-223q0 -71 49 -71q17 0 35 3l1 -102q-32 -9 -80 -9q-61 0 -95 31q-41 41 -41 140v231h-58v93h58v86z" />
    <glyph glyph-name="u" unicode="u" horiz-adv-x="452" 
d="M404 149q0 -35 1 -77l3 -72h-113l-7 52h-2q-42 -60 -114 -60q-130 0 -130 201v296h131v-282q0 -105 49 -105q31 0 43 33q8 16 8 42v312h131v-340z" />
    <glyph glyph-name="v" unicode="v" horiz-adv-x="395" 
d="M144 489l37 -219l21 -136h2q4 35 9 70l10 66l38 219h129l-131 -489h-120l-134 489h139z" />
    <glyph glyph-name="w" unicode="w" horiz-adv-x="616" 
d="M146 489l26 -211l8 -67q1 -5 1 -10q6 -44 8 -71h3q10 67 27 146l43 213h101l56 -286q7 -40 11 -73h2q5 62 17 150l30 209h130l-126 -489h-112l-36 171q-17 76 -25 152h-2q-5 -38 -13 -80q-6 -33 -16 -73l-41 -170h-113l-120 489h141z" />
    <glyph glyph-name="x" unicode="x" horiz-adv-x="396" 
d="M149 489l30 -87l24 -82h2l23 82l29 87h131l-111 -240l113 -249h-142l-34 92q-6 16 -12 37q-3 8 -6 19l-5 19h-2l-22 -76l-30 -91h-131l109 243l-108 246h142z" />
    <glyph glyph-name="y" unicode="y" horiz-adv-x="391" 
d="M146 489l48 -255l14 -82h2l11 80l41 257h128l-100 -378q-10 -38 -20 -69q-11 -37 -24 -67q-29 -70 -65 -113q-27 -33 -63 -55q-27 -17 -48 -22l-39 113q35 13 64 40q26 25 41 59l5 11q2 5 2 10q0 4 -1 9l-137 462h141z" />
    <glyph glyph-name="z" unicode="z" horiz-adv-x="351" 
d="M18 82l120 218l25 43q15 24 21 36v3h-151v107h293v-89l-163 -290v-3h168v-107h-313v82z" />
    <glyph glyph-name="braceleft" unicode="{" horiz-adv-x="258" 
d="M10 327q37 0 53 18q13 14 13 38q0 18 -2 39l-4 38q-3 25 -4 40q-2 22 -2 41q0 145 153 145h18v-81h-15q-54 -4 -54 -68q0 -16 1 -34l6 -62q1 -17 1 -30q0 -98 -76 -122v-2q76 -23 76 -122q0 -14 -1 -31l-6 -63q-1 -18 -1 -32q0 -65 56 -70h13v-81h-21q-67 0 -106 32
q-44 37 -44 112q0 19 2 41l8 80q2 22 2 39q0 23 -13 37q-17 19 -53 19v79z" />
    <glyph glyph-name="bar" unicode="|" horiz-adv-x="218" 
d="M158 750v-1000h-97v1000h97z" />
    <glyph glyph-name="braceright" unicode="}" horiz-adv-x="258" 
d="M248 248q-36 0 -53 -19q-13 -14 -13 -37q0 -17 2 -39l8 -80q2 -22 2 -41q0 -75 -44 -112q-39 -32 -106 -32h-21v81h13q56 5 56 70q0 13 -1 32l-2 31q-5 35 -5 63q0 99 76 122v2q-76 24 -76 122q0 25 5 60l2 32q1 19 1 34q0 64 -54 68h-15v81h18q153 0 153 -145
q0 -19 -2 -41q-1 -15 -4 -40l-4 -38q-2 -21 -2 -39q0 -24 13 -38q16 -18 53 -18v-79z" />
    <glyph glyph-name="asciitilde" unicode="~" horiz-adv-x="596" 
d="M58 202q-1 87 43 131q36 37 92 37q31 1 65 -13q24 -10 68 -37q69 -41 88 -41q43 0 43 83h83q7 -171 -122 -171q-56 0 -131 46q-75 47 -99 47q-45 0 -46 -82h-84z" />
    <glyph glyph-name="exclamdown" unicode="&#xa1;" horiz-adv-x="236" 
d="M47 -192l16 456h111l16 -456h-143zM119 493q74 0 74 -81q0 -80 -74 -80q-76 0 -76 80q0 81 75 81h1z" />
    <glyph glyph-name="cent" unicode="&#xa2;" horiz-adv-x="426" 
d="M212 -7v101q-69 14 -110 67q-47 62 -47 163q0 191 159 231v101h84v-94q44 -3 70 -17l-16 -100q-33 16 -75 16t-68 -40q-24 -38 -24 -98q0 -134 98 -134q44 0 79 15l10 -99q-27 -14 -76 -15v-97h-84z" />
    <glyph glyph-name="sterling" unicode="&#xa3;" horiz-adv-x="426" 
d="M36 0v82q42 17 67 62q22 39 22 82q0 31 -3 55h-79v87h65q-11 53 -11 97q0 82 49 136q51 57 136 57q28 0 51 -5q17 -5 31 -12l-19 -106q-12 6 -24 9q-15 4 -32 4q-68 0 -68 -80q0 -25 3 -51l8 -49h103v-87h-92q3 -50 -9 -88q-15 -49 -50 -81v-2h199v-110h-347z" />
    <glyph glyph-name="fraction" unicode="&#x2044;" horiz-adv-x="315" 
d="M-50 -8l349 666h68l-348 -666h-69z" />
    <glyph glyph-name="fraction" unicode="&#x2215;" horiz-adv-x="315" 
d="M-50 -8l349 666h68l-348 -666h-69z" />
    <glyph glyph-name="yen" unicode="&#xa5;" horiz-adv-x="426" 
d="M152 0v165h-130v67h130v59h-130v67h102l-118 292h129l70 -239q9 -31 12 -50h2l11 49q8 34 16 61l54 179h121l-121 -292h102v-67h-130v-59h130v-67h-130v-165h-120z" />
    <glyph glyph-name="florin" unicode="&#x192;" horiz-adv-x="426" 
d="M76 402h72l4 46q10 94 56 150q51 60 136 60q37 0 63 -12l-17 -97q-18 6 -38 6q-63 0 -75 -105l-5 -48h91v-101h-98l-18 -185q-9 -91 -43 -138q-42 -58 -128 -58q-44 0 -71 16l18 93q21 -7 38 -7q24 0 39 20q17 24 23 79l18 180h-65v101z" />
    <glyph glyph-name="section" unicode="&#xa7;" horiz-adv-x="431" 
d="M127 349q0 -40 74 -72q47 -20 80 -43q25 17 25 54q0 45 -59 71q-34 15 -48 22q-25 12 -40 22q-32 -20 -32 -53v-1zM336 575q-44 22 -93 22q-66 0 -66 -46q0 -42 75 -70q35 -14 57 -26q29 -16 47 -34q42 -40 42 -105q0 -70 -57 -127q12 -12 21 -31q11 -26 11 -53
q0 -70 -51 -113q-49 -42 -126 -42q-90 0 -137 32l23 85q20 -13 45 -21q34 -11 68 -11q71 0 71 52q0 39 -93 81q-68 30 -101 64q-39 40 -39 97q0 68 70 120q-33 37 -33 83q0 68 51 110q50 40 128 40q63 0 107 -25z" />
    <glyph glyph-name="currency" unicode="&#xa4;" horiz-adv-x="426" 
d="M215 536q57 0 98 -36l64 76l55 -57l-79 -76q22 -50 22 -115q0 -68 -23 -116l78 -80l-54 -56l-67 78q-41 -38 -99 -38t-98 35l-63 -75l-53 56l73 75q-24 48 -24 115q0 69 27 121l-78 76l55 57l65 -79q42 39 100 39h1zM210 445q-29 0 -42 -35q-12 -30 -12 -86q0 -51 14 -82
q14 -35 40 -35q30 -1 43 34q11 29 11 85q0 50 -11 81q-13 38 -42 38h-1z" />
    <glyph glyph-name="quotesingle" unicode="'" horiz-adv-x="170" 
d="M138 684l-20 -260h-65l-20 260h105z" />
    <glyph glyph-name="quotedblleft" unicode="&#x201c;" horiz-adv-x="337" 
d="M4 423q19 64 50 133q28 61 62 119l68 9q-25 -71 -40 -127q-19 -69 -27 -124zM159 423q41 131 113 252l67 9q-25 -71 -40 -127q-19 -69 -27 -124z" />
    <glyph glyph-name="guillemotleft" unicode="&#xab;" horiz-adv-x="383" 
d="M108 252l108 -184h-95l-105 184l105 185h95zM268 252l108 -184h-94l-106 184l105 185h95z" />
    <glyph glyph-name="guilsinglleft" unicode="&#x2039;" horiz-adv-x="221" 
d="M108 252l108 -184h-94l-106 184l105 185h95z" />
    <glyph glyph-name="guilsinglright" unicode="&#x203a;" horiz-adv-x="221" 
d="M5 437h94l106 -185l-105 -184h-95l108 184z" />
    <glyph glyph-name="endash" unicode="&#x2013;" horiz-adv-x="500" 
d="M470 305v-89h-440v89h440z" />
    <glyph glyph-name="dagger" unicode="&#x2020;" horiz-adv-x="425" 
d="M267 674l-6 -188l132 6v-107l-132 6l6 -441h-110l6 441l-132 -6v107l132 -6l-6 188h110z" />
    <glyph glyph-name="daggerdbl" unicode="&#x2021;" horiz-adv-x="425" 
d="M268 674l-6 -181l131 6v-107l-131 6v-170l131 6v-107l-131 6l6 -183h-110l4 183l-130 -6v107l131 -6v170l-131 -6v107l131 -6l-6 181h111z" />
    <glyph glyph-name="periodcentered" unicode="&#xb7;" horiz-adv-x="233" 
d="M115 183q-75 0 -75 86q0 87 77 87q76 0 76 -87q0 -86 -77 -86h-1z" />
    <glyph glyph-name="periodcentered" unicode="&#x2219;" horiz-adv-x="233" 
d="M115 183q-75 0 -75 86q0 87 77 87q76 0 76 -87q0 -86 -77 -86h-1z" />
    <glyph glyph-name="paragraph" unicode="&#xb6;" horiz-adv-x="431" 
d="M175 -50v314h-8q-13 0 -33 9q-24 10 -45 29q-26 23 -42 56q-19 38 -22 87q-5 95 53 158q65 71 190 71q38 0 63 -2q19 -2 45 -6v-716h-71v651h-59v-651h-71z" />
    <glyph glyph-name="bullet" unicode="&#x2022;" horiz-adv-x="287" 
d="M142 159q-104 0 -104 108q0 110 106 110q105 0 105 -109t-106 -109h-1z" />
    <glyph glyph-name="quotesinglbase" unicode="&#x201a;" horiz-adv-x="190" 
d="M4 -110q25 71 40 127q19 69 27 124l113 10q-20 -65 -51 -133q-28 -62 -61 -119z" />
    <glyph glyph-name="quotedblbase" unicode="&#x201e;" horiz-adv-x="337" 
d="M0 -110q25 71 40 127q19 69 27 124l113 10q-41 -131 -113 -252zM155 -110q25 71 40 127q19 69 27 124l113 10q-19 -64 -50 -133q-28 -61 -62 -119z" />
    <glyph glyph-name="quotedblright" unicode="&#x201d;" horiz-adv-x="337" 
d="M180 684q-41 -131 -113 -252l-67 -9q25 70 40 127q19 69 27 124zM335 684q-19 -64 -50 -133q-28 -61 -62 -119l-68 -9q25 70 40 127q19 69 27 124z" />
    <glyph glyph-name="guillemotright" unicode="&#xbb;" horiz-adv-x="383" 
d="M7 437h94l106 -185l-105 -184h-95l108 184zM167 437h94l106 -185l-105 -184h-95l108 184z" />
    <glyph glyph-name="ellipsis" unicode="&#x2026;" horiz-adv-x="1000" 
d="M165 -8q-75 0 -75 86q0 88 77 88q76 0 76 -88q0 -86 -77 -86h-1zM499 -8q-75 0 -75 86q0 88 77 88q76 0 76 -88q0 -86 -77 -86h-1zM833 -8q-75 0 -75 86q0 88 77 88q76 0 76 -88q0 -86 -77 -86h-1z" />
    <glyph glyph-name="perthousand" unicode="&#x2030;" horiz-adv-x="958" 
d="M151 658q66 0 100 -65q27 -53 27 -132q0 -98 -40 -152q-35 -49 -89 -49q-64 0 -100 62q-31 54 -31 135q0 83 34 140q37 61 98 61h1zM148 589q-42 0 -42 -129q-2 -131 43 -131q41 0 41 129q0 131 -41 131h-1zM118 -10l351 669h68l-350 -669h-69zM512 392q66 0 100 -65
q27 -53 27 -132q0 -98 -40 -152q-35 -49 -89 -49q-64 0 -100 62q-31 54 -31 135q0 83 34 140q37 61 98 61h1zM509 323q-42 0 -42 -129q-2 -131 43 -131q41 0 41 129q0 131 -41 131h-1zM813 392q66 0 100 -65q27 -53 27 -132q0 -98 -40 -152q-35 -49 -89 -49q-64 0 -100 62
q-31 54 -31 135q0 83 34 140q37 61 98 61h1zM810 323q-42 0 -42 -129q-2 -131 43 -131q41 0 41 129q0 131 -41 131h-1z" />
    <glyph glyph-name="questiondown" unicode="&#xbf;" horiz-adv-x="334" 
d="M192 493q74 0 74 -82q0 -80 -74 -80q-76 0 -76 80q0 82 75 82h1zM246 275l2 -18q5 -42 -10 -85q-13 -37 -43 -85q-43 -65 -43 -112q0 -62 66 -62q39 0 64 17l22 -100q-45 -30 -117 -30q-90 0 -134 52q-35 40 -35 102q0 46 24 95q9 20 24 43q5 9 13 20l13 19q43 65 43 123
v21h111z" />
    <glyph glyph-name="grave" unicode="`" 
d="M143 689l69 -140h-82l-101 140h114z" />
    <glyph glyph-name="acute" unicode="&#xb4;" 
d="M287 689l-101 -140h-82l69 140h114z" />
    <glyph glyph-name="circumflex" unicode="&#x2c6;" 
d="M196 689l85 -140h-89l-41 80h-2l-39 -80h-91l86 140h91z" />
    <glyph glyph-name="tilde" unicode="&#x2dc;" 
d="M28 557q0 51 18 83q19 34 53 34q16 0 32 -6q6 -2 13 -6l15 -7l16 -10q10 -5 19 -5q21 0 21 37h58q0 -114 -70 -114q-13 0 -28 5l-25 11q-5 2 -11 6l-9 6q-10 5 -19 5q-23 0 -23 -39h-60z" />
    <glyph glyph-name="macron" unicode="&#xaf;" 
d="M257 656v-75h-212v75h212z" />
    <glyph glyph-name="macron" unicode="&#x2c9;" 
d="M257 656v-75h-212v75h212z" />
    <glyph glyph-name="breve" unicode="&#x2d8;" 
d="M99 679q5 -53 52 -53q56 0 56 53h64q3 -54 -31 -90q-35 -36 -90 -36q-53 0 -85 36q-33 36 -31 90h65z" />
    <glyph glyph-name="dotaccent" unicode="&#x2d9;" 
d="M149 560q-59 0 -59 64t60 64t60 -64t-60 -64h-1z" />
    <glyph glyph-name="dieresis" unicode="&#xa8;" 
d="M60 560q-59 0 -59 64t60 64t60 -64t-60 -64h-1zM237 560q-59 0 -59 64t60 64t60 -64t-60 -64h-1z" />
    <glyph glyph-name="ring" unicode="&#x2da;" horiz-adv-x="400" 
d="M202 721q101 0 101 -91t-102 -91q-103 0 -103 88q0 94 103 94h1zM199 678q-39 0 -39 -50q0 -17 8 -29q11 -17 32 -17q41 0 41 48t-41 48h-1z" />
    <glyph glyph-name="cedilla" unicode="&#xb8;" 
d="M201 5l-25 -49q67 -11 67 -73q0 -45 -34 -67q-29 -20 -76 -20q-46 0 -75 18l18 56q30 -14 53 -14q32 0 32 25q0 31 -68 37l38 87h70z" />
    <glyph glyph-name="hungarumlaut" unicode="&#x2dd;" 
d="M216 689l-100 -140h-67l72 140h95zM354 689l-100 -140h-67l72 140h95z" />
    <glyph glyph-name="ogonek" unicode="&#x2db;" 
d="M175 6q-27 -45 -27 -84q0 -42 40 -42q24 0 39 6l16 -66q-20 -14 -45 -20q-20 -5 -43 -5q-97 0 -97 96q0 32 14 69q5 13 12 27l10 19h81z" />
    <glyph glyph-name="caron" unicode="&#x2c7;" 
d="M104 549l-85 140h89l41 -80h2l40 80h91l-86 -140h-92z" />
    <glyph glyph-name="emdash" unicode="&#x2014;" horiz-adv-x="1000" 
d="M970 305v-89h-940v89h940z" />
    <glyph glyph-name="AE" unicode="&#xc6;" horiz-adv-x="595" 
d="M-7 0l203 674h369v-114h-178l10 -166h162v-109h-152l10 -171h163v-114h-278l-11 184h-124l-45 -184h-129zM280 286l-8 167l-7 130h-4l-36 -159l-33 -138h88z" />
    <glyph glyph-name="ordfeminine" unicode="&#xaa;" horiz-adv-x="302" 
d="M197 263l-5 33h-2q-27 -38 -74 -38q-85 0 -85 96q0 59 47 90q40 27 104 28v8q0 40 -52 40q-37 0 -63 -19l-14 62q43 25 93 25q66 0 95 -44q23 -34 23 -93v-113q0 -44 4 -75h-71zM184 415q-31 0 -50 -11q-25 -13 -25 -41q0 -38 35 -38q23 0 34 20q3 5 4 8q2 5 2 9v53z" />
    <glyph glyph-name="Lslash" unicode="&#x141;" horiz-adv-x="382" 
d="M60 0v234l-60 -47v111l60 47v329h131v-238l93 72v-111l-93 -72v-214h172v-111h-303z" />
    <glyph glyph-name="Oslash" unicode="&#xd8;" horiz-adv-x="481" 
d="M41 -15l43 96q-31 46 -46 116q-13 63 -13 141q0 145 54 240q60 104 164 104q54 0 96 -27l31 70l69 -29l-42 -95q32 -47 47 -120q12 -59 12 -132q0 -183 -60 -274q-55 -83 -155 -83q-58 0 -101 31l-33 -74zM289 540q-16 28 -47 28q-89 0 -89 -228q0 -28 1 -52q1 -29 4 -53
h2zM188 138q16 -32 54 -32q86 0 86 236q0 59 -5 101h-2z" />
    <glyph glyph-name="OE" unicode="&#x152;" horiz-adv-x="650" 
d="M618 0h-262q-16 0 -40 -4l-21 -3q-12 -1 -21 -1q-72 0 -123 30q-47 27 -76 78q-27 46 -39 111q-11 56 -11 126q0 150 60 242q68 103 195 103q11 0 23 -1l41 -6q10 -1 17 -1h246v-114h-162v-155h153v-109h-153v-182h173v-114zM314 558q-17 10 -42 10q-48 0 -78 -53
q-34 -60 -33 -175q-1 -119 32 -179q29 -55 82 -55q26 0 39 8v444z" />
    <glyph glyph-name="ordmasculine" unicode="&#xba;" horiz-adv-x="311" 
d="M156 588q121 0 121 -163q0 -90 -41 -133q-33 -34 -81 -34q-125 0 -125 164q0 80 38 125q34 41 87 41h1zM153 519q-22 0 -32 -36q-7 -25 -7 -60q0 -96 40 -96q23 0 32 31q7 23 7 65q0 40 -7 65q-10 31 -32 31h-1z" />
    <glyph glyph-name="ae" unicode="&#xe6;" horiz-adv-x="633" 
d="M369 214q0 -65 32 -96q27 -28 75 -28q50 0 90 20l18 -91q-30 -15 -65 -21q-30 -6 -66 -6q-115 0 -154 85h-3q-50 -85 -142 -85q-59 0 -97 43q-38 44 -38 111q0 84 70 130q59 39 151 40v15q0 69 -76 69q-49 0 -90 -27l-24 87q62 37 139 37q95 0 126 -77h2q44 77 133 77
q154 0 154 -231q0 -11 -1 -27l-2 -25h-232zM242 234q-42 0 -69 -16q-37 -21 -37 -67q0 -61 50 -61q40 0 52 43q4 11 4 27v74zM485 299q1 45 -12 74q-14 32 -42 32q-29 0 -47 -37q-14 -30 -15 -69h116z" />
    <glyph glyph-name="dotlessi" unicode="&#x131;" horiz-adv-x="223" 
d="M46 0v489h131v-489h-131z" />
    <glyph glyph-name="lslash" unicode="&#x142;" horiz-adv-x="227" 
d="M48 0v275l-55 -46v108l55 47v308h131v-230l56 47v-109l-56 -47v-353h-131z" />
    <glyph glyph-name="oslash" unicode="&#xf8;" horiz-adv-x="431" 
d="M218 497q46 0 87 -25l32 58l58 -32l-40 -72q47 -67 47 -180q0 -72 -19 -125q-16 -47 -46 -78q-26 -27 -60 -40q-29 -11 -60 -11q-49 0 -91 24l-32 -57l-55 37l38 67q-48 63 -48 180q0 124 58 193q52 61 130 61h1zM255 372q-11 25 -40 25q-38 0 -54 -56q-6 -21 -9 -49
q-2 -22 -2 -47q0 -32 4 -61l3 -2zM179 118q10 -26 38 -26q34 0 50 45q14 36 14 96v32q-1 19 -4 34h-4z" />
    <glyph glyph-name="oe" unicode="&#x153;" horiz-adv-x="665" 
d="M402 203q4 -58 35 -87q26 -24 70 -24q27 0 53 5q19 4 41 11l17 -89q-27 -15 -63 -22q-29 -5 -66 -5q-105 0 -149 83h-2q-20 -41 -59 -63q-35 -20 -74 -20q-79 0 -127 66q-49 68 -49 185q0 123 58 192q51 62 129 62q89 0 126 -82h2q50 82 137 82q158 0 158 -231
q0 -20 -1 -39l-2 -24h-234zM217 397q-33 0 -48 -52q-5 -21 -8 -50q-2 -23 -2 -51q0 -69 13 -107q14 -45 46 -45q34 0 48 48q10 36 10 107q0 64 -11 101q-14 49 -47 49h-1zM519 288q2 112 -51 112q-31 0 -48 -37q-15 -31 -16 -75h115z" />
    <glyph glyph-name="germandbls" unicode="&#xdf;" horiz-adv-x="493" 
d="M46 0v432q0 79 17 130q16 47 49 80q60 58 151 58q86 0 135 -50q45 -47 45 -120q0 -48 -24 -77q-49 -28 -49 -68q0 -31 36 -73q64 -72 64 -155q0 -74 -49 -120q-48 -45 -122 -45q-49 0 -86 13l15 100q25 -12 62 -12q57 0 57 53q0 36 -43 86q-30 36 -43 62q-16 32 -16 69
q0 76 67 116q5 10 6 23q1 6 1 12v11q0 70 -63 70q-37 0 -57 -34q-22 -38 -22 -118v-443h-131z" />
    <glyph glyph-name="uni00B9" unicode="&#xb9;" horiz-adv-x="239" 
d="M98 417v307h-2l-70 -33l-17 68l99 48h84v-390h-94z" />
    <glyph glyph-name="logicalnot" unicode="&#xac;" horiz-adv-x="596" 
d="M556 421v-315h-83v233h-433v82h516z" />
    <glyph glyph-name="mu" unicode="&#xb5;" horiz-adv-x="455" 
d="M300 49q-23 -50 -75 -50q-35 0 -54 23v-39q0 -118 11 -175h-120q-16 44 -16 192v489h131v-309q0 -83 47 -83q30 0 45 35q7 14 7 44v313h131v-348q0 -52 34 -52l-12 -91q-13 -6 -40 -6q-61 0 -86 57h-3z" />
    <glyph glyph-name="trademark" unicode="&#x2122;" horiz-adv-x="539" 
d="M215 674v-64h-56v-209h-78v209h-56v64h190zM457 401l-5 120v49q1 32 0 57h-4q-9 -65 -17 -106l-19 -115h-71l-17 116q-3 40 -12 105h-4l-7 -226h-67l13 273h111l13 -65l11 -88h1q2 20 7 46q0 5 1 11l3 21l16 75h104l12 -273h-69z" />
    <glyph glyph-name="Eth" unicode="&#xd0;" horiz-adv-x="493" 
d="M0 394h60v270q54 13 133 13q124 0 188 -60q88 -79 88 -272q0 -203 -94 -286q-70 -65 -206 -65q-57 0 -109 8v301h-60v91zM265 303h-74v-200l12 -2h11q53 0 84 54q35 64 35 195q0 222 -116 222q-14 0 -26 -3v-175h74v-91z" />
    <glyph glyph-name="onehalf" unicode="&#xbd;" horiz-adv-x="667" 
d="M96 263v307h-2l-70 -33l-17 68l99 48h84v-390h-94zM91 -8l348 666h68l-348 -666h-68zM385 53l47 57l36 44q19 23 29 39q27 40 27 70q0 53 -50 53q-33 0 -64 -23l-20 69q39 33 109 33q66 0 99 -37q27 -30 27 -76q0 -48 -34 -98q-13 -20 -33 -43l-56 -58v-3h127v-80h-244
v53z" />
    <glyph glyph-name="plusminus" unicode="&#xb1;" horiz-adv-x="596" 
d="M340 566v-172h216v-82h-216v-176h-84v176h-216v82h216v172h84zM556 82v-82h-516v82h516z" />
    <glyph glyph-name="Thorn" unicode="&#xde;" horiz-adv-x="453" 
d="M58 674h128v-116l42 2q46 0 77 -9q39 -11 69 -37q59 -52 59 -152q0 -60 -20 -105q-18 -41 -50 -69q-58 -49 -140 -49q-23 0 -37 3v-142h-128v674zM186 250q8 -3 29 -3q90 0 90 106q0 101 -85 101q-21 0 -34 -4v-200z" />
    <glyph glyph-name="onequarter" unicode="&#xbc;" horiz-adv-x="667" 
d="M107 263v307h-2l-70 -33l-17 68l99 48h84v-390h-94zM117 -8l349 666h67l-347 -666h-69zM506 0v89h-147v59l140 243h92v-233h42v-69h-42v-89h-85zM506 228q0 17 1 37l2 30h-2l-12 -26q-6 -16 -12 -26l-46 -85h69v70z" />
    <glyph glyph-name="divide" unicode="&#xf7;" horiz-adv-x="596" 
d="M297 378q-57 0 -57 61t59 61q58 0 58 -61t-59 -61h-1zM40 226v82h516v-82h-516zM297 34q-57 0 -57 61t59 61q58 0 58 -61t-59 -61h-1z" />
    <glyph glyph-name="brokenbar" unicode="&#xa6;" horiz-adv-x="218" 
d="M158 174v-350h-97v350h97zM158 674v-350h-97v350h97z" />
    <glyph glyph-name="degree" unicode="&#xb0;" horiz-adv-x="287" 
d="M148 683q53 0 87 -35q32 -34 32 -84q0 -57 -40 -92q-36 -32 -82 -32q-52 0 -85 34q-34 33 -34 84q0 52 38 89q36 36 83 36h1zM85 558q0 -67 62 -67q61 0 61 69q0 72 -62 72q-61 0 -61 -74z" />
    <glyph glyph-name="thorn" unicode="&#xfe;" horiz-adv-x="447" 
d="M175 671v-242h2q32 68 98 68q70 0 109 -75q34 -68 34 -177q0 -122 -47 -191q-42 -62 -103 -62q-64 0 -90 53h-2v-237h-131v863h130zM176 179q0 -29 8 -45q13 -35 41 -35q32 0 49 43q14 38 14 101q0 143 -61 143q-31 0 -44 -39q-7 -15 -7 -36v-132z" />
    <glyph glyph-name="threequarters" unicode="&#xbe;" horiz-adv-x="667" 
d="M41 635q42 23 95 23q58 0 90 -30q27 -26 27 -64q0 -64 -65 -92v-2q76 -13 76 -92q0 -120 -152 -120q-54 0 -85 19l14 69q32 -17 67 -17q58 0 58 52q0 58 -74 58h-12v62h7q29 0 49 10q24 12 24 35q0 41 -45 41q-28 0 -59 -17zM133 -8l349 666h68l-349 -666h-68zM512 0v89
h-147v59l140 243h92v-233h42v-69h-42v-89h-85zM512 228q0 17 1 37l2 30h-2l-12 -26q-6 -15 -13 -26l-46 -85h70v70z" />
    <glyph glyph-name="uni00B2" unicode="&#xb2;" horiz-adv-x="274" 
d="M7 470l47 57l36 44q19 23 29 39q27 40 27 69q0 54 -50 54q-33 0 -64 -23l-20 69q39 33 109 33q66 0 99 -37q27 -30 27 -76q0 -48 -34 -98q-13 -19 -34 -42l-55 -59v-3h127v-80h-244v53z" />
    <glyph glyph-name="registered" unicode="&#xae;" horiz-adv-x="374" 
d="M167 449h-41v147l23 4q18 2 37 2q36 0 55 -12q15 -10 15 -32q0 -26 -33 -34v-2q23 -7 30 -38l5 -23l4 -12h-45q-3 4 -6 13l-5 18q-3 22 -25 22h-14v-53zM169 533h13q27 0 27 18q0 19 -25 19l-15 -1v-36zM188 686q66 0 113 -47q46 -48 46 -114q0 -67 -46 -114
q-47 -47 -114 -47t-113 47q-47 47 -47 114q0 66 47 114q47 47 113 47h1zM186 646q-48 0 -80 -35q-32 -36 -32 -87t32 -85q33 -35 81 -35q48 -1 81 35q32 34 32 85t-32 87q-33 35 -81 35h-1z" />
    <glyph glyph-name="minus" unicode="&#x2212;" horiz-adv-x="596" 
d="M556 308v-82h-516v82h516z" />
    <glyph glyph-name="eth" unicode="&#xf0;" horiz-adv-x="431" 
d="M218 92q31 0 44 47q10 36 10 102q0 44 -1 63q-2 32 -8 51q-14 45 -45 45q-33 0 -48 -56q-6 -21 -9 -50q-2 -23 -2 -48q0 -69 13 -109q15 -45 45 -45h1zM57 547l81 44q-10 10 -28 25l-34 26l75 66q47 -31 85 -66l93 48l27 -46l-80 -41q24 -25 46 -58q19 -29 39 -68
q22 -45 32 -102q9 -51 9 -115q0 -77 -19 -133q-16 -50 -47 -82q-26 -28 -61 -42q-30 -11 -62 -11q-184 0 -184 251q0 108 47 173q41 56 104 66q32 5 56 -7l2 4q-24 46 -56 75l-97 -51z" />
    <glyph glyph-name="multiply" unicode="&#xd7;" horiz-adv-x="596" 
d="M96 526l202 -205l202 205l56 -59l-199 -204l199 -202l-58 -61l-200 204l-200 -204l-58 61l200 202l-200 204z" />
    <glyph glyph-name="uni00B3" unicode="&#xb3;" horiz-adv-x="260" 
d="M20 789q42 23 95 23q58 0 90 -30q27 -26 27 -64q0 -64 -65 -92v-2q76 -13 76 -91q0 -121 -152 -121q-54 0 -85 19l14 69q32 -17 67 -17q58 0 58 53q0 57 -74 57h-12v62h7q29 0 49 10q24 12 24 35q0 41 -45 41q-28 0 -59 -17z" />
    <glyph glyph-name="copyright" unicode="&#xa9;" horiz-adv-x="677" 
d="M341 648q127 0 216 -90t89 -218q0 -129 -89 -219q-89 -91 -217 -91t-219 91q-90 90 -90 219q0 128 90 218q91 90 219 90h1zM338 592q-100 0 -171 -74t-71 -179t71 -179q71 -73 172 -74t172 74q70 74 70 179t-70 179q-71 74 -172 74h-1zM459 440q-6 3 -14 6q-10 4 -20 7
q-29 8 -59 8q-126 0 -126 -125q0 -124 122 -124q53 0 95 21l15 -52q-52 -28 -120 -28q-84 0 -134 53q-48 50 -48 128q0 85 56 136q55 50 143 50q74 0 105 -26z" />
    <glyph glyph-name="Aacute" unicode="&#xc1;" horiz-adv-x="458" 
d="M165 154l-30 -154h-127l146 674h157l131 -674h-128l-28 154h-121zM274 256l-22 141l-11 75q-3 17 -6 41l-5 37h-3l-24 -153l-25 -141h96zM388 823l-122 -113h-93l82 113h133z" />
    <glyph glyph-name="Acircumflex" unicode="&#xc2;" horiz-adv-x="458" 
d="M165 154l-30 -154h-127l146 674h157l131 -674h-128l-28 154h-121zM274 256l-22 141l-11 75q-3 17 -6 41l-5 37h-3l-24 -153l-25 -141h96zM283 820l84 -110h-96l-39 52h-2l-38 -52h-93l81 110h103z" />
    <glyph glyph-name="Adieresis" unicode="&#xc4;" horiz-adv-x="458" 
d="M165 154l-30 -154h-127l146 674h157l131 -674h-128l-28 154h-121zM274 256l-22 141l-11 75q-3 17 -6 41l-5 37h-3l-24 -153l-25 -141h96zM143 713q-58 0 -58 64q0 63 59 63t59 -63q0 -64 -59 -64h-1zM327 713q-59 0 -59 64q0 63 60 63q59 0 59 -63q0 -64 -59 -64h-1z" />
    <glyph glyph-name="Agrave" unicode="&#xc0;" horiz-adv-x="458" 
d="M165 154l-30 -154h-127l146 674h157l131 -674h-128l-28 154h-121zM274 256l-22 141l-11 75q-3 17 -6 41l-5 37h-3l-24 -153l-25 -141h96zM216 823l82 -113h-93l-122 113h133z" />
    <glyph glyph-name="Aring" unicode="&#xc5;" horiz-adv-x="458" 
d="M165 154l-30 -154h-127l146 674h157l131 -674h-128l-28 154h-121zM274 256l-22 141l-11 75q-3 17 -6 41l-5 37h-3l-24 -153l-25 -141h96zM232 884q52 0 80 -27q24 -25 24 -64t-25 -64q-29 -29 -80 -29q-53 0 -82 28q-25 25 -25 62q0 39 26 65q30 29 81 29h1zM228 837
q-36 0 -36 -46q0 -43 37 -43q39 0 39 44q0 45 -39 45h-1z" />
    <glyph glyph-name="Atilde" unicode="&#xc3;" horiz-adv-x="458" 
d="M165 154l-30 -154h-127l146 674h157l131 -674h-128l-28 154h-121zM274 256l-22 141l-11 75q-3 17 -6 41l-5 37h-3l-24 -153l-25 -141h96zM118 718q-3 115 66 115q27 0 53 -17t37 -17q19 0 24 38h58q3 -115 -69 -115q-29 0 -54 16l-18 11q-9 4 -17 4q-18 0 -21 -35h-59z
" />
    <glyph glyph-name="Ccedilla" unicode="&#xc7;" horiz-adv-x="402" 
d="M380 10q-32 -16 -89 -16l-20 -38q67 -11 67 -72q0 -45 -34 -67q-29 -20 -76 -20q-44 0 -75 18l19 56q28 -14 52 -14q32 0 32 25q0 31 -68 37l37 80q-100 21 -151 109q-49 83 -49 219q0 91 24 162q22 65 63 110q74 81 184 81q32 0 58 -6q21 -5 33 -12l-21 -110
q-30 13 -61 13q-61 0 -98 -53q-43 -61 -43 -178q0 -115 40 -172q37 -52 100 -52q31 0 63 10z" />
    <glyph glyph-name="Eacute" unicode="&#xc9;" horiz-adv-x="394" 
d="M342 296h-153v-182h173v-114h-304v674h293v-114h-162v-155h153v-109zM363 823l-122 -113h-93l82 113h133z" />
    <glyph glyph-name="Ecircumflex" unicode="&#xca;" horiz-adv-x="394" 
d="M342 296h-153v-182h173v-114h-304v674h293v-114h-162v-155h153v-109zM259 820l84 -110h-96l-39 52h-2l-38 -52h-93l81 110h103z" />
    <glyph glyph-name="Edieresis" unicode="&#xcb;" horiz-adv-x="394" 
d="M342 296h-153v-182h173v-114h-304v674h293v-114h-162v-155h153v-109zM114 715q-58 0 -58 64q0 63 59 63t59 -63q0 -64 -59 -64h-1zM298 715q-59 0 -59 64q0 63 60 63q59 0 59 -63q0 -64 -59 -64h-1z" />
    <glyph glyph-name="Egrave" unicode="&#xc8;" horiz-adv-x="394" 
d="M342 296h-153v-182h173v-114h-304v674h293v-114h-162v-155h153v-109zM195 823l82 -113h-93l-122 113h133z" />
    <glyph glyph-name="Iacute" unicode="&#xcd;" horiz-adv-x="248" 
d="M189 674v-674h-131v674h131zM275 823l-122 -113h-93l82 113h133z" />
    <glyph glyph-name="Icircumflex" unicode="&#xce;" horiz-adv-x="248" 
d="M189 674v-674h-131v674h131zM174 820l84 -110h-96l-39 52h-2l-38 -52h-93l81 110h103z" />
    <glyph glyph-name="Idieresis" unicode="&#xcf;" horiz-adv-x="248" 
d="M189 674v-674h-131v674h131zM30 715q-58 0 -58 64q0 63 59 63t59 -63q0 -64 -59 -64h-1zM214 715q-59 0 -59 64q0 63 60 63q59 0 59 -63q0 -64 -59 -64h-1z" />
    <glyph glyph-name="Igrave" unicode="&#xcc;" horiz-adv-x="248" 
d="M189 674v-674h-131v674h131zM102 823l82 -113h-93l-122 113h133z" />
    <glyph glyph-name="Ntilde" unicode="&#xd1;" horiz-adv-x="516" 
d="M58 0v674h120l104 -265q38 -93 72 -196h2l-12 221q-1 48 -1 91v149h115v-674h-120l-103 257q-43 105 -69 202h-2q2 -30 3 -58q2 -35 3 -70l2 -84q1 -47 1 -95v-152h-115zM142 718q-3 115 66 115q27 0 53 -17t37 -17q19 0 24 38h58q3 -115 -69 -115q-29 0 -54 16l-18 11
q-9 4 -17 4q-18 0 -21 -35h-59z" />
    <glyph glyph-name="Oacute" unicode="&#xd3;" horiz-adv-x="481" 
d="M238 -8q-108 0 -164 104q-49 92 -49 243q0 147 55 241q61 102 168 102q58 0 101 -30q38 -28 64 -79q22 -45 33 -107q10 -55 10 -117q0 -183 -61 -274q-55 -83 -156 -83h-1zM243 106q40 0 60 67q17 60 17 170q0 100 -16 157q-20 68 -62 68q-41 0 -63 -68q-19 -61 -18 -160
q-2 -106 18 -167q21 -67 63 -67h1zM400 823l-122 -113h-93l82 113h133z" />
    <glyph glyph-name="Ocircumflex" unicode="&#xd4;" horiz-adv-x="481" 
d="M238 -8q-108 0 -164 104q-49 92 -49 243q0 147 55 241q61 102 168 102q58 0 101 -30q38 -28 64 -79q22 -45 33 -107q10 -55 10 -117q0 -183 -61 -274q-55 -83 -156 -83h-1zM243 106q40 0 60 67q17 60 17 170q0 100 -16 157q-20 68 -62 68q-41 0 -63 -68q-19 -61 -18 -160
q-2 -106 18 -167q21 -67 63 -67h1zM291 820l84 -110h-96l-39 52h-2l-38 -52h-93l81 110h103z" />
    <glyph glyph-name="Odieresis" unicode="&#xd6;" horiz-adv-x="481" 
d="M238 -8q-108 0 -164 104q-49 92 -49 243q0 147 55 241q61 102 168 102q58 0 101 -30q38 -28 64 -79q22 -45 33 -107q10 -55 10 -117q0 -183 -61 -274q-55 -83 -156 -83h-1zM243 106q40 0 60 67q17 60 17 170q0 100 -16 157q-20 68 -62 68q-41 0 -63 -68q-19 -61 -18 -160
q-2 -106 18 -167q21 -67 63 -67h1zM147 715q-58 0 -58 64q0 63 59 63t59 -63q0 -64 -59 -64h-1zM331 715q-59 0 -59 64q0 63 60 63q59 0 59 -63q0 -64 -59 -64h-1z" />
    <glyph glyph-name="Ograve" unicode="&#xd2;" horiz-adv-x="481" 
d="M238 -8q-108 0 -164 104q-49 92 -49 243q0 147 55 241q61 102 168 102q58 0 101 -30q38 -28 64 -79q22 -45 33 -107q10 -55 10 -117q0 -183 -61 -274q-55 -83 -156 -83h-1zM243 106q40 0 60 67q17 60 17 170q0 100 -16 157q-20 68 -62 68q-41 0 -63 -68q-19 -61 -18 -160
q-2 -106 18 -167q21 -67 63 -67h1zM223 823l82 -113h-93l-122 113h133z" />
    <glyph glyph-name="Otilde" unicode="&#xd5;" horiz-adv-x="481" 
d="M238 -8q-108 0 -164 104q-49 92 -49 243q0 147 55 241q61 102 168 102q58 0 101 -30q38 -28 64 -79q22 -45 33 -107q10 -55 10 -117q0 -183 -61 -274q-55 -83 -156 -83h-1zM243 106q40 0 60 67q17 60 17 170q0 100 -16 157q-20 68 -62 68q-41 0 -63 -68q-19 -61 -18 -160
q-2 -106 18 -167q21 -67 63 -67h1zM122 713q-3 115 66 115q27 0 53 -17t37 -17q19 0 24 38h58q3 -115 -69 -115q-29 0 -54 16l-18 11q-9 4 -17 4q-18 0 -21 -35h-59z" />
    <glyph glyph-name="Scaron" unicode="&#x160;" horiz-adv-x="394" 
d="M43 134q47 -26 111 -26q92 0 92 76q0 34 -22 60q-17 19 -65 50q-65 40 -98 92q-29 46 -29 96q0 85 54 140q57 58 158 58q65 0 106 -24l-21 -113q-36 23 -85 23q-83 0 -83 -69q0 -50 92 -106q64 -39 95 -90q27 -46 27 -103q0 -92 -62 -148q-61 -56 -160 -56q-81 0 -129 27
zM159 710l-84 110h96l39 -52h2l38 52h93l-81 -110h-103z" />
    <glyph glyph-name="Uacute" unicode="&#xda;" horiz-adv-x="500" 
d="M185 674v-438q0 -69 19 -102q16 -27 45 -27q31 0 47 26q18 31 18 103v438h131v-415q0 -267 -195 -267q-103 0 -151 70q-45 65 -45 196v416h131zM396 823l-122 -113h-93l82 113h133z" />
    <glyph glyph-name="Ucircumflex" unicode="&#xdb;" horiz-adv-x="500" 
d="M185 674v-438q0 -69 19 -102q16 -27 45 -27q31 0 47 26q18 31 18 103v438h131v-415q0 -267 -195 -267q-103 0 -151 70q-45 65 -45 196v416h131zM304 820l84 -110h-96l-39 52h-2l-38 -52h-93l81 110h103z" />
    <glyph glyph-name="Udieresis" unicode="&#xdc;" horiz-adv-x="500" 
d="M185 674v-438q0 -69 19 -102q16 -27 45 -27q31 0 47 26q18 31 18 103v438h131v-415q0 -267 -195 -267q-103 0 -151 70q-45 65 -45 196v416h131zM156 715q-58 0 -58 64q0 63 59 63t59 -63q0 -64 -59 -64h-1zM340 715q-59 0 -59 64q0 63 60 63q59 0 59 -63q0 -64 -59 -64
h-1z" />
    <glyph glyph-name="Ugrave" unicode="&#xd9;" horiz-adv-x="500" 
d="M185 674v-438q0 -69 19 -102q16 -27 45 -27q31 0 47 26q18 31 18 103v438h131v-415q0 -267 -195 -267q-103 0 -151 70q-45 65 -45 196v416h131zM235 823l82 -113h-93l-122 113h133z" />
    <glyph glyph-name="Yacute" unicode="&#xdd;" horiz-adv-x="402" 
d="M133 0v258l-148 416h140l45 -161q22 -72 36 -143h2q6 35 14 73q7 34 17 73l40 158h136l-151 -411v-263h-131zM363 823l-122 -113h-93l82 113h133z" />
    <glyph glyph-name="Ydieresis" unicode="&#x178;" horiz-adv-x="402" 
d="M133 0v258l-148 416h140l45 -161q22 -72 36 -143h2q6 35 14 73q7 34 17 73l40 158h136l-151 -411v-263h-131zM113 713q-58 0 -58 64q0 63 59 63t59 -63q0 -64 -59 -64h-1zM297 713q-59 0 -59 64q0 63 60 63q59 0 59 -63q0 -64 -59 -64h-1z" />
    <glyph glyph-name="Zcaron" unicode="&#x17d;" horiz-adv-x="387" 
d="M11 76l213 481v3h-193v114h341v-96l-204 -461v-3h203v-114h-360v76zM153 710l-84 110h96l39 -52h2l38 52h93l-81 -110h-103z" />
    <glyph glyph-name="aacute" unicode="&#xe1;" horiz-adv-x="422" 
d="M376 112q0 -66 7 -112h-117l-7 48h-3q-38 -56 -108 -56q-56 0 -92 42q-37 42 -37 106q0 90 70 139q61 42 154 43v11q0 67 -69 67q-52 0 -100 -29l-24 89q12 6 26 12q17 7 35 12q46 13 92 13q101 0 142 -64q17 -27 25 -66q6 -32 6 -74v-181zM247 238q-42 -1 -68 -17
q-36 -21 -36 -67q0 -66 47 -66q41 0 54 42q3 9 3 23v85zM344 689l-101 -140h-82l69 140h114z" />
    <glyph glyph-name="acircumflex" unicode="&#xe2;" horiz-adv-x="422" 
d="M376 112q0 -66 7 -112h-117l-7 48h-3q-38 -56 -108 -56q-56 0 -92 42q-37 42 -37 106q0 90 70 139q61 42 154 43v11q0 67 -69 67q-52 0 -100 -29l-24 89q12 6 26 12q17 7 35 12q46 13 92 13q101 0 142 -64q17 -27 25 -66q6 -32 6 -74v-181zM247 238q-42 -1 -68 -17
q-36 -21 -36 -67q0 -66 47 -66q41 0 54 42q3 9 3 23v85zM256 689l85 -140h-89l-41 80h-2l-39 -80h-91l86 140h91z" />
    <glyph glyph-name="adieresis" unicode="&#xe4;" horiz-adv-x="422" 
d="M376 112q0 -66 7 -112h-117l-7 48h-3q-38 -56 -108 -56q-56 0 -92 42q-37 42 -37 106q0 90 70 139q61 42 154 43v11q0 67 -69 67q-52 0 -100 -29l-24 89q12 6 26 12q17 7 35 12q46 13 92 13q101 0 142 -64q17 -27 25 -66q6 -32 6 -74v-181zM247 238q-42 -1 -68 -17
q-36 -21 -36 -67q0 -66 47 -66q41 0 54 42q3 9 3 23v85zM121 560q-59 0 -59 64t60 64t60 -64t-60 -64h-1zM298 560q-59 0 -59 64t60 64t60 -64t-60 -64h-1z" />
    <glyph glyph-name="agrave" unicode="&#xe0;" horiz-adv-x="422" 
d="M376 112q0 -66 7 -112h-117l-7 48h-3q-38 -56 -108 -56q-56 0 -92 42q-37 42 -37 106q0 90 70 139q61 42 154 43v11q0 67 -69 67q-52 0 -100 -29l-24 89q12 6 26 12q17 7 35 12q46 13 92 13q101 0 142 -64q17 -27 25 -66q6 -32 6 -74v-181zM247 238q-42 -1 -68 -17
q-36 -21 -36 -67q0 -66 47 -66q41 0 54 42q3 9 3 23v85zM193 689l69 -140h-82l-101 140h114z" />
    <glyph glyph-name="aring" unicode="&#xe5;" horiz-adv-x="422" 
d="M376 112q0 -66 7 -112h-117l-7 48h-3q-38 -56 -108 -56q-56 0 -92 42q-37 42 -37 106q0 90 70 139q61 42 154 43v11q0 67 -69 67q-52 0 -100 -29l-24 89q12 6 26 12q17 7 35 12q46 13 92 13q101 0 142 -64q17 -27 25 -66q6 -32 6 -74v-181zM247 238q-42 -1 -68 -17
q-36 -21 -36 -67q0 -66 47 -66q41 0 54 42q3 9 3 23v85zM214 721q101 0 101 -91t-102 -91q-103 0 -103 88q0 94 103 94h1zM211 678q-39 0 -39 -50q0 -17 8 -29q11 -17 32 -17q41 0 41 48t-41 48h-1z" />
    <glyph glyph-name="atilde" unicode="&#xe3;" horiz-adv-x="422" 
d="M376 112q0 -66 7 -112h-117l-7 48h-3q-38 -56 -108 -56q-56 0 -92 42q-37 42 -37 106q0 90 70 139q61 42 154 43v11q0 67 -69 67q-52 0 -100 -29l-24 89q12 6 26 12q17 7 35 12q46 13 92 13q101 0 142 -64q17 -27 25 -66q6 -32 6 -74v-181zM247 238q-42 -1 -68 -17
q-36 -21 -36 -67q0 -66 47 -66q41 0 54 42q3 9 3 23v85zM89 557q0 51 18 83q19 34 53 34q16 0 32 -6q6 -2 13 -6l15 -7l16 -10q10 -5 19 -5q21 0 21 37h58q0 -114 -70 -114q-13 0 -28 5l-25 11q-5 2 -11 6l-9 6q-10 5 -19 5q-23 0 -23 -39h-60z" />
    <glyph glyph-name="ccedilla" unicode="&#xe7;" horiz-adv-x="323" 
d="M317 9q-11 -5 -31 -9q-24 -5 -47 -6l-20 -38q67 -11 67 -73q0 -45 -34 -67q-29 -20 -76 -20q-44 0 -75 18l19 56q28 -14 52 -14q32 0 32 25q0 31 -68 37l37 84q-144 39 -144 237q0 114 61 185q62 71 163 71q45 0 71 -13l-17 -103l-20 6q-14 3 -28 3q-100 0 -100 -144
q0 -143 98 -143q26 0 49 10z" />
    <glyph glyph-name="eacute" unicode="&#xe9;" horiz-adv-x="419" 
d="M156 198q1 -104 103 -104q25 0 51 5q21 4 42 11l17 -93q-54 -23 -133 -23q-207 0 -207 241q0 120 57 193q54 69 139 69q166 0 166 -231q0 -24 -1 -42l-3 -26h-231zM272 290q0 111 -55 111q-30 0 -46 -37q-14 -31 -15 -74h116zM362 689l-101 -140h-82l69 140h114z" />
    <glyph glyph-name="ecircumflex" unicode="&#xea;" horiz-adv-x="419" 
d="M156 198q1 -104 103 -104q25 0 51 5q21 4 42 11l17 -93q-54 -23 -133 -23q-207 0 -207 241q0 120 57 193q54 69 139 69q166 0 166 -231q0 -24 -1 -42l-3 -26h-231zM272 290q0 111 -55 111q-30 0 -46 -37q-14 -31 -15 -74h116zM270 689l85 -140h-89l-41 80h-2l-39 -80h-91
l86 140h91z" />
    <glyph glyph-name="edieresis" unicode="&#xeb;" horiz-adv-x="419" 
d="M156 198q1 -104 103 -104q25 0 51 5q21 4 42 11l17 -93q-54 -23 -133 -23q-207 0 -207 241q0 120 57 193q54 69 139 69q166 0 166 -231q0 -24 -1 -42l-3 -26h-231zM272 290q0 111 -55 111q-30 0 -46 -37q-14 -31 -15 -74h116zM139 560q-59 0 -59 64t60 64t60 -64t-60 -64
h-1zM316 560q-59 0 -59 64t60 64t60 -64t-60 -64h-1z" />
    <glyph glyph-name="egrave" unicode="&#xe8;" horiz-adv-x="419" 
d="M156 198q1 -104 103 -104q25 0 51 5q21 4 42 11l17 -93q-54 -23 -133 -23q-207 0 -207 241q0 120 57 193q54 69 139 69q166 0 166 -231q0 -24 -1 -42l-3 -26h-231zM272 290q0 111 -55 111q-30 0 -46 -37q-14 -31 -15 -74h116zM208 689l69 -140h-82l-101 140h114z" />
    <glyph glyph-name="iacute" unicode="&#xed;" horiz-adv-x="223" 
d="M46 0v489h131v-489h-131zM249 689l-101 -140h-82l69 140h114z" />
    <glyph glyph-name="icircumflex" unicode="&#xee;" horiz-adv-x="223" 
d="M46 0v489h131v-489h-131zM158 689l85 -140h-89l-41 80h-2l-39 -80h-91l86 140h91z" />
    <glyph glyph-name="idieresis" unicode="&#xef;" horiz-adv-x="223" 
d="M46 0v489h131v-489h-131zM22 560q-59 0 -59 64t60 64t60 -64t-60 -64h-1zM199 560q-59 0 -59 64t60 64t60 -64t-60 -64h-1z" />
    <glyph glyph-name="igrave" unicode="&#xec;" horiz-adv-x="223" 
d="M46 0v489h131v-489h-131zM90 689l69 -140h-82l-101 140h114z" />
    <glyph glyph-name="ntilde" unicode="&#xf1;" horiz-adv-x="458" 
d="M46 342q0 35 -1 76l-3 71h113l7 -56h2q42 64 118 64q67 0 100 -51q30 -46 30 -132v-314h-131v306q0 36 -10 56q-12 25 -38 25q-35 0 -49 -44q-7 -17 -7 -45v-298h-131v342zM111 557q0 51 18 83q19 34 53 34q16 0 32 -6q6 -2 13 -6l15 -7l16 -10q10 -5 19 -5q21 0 21 37
h58q0 -114 -70 -114q-13 0 -28 5l-25 11q-5 2 -11 6l-5 3q-2 1 -4 3q-10 5 -19 5q-23 0 -23 -39h-60z" />
    <glyph glyph-name="oacute" unicode="&#xf3;" horiz-adv-x="431" 
d="M216 -8q-187 0 -187 251q0 124 58 193q52 61 131 61q87 0 136 -68q49 -67 49 -183q0 -72 -19 -125q-16 -47 -47 -78q-26 -27 -60 -40q-29 -11 -60 -11h-1zM219 92q29 0 43 50q11 39 11 103q0 62 -11 102q-14 50 -45 50q-32 0 -47 -50q-11 -39 -11 -102q0 -70 12 -108
q15 -45 47 -45h1zM357 689l-101 -140h-82l69 140h114z" />
    <glyph glyph-name="ocircumflex" unicode="&#xf4;" horiz-adv-x="431" 
d="M216 -8q-187 0 -187 251q0 124 58 193q52 61 131 61q87 0 136 -68q49 -67 49 -183q0 -72 -19 -125q-16 -47 -47 -78q-26 -27 -60 -40q-29 -11 -60 -11h-1zM219 92q29 0 43 50q11 39 11 103q0 62 -11 102q-14 50 -45 50q-32 0 -47 -50q-11 -39 -11 -102q0 -70 12 -108
q15 -45 47 -45h1zM262 689l85 -140h-89l-41 80h-2l-39 -80h-91l86 140h91z" />
    <glyph glyph-name="odieresis" unicode="&#xf6;" horiz-adv-x="431" 
d="M216 -8q-187 0 -187 251q0 124 58 193q52 61 131 61q87 0 136 -68q49 -67 49 -183q0 -72 -19 -125q-16 -47 -47 -78q-26 -27 -60 -40q-29 -11 -60 -11h-1zM219 92q29 0 43 50q11 39 11 103q0 62 -11 102q-14 50 -45 50q-32 0 -47 -50q-11 -39 -11 -102q0 -70 12 -108
q15 -45 47 -45h1zM126 560q-59 0 -59 64t60 64t60 -64t-60 -64h-1zM303 560q-59 0 -59 64t60 64t60 -64t-60 -64h-1z" />
    <glyph glyph-name="ograve" unicode="&#xf2;" horiz-adv-x="431" 
d="M216 -8q-187 0 -187 251q0 124 58 193q52 61 131 61q87 0 136 -68q49 -67 49 -183q0 -72 -19 -125q-16 -47 -47 -78q-26 -27 -60 -40q-29 -11 -60 -11h-1zM219 92q29 0 43 50q11 39 11 103q0 62 -11 102q-14 50 -45 50q-32 0 -47 -50q-11 -39 -11 -102q0 -70 12 -108
q15 -45 47 -45h1zM199 689l69 -140h-82l-101 140h114z" />
    <glyph glyph-name="otilde" unicode="&#xf5;" horiz-adv-x="431" 
d="M216 -8q-187 0 -187 251q0 124 58 193q52 61 131 61q87 0 136 -68q49 -67 49 -183q0 -72 -19 -125q-16 -47 -47 -78q-26 -27 -60 -40q-29 -11 -60 -11h-1zM219 92q29 0 43 50q11 39 11 103q0 62 -11 102q-14 50 -45 50q-32 0 -47 -50q-11 -39 -11 -102q0 -70 12 -108
q15 -45 47 -45h1zM94 557q0 51 18 83q19 34 53 34q16 0 32 -6q6 -2 13 -6l15 -7l16 -10q10 -5 19 -5q21 0 21 37h58q0 -114 -70 -114q-13 0 -28 5l-25 11q-5 2 -11 6l-9 6q-10 5 -19 5q-23 0 -23 -39h-60z" />
    <glyph glyph-name="scaron" unicode="&#x161;" horiz-adv-x="324" 
d="M42 118q41 -26 88 -26q53 0 53 43q0 33 -57 67q-55 31 -79 70q-20 32 -20 70q0 67 44 111q45 44 117 44q53 0 99 -23l-23 -96q-35 20 -68 20q-49 0 -49 -41q0 -29 57 -62q99 -56 99 -147q0 -73 -49 -114q-46 -40 -124 -40q-75 0 -111 28zM117 549l-85 140h89l41 -80h2
l40 80h91l-86 -140h-92z" />
    <glyph glyph-name="uacute" unicode="&#xfa;" horiz-adv-x="452" 
d="M404 149q0 -35 1 -77l3 -72h-113l-7 52h-2q-42 -60 -114 -60q-130 0 -130 201v296h131v-282q0 -105 49 -105q31 0 43 33q8 16 8 42v312h131v-340zM366 689l-101 -140h-82l69 140h114z" />
    <glyph glyph-name="ucircumflex" unicode="&#xfb;" horiz-adv-x="452" 
d="M404 149q0 -35 1 -77l3 -72h-113l-7 52h-2q-42 -60 -114 -60q-130 0 -130 201v296h131v-282q0 -105 49 -105q31 0 43 33q8 16 8 42v312h131v-340zM272 689l85 -140h-89l-41 80h-2l-39 -80h-91l86 140h91z" />
    <glyph glyph-name="udieresis" unicode="&#xfc;" horiz-adv-x="452" 
d="M404 149q0 -35 1 -77l3 -72h-113l-7 52h-2q-42 -60 -114 -60q-130 0 -130 201v296h131v-282q0 -105 49 -105q31 0 43 33q8 16 8 42v312h131v-340zM139 560q-59 0 -59 64t60 64t60 -64t-60 -64h-1zM316 560q-59 0 -59 64t60 64t60 -64t-60 -64h-1z" />
    <glyph glyph-name="ugrave" unicode="&#xf9;" horiz-adv-x="452" 
d="M404 149q0 -35 1 -77l3 -72h-113l-7 52h-2q-42 -60 -114 -60q-130 0 -130 201v296h131v-282q0 -105 49 -105q31 0 43 33q8 16 8 42v312h131v-340zM211 689l69 -140h-82l-101 140h114z" />
    <glyph glyph-name="yacute" unicode="&#xfd;" horiz-adv-x="391" 
d="M146 489l48 -255l14 -82h2l11 80l41 257h128l-100 -378q-10 -38 -20 -69q-11 -37 -24 -67q-29 -70 -65 -113q-27 -33 -63 -55q-27 -17 -48 -22l-39 113q35 13 64 40q26 25 41 59l5 11q2 5 2 10q0 4 -1 9l-137 462h141zM335 689l-101 -140h-82l69 140h114z" />
    <glyph glyph-name="ydieresis" unicode="&#xff;" horiz-adv-x="391" 
d="M146 489l48 -255l14 -82h2l11 80l41 257h128l-100 -378q-10 -38 -20 -69q-11 -37 -24 -67q-29 -70 -65 -113q-27 -33 -63 -55q-27 -17 -48 -22l-39 113q35 13 64 40q26 25 41 59l5 11q2 5 2 10q0 4 -1 9l-137 462h141zM110 560q-59 0 -59 64t60 64t60 -64t-60 -64h-1z
M287 560q-59 0 -59 64t60 64t60 -64t-60 -64h-1z" />
    <glyph glyph-name="zcaron" unicode="&#x17e;" horiz-adv-x="351" 
d="M18 82l120 218l25 43q15 24 21 36v3h-151v107h293v-89l-163 -290v-3h168v-107h-313v82zM141 549l-85 140h89l41 -80h2l40 80h91l-86 -140h-92z" />
    <glyph glyph-name="uniF6E4" unicode="&#xf6e4;" horiz-adv-x="267" 
d="M97 365v61q-47 3 -72 16l14 73q36 -18 71 -18q43 0 43 33q0 26 -48 52q-79 43 -79 107q0 76 80 102v61h59v-54q41 -3 66 -17l-15 -70q-12 6 -26 11q-17 5 -33 5q-42 0 -42 -30q0 -23 51 -50q76 -41 76 -111q0 -84 -86 -105v-66h-59z" />
    <glyph glyph-name="uni207D" unicode="&#x207d;" horiz-adv-x="163" 
d="M165 847q-29 -45 -45 -100q-18 -65 -18 -144q0 -76 18 -140q16 -55 45 -102h-66q-30 39 -48 94q-22 68 -22 148t22 149q19 56 48 95h66z" />
    <glyph glyph-name="uni207E" unicode="&#x207e;" horiz-adv-x="163" 
d="M-2 361q29 46 45 102q18 66 18 143q0 76 -18 140q-16 55 -45 101h66q30 -38 48 -93q22 -68 22 -149q0 -78 -22 -147q-18 -56 -48 -97h-66z" />
    <glyph glyph-name="uniF730" unicode="&#xf730;" horiz-adv-x="431" 
d="M214 -8q-76 0 -126 59q-59 68 -59 194q0 127 59 195q51 59 127 59q77 0 128 -59q59 -68 59 -195q0 -126 -59 -194q-51 -59 -128 -59h-1zM216 92q64 0 64 153q0 154 -65 154q-64 0 -64 -154q0 -153 64 -153h1z" />
    <glyph glyph-name="uniF731" unicode="&#xf731;" horiz-adv-x="321" 
d="M129 0v371h-2l-92 -49l-22 98l143 70h103v-490h-130z" />
    <glyph glyph-name="uniF732" unicode="&#xf732;" horiz-adv-x="365" 
d="M18 0v77l44 41l51 50q26 28 43 51q40 55 40 100q0 76 -74 76q-36 0 -76 -23l-31 85q29 19 65 31q43 14 85 14q69 0 111 -42q44 -44 44 -117q0 -61 -34 -116q-26 -43 -84 -96l-26 -25v-3q20 2 44 3q28 2 43 2h80v-108h-325z" />
    <glyph glyph-name="uniF733" unicode="&#xf733;" horiz-adv-x="357" 
d="M29 -10q23 -7 62 -7q114 0 114 88q0 81 -99 81h-21q-12 0 -19 -1l-1 100l27 2q43 4 71 24q31 22 31 56q0 59 -69 59q-42 0 -82 -18l-18 96q48 29 128 29q72 0 117 -39t45 -100q0 -53 -31 -92q-29 -37 -72 -48v-2q123 -24 123 -148q0 -88 -69 -142q-65 -51 -157 -51
q-55 0 -93 12z" />
    <glyph glyph-name="uniF734" unicode="&#xf734;" horiz-adv-x="419" 
d="M338 39v-159h-112v159h-214v88l200 364h126v-350h64v-102h-64zM226 315q1 26 3 48h-2q-15 -47 -43 -102l-62 -117v-3h104v174z" />
    <glyph glyph-name="uniF735" unicode="&#xf735;" horiz-adv-x="361" 
d="M32 -11q6 -1 11 -2l14 -2q17 -2 37 -2q44 0 75 24q35 27 35 72t-26 67q-39 38 -142 36l49 308h248l-15 -112h-147l-18 -109q86 -10 137 -59q45 -45 45 -120q0 -96 -67 -155q-65 -58 -165 -58q-50 0 -82 12z" />
    <glyph glyph-name="uniF736" unicode="&#xf736;" horiz-adv-x="432" 
d="M371 516q-88 -8 -141 -55q-46 -40 -60 -103l3 -1q29 43 86 43q59 0 99 -48q44 -54 44 -144q0 -97 -55 -158q-53 -58 -130 -58q-81 0 -131 58q-56 65 -56 189q0 155 85 258q91 108 246 117zM219 85q22 0 36 24q17 29 17 87q0 112 -59 112q-19 0 -37 -21q-16 -21 -16 -78
q0 -67 18 -98q14 -26 40 -26h1z" />
    <glyph glyph-name="uniF737" unicode="&#xf737;" horiz-adv-x="360" 
d="M342 416q-4 -24 -28 -90q-23 -65 -56 -146q-34 -86 -67 -162q-37 -83 -65 -135l-121 15q56 103 120 249q30 70 52 128q24 63 34 101v2h-194v112h325v-74z" />
    <glyph glyph-name="uniF738" unicode="&#xf738;" horiz-adv-x="440" 
d="M312 323q45 -26 69 -61q28 -40 28 -90q0 -84 -58 -134q-54 -46 -133 -46q-83 0 -135 47t-52 122q0 48 27 89q24 37 68 65v3q-77 54 -77 133q0 77 53 123q51 44 128 44q68 0 114 -39q50 -43 50 -117q0 -83 -82 -135v-4zM169 459q0 -59 65 -95q43 39 43 95q0 74 -51 76
q-57 2 -57 -76zM222 79q63 0 63 80q0 38 -22 68q-19 25 -54 44q-54 -35 -54 -105q0 -35 18 -60q19 -27 48 -27h1z" />
    <glyph glyph-name="uniF739" unicode="&#xf739;" horiz-adv-x="432" 
d="M47 -25q94 9 149 53q49 39 64 104l-2 1q-27 -39 -87 -39q-56 0 -96 49q-45 54 -45 144q0 95 55 155q53 57 132 57q78 0 129 -61q55 -66 55 -181q0 -166 -90 -269q-92 -105 -252 -110zM221 180q19 0 34 20q16 19 16 78q0 126 -58 126q-23 0 -38 -23q-17 -29 -17 -86
q0 -115 62 -115h1z" />
    <glyph glyph-name="uniF6E2" unicode="&#xf6e2;" horiz-adv-x="152" 
d="M-1 343q15 45 26 87q12 46 17 83l93 6q-17 -49 -34 -88q-20 -47 -42 -82z" />
    <glyph glyph-name="uniF6E8" unicode="&#xf6e8;" horiz-adv-x="152" 
d="M75 412q-52 0 -52 59t54 59q53 0 53 -59t-54 -59h-1z" />
    <glyph glyph-name="uniF6E0" unicode="&#xf6e0;" horiz-adv-x="267" 
d="M129 412v61q-47 9 -76 45q-29 37 -29 93q0 116 106 142v61h59v-57q32 -4 46 -10l-12 -71q-20 10 -48 10q-57 0 -57 -74q0 -72 61 -72q27 0 51 9l7 -70q-18 -8 -49 -9v-58h-59z" />
    <glyph glyph-name="uni208D" unicode="&#x208d;" horiz-adv-x="163" 
d="M165 283q-29 -45 -45 -100q-18 -65 -18 -144q0 -76 18 -140q16 -55 45 -102h-66q-30 39 -48 94q-22 68 -22 148t22 149q19 56 48 95h66z" />
    <glyph glyph-name="uni208E" unicode="&#x208e;" horiz-adv-x="163" 
d="M-2 -203q29 46 45 102q18 66 18 143q0 76 -18 140q-16 55 -45 101h66q30 -38 48 -93q22 -68 22 -149q0 -78 -22 -147q-18 -56 -48 -97h-66z" />
    <glyph glyph-name="uniF6E6" unicode="&#xf6e6;" horiz-adv-x="160" 
d="M142 639v-65h-124v65h124z" />
    <glyph glyph-name="uniF6E5" unicode="&#xf6e5;" horiz-adv-x="160" 
d="M142 75v-65h-124v65h124z" />
    <glyph glyph-name="uni2070" unicode="&#x2070;" horiz-adv-x="291" 
d="M145 412q-67 0 -101 63q-28 52 -28 135q0 87 31 141q35 61 101 61q70 0 102 -65q13 -27 20 -64q5 -32 5 -69q0 -202 -129 -202h-1zM148 489q34 0 34 123t-34 123q-39 0 -39 -123t38 -123h1z" />
    <glyph glyph-name="uni2074" unicode="&#x2074;" horiz-adv-x="301" 
d="M158 417v89h-148v59l141 243h92v-233h42v-69h-42v-89h-85zM158 645q0 16 1 37l2 30h-2l-12 -26q-6 -15 -13 -26l-46 -85h70v70z" />
    <glyph glyph-name="uni2075" unicode="&#x2075;" horiz-adv-x="275" 
d="M241 728h-117l-6 -58h14q50 0 83 -29q37 -31 37 -91q0 -58 -39 -97q-42 -41 -111 -41q-54 0 -86 17l14 72q32 -14 65 -14q64 0 64 56q0 63 -90 63q-14 0 -34 -2l22 203h184v-79z" />
    <glyph glyph-name="uni2076" unicode="&#x2076;" horiz-adv-x="295" 
d="M242 738q-15 0 -35 -3q-75 -11 -93 -88h2q25 28 63 28q99 0 99 -123q0 -57 -32 -96q-35 -44 -93 -44q-134 0 -134 164q0 60 20 108q17 41 49 72q44 43 112 53q30 3 42 3v-74zM152 480q33 0 33 73q0 58 -36 58q-21 0 -33 -23q-2 -4 -3 -12q-1 -9 -1 -22q0 -74 39 -74h1z
" />
    <glyph glyph-name="uni2077" unicode="&#x2077;" horiz-adv-x="259" 
d="M250 807v-60l-132 -330h-92l129 310h-143v80h238z" />
    <glyph glyph-name="uni2078" unicode="&#x2078;" 
d="M155 812q113 0 113 -98q0 -23 -11 -43q-13 -25 -41 -41v-2q63 -30 63 -98q0 -55 -38 -87q-36 -31 -94 -31q-127 0 -127 109q0 66 60 99v1q-49 29 -49 85q0 48 36 78q34 28 87 28h1zM152 474q36 0 36 51q0 48 -45 64q-33 -18 -33 -60q0 -55 41 -55h1zM151 752
q-34 0 -34 -44q0 -35 40 -52q27 10 27 49q0 47 -32 47h-1z" />
    <glyph glyph-name="uni2079" unicode="&#x2079;" horiz-adv-x="291" 
d="M50 487q23 0 39 2q32 6 51 21q28 21 39 67h-2q-22 -22 -58 -22q-43 0 -72 32q-30 33 -30 87q0 55 34 95q36 43 95 43q60 0 94 -46q32 -44 32 -118q0 -62 -20 -113q-17 -44 -48 -74q-43 -42 -116 -48q-8 -1 -19 -1h-19v75zM142 744q-34 0 -34 -65q0 -62 36 -62q24 0 30 17
q4 11 4 41q0 69 -35 69h-1z" />
    <glyph glyph-name="uni2080" unicode="&#x2080;" horiz-adv-x="291" 
d="M145 -152q-67 0 -101 63q-28 52 -28 135q0 87 31 141q35 61 101 61q70 0 102 -65q13 -27 20 -64q5 -32 5 -69q0 -202 -129 -202h-1zM148 -75q34 0 34 123t-34 123q-39 0 -39 -123t38 -123h1z" />
    <glyph glyph-name="uni2081" unicode="&#x2081;" horiz-adv-x="239" 
d="M98 -147v307h-2l-70 -33l-17 68l99 48h84v-390h-94z" />
    <glyph glyph-name="uni2082" unicode="&#x2082;" horiz-adv-x="274" 
d="M7 -94l47 57l36 44q19 23 29 39q27 40 27 69q0 54 -50 54q-33 0 -64 -23l-20 69q39 33 109 33q66 0 99 -37q27 -30 27 -76q0 -48 -34 -98q-13 -19 -34 -42l-55 -59v-3h127v-80h-244v53z" />
    <glyph glyph-name="uni2083" unicode="&#x2083;" horiz-adv-x="260" 
d="M20 225q42 23 95 23q58 0 90 -30q27 -26 27 -64q0 -64 -65 -92v-2q76 -13 76 -91q0 -121 -152 -121q-54 0 -85 19l14 69q32 -17 67 -17q58 0 58 53q0 57 -74 57h-12v62h7q29 0 49 10q24 12 24 35q0 41 -45 41q-28 0 -59 -17z" />
    <glyph glyph-name="uni2084" unicode="&#x2084;" horiz-adv-x="301" 
d="M158 -147v89h-148v59l141 243h92v-233h42v-69h-42v-89h-85zM158 81q0 16 1 37l2 30h-2l-12 -26q-6 -15 -13 -26l-46 -85h70v70z" />
    <glyph glyph-name="uni2085" unicode="&#x2085;" horiz-adv-x="275" 
d="M241 164h-117l-6 -58h14q50 0 83 -29q37 -31 37 -91q0 -58 -39 -97q-42 -41 -111 -41q-54 0 -86 17l14 72q32 -14 65 -14q64 0 64 56q0 63 -90 63q-14 0 -34 -2l22 203h184v-79z" />
    <glyph glyph-name="uni2086" unicode="&#x2086;" horiz-adv-x="295" 
d="M242 174q-15 0 -35 -3q-75 -11 -93 -88h2q25 28 63 28q99 0 99 -123q0 -57 -32 -96q-35 -44 -93 -44q-134 0 -134 164q0 60 20 108q17 41 49 72q44 43 112 53q30 3 42 3v-74zM152 -84q33 0 33 73q0 58 -36 58q-21 0 -33 -23q-2 -4 -3 -12q-1 -9 -1 -22q0 -74 39 -74h1z
" />
    <glyph glyph-name="uni2087" unicode="&#x2087;" horiz-adv-x="259" 
d="M250 243v-60l-132 -330h-92l129 310h-143v80h238z" />
    <glyph glyph-name="uni2088" unicode="&#x2088;" 
d="M155 248q113 0 113 -98q0 -23 -11 -43q-13 -25 -41 -41v-2q63 -30 63 -98q0 -55 -38 -87q-36 -31 -94 -31q-127 0 -127 109q0 66 60 99v1q-49 29 -49 85q0 48 36 78q34 28 87 28h1zM152 -90q36 0 36 51q0 48 -45 64q-33 -18 -33 -60q0 -55 41 -55h1zM151 188
q-34 0 -34 -44q0 -35 40 -52q27 10 27 49q0 47 -32 47h-1z" />
    <glyph glyph-name="uni2089" unicode="&#x2089;" horiz-adv-x="291" 
d="M50 -77q23 0 39 2q32 6 51 21q28 21 39 67h-2q-22 -22 -58 -22q-43 0 -72 32q-30 33 -30 87q0 55 34 95q36 43 95 43q60 0 94 -46q32 -44 32 -118q0 -62 -20 -113q-17 -44 -48 -74q-43 -42 -116 -48q-8 -1 -19 -1h-19v75zM142 180q-34 0 -34 -65q0 -62 36 -62q24 0 30 17
q4 11 4 41q0 69 -35 69h-1z" />
    <glyph glyph-name="uniF6DF" unicode="&#xf6df;" horiz-adv-x="267" 
d="M129 -152v61q-47 9 -76 45q-29 37 -29 93q0 116 106 142v61h59v-57q32 -4 46 -10l-12 -71q-20 10 -48 10q-57 0 -57 -74q0 -72 61 -72q27 0 51 9l7 -70q-18 -8 -49 -9v-58h-59z" />
    <glyph glyph-name="uniF6E3" unicode="&#xf6e3;" horiz-adv-x="267" 
d="M97 -199v61q-47 3 -72 16l14 73q36 -18 71 -18q43 0 43 33q0 26 -48 52q-79 43 -79 107q0 76 80 102v61h59v-54q41 -3 66 -17l-15 -70q-12 6 -26 11q-17 5 -33 5q-42 0 -42 -30q0 -23 51 -50q76 -41 76 -111q0 -84 -86 -105v-66h-59z" />
    <glyph glyph-name="uniF6E7" unicode="&#xf6e7;" horiz-adv-x="152" 
d="M75 -152q-52 0 -52 59t54 59q53 0 53 -59t-54 -59h-1z" />
    <glyph glyph-name="uniF6E1" unicode="&#xf6e1;" horiz-adv-x="152" 
d="M-1 -221q15 45 26 87q12 46 17 83l93 6q-17 -49 -34 -88q-20 -47 -42 -82z" />
    <glyph glyph-name="uniF6C3" unicode="&#xf6c3;" 
d="M66 -166q23 6 38 18q20 15 20 34q0 16 -11 35q-8 13 -21 26l95 12q37 -24 37 -73q0 -50 -40 -79q-36 -25 -97 -31z" />
    <glyph glyph-name="Abreve" unicode="&#x102;" horiz-adv-x="458" 
d="M165 154l-30 -154h-127l146 674h157l131 -674h-128l-28 154h-121zM274 256l-22 141l-11 75q-3 17 -6 41l-5 37h-3l-24 -153l-25 -141h96zM179 825q2 -44 50 -44q49 0 51 44h70q0 -117 -120 -117q-121 0 -121 117h70z" />
    <glyph glyph-name="Amacron" unicode="&#x100;" horiz-adv-x="458" 
d="M165 154l-30 -154h-127l146 674h157l131 -674h-128l-28 154h-121zM274 256l-22 141l-11 75q-3 17 -6 41l-5 37h-3l-24 -153l-25 -141h96zM347 815v-79h-235v79h235z" />
    <glyph glyph-name="Aogonek" unicode="&#x104;" horiz-adv-x="458" 
d="M442 0h-47q-27 -43 -27 -78q0 -42 40 -42q24 0 39 6l16 -66q-20 -14 -45 -20q-20 -5 -43 -5q-97 0 -97 96q0 31 14 67q5 12 12 26l7 12q1 1 1 2q1 3 2 4l-28 152h-121l-30 -154h-127l146 674h157zM274 256l-22 141l-22 153h-3l-7 -48l-41 -246h95z" />
    <glyph glyph-name="AEacute" unicode="&#x1fc;" horiz-adv-x="595" 
d="M-7 0l203 674h369v-114h-178l10 -166h162v-109h-152l10 -171h163v-114h-278l-11 184h-124l-45 -184h-129zM280 286l-8 167l-7 130h-4l-36 -159l-33 -138h88zM503 823l-122 -113h-93l82 113h133z" />
    <glyph glyph-name="Cacute" unicode="&#x106;" horiz-adv-x="395" 
d="M381 10q-34 -16 -101 -16q-125 0 -192 95q-63 88 -63 238q0 91 24 162q22 65 63 110q74 81 185 81q32 0 58 -6q21 -5 33 -12l-22 -110q-28 13 -61 13q-61 0 -98 -53q-43 -61 -43 -178q0 -115 41 -172q36 -52 100 -52q31 0 63 10zM409 823l-122 -113h-93l82 113h133z" />
    <glyph glyph-name="Ccaron" unicode="&#x10c;" horiz-adv-x="395" 
d="M381 10q-34 -16 -101 -16q-125 0 -192 95q-63 88 -63 238q0 91 24 162q22 65 63 110q74 81 185 81q32 0 58 -6q21 -5 33 -12l-22 -110q-28 13 -61 13q-61 0 -98 -53q-43 -61 -43 -178q0 -115 41 -172q36 -52 100 -52q31 0 63 10zM211 710l-84 110h96l39 -52h2l38 52h93
l-81 -110h-103z" />
    <glyph glyph-name="Ccircumflex" unicode="&#x108;" horiz-adv-x="395" 
d="M381 10q-34 -16 -101 -16q-125 0 -192 95q-63 88 -63 238q0 91 24 162q22 65 63 110q74 81 185 81q32 0 58 -6q21 -5 33 -12l-22 -110q-28 13 -61 13q-61 0 -98 -53q-43 -61 -43 -178q0 -115 41 -172q36 -52 100 -52q31 0 63 10zM302 820l84 -110h-96l-39 52h-2l-38 -52
h-93l81 110h103z" />
    <glyph glyph-name="Cdotaccent" unicode="&#x10a;" horiz-adv-x="395" 
d="M381 10q-34 -16 -101 -16q-125 0 -192 95q-63 88 -63 238q0 91 24 162q22 65 63 110q74 81 185 81q32 0 58 -6q21 -5 33 -12l-22 -110q-28 13 -61 13q-61 0 -98 -53q-43 -61 -43 -178q0 -115 41 -172q36 -52 100 -52q31 0 63 10zM253 713q-61 0 -61 64t62 64q63 0 63 -64
t-63 -64h-1z" />
    <glyph glyph-name="Dcaron" unicode="&#x10e;" horiz-adv-x="491" 
d="M58 664q54 13 133 13q123 0 187 -60q88 -79 88 -272q0 -202 -94 -285q-70 -65 -205 -65q-28 0 -60 2q-24 2 -49 5v662zM189 104q5 -1 12 -2h11q52 0 83 54q35 64 35 194q0 222 -115 222q-18 0 -26 -3v-465zM168 710l-84 110h96l39 -52h2l38 52h93l-81 -110h-103z" />
    <glyph glyph-name="Dcroat" unicode="&#x110;" horiz-adv-x="493" 
d="M0 394h60v270q54 13 133 13q124 0 188 -60q88 -79 88 -272q0 -203 -94 -286q-70 -65 -206 -65q-57 0 -109 8v301h-60v91zM265 303h-74v-200l12 -2h11q53 0 84 54q35 64 35 195q0 222 -116 222q-14 0 -26 -3v-175h74v-91z" />
    <glyph glyph-name="Ebreve" unicode="&#x114;" horiz-adv-x="394" 
d="M342 296h-153v-182h173v-114h-304v674h293v-114h-162v-155h153v-109zM156 829q2 -44 50 -44q49 0 51 44h70q0 -117 -120 -117q-121 0 -121 117h70z" />
    <glyph glyph-name="Ecaron" unicode="&#x11a;" horiz-adv-x="394" 
d="M342 296h-153v-182h173v-114h-304v674h293v-114h-162v-155h153v-109zM155 710l-84 110h96l39 -52h2l38 52h93l-81 -110h-103z" />
    <glyph glyph-name="Edotaccent" unicode="&#x116;" horiz-adv-x="394" 
d="M342 296h-153v-182h173v-114h-304v674h293v-114h-162v-155h153v-109zM201 715q-61 0 -61 64t62 64q63 0 63 -64t-63 -64h-1z" />
    <glyph glyph-name="Emacron" unicode="&#x112;" horiz-adv-x="394" 
d="M342 296h-153v-182h173v-114h-304v674h293v-114h-162v-155h153v-109zM320 815v-79h-235v79h235z" />
    <glyph glyph-name="Eng" unicode="&#x14a;" horiz-adv-x="516" 
d="M58 0v674h120l104 -264q17 -42 37 -96q21 -59 35 -101h2l-12 221q-1 48 -1 91v149h115v-643q0 -203 -167 -233l-33 98q80 24 82 89l-105 272q-43 105 -69 202h-2q2 -30 3 -58q2 -35 3 -70l2 -84q1 -47 1 -95v-152h-115z" />
    <glyph glyph-name="Eogonek" unicode="&#x118;" horiz-adv-x="394" 
d="M376 -181q-21 -14 -47 -20q-22 -5 -48 -5q-90 0 -90 86q0 32 20 66q16 29 46 55h-199v673h294v-114h-163v-155h154v-109h-154v-181h174v-114l-16 -1q-63 -48 -63 -89q0 -32 36 -32q25 0 41 6z" />
    <glyph glyph-name="Gbreve" unicode="&#x11e;" horiz-adv-x="472" 
d="M435 18q-58 -24 -139 -24q-115 0 -181 67q-90 89 -87 272q1 89 26 158q23 63 64 107q78 82 197 82q35 0 66 -6q25 -5 43 -14l-22 -113q-33 15 -77 15q-73 0 -114 -53q-47 -60 -47 -183q0 -113 39 -172q34 -49 86 -49q19 0 26 4v162h-61v107h181v-360zM228 825
q2 -44 50 -44q50 0 51 44h70q0 -117 -120 -117q-121 0 -121 117h70z" />
    <glyph glyph-name="Gcircumflex" unicode="&#x11c;" horiz-adv-x="472" 
d="M435 18q-58 -24 -139 -24q-115 0 -181 67q-90 89 -87 272q1 89 26 158q23 63 64 107q78 82 197 82q35 0 66 -6q25 -5 43 -14l-22 -113q-33 15 -77 15q-73 0 -114 -53q-47 -60 -47 -183q0 -113 39 -172q34 -49 86 -49q19 0 26 4v162h-61v107h181v-360zM323 820l84 -110
h-96l-39 52h-2l-38 -52h-93l81 110h103z" />
    <glyph glyph-name="uni0122" unicode="&#x122;" horiz-adv-x="472" 
d="M435 18q-58 -24 -139 -24q-115 0 -181 67q-90 89 -87 272q1 89 26 158q23 63 64 107q78 82 197 82q35 0 66 -6q25 -5 43 -14l-22 -113q-33 15 -77 15q-73 0 -114 -53q-47 -60 -47 -183q0 -113 39 -172q34 -49 86 -49q19 0 26 4v162h-61v107h181v-360zM189 -166
q23 6 39 18q19 15 19 34q0 16 -11 35q-8 13 -21 26l95 12q37 -24 37 -73q0 -50 -40 -79q-36 -25 -97 -31z" />
    <glyph glyph-name="Gdotaccent" unicode="&#x120;" horiz-adv-x="472" 
d="M435 18q-58 -24 -139 -24q-115 0 -181 67q-90 89 -87 272q1 89 26 158q23 63 64 107q78 82 197 82q35 0 66 -6q25 -5 43 -14l-22 -113q-33 15 -77 15q-73 0 -114 -53q-47 -60 -47 -183q0 -113 39 -172q34 -49 86 -49q19 0 26 4v162h-61v107h181v-360zM274 713
q-61 0 -61 64t62 64q63 0 63 -64t-63 -64h-1z" />
    <glyph glyph-name="Hbar" unicode="&#x126;" horiz-adv-x="515" 
d="M457 470v-470h-131v265h-137v-265h-131v470h-44v89h44v115h131v-115h137v115h131v-115h44v-89h-44zM326 470h-137v-83h137v83z" />
    <glyph glyph-name="Hcircumflex" unicode="&#x124;" horiz-adv-x="515" 
d="M189 674v-270h137v270h131v-674h-131v282h-137v-282h-131v674h131zM309 820l84 -110h-96l-39 52h-2l-38 -52h-93l81 110h103z" />
    <glyph glyph-name="Ibreve" unicode="&#x12c;" horiz-adv-x="248" 
d="M189 674v-674h-131v674h131zM72 830q2 -44 50 -44q49 0 51 44h70q0 -117 -120 -117q-121 0 -121 117h70z" />
    <glyph glyph-name="IJ" unicode="&#x132;" horiz-adv-x="544" 
d="M189 674v-674h-131v674h131zM363 674h131v-459q0 -132 -59 -184q-24 -22 -60 -31q-30 -8 -70 -8q-43 0 -66 10l11 110q20 -5 43 -5q33 0 49 19q21 24 21 83v465z" />
    <glyph glyph-name="Imacron" unicode="&#x12a;" horiz-adv-x="248" 
d="M189 674v-674h-131v674h131zM242 815v-79h-235v79h235z" />
    <glyph glyph-name="Iogonek" unicode="&#x12e;" horiz-adv-x="248" 
d="M189 0h-51q-25 -43 -25 -78q0 -44 40 -44q26 0 39 6l16 -66q-20 -14 -45 -20q-20 -5 -43 -5q-97 0 -97 94q0 33 14 69l11 26q3 4 6 10q0 1 2 4q1 3 2 4v674h131v-674z" />
    <glyph glyph-name="Itilde" unicode="&#x128;" horiz-adv-x="248" 
d="M192 674v-674h-131v674h131zM8 718q-3 115 66 115q27 0 53 -17q27 -17 37 -17q19 0 24 38h58q3 -115 -69 -115q-29 0 -54 16l-18 11q-9 4 -17 4q-18 0 -21 -35h-59z" />
    <glyph glyph-name="Jcircumflex" unicode="&#x134;" horiz-adv-x="296" 
d="M115 674h131v-459q0 -132 -59 -184q-24 -22 -60 -31q-30 -8 -70 -8q-43 0 -66 10l11 110q20 -5 43 -5q33 0 49 19q21 24 21 83v465zM230 820l84 -110h-96l-39 52h-2l-38 -52h-93l81 110h103z" />
    <glyph glyph-name="uni0136" unicode="&#x136;" horiz-adv-x="459" 
d="M58 674h131v-303h3q4 9 8 21l16 44q4 13 8 22l90 216h145l-152 -293l154 -381h-144l-98 279l-30 -55v-224h-131v674zM154 -164q23 6 38 18q20 15 20 34q0 16 -11 35q-8 13 -21 26l95 12q37 -24 37 -73q0 -50 -40 -79q-36 -25 -97 -31z" />
    <glyph glyph-name="Lacute" unicode="&#x139;" horiz-adv-x="380" 
d="M58 674h131v-563h172v-111h-303v674zM290 823l-122 -113h-93l82 113h133z" />
    <glyph glyph-name="Lcaron" unicode="&#x13d;" horiz-adv-x="380" 
d="M58 674h131v-563h172v-111h-303v674zM217 550q23 6 38 18q20 15 20 34q0 16 -11 35q-8 13 -21 26l95 12q37 -24 37 -73q0 -50 -40 -79q-36 -25 -97 -31z" />
    <glyph glyph-name="uni013B" unicode="&#x13b;" horiz-adv-x="380" 
d="M58 674h131v-563h172v-111h-303v674zM108 -166q23 6 38 18q20 15 20 34q0 16 -11 35q-8 13 -21 26l95 12q37 -24 37 -73q0 -50 -40 -79q-36 -25 -97 -31z" />
    <glyph glyph-name="Ldot" unicode="&#x13f;" horiz-adv-x="380" 
d="M58 674h131v-563h172v-111h-303v674zM293 301q-61 0 -61 64t62 64q63 0 63 -64t-63 -64h-1z" />
    <glyph glyph-name="Nacute" unicode="&#x143;" horiz-adv-x="516" 
d="M58 0v674h120l104 -265q38 -93 72 -196h2l-12 221q-1 48 -1 91v149h115v-674h-120l-103 257q-43 105 -69 202h-2q2 -30 3 -58q2 -35 3 -70l2 -84q1 -47 1 -95v-152h-115zM421 823l-122 -113h-93l82 113h133z" />
    <glyph glyph-name="Ncaron" unicode="&#x147;" horiz-adv-x="516" 
d="M58 0v674h120l104 -265q38 -93 72 -196h2l-12 221q-1 48 -1 91v149h115v-674h-120l-103 257q-43 105 -69 202h-2q2 -30 3 -58q2 -35 3 -70l2 -84q1 -47 1 -95v-152h-115zM208 710l-84 110h96l39 -52h2l38 52h93l-81 -110h-103z" />
    <glyph glyph-name="uni0145" unicode="&#x145;" horiz-adv-x="516" 
d="M58 0v674h120l104 -265q38 -93 72 -196h2l-12 221q-1 48 -1 91v149h115v-674h-120l-103 257q-43 105 -69 202h-2q2 -30 3 -58q2 -35 3 -70l2 -84q1 -47 1 -95v-152h-115zM174 -158q23 6 38 18q20 15 20 34q0 16 -11 35q-8 13 -21 26l95 12q37 -24 37 -73q0 -50 -40 -79
q-36 -25 -97 -31z" />
    <glyph glyph-name="Obreve" unicode="&#x14e;" horiz-adv-x="481" 
d="M238 -8q-108 0 -164 104q-49 92 -49 243q0 147 55 241q61 102 168 102q58 0 101 -30q38 -28 64 -79q22 -45 33 -107q10 -55 10 -117q0 -183 -61 -274q-55 -83 -156 -83h-1zM243 106q40 0 60 67q17 60 17 170q0 100 -16 157q-20 68 -62 68q-41 0 -63 -68q-19 -61 -18 -160
q-2 -106 18 -167q21 -67 63 -67h1zM189 831q2 -44 50 -44q49 0 51 44h70q0 -117 -120 -117q-121 0 -121 117h70z" />
    <glyph glyph-name="Ohungarumlaut" unicode="&#x150;" horiz-adv-x="481" 
d="M238 -8q-108 0 -164 104q-49 92 -49 243q0 147 55 241q61 102 168 102q58 0 101 -30q38 -28 64 -79q22 -45 33 -107q10 -55 10 -117q0 -183 -61 -274q-55 -83 -156 -83h-1zM243 106q40 0 60 67q17 60 17 170q0 100 -16 157q-20 68 -62 68q-41 0 -63 -68q-19 -61 -18 -160
q-2 -106 18 -167q21 -67 63 -67h1zM301 823l-92 -110h-73l57 110h108zM447 823l-92 -110h-73l57 110h108z" />
    <glyph glyph-name="Omacron" unicode="&#x14c;" horiz-adv-x="481" 
d="M238 -8q-108 0 -164 104q-49 92 -49 243q0 147 55 241q61 102 168 102q58 0 101 -30q38 -28 64 -79q22 -45 33 -107q10 -55 10 -117q0 -183 -61 -274q-55 -83 -156 -83h-1zM243 106q40 0 60 67q17 60 17 170q0 100 -16 157q-20 68 -62 68q-41 0 -63 -68q-19 -61 -18 -160
q-2 -106 18 -167q21 -67 63 -67h1zM359 815v-79h-235v79h235z" />
    <glyph glyph-name="Oslashacute" unicode="&#x1fe;" horiz-adv-x="481" 
d="M41 -15l43 96q-31 46 -46 116q-13 63 -13 141q0 145 54 240q60 104 164 104q54 0 96 -27l31 70l69 -29l-42 -95q32 -47 47 -120q12 -59 12 -132q0 -183 -60 -274q-55 -83 -155 -83q-58 0 -101 31l-33 -74zM289 540q-16 28 -47 28q-89 0 -89 -228q0 -28 1 -52q1 -29 4 -53
h2zM188 138q16 -32 54 -32q86 0 86 236q0 59 -5 101h-2zM402 823l-122 -113h-93l82 113h133z" />
    <glyph glyph-name="Racute" unicode="&#x154;" horiz-adv-x="470" 
d="M58 664q67 13 143 13q60 0 101 -10q49 -12 79 -40q54 -49 54 -140q0 -121 -104 -168v-2q63 -26 82 -134q11 -61 22 -110q12 -55 21 -73h-137q-17 36 -34 162q-15 107 -76 107h-20v-269h-131v664zM189 370h24q89 0 89 105q0 97 -81 100q-10 0 -18 -1q-9 -1 -14 -3v-201z
M384 823l-122 -113h-93l82 113h133z" />
    <glyph glyph-name="Rcaron" unicode="&#x158;" horiz-adv-x="470" 
d="M58 664q67 13 143 13q60 0 101 -10q49 -12 79 -40q54 -49 54 -140q0 -121 -104 -168v-2q63 -26 82 -134q11 -61 22 -110q12 -55 21 -73h-137q-17 36 -34 162q-15 107 -76 107h-20v-269h-131v664zM189 370h24q89 0 89 105q0 97 -81 100q-10 0 -18 -1q-9 -1 -14 -3v-201z
M183 710l-84 110h96l39 -52h2l38 52h93l-81 -110h-103z" />
    <glyph glyph-name="uni0156" unicode="&#x156;" horiz-adv-x="470" 
d="M58 664q67 13 143 13q60 0 101 -10q49 -12 79 -40q54 -49 54 -140q0 -121 -104 -168v-2q63 -26 82 -134q11 -61 22 -110q12 -55 21 -73h-137q-17 36 -34 162q-15 107 -76 107h-20v-269h-131v664zM189 370h24q89 0 89 105q0 97 -81 100q-10 0 -18 -1q-9 -1 -14 -3v-201z
M151 -164q23 6 38 18q20 15 20 34q0 16 -11 35q-8 13 -21 26l95 12q37 -24 37 -73q0 -50 -40 -79q-36 -25 -97 -31z" />
    <glyph glyph-name="Sacute" unicode="&#x15a;" horiz-adv-x="394" 
d="M43 134q47 -26 111 -26q92 0 92 76q0 34 -22 60q-17 19 -65 50q-65 40 -98 92q-29 46 -29 96q0 85 54 140q57 58 158 58q65 0 106 -24l-21 -113q-36 23 -85 23q-83 0 -83 -69q0 -50 92 -106q64 -39 95 -90q27 -46 27 -103q0 -92 -62 -148q-61 -56 -160 -56q-81 0 -129 27
zM357 823l-122 -113h-93l82 113h133z" />
    <glyph glyph-name="Scedilla" unicode="&#x15e;" horiz-adv-x="394" 
d="M43 134q47 -26 111 -26q92 0 92 76q0 34 -22 60q-17 19 -65 50q-65 40 -98 92q-29 46 -29 96q0 85 54 140q58 58 159 58q64 0 105 -24l-21 -113q-36 23 -85 23q-83 0 -83 -69q0 -50 93 -106q64 -39 94 -90q27 -46 27 -103q0 -152 -145 -194l-24 -48q67 -11 67 -73
q0 -45 -34 -67q-29 -20 -76 -20q-46 0 -75 18l18 56q30 -14 53 -14q32 0 32 25q0 31 -68 37l33 76h-3q-81 0 -129 27z" />
    <glyph glyph-name="Scedilla" unicode="&#xf6c1;" horiz-adv-x="394" 
d="M43 134q47 -26 111 -26q92 0 92 76q0 34 -22 60q-17 19 -65 50q-65 40 -98 92q-29 46 -29 96q0 85 54 140q58 58 159 58q64 0 105 -24l-21 -113q-36 23 -85 23q-83 0 -83 -69q0 -50 93 -106q64 -39 94 -90q27 -46 27 -103q0 -152 -145 -194l-24 -48q67 -11 67 -73
q0 -45 -34 -67q-29 -20 -76 -20q-46 0 -75 18l18 56q30 -14 53 -14q32 0 32 25q0 31 -68 37l33 76h-3q-81 0 -129 27z" />
    <glyph glyph-name="Scircumflex" unicode="&#x15c;" horiz-adv-x="394" 
d="M43 134q47 -26 111 -26q92 0 92 76q0 34 -22 60q-17 19 -65 50q-65 40 -98 92q-29 46 -29 96q0 85 54 140q57 58 158 58q65 0 106 -24l-21 -113q-36 23 -85 23q-83 0 -83 -69q0 -50 92 -106q64 -39 95 -90q27 -46 27 -103q0 -92 -62 -148q-61 -56 -160 -56q-81 0 -129 27
zM257 820l84 -110h-96l-39 52h-2l-38 -52h-93l81 110h103z" />
    <glyph glyph-name="uni0218" unicode="&#x218;" horiz-adv-x="394" 
d="M43 134q47 -26 111 -26q92 0 92 76q0 34 -22 60q-17 19 -65 50q-65 40 -98 92q-29 46 -29 96q0 85 54 140q57 58 158 58q65 0 106 -24l-21 -113q-36 23 -85 23q-83 0 -83 -69q0 -50 92 -106q64 -39 95 -90q27 -46 27 -103q0 -92 -62 -148q-61 -56 -160 -56q-81 0 -129 27
zM104 -166q23 6 38 18q20 15 20 34q0 16 -11 35q-8 13 -21 26l95 12q37 -24 37 -73q0 -50 -40 -79q-36 -25 -97 -31z" />
    <glyph glyph-name="Tbar" unicode="&#x166;" horiz-adv-x="393" 
d="M262 553v-162h80v-90h-80v-301h-131v301h-80v90h80v162h-119v121h370v-121h-120z" />
    <glyph glyph-name="Tcaron" unicode="&#x164;" horiz-adv-x="393" 
d="M131 553h-119v121h370v-121h-120v-553h-131v553zM147 710l-84 110h96l39 -52h2l38 52h93l-81 -110h-103z" />
    <glyph glyph-name="uni0162" unicode="&#x162;" horiz-adv-x="393" 
d="M131 553h-119v121h370v-121h-120v-553h-131v553zM111 -166q23 6 38 18q20 15 20 34q0 16 -11 35q-8 13 -21 26l95 12q37 -24 37 -73q0 -50 -40 -79q-36 -25 -97 -31z" />
    <glyph glyph-name="uni0162" unicode="&#x21a;" horiz-adv-x="393" 
d="M131 553h-119v121h370v-121h-120v-553h-131v553zM111 -166q23 6 38 18q20 15 20 34q0 16 -11 35q-8 13 -21 26l95 12q37 -24 37 -73q0 -50 -40 -79q-36 -25 -97 -31z" />
    <glyph glyph-name="Ubreve" unicode="&#x16c;" horiz-adv-x="500" 
d="M185 674v-438q0 -69 19 -102q16 -27 45 -27q31 0 47 26q18 31 18 103v438h131v-415q0 -267 -195 -267q-103 0 -151 70q-45 65 -45 196v416h131zM198 823q2 -44 50 -44q49 0 51 44h70q0 -117 -120 -117q-121 0 -121 117h70z" />
    <glyph glyph-name="Uhungarumlaut" unicode="&#x170;" horiz-adv-x="500" 
d="M185 674v-438q0 -69 19 -102q16 -27 45 -27q31 0 47 26q18 31 18 103v438h131v-415q0 -267 -195 -267q-103 0 -151 70q-45 65 -45 196v416h131zM300 823l-92 -110h-73l57 110h108zM446 823l-92 -110h-73l57 110h108z" />
    <glyph glyph-name="Umacron" unicode="&#x16a;" horiz-adv-x="500" 
d="M185 674v-438q0 -69 19 -102q16 -27 45 -27q31 0 47 26q18 31 18 103v438h131v-415q0 -267 -195 -267q-103 0 -151 70q-45 65 -45 196v416h131zM368 815v-79h-235v79h235z" />
    <glyph glyph-name="Uogonek" unicode="&#x172;" horiz-adv-x="500" 
d="M369 -177q-42 -26 -88 -26q-98 0 -98 85q0 30 17 63q6 13 15 27l15 21q-5 0 -8 1q-168 16 -168 263v417h132v-439q0 -69 19 -102q16 -27 45 -27q31 0 46 26q18 31 18 103v439h131v-415q0 -213 -125 -254q-46 -43 -46 -87q0 -37 36 -37q24 0 43 8z" />
    <glyph glyph-name="Uring" unicode="&#x16e;" horiz-adv-x="500" 
d="M185 674v-438q0 -69 19 -102q16 -27 45 -27q31 0 47 26q18 31 18 103v438h131v-415q0 -267 -195 -267q-103 0 -151 70q-45 65 -45 196v416h131zM252 877q52 0 80 -27q24 -25 24 -64t-25 -64q-29 -29 -80 -29q-53 0 -82 28q-25 25 -25 62q0 39 26 65q30 29 81 29h1z
M248 830q-36 0 -36 -46q0 -43 37 -43q39 0 39 44q0 45 -39 45h-1z" />
    <glyph glyph-name="Utilde" unicode="&#x168;" horiz-adv-x="500" 
d="M185 674v-438q0 -69 19 -102q16 -27 45 -27q31 0 47 26q18 31 18 103v438h131v-415q0 -267 -195 -267q-103 0 -151 70q-45 65 -45 196v416h131zM131 718q-3 115 66 115q27 0 53 -17t37 -17q19 0 24 38h58q3 -115 -69 -115q-29 0 -54 16l-18 11q-9 4 -17 4q-18 0 -21 -35
h-59z" />
    <glyph glyph-name="Wacute" unicode="&#x1e82;" horiz-adv-x="679" 
d="M128 0l-115 674h136l33 -269l6 -58q3 -25 6 -58l11 -120h3q6 52 17 119l69 386h106l63 -381q9 -66 14 -124h2q6 63 13 123l13 115l33 267h128l-119 -674h-135l-40 221q-8 45 -16 103q-7 53 -14 118h-2l-18 -117q-10 -61 -19 -105l-45 -220h-130zM501 823l-122 -113h-93
l82 113h133z" />
    <glyph glyph-name="Wcircumflex" unicode="&#x174;" horiz-adv-x="679" 
d="M128 0l-115 674h136l33 -269l6 -58q3 -25 6 -58l11 -120h3q6 52 17 119l69 386h106l63 -381q9 -66 14 -124h2q6 63 13 123l13 115l33 267h128l-119 -674h-135l-40 221q-8 45 -16 103q-7 53 -14 118h-2l-18 -117q-10 -61 -19 -105l-45 -220h-130zM398 820l84 -110h-96
l-39 52h-2l-38 -52h-93l81 110h103z" />
    <glyph glyph-name="Wdieresis" unicode="&#x1e84;" horiz-adv-x="679" 
d="M128 0l-115 674h136l33 -269l6 -58q3 -25 6 -58l11 -120h3q6 52 17 119l69 386h106l63 -381q9 -66 14 -124h2q6 63 13 123l13 115l33 267h128l-119 -674h-135l-40 221q-8 45 -16 103q-7 53 -14 118h-2l-18 -117q-10 -61 -19 -105l-45 -220h-130zM253 715q-58 0 -58 64
q0 63 59 63t59 -63q0 -64 -59 -64h-1zM437 715q-59 0 -59 64q0 63 60 63q59 0 59 -63q0 -64 -59 -64h-1z" />
    <glyph glyph-name="Wgrave" unicode="&#x1e80;" horiz-adv-x="679" 
d="M128 0l-115 674h136l33 -269l6 -58q3 -25 6 -58l11 -120h3q6 52 17 119l69 386h106l63 -381q9 -66 14 -124h2q6 63 13 123l13 115l33 267h128l-119 -674h-135l-40 221q-8 45 -16 103q-7 53 -14 118h-2l-18 -117q-10 -61 -19 -105l-45 -220h-130zM326 823l82 -113h-93
l-122 113h133z" />
    <glyph glyph-name="Ycircumflex" unicode="&#x176;" horiz-adv-x="402" 
d="M133 0v258l-148 416h140l45 -161q22 -72 36 -143h2q6 35 14 73q7 34 17 73l40 158h136l-151 -411v-263h-131zM252 820l84 -110h-96l-39 52h-2l-38 -52h-93l81 110h103z" />
    <glyph glyph-name="Ygrave" unicode="&#x1ef2;" horiz-adv-x="402" 
d="M133 0v258l-148 416h140l45 -161q22 -72 36 -143h2q6 35 14 73q7 34 17 73l40 158h136l-151 -411v-263h-131zM187 821l82 -113h-93l-122 113h133z" />
    <glyph glyph-name="Zacute" unicode="&#x179;" horiz-adv-x="387" 
d="M11 76l213 481v3h-193v114h341v-96l-204 -461v-3h203v-114h-360v76zM356 823l-122 -113h-93l82 113h133z" />
    <glyph glyph-name="Zdotaccent" unicode="&#x17b;" horiz-adv-x="387" 
d="M11 76l213 481v3h-193v114h341v-96l-204 -461v-3h203v-114h-360v76zM204 713q-61 0 -61 64t62 64q63 0 63 -64t-63 -64h-1z" />
    <glyph glyph-name="Idotaccent" unicode="&#x130;" horiz-adv-x="248" 
d="M189 674v-674h-131v674h131zM123 715q-61 0 -61 64t62 64q63 0 63 -64t-63 -64h-1z" />
    <glyph glyph-name="abreve" unicode="&#x103;" horiz-adv-x="422" 
d="M376 112q0 -66 7 -112h-117l-7 48h-3q-38 -56 -108 -56q-56 0 -92 42q-37 42 -37 106q0 90 70 139q61 42 154 43v11q0 67 -69 67q-52 0 -100 -29l-24 89q12 6 26 12q17 7 35 12q46 13 92 13q101 0 142 -64q17 -27 25 -66q6 -32 6 -74v-181zM247 238q-42 -1 -68 -17
q-36 -21 -36 -67q0 -66 47 -66q41 0 54 42q3 9 3 23v85zM158 679q5 -53 52 -53q56 0 56 53h64q2 -54 -32 -90t-89 -36q-53 0 -86 36q-32 36 -30 90h65z" />
    <glyph glyph-name="amacron" unicode="&#x101;" horiz-adv-x="422" 
d="M376 112q0 -66 7 -112h-117l-7 48h-3q-38 -56 -108 -56q-56 0 -92 42q-37 42 -37 106q0 90 70 139q61 42 154 43v11q0 67 -69 67q-52 0 -100 -29l-24 89q12 6 26 12q17 7 35 12q46 13 92 13q101 0 142 -64q17 -27 25 -66q6 -32 6 -74v-181zM247 238q-42 -1 -68 -17
q-36 -21 -36 -67q0 -66 47 -66q41 0 54 42q3 9 3 23v85zM318 656v-75h-212v75h212z" />
    <glyph glyph-name="aogonek" unicode="&#x105;" horiz-adv-x="422" 
d="M376 112q0 -67 7 -112h-38q-25 -43 -25 -80q0 -42 40 -42q26 0 39 6l16 -66q-20 -14 -45 -20q-19 -5 -43 -5q-97 0 -97 96q0 32 14 67q5 12 12 26l10 18l-7 48h-3q-38 -56 -108 -56q-56 0 -92 42q-37 42 -37 106q0 90 70 139q61 42 154 43v11q0 67 -69 67q-52 0 -100 -29
l-24 89q12 6 26 12q17 7 35 12q46 13 92 13q101 0 142 -64q17 -27 25 -66q6 -32 6 -74v-181zM247 238q-42 -1 -68 -17q-36 -21 -36 -67q0 -66 47 -66q41 0 54 42q3 9 3 22v86z" />
    <glyph glyph-name="aeacute" unicode="&#x1fd;" horiz-adv-x="633" 
d="M369 214q0 -65 32 -96q27 -28 75 -28q50 0 90 20l18 -91q-30 -15 -65 -21q-30 -6 -66 -6q-115 0 -154 85h-3q-50 -85 -142 -85q-59 0 -97 43q-38 44 -38 111q0 84 70 130q59 39 151 40v15q0 69 -76 69q-49 0 -90 -27l-24 87q62 37 139 37q95 0 126 -77h2q44 77 133 77
q154 0 154 -231q0 -11 -1 -27l-2 -25h-232zM242 234q-42 0 -69 -16q-37 -21 -37 -67q0 -61 50 -61q40 0 52 43q4 11 4 27v74zM485 299q1 45 -12 74q-14 32 -42 32q-29 0 -47 -37q-14 -30 -15 -69h116zM458 689l-101 -140h-82l69 140h114z" />
    <glyph glyph-name="cacute" unicode="&#x107;" horiz-adv-x="323" 
d="M317 9q-28 -15 -83 -15q-95 0 -149 63q-56 65 -56 182q0 114 61 185q62 71 163 71q22 0 43 -4q18 -4 29 -9l-17 -103l-20 6q-14 3 -29 3q-100 0 -100 -144q0 -143 98 -143q29 0 49 10zM345 689l-101 -140h-82l69 140h114z" />
    <glyph glyph-name="ccaron" unicode="&#x10d;" horiz-adv-x="323" 
d="M317 9q-28 -15 -83 -15q-95 0 -149 63q-56 65 -56 182q0 114 61 185q62 71 163 71q22 0 43 -4q18 -4 29 -9l-17 -103l-20 6q-14 3 -29 3q-100 0 -100 -144q0 -143 98 -143q29 0 49 10zM157 549l-85 140h89l41 -80h2l40 80h91l-86 -140h-92z" />
    <glyph glyph-name="ccircumflex" unicode="&#x109;" horiz-adv-x="323" 
d="M317 9q-28 -15 -83 -15q-95 0 -149 63q-56 65 -56 182q0 114 61 185q62 71 163 71q22 0 43 -4q18 -4 29 -9l-17 -103l-20 6q-14 3 -29 3q-100 0 -100 -144q0 -143 98 -143q29 0 49 10zM250 689l85 -140h-89l-41 80h-2l-39 -80h-91l86 140h91z" />
    <glyph glyph-name="cdotaccent" unicode="&#x10b;" horiz-adv-x="323" 
d="M317 9q-28 -15 -83 -15q-95 0 -149 63q-56 65 -56 182q0 114 61 185q62 71 163 71q22 0 43 -4q18 -4 29 -9l-17 -103l-20 6q-14 3 -29 3q-100 0 -100 -144q0 -143 98 -143q29 0 49 10zM202 560q-59 0 -59 64t60 64t60 -64t-60 -64h-1z" />
    <glyph glyph-name="dcaron" unicode="&#x10f;" horiz-adv-x="457" 
d="M401 692v-548q0 -31 1 -72l3 -72h-113l-7 55h-3q-32 -63 -101 -63q-74 0 -115 75q-37 67 -37 176q0 121 48 191q43 63 109 63q59 0 82 -50h2v245h131zM270 301q0 19 -2 28q-8 57 -46 57q-33 0 -49 -43q-14 -38 -14 -103q0 -141 61 -141q33 0 46 42q4 11 4 31v129z
M443 527q12 16 21 37q10 26 10 51q0 41 -28 67l81 13q34 -22 34 -74q0 -44 -27 -84q-10 -15 -23 -28q-4 -5 -10 -10l-4 -4q0 -1 -2 -2l-2 -2z" />
    <glyph glyph-name="dcroat" unicode="&#x111;" horiz-adv-x="447" 
d="M401 533v-389q0 -31 1 -72l3 -72h-113l-7 55h-3q-32 -63 -101 -63q-74 0 -115 75q-37 67 -37 176q0 121 48 191q43 63 109 63q59 0 82 -50h2v86h-128v82h128v77h131v-77h60v-82h-60zM270 301q0 19 -2 28q-8 57 -46 57q-33 0 -49 -43q-14 -38 -14 -103q0 -141 61 -141
q33 0 46 42q4 11 4 31v129z" />
    <glyph glyph-name="ebreve" unicode="&#x115;" horiz-adv-x="419" 
d="M156 198q1 -104 103 -104q25 0 51 5q21 4 42 11l17 -93q-54 -23 -133 -23q-207 0 -207 241q0 120 57 193q54 69 139 69q166 0 166 -231q0 -24 -1 -42l-3 -26h-231zM272 290q0 111 -55 111q-30 0 -46 -37q-14 -31 -15 -74h116zM163 679q5 -53 52 -53q56 0 56 53h64
q2 -54 -32 -90t-89 -36q-53 0 -86 36q-32 36 -30 90h65z" />
    <glyph glyph-name="ecaron" unicode="&#x11b;" horiz-adv-x="419" 
d="M156 198q1 -104 103 -104q25 0 51 5q21 4 42 11l17 -93q-54 -23 -133 -23q-207 0 -207 241q0 120 57 193q54 69 139 69q166 0 166 -231q0 -24 -1 -42l-3 -26h-231zM272 290q0 111 -55 111q-30 0 -46 -37q-14 -31 -15 -74h116zM168 549l-85 140h89l41 -80h2l40 80h91
l-86 -140h-92z" />
    <glyph glyph-name="edotaccent" unicode="&#x117;" horiz-adv-x="419" 
d="M156 198q1 -104 103 -104q25 0 51 5q21 4 42 11l17 -93q-54 -23 -133 -23q-207 0 -207 241q0 120 57 193q54 69 139 69q166 0 166 -231q0 -24 -1 -42l-3 -26h-231zM272 290q0 111 -55 111q-30 0 -46 -37q-14 -31 -15 -74h116zM217 560q-59 0 -59 64t60 64t60 -64t-60 -64
h-1z" />
    <glyph glyph-name="emacron" unicode="&#x113;" horiz-adv-x="419" 
d="M156 198q1 -104 103 -104q25 0 51 5q21 4 42 11l17 -93q-54 -23 -133 -23q-207 0 -207 241q0 120 57 193q54 69 139 69q166 0 166 -231q0 -24 -1 -42l-3 -26h-231zM272 290q0 111 -55 111q-30 0 -46 -37q-14 -31 -15 -74h116zM319 656v-75h-212v75h212z" />
    <glyph glyph-name="eng" unicode="&#x14b;" horiz-adv-x="458" 
d="M46 342q0 35 -1 76l-3 71h113l7 -56h2q42 64 118 64q67 0 100 -51q30 -46 30 -132v-277q0 -107 -51 -165q-43 -49 -119 -61l-29 100q35 8 50 29q18 25 18 78v288q0 36 -10 56q-12 25 -38 25q-35 0 -49 -44q-7 -17 -7 -45v-298h-131v342z" />
    <glyph glyph-name="eogonek" unicode="&#x119;" horiz-adv-x="419" 
d="M351 -172q-23 -18 -50 -27q-21 -6 -44 -6q-94 0 -94 82q0 32 22 66q18 28 46 50v1h-5q-197 6 -197 241q0 120 57 193q54 69 138 69q167 0 167 -231q0 -23 -1 -41l-3 -27h-231q1 -104 103 -104q25 0 51 5q21 4 42 11l17 -93l-38 -14q-78 -49 -78 -94q0 -30 29 -30
q23 0 47 12zM272 290q0 111 -56 111q-29 0 -45 -37q-14 -31 -15 -74h116z" />
    <glyph glyph-name="gbreve" unicode="&#x11f;" horiz-adv-x="447" 
d="M403 55q0 -144 -59 -201q-57 -54 -159 -54q-68 0 -122 23l24 100q44 -20 93 -20q92 0 92 119v30h-2q-27 -49 -88 -49q-76 0 -117 75q-35 64 -35 162q0 118 48 189q46 68 116 68q60 0 90 -58h2l7 50h115q-5 -75 -5 -155v-279zM272 310q0 19 -5 36q-11 40 -42 40
q-33 0 -51 -42q-15 -37 -15 -101q0 -137 64 -137q30 0 43 35q6 13 6 39v130zM180 679q5 -53 52 -53q56 0 56 53h64q2 -54 -32 -90t-89 -36q-53 0 -86 36q-32 36 -30 90h65z" />
    <glyph glyph-name="gcircumflex" unicode="&#x11d;" horiz-adv-x="447" 
d="M403 55q0 -144 -59 -201q-57 -54 -159 -54q-68 0 -122 23l24 100q44 -20 93 -20q92 0 92 119v30h-2q-27 -49 -88 -49q-76 0 -117 75q-35 64 -35 162q0 118 48 189q46 68 116 68q60 0 90 -58h2l7 50h115q-5 -75 -5 -155v-279zM272 310q0 19 -5 36q-11 40 -42 40
q-33 0 -51 -42q-15 -37 -15 -101q0 -137 64 -137q30 0 43 35q6 13 6 39v130zM275 689l85 -140h-89l-41 80h-2l-39 -80h-91l86 140h91z" />
    <glyph glyph-name="uni0123" unicode="&#x123;" horiz-adv-x="447" 
d="M403 55q0 -144 -59 -201q-57 -54 -159 -54q-68 0 -122 23l24 100q44 -20 93 -20q92 0 92 119v30h-2q-27 -49 -88 -49q-76 0 -117 75q-35 64 -35 162q0 118 48 189q46 68 116 68q60 0 90 -58h2l7 50h115q-5 -75 -5 -155v-279zM272 310q0 19 -5 36q-11 40 -42 40
q-33 0 -51 -42q-15 -37 -15 -101q0 -137 63 -137q31 0 44 35q6 13 6 39v130zM318 671q-66 -12 -66 -57q0 -37 36 -62l-90 -13q-37 30 -37 73q0 51 40 80q35 25 97 31z" />
    <glyph glyph-name="gdotaccent" unicode="&#x121;" horiz-adv-x="447" 
d="M403 55q0 -144 -59 -201q-57 -54 -159 -54q-68 0 -122 23l24 100q44 -20 93 -20q92 0 92 119v30h-2q-27 -49 -88 -49q-76 0 -117 75q-35 64 -35 162q0 118 48 189q46 68 116 68q60 0 90 -58h2l7 50h115q-5 -75 -5 -155v-279zM272 310q0 19 -5 36q-11 40 -42 40
q-33 0 -51 -42q-15 -37 -15 -101q0 -137 64 -137q30 0 43 35q6 13 6 39v130zM229 560q-59 0 -59 64t60 64t60 -64t-60 -64h-1z" />
    <glyph glyph-name="hbar" unicode="&#x127;" horiz-adv-x="458" 
d="M281 0v297q0 41 -9 63q-12 27 -39 27q-37 0 -51 -46q-5 -20 -5 -37v-304h-131v533h-61v82h61v77h131v-77h132v-82h-132v-95h2q17 24 42 41q31 18 66 18q125 0 125 -200v-297h-131z" />
    <glyph glyph-name="hcircumflex" unicode="&#x125;" horiz-adv-x="458" 
d="M46 692h131v-254h2q17 24 42 41q31 18 66 18q125 0 125 -200v-297h-131v297q0 41 -9 63q-12 27 -39 27q-37 0 -51 -46q-5 -20 -5 -37v-304h-131v692zM163 834l84 -110h-96l-39 52h-2l-38 -52h-93l81 110h103z" />
    <glyph glyph-name="ibreve" unicode="&#x12d;" horiz-adv-x="223" 
d="M48 0v489h131v-489h-131zM61 679q5 -53 52 -53q56 0 56 53h64q3 -54 -31 -90q-35 -36 -90 -36q-53 0 -85 36q-33 36 -31 90h65z" />
    <glyph glyph-name="ij" unicode="&#x133;" horiz-adv-x="447" 
d="M48 0v489h131v-489h-131zM110 547q-67 0 -65 71q-2 72 67 72q67 0 67 -72q1 -71 -68 -71h-1zM187 -96q46 6 64 26q22 24 22 130v429h131v-454q0 -79 -17 -125q-15 -42 -48 -68q-26 -20 -67 -31q-36 -10 -75 -11zM336 547q-67 0 -65 71q-2 72 67 72q67 0 67 -72
q1 -71 -68 -71h-1z" />
    <glyph glyph-name="imacron" unicode="&#x12b;" horiz-adv-x="223" 
d="M46 0v489h131v-489h-131zM219 656v-75h-212v75h212z" />
    <glyph glyph-name="iogonek" unicode="&#x12f;" horiz-adv-x="223" 
d="M108 547q-67 0 -65 71q-2 72 67 72q67 0 67 -72q2 -71 -68 -71h-1zM177 0h-51q-25 -43 -25 -80q0 -42 40 -42q26 0 39 6l16 -66q-20 -14 -45 -20q-20 -5 -43 -5q-98 0 -98 96q0 32 14 67q5 12 12 26l10 18v489h131v-489z" />
    <glyph glyph-name="itilde" unicode="&#x129;" horiz-adv-x="223" 
d="M46 0v489h131v-489h-131zM-10 557q0 51 18 83q19 34 53 34q16 0 32 -6q6 -2 13 -6l15 -7l16 -10q10 -5 19 -5q21 0 21 37h58q0 -114 -70 -114q-13 0 -28 5l-25 11q-5 2 -11 6l-5 3q-2 1 -4 3q-10 5 -19 5q-23 0 -23 -39h-60z" />
    <glyph glyph-name="jcircumflex" unicode="&#x135;" horiz-adv-x="224" 
d="M-38 -96q46 6 64 26q22 24 22 130v429h131v-454q0 -79 -17 -125q-15 -42 -48 -68q-25 -20 -67 -31q-36 -10 -75 -11zM144 686l86 -140h-79l-38 76h-2l-39 -76h-75l82 140h65z" />
    <glyph glyph-name="uni0137" unicode="&#x137;" horiz-adv-x="413" 
d="M176 275h2q13 41 24 68l64 146h141l-119 -205l126 -284h-146l-70 201l-22 -42v-159h-131v692h131v-417zM123 -166q23 6 38 18q20 15 20 34q0 16 -11 35q-8 13 -21 26l95 12q37 -24 37 -73q0 -50 -40 -79q-36 -25 -97 -31z" />
    <glyph glyph-name="lacute" unicode="&#x13a;" horiz-adv-x="225" 
d="M46 692h131v-692h-131v692zM265 837l-122 -113h-93l82 113h133z" />
    <glyph glyph-name="lcaron" unicode="&#x13e;" horiz-adv-x="233" 
d="M46 692h131v-692h-131v692zM215 528q12 17 20 37q10 26 10 51q0 40 -28 66l81 13q34 -22 34 -73q0 -44 -27 -84q-10 -15 -23 -28q-4 -5 -10 -10l-4 -4q0 -1 -2 -2l-2 -2z" />
    <glyph glyph-name="uni013C" unicode="&#x13c;" horiz-adv-x="225" 
d="M46 692h131v-692h-131v692zM26 -166q23 6 38 18q20 15 20 34q0 16 -11 35q-8 13 -21 26l95 12q37 -24 37 -73q0 -50 -40 -79q-36 -25 -97 -31z" />
    <glyph glyph-name="ldot" unicode="&#x140;" horiz-adv-x="321" 
d="M46 692h131v-692h-131v692zM273 353q-55 0 -55 62t56 62q55 0 55 -62t-55 -62h-1z" />
    <glyph glyph-name="nacute" unicode="&#x144;" horiz-adv-x="458" 
d="M46 342q0 35 -1 76l-3 71h113l7 -56h2q42 64 118 64q67 0 100 -51q30 -46 30 -132v-314h-131v306q0 36 -10 56q-12 25 -38 25q-35 0 -49 -44q-7 -17 -7 -45v-298h-131v342zM368 689l-101 -140h-82l69 140h114z" />
    <glyph glyph-name="ncaron" unicode="&#x148;" horiz-adv-x="458" 
d="M46 342q0 35 -1 76l-3 71h113l7 -56h2q42 64 118 64q67 0 100 -51q30 -46 30 -132v-314h-131v306q0 36 -10 56q-12 25 -38 25q-35 0 -49 -44q-7 -17 -7 -45v-298h-131v342zM183 549l-85 140h89l41 -80h2l40 80h91l-86 -140h-92z" />
    <glyph glyph-name="uni0146" unicode="&#x146;" horiz-adv-x="458" 
d="M46 342q0 35 -1 76l-3 71h113l7 -56h2q42 64 118 64q67 0 100 -51q30 -46 30 -132v-314h-131v306q0 36 -10 56q-12 25 -38 25q-35 0 -49 -44q-7 -17 -7 -45v-298h-131v342zM146 -164q23 6 38 18q20 15 20 34q0 16 -11 35q-8 13 -21 26l95 12q37 -24 37 -73q0 -50 -40 -79
q-36 -25 -97 -31z" />
    <glyph glyph-name="obreve" unicode="&#x14f;" horiz-adv-x="431" 
d="M216 -8q-187 0 -187 251q0 124 58 193q52 61 131 61q87 0 136 -68q49 -67 49 -183q0 -72 -19 -125q-16 -47 -47 -78q-26 -27 -60 -40q-29 -11 -60 -11h-1zM219 92q29 0 43 50q11 39 11 103q0 62 -11 102q-14 50 -45 50q-32 0 -47 -50q-11 -39 -11 -102q0 -70 12 -108
q15 -45 47 -45h1zM163 679q5 -53 52 -53q56 0 56 53h64q2 -54 -32 -90t-89 -36q-53 0 -86 36q-32 36 -30 90h65z" />
    <glyph glyph-name="ohungarumlaut" unicode="&#x151;" horiz-adv-x="431" 
d="M216 -8q-187 0 -187 251q0 124 58 193q52 61 131 61q87 0 136 -68q49 -67 49 -183q0 -72 -19 -125q-16 -47 -47 -78q-26 -27 -60 -40q-29 -11 -60 -11h-1zM219 92q29 0 43 50q11 39 11 103q0 62 -11 102q-14 50 -45 50q-32 0 -47 -50q-11 -39 -11 -102q0 -70 12 -108
q15 -45 47 -45h1zM277 689l-100 -140h-67l72 140h95zM415 689l-100 -140h-67l72 140h95z" />
    <glyph glyph-name="omacron" unicode="&#x14d;" horiz-adv-x="431" 
d="M216 -8q-187 0 -187 251q0 124 58 193q52 61 131 61q87 0 136 -68q49 -67 49 -183q0 -72 -19 -125q-16 -47 -47 -78q-26 -27 -60 -40q-29 -11 -60 -11h-1zM219 92q29 0 43 50q11 39 11 103q0 62 -11 102q-14 50 -45 50q-32 0 -47 -50q-11 -39 -11 -102q0 -70 12 -108
q15 -45 47 -45h1zM323 656v-75h-212v75h212z" />
    <glyph glyph-name="oslashacute" unicode="&#x1ff;" horiz-adv-x="431" 
d="M218 497q46 0 87 -25l32 58l58 -32l-40 -72q47 -67 47 -180q0 -72 -19 -125q-16 -47 -46 -78q-26 -27 -60 -40q-29 -11 -60 -11q-49 0 -91 24l-32 -57l-55 37l38 67q-48 63 -48 180q0 124 58 193q52 61 130 61h1zM255 372q-11 25 -40 25q-38 0 -54 -56q-6 -21 -9 -49
q-2 -22 -2 -47q0 -32 4 -61l3 -2zM179 118q10 -26 38 -26q34 0 50 45q14 36 14 96v32q-1 19 -4 34h-4zM353 689l-101 -140h-82l69 140h114z" />
    <glyph glyph-name="racute" unicode="&#x155;" horiz-adv-x="294" 
d="M46 342q0 33 -1 74l-3 73h113l7 -72h4q32 80 96 80q9 0 17 -1l11 -1v-130q-8 1 -28 1q-24 0 -45 -16q-24 -18 -34 -53q-6 -16 -6 -49v-248h-131v342zM289 689l-101 -140h-82l69 140h114z" />
    <glyph glyph-name="rcaron" unicode="&#x159;" horiz-adv-x="294" 
d="M46 342q0 33 -1 74l-3 73h113l7 -72h4q32 80 96 80q9 0 17 -1l11 -1v-130q-8 1 -28 1q-24 0 -45 -16q-24 -18 -34 -53q-6 -16 -6 -49v-248h-131v342zM111 549l-85 140h89l41 -80h2l40 80h91l-86 -140h-92z" />
    <glyph glyph-name="uni0157" unicode="&#x157;" horiz-adv-x="294" 
d="M46 342q0 33 -1 74l-3 73h113l7 -72h4q32 80 96 80q9 0 17 -1l11 -1v-130q-8 1 -28 1q-24 0 -45 -16q-24 -18 -34 -53q-6 -16 -6 -49v-248h-131v342zM48 -166q23 6 38 18q20 15 20 34q0 16 -11 35q-8 13 -21 26l95 12q37 -24 37 -73q0 -50 -40 -79q-36 -25 -97 -31z" />
    <glyph glyph-name="sacute" unicode="&#x15b;" horiz-adv-x="324" 
d="M42 118q41 -26 88 -26q53 0 53 43q0 33 -57 67q-55 31 -79 70q-20 32 -20 70q0 67 44 111q45 44 117 44q53 0 99 -23l-23 -96q-35 20 -68 20q-49 0 -49 -41q0 -29 57 -62q99 -56 99 -147q0 -73 -49 -114q-46 -40 -124 -40q-75 0 -111 28zM301 689l-101 -140h-82l69 140
h114z" />
    <glyph glyph-name="scedilla" unicode="&#x15f;" horiz-adv-x="324" 
d="M42 118q41 -26 88 -26q53 0 53 43q0 32 -57 67q-55 31 -79 70q-20 32 -20 70q0 67 44 111t116 44q54 0 100 -23l-23 -96q-35 20 -69 20q-48 0 -48 -41q0 -29 57 -62q99 -56 99 -147q0 -115 -110 -146l-23 -46q68 -12 68 -73q0 -45 -34 -67q-30 -20 -77 -20q-44 0 -75 18
l19 56q28 -14 52 -14q32 0 32 25q0 31 -68 37l34 76h-2q-21 0 -47 6q-31 8 -53 22z" />
    <glyph glyph-name="scedilla" unicode="&#xf6c2;" horiz-adv-x="324" 
d="M42 118q41 -26 88 -26q53 0 53 43q0 32 -57 67q-55 31 -79 70q-20 32 -20 70q0 67 44 111t116 44q54 0 100 -23l-23 -96q-35 20 -69 20q-48 0 -48 -41q0 -29 57 -62q99 -56 99 -147q0 -115 -110 -146l-23 -46q68 -12 68 -73q0 -45 -34 -67q-30 -20 -77 -20q-44 0 -75 18
l19 56q28 -14 52 -14q32 0 32 25q0 31 -68 37l34 76h-2q-21 0 -47 6q-31 8 -53 22z" />
    <glyph glyph-name="scircumflex" unicode="&#x15d;" horiz-adv-x="324" 
d="M42 118q41 -26 88 -26q53 0 53 43q0 33 -57 67q-55 31 -79 70q-20 32 -20 70q0 67 44 111q45 44 117 44q53 0 99 -23l-23 -96q-35 20 -68 20q-49 0 -49 -41q0 -29 57 -62q99 -56 99 -147q0 -73 -49 -114q-46 -40 -124 -40q-75 0 -111 28zM208 689l85 -140h-89l-41 80h-2
l-39 -80h-91l86 140h91z" />
    <glyph glyph-name="uni0219" unicode="&#x219;" horiz-adv-x="324" 
d="M42 118q41 -26 88 -26q53 0 53 43q0 33 -57 67q-55 31 -79 70q-20 32 -20 70q0 67 44 111q45 44 117 44q53 0 99 -23l-23 -96q-35 20 -68 20q-49 0 -49 -41q0 -29 57 -62q99 -56 99 -147q0 -73 -49 -114q-46 -40 -124 -40q-75 0 -111 28zM69 -166q23 6 38 18q20 15 20 34
q0 16 -11 35q-8 13 -21 26l95 12q37 -24 37 -73q0 -50 -40 -79q-36 -25 -97 -31z" />
    <glyph glyph-name="tbar" unicode="&#x167;" horiz-adv-x="311" 
d="M200 396v-70h74v-82h-74v-71q0 -71 49 -71q17 0 35 3l1 -102q-32 -9 -80 -9q-61 0 -95 31q-41 41 -41 140v79h-56v82h56v70h-58v93h58v86l131 41v-127h96v-93h-96z" />
    <glyph glyph-name="tcaron" unicode="&#x165;" horiz-adv-x="321" 
d="M200 616v-127h96v-93h-96v-223q0 -71 50 -71q18 0 34 3l1 -102q-32 -9 -80 -9q-61 0 -95 31q-41 41 -41 140v231h-58v93h58v86zM262 576q30 32 30 81q0 19 -7 37q-6 15 -15 25l88 12q14 -9 23 -24q11 -19 11 -44q0 -41 -29 -79q-10 -13 -24 -25q-5 -5 -11 -9q-4 -4 -9 -7
z" />
    <glyph glyph-name="uni0163" unicode="&#x163;" horiz-adv-x="311" 
d="M200 616v-127h96v-93h-96v-223q0 -71 49 -71q17 0 35 3l1 -102q-32 -9 -80 -9q-61 0 -95 31q-41 41 -41 140v231h-58v93h58v86zM76 -166q23 6 38 18q20 15 20 34q0 16 -11 35q-8 13 -21 26l95 12q37 -24 37 -73q0 -50 -40 -79q-36 -25 -97 -31z" />
    <glyph glyph-name="uni0163" unicode="&#x21b;" horiz-adv-x="311" 
d="M200 616v-127h96v-93h-96v-223q0 -71 49 -71q17 0 35 3l1 -102q-32 -9 -80 -9q-61 0 -95 31q-41 41 -41 140v231h-58v93h58v86zM76 -166q23 6 38 18q20 15 20 34q0 16 -11 35q-8 13 -21 26l95 12q37 -24 37 -73q0 -50 -40 -79q-36 -25 -97 -31z" />
    <glyph glyph-name="ubreve" unicode="&#x16d;" horiz-adv-x="452" 
d="M404 149q0 -35 1 -77l3 -72h-113l-7 52h-2q-42 -60 -114 -60q-130 0 -130 201v296h131v-282q0 -105 49 -105q31 0 43 33q8 16 8 42v312h131v-340zM173 679q5 -53 52 -53q56 0 56 53h64q2 -54 -32 -90t-89 -36q-53 0 -86 36q-32 36 -30 90h65z" />
    <glyph glyph-name="uhungarumlaut" unicode="&#x171;" horiz-adv-x="452" 
d="M404 149q0 -35 1 -77l3 -72h-113l-7 52h-2q-42 -60 -114 -60q-130 0 -130 201v296h131v-282q0 -105 49 -105q31 0 43 33q8 16 8 42v312h131v-340zM288 689l-100 -140h-67l72 140h95zM426 689l-100 -140h-67l72 140h95z" />
    <glyph glyph-name="umacron" unicode="&#x16b;" horiz-adv-x="452" 
d="M404 149q0 -35 1 -77l3 -72h-113l-7 52h-2q-42 -60 -114 -60q-130 0 -130 201v296h131v-282q0 -105 49 -105q31 0 43 33q8 16 8 42v312h131v-340zM333 656v-75h-212v75h212z" />
    <glyph glyph-name="uogonek" unicode="&#x173;" horiz-adv-x="452" 
d="M404 150q0 -75 5 -150h-34q-25 -43 -25 -80q0 -42 40 -42q26 0 39 6l16 -66q-20 -14 -45 -20q-19 -5 -43 -5q-97 0 -97 96q0 31 14 67l11 26q3 4 6 10q0 1 2 4q1 3 2 4l-7 52h-2q-42 -60 -114 -60q-130 0 -130 201v296h131v-282q0 -105 49 -105q31 0 43 33q8 16 8 42v312
h131v-339z" />
    <glyph glyph-name="uring" unicode="&#x16f;" horiz-adv-x="452" 
d="M404 149q0 -35 1 -77l3 -72h-113l-7 52h-2q-42 -60 -114 -60q-130 0 -130 201v296h131v-282q0 -105 49 -105q31 0 43 33q8 16 8 42v312h131v-340zM228 721q101 0 101 -91t-102 -91q-103 0 -103 88q0 94 103 94h1zM225 678q-39 0 -39 -50q0 -17 8 -29q11 -17 32 -17
q41 0 41 48t-41 48h-1z" />
    <glyph glyph-name="utilde" unicode="&#x169;" horiz-adv-x="452" 
d="M404 149q0 -35 1 -77l3 -72h-113l-7 52h-2q-42 -60 -114 -60q-130 0 -130 201v296h131v-282q0 -105 49 -105q31 0 43 33q8 16 8 42v312h131v-340zM104 557q0 51 18 83q19 34 53 34q16 0 32 -6q6 -2 13 -6l15 -7l16 -10q10 -5 19 -5q21 0 21 37h58q0 -114 -70 -114
q-13 0 -28 5l-25 11q-5 2 -11 6l-9 6q-10 5 -19 5q-23 0 -23 -39h-60z" />
    <glyph glyph-name="wacute" unicode="&#x1e83;" horiz-adv-x="616" 
d="M146 489l26 -211l8 -67q1 -5 1 -10q6 -44 8 -71h3q10 67 27 146l43 213h101l56 -286q7 -40 11 -73h2q5 62 17 150l30 209h130l-126 -489h-112l-36 171q-17 76 -25 152h-2q-5 -38 -13 -80q-6 -33 -16 -73l-41 -170h-113l-120 489h141zM447 689l-101 -140h-82l69 140h114z
" />
    <glyph glyph-name="wcircumflex" unicode="&#x175;" horiz-adv-x="616" 
d="M146 489l26 -211l8 -67q1 -5 1 -10q6 -44 8 -71h3q10 67 27 146l43 213h101l56 -286q7 -40 11 -73h2q5 62 17 150l30 209h130l-126 -489h-112l-36 171q-17 76 -25 152h-2q-5 -38 -13 -80q-6 -33 -16 -73l-41 -170h-113l-120 489h141zM354 689l85 -140h-89l-41 80h-2
l-39 -80h-91l86 140h91z" />
    <glyph glyph-name="wdieresis" unicode="&#x1e85;" horiz-adv-x="616" 
d="M146 489l26 -211l8 -67q1 -5 1 -10q6 -44 8 -71h3q10 67 27 146l43 213h101l56 -286q7 -40 11 -73h2q5 62 17 150l30 209h130l-126 -489h-112l-36 171q-17 76 -25 152h-2q-5 -38 -13 -80q-6 -33 -16 -73l-41 -170h-113l-120 489h141zM218 560q-59 0 -59 64t60 64t60 -64
t-60 -64h-1zM395 560q-59 0 -59 64t60 64t60 -64t-60 -64h-1z" />
    <glyph glyph-name="wgrave" unicode="&#x1e81;" horiz-adv-x="616" 
d="M146 489l26 -211l8 -67q1 -5 1 -10q6 -44 8 -71h3q10 67 27 146l43 213h101l56 -286q7 -40 11 -73h2q5 62 17 150l30 209h130l-126 -489h-112l-36 171q-17 76 -25 152h-2q-5 -38 -13 -80q-6 -33 -16 -73l-41 -170h-113l-120 489h141zM300 689l69 -140h-82l-101 140h114z
" />
    <glyph glyph-name="ycircumflex" unicode="&#x177;" horiz-adv-x="391" 
d="M146 489l48 -255l14 -82h2l11 80l41 257h128l-100 -378q-10 -38 -20 -69q-11 -37 -24 -67q-29 -70 -65 -113q-27 -33 -63 -55q-27 -17 -48 -22l-39 113q35 13 64 40q26 25 41 59l5 11q2 5 2 10q0 4 -1 9l-137 462h141zM245 689l85 -140h-89l-41 80h-2l-39 -80h-91l86 140
h91z" />
    <glyph glyph-name="ygrave" unicode="&#x1ef3;" horiz-adv-x="391" 
d="M146 489l48 -255l14 -82h2l11 80l41 257h128l-100 -378q-10 -38 -20 -69q-11 -37 -24 -67q-29 -70 -65 -113q-27 -33 -63 -55q-27 -17 -48 -22l-39 113q35 13 64 40q26 25 41 59l5 11q2 5 2 10q0 4 -1 9l-137 462h141zM189 689l69 -140h-82l-101 140h114z" />
    <glyph glyph-name="zacute" unicode="&#x17a;" horiz-adv-x="351" 
d="M18 82l120 218l25 43q15 24 21 36v3h-151v107h293v-89l-163 -290v-3h168v-107h-313v82zM317 689l-101 -140h-82l69 140h114z" />
    <glyph glyph-name="zdotaccent" unicode="&#x17c;" horiz-adv-x="351" 
d="M18 82l120 218l25 43q15 24 21 36v3h-151v107h293v-89l-163 -290v-3h168v-107h-313v82zM176 560q-59 0 -59 64t60 64t60 -64t-60 -64h-1z" />
    <glyph glyph-name="kgreenlandic" unicode="&#x138;" horiz-adv-x="413" 
d="M176 275h2q13 41 24 68l64 146h141l-119 -205l126 -284h-146l-70 201l-22 -42v-159h-131v489h131v-214z" />
    <glyph glyph-name="napostrophe" unicode="&#x149;" horiz-adv-x="458" 
d="M46 342q0 35 -1 76l-3 71h113l7 -56h2q42 64 118 64q67 0 100 -51q30 -46 30 -132v-314h-131v306q0 36 -10 56q-12 25 -38 25q-35 0 -49 -44q-7 -17 -7 -45v-298h-131v342zM-4 552q12 14 20 34q10 23 10 45q0 38 -28 60l89 12q34 -20 34 -67q0 -39 -27 -75
q-10 -13 -23 -25q-4 -5 -10 -9l-8 -7z" />
    <glyph glyph-name="tonos" unicode="&#x384;" horiz-adv-x="312" 
d="M225 689l-62 -140h-74l31 140h105z" />
    <glyph glyph-name="dieresistonos" unicode="&#x385;" horiz-adv-x="430" 
d="M273 712l-42 -161h-70l11 161h101zM80 562q-55 0 -55 59q0 58 56 58q54 0 54 -58q0 -59 -54 -59h-1zM336 562q-54 0 -54 59q0 58 55 58t55 -58q0 -59 -55 -59h-1z" />
    <glyph glyph-name="Alpha" unicode="&#x391;" horiz-adv-x="458" 
d="M165 154l-30 -154h-127l146 674h157l131 -674h-128l-28 154h-121zM274 256l-22 141l-11 75q-3 17 -6 41l-5 37h-3l-24 -153l-25 -141h96z" />
    <glyph glyph-name="Beta" unicode="&#x392;" horiz-adv-x="483" 
d="M58 664q58 13 149 13q54 0 92 -9q47 -11 79 -39q51 -42 51 -123q0 -103 -97 -146v-4q119 -34 119 -161q0 -80 -50 -132q-62 -68 -221 -68q-69 0 -122 7v662zM189 397h28q83 0 83 94q0 88 -76 88q-24 0 -35 -4v-178zM189 98q8 -2 29 -2q97 0 97 101q0 49 -29 77
q-28 26 -69 26h-28v-202z" />
    <glyph glyph-name="Gamma" unicode="&#x393;" horiz-adv-x="361" 
d="M354 674v-111h-165v-563h-131v674h296z" />
    <glyph glyph-name="uni0394" unicode="&#x394;" horiz-adv-x="468" 
d="M11 65l146 609h157l135 -605v-69h-438v65zM318 116l-50 234q-8 40 -19 105q-10 58 -15 95h-3q-5 -32 -16 -91l-20 -102l-54 -241h177z" />
    <glyph glyph-name="uni0394" unicode="&#xe000;" horiz-adv-x="468" 
d="M11 65l146 609h157l135 -605v-69h-438v65zM318 116l-50 234q-8 40 -19 105q-10 58 -15 95h-3q-5 -32 -16 -91l-20 -102l-54 -241h177z" />
    <glyph glyph-name="Epsilon" unicode="&#x395;" horiz-adv-x="394" 
d="M342 296h-153v-182h173v-114h-304v674h293v-114h-162v-155h153v-109z" />
    <glyph glyph-name="Zeta" unicode="&#x396;" horiz-adv-x="387" 
d="M11 76l213 481v3h-193v114h341v-96l-204 -461v-3h203v-114h-360v76z" />
    <glyph glyph-name="Eta" unicode="&#x397;" horiz-adv-x="515" 
d="M189 674v-270h137v270h131v-674h-131v282h-137v-282h-131v674h131z" />
    <glyph glyph-name="Theta" unicode="&#x398;" horiz-adv-x="489" 
d="M242 -8q-109 0 -166 104q-51 92 -51 242q0 147 57 241q61 103 170 103q59 0 102 -30q40 -28 66 -79q23 -45 34 -107q10 -55 10 -117q0 -183 -62 -274q-57 -83 -159 -83h-1zM247 104q42 0 64 67q19 61 19 171q0 101 -18 160q-22 68 -66 68q-43 0 -66 -68q-21 -62 -21 -162
q0 -108 21 -169q22 -67 66 -67h1zM301 403v-122h-113v122h113z" />
    <glyph glyph-name="Iota" unicode="&#x399;" horiz-adv-x="248" 
d="M189 674v-674h-131v674h131z" />
    <glyph glyph-name="Kappa" unicode="&#x39a;" horiz-adv-x="459" 
d="M58 674h131v-303h3q4 9 8 21l16 44q4 13 8 22l90 216h145l-152 -293l154 -381h-144l-98 279l-30 -55v-224h-131v674z" />
    <glyph glyph-name="Lambda" unicode="&#x39b;" horiz-adv-x="454" 
d="M310 0l-54 318q-10 58 -16 103q-9 56 -15 105h-3q-12 -106 -27 -211l-53 -315h-135l147 674h148l144 -674h-136z" />
    <glyph glyph-name="Mu" unicode="&#x39c;" horiz-adv-x="637" 
d="M470 236q-4 57 -5 108q-3 65 -2 115h-2q-8 -51 -21 -111q-11 -54 -22 -96l-59 -241h-92l-56 237q-11 47 -22 98q-12 63 -20 113h-2l-22 -459h-112l48 674h139l80 -365q13 -66 21 -115h3q7 51 18 114l24 122l54 244h138l41 -674h-117z" />
    <glyph glyph-name="Nu" unicode="&#x39d;" horiz-adv-x="516" 
d="M58 0v674h120l104 -265q38 -93 72 -196h2l-12 221q-1 48 -1 91v149h115v-674h-120l-103 257q-43 105 -69 202h-2q2 -30 3 -58q2 -35 3 -70l2 -84q1 -47 1 -95v-152h-115z" />
    <glyph glyph-name="Xi" unicode="&#x39e;" horiz-adv-x="418" 
d="M378 674v-114h-339v114h339zM359 400v-112h-303v112h303zM384 114v-114h-351v114h351z" />
    <glyph glyph-name="Omicron" unicode="&#x39f;" horiz-adv-x="481" 
d="M238 -8q-108 0 -164 104q-49 92 -49 243q0 147 55 241q61 102 168 102q58 0 101 -30q38 -28 64 -79q22 -45 33 -107q10 -55 10 -117q0 -183 -61 -274q-55 -83 -156 -83h-1zM243 106q40 0 60 67q17 60 17 170q0 100 -16 157q-20 68 -62 68q-41 0 -63 -68q-19 -61 -18 -160
q-2 -106 18 -167q21 -67 63 -67h1z" />
    <glyph glyph-name="Pi" unicode="&#x3a0;" horiz-adv-x="512" 
d="M454 0h-131v552h-134v-552h-131v674h396v-674z" />
    <glyph glyph-name="Rho" unicode="&#x3a1;" horiz-adv-x="457" 
d="M58 664q60 13 137 13q63 0 105 -11q47 -12 78 -41q58 -52 58 -148q0 -102 -57 -162q-30 -32 -77 -49q-43 -16 -87 -16q-17 0 -26 1v-251h-131v664zM189 357q5 -1 11 -1h11q95 0 95 110q0 105 -85 105q-19 0 -32 -5v-209z" />
    <glyph glyph-name="Sigma" unicode="&#x3a3;" horiz-adv-x="419" 
d="M163 114h229v-114h-377v80l144 260l-141 251v83h359v-114h-201v-3l114 -210l-127 -230v-3z" />
    <glyph glyph-name="Tau" unicode="&#x3a4;" horiz-adv-x="393" 
d="M131 553h-119v121h370v-121h-120v-553h-131v553z" />
    <glyph glyph-name="Upsilon" unicode="&#x3a5;" horiz-adv-x="462" 
d="M26 680q16 0 44 -12q35 -14 60 -36q89 -78 102 -252h6q7 74 34 137q25 58 63 99q23 26 60 46q29 17 41 18l26 -120q-58 -23 -104 -110q-42 -81 -56 -183q-9 -67 -9 -119v-148h-131v148q0 29 -1 58l-4 58q-11 114 -48 192q-41 87 -108 108z" />
    <glyph glyph-name="Phi" unicode="&#x3a6;" horiz-adv-x="584" 
d="M349 -22h-116v53q-95 17 -151 93q-62 82 -62 216q0 69 19 126q17 52 49 92q57 72 145 89v49h116v-49q95 -16 153 -92q61 -81 61 -209q0 -134 -60 -219q-57 -79 -154 -96v-53zM234 549q-34 -13 -56 -63q-27 -59 -27 -149q0 -84 26 -143q24 -53 57 -64v419zM348 130
q36 11 59 63q25 58 25 149q0 92 -28 149q-23 48 -56 58v-419z" />
    <glyph glyph-name="Chi" unicode="&#x3a7;" horiz-adv-x="407" 
d="M275 0l-42 124l-19 59l-17 61h-3q-3 -14 -8 -32l-23 -90l-37 -122h-129l126 345l-121 329h136l40 -125l30 -108h2l29 110l35 123h130l-126 -335l133 -339h-136z" />
    <glyph glyph-name="Psi" unicode="&#x3a8;" horiz-adv-x="574" 
d="M542 507q0 -147 -54 -226q-49 -71 -143 -86v-195h-116v195q-97 15 -143 73q-54 65 -54 195v211h119v-210q0 -154 80 -168v378h112v-378q80 10 80 210v168h119v-167z" />
    <glyph glyph-name="uni03A9" unicode="&#x3a9;" horiz-adv-x="532" 
d="M412 107h94v-107h-214v80q26 36 43 103q22 80 22 175q-1 89 -22 146q-24 64 -67 64q-44 0 -69 -62q-24 -58 -24 -151q0 -86 22 -170q19 -71 43 -105v-80h-213v107h92v3q-35 55 -55 117q-25 75 -25 152q0 129 62 214q65 89 172 89q111 0 170 -95q50 -81 50 -199
q0 -80 -25 -158q-21 -69 -56 -120v-3z" />
    <glyph glyph-name="uni03A9" unicode="&#x2126;" horiz-adv-x="532" 
d="M412 107h94v-107h-214v80q26 36 43 103q22 80 22 175q-1 89 -22 146q-24 64 -67 64q-44 0 -69 -62q-24 -58 -24 -151q0 -86 22 -170q19 -71 43 -105v-80h-213v107h92v3q-35 55 -55 117q-25 75 -25 152q0 129 62 214q65 89 172 89q111 0 170 -95q50 -81 50 -199
q0 -80 -25 -158q-21 -69 -56 -120v-3z" />
    <glyph glyph-name="Alphatonos" unicode="&#x386;" horiz-adv-x="482" 
d="M189 154l-30 -154h-127l146 674h157l131 -674h-128l-28 154h-121zM298 256l-22 141l-11 75q-3 17 -6 41l-5 37h-3l-24 -153l-25 -141h96zM114 674l-34 -166h-67l1 166h100z" />
    <glyph glyph-name="Epsilontonos" unicode="&#x388;" horiz-adv-x="476" 
d="M424 296h-153v-182h173v-114h-304v674h293v-114h-162v-155h153v-109zM102 674l-34 -166h-67v166h101z" />
    <glyph glyph-name="Etatonos" unicode="&#x389;" horiz-adv-x="598" 
d="M272 674v-270h137v270h131v-674h-131v282h-137v-282h-131v674h131zM102 674l-34 -166h-67l1 166h100z" />
    <glyph glyph-name="Iotatonos" unicode="&#x38a;" horiz-adv-x="329" 
d="M271 674v-674h-131v674h131zM102 674l-34 -166h-67v166h101z" />
    <glyph glyph-name="Iotadieresis" unicode="&#x3aa;" horiz-adv-x="248" 
d="M36 710q-58 0 -58 62t59 62q58 0 58 -62t-58 -62h-1zM210 710q-58 0 -58 62t59 62q58 0 58 -62t-58 -62h-1zM189 674v-674h-131v674h131z" />
    <glyph glyph-name="Omicrontonos" unicode="&#x38c;" horiz-adv-x="547" 
d="M304 -8q-108 0 -164 104q-49 92 -49 243q0 147 55 241q61 102 168 102q58 0 101 -30q38 -28 64 -79q22 -45 33 -107q10 -55 10 -117q0 -183 -61 -274q-55 -83 -156 -83h-1zM309 106q40 0 60 67q17 60 17 170q0 100 -16 157q-20 68 -62 68q-41 0 -63 -68q-19 -61 -18 -160
q-2 -106 18 -167q21 -67 63 -67h1zM102 674l-34 -166h-67v166h101z" />
    <glyph glyph-name="Upsilontonos" unicode="&#x38e;" horiz-adv-x="586" 
d="M150 680q16 0 44 -12q35 -14 60 -36q89 -78 102 -252h6q7 74 34 137q25 58 63 99q23 26 60 46q29 17 41 18l26 -120q-58 -23 -104 -110q-42 -81 -56 -183q-9 -67 -9 -119v-148h-131v148q0 29 -1 58l-4 58q-11 114 -48 192q-41 87 -108 108zM102 674l-34 -166h-67v166h101
z" />
    <glyph glyph-name="Upsilondieresis" unicode="&#x3ab;" horiz-adv-x="462" 
d="M150 692q-58 0 -58 62t59 62q58 0 58 -62t-58 -62h-1zM324 692q-58 0 -58 62t59 62q58 0 58 -62t-58 -62h-1zM26 680q16 0 44 -12q35 -14 60 -36q89 -78 102 -252h6q7 74 34 137q25 58 63 99q23 26 60 46q29 17 41 18l26 -120q-58 -23 -104 -110q-42 -81 -56 -183
q-9 -67 -9 -119v-148h-131v148q0 29 -1 58l-4 58q-11 114 -48 192q-41 87 -108 108z" />
    <glyph glyph-name="Omegatonos" unicode="&#x38f;" horiz-adv-x="585" 
d="M466 107h94v-107h-214v80q26 36 43 103q22 80 22 175q-1 89 -22 146q-24 64 -67 64q-44 0 -69 -62q-24 -58 -24 -151q0 -86 22 -170q19 -71 43 -105v-80h-213v107h92v3q-35 55 -55 117q-25 75 -25 152q0 129 62 214q65 89 172 89q111 0 170 -95q50 -81 50 -199
q0 -80 -25 -158q-21 -69 -56 -120v-3zM102 674l-34 -166h-67v166h101z" />
    <glyph glyph-name="alpha" unicode="&#x3b1;" horiz-adv-x="446" 
d="M406 489q-4 -28 -8 -139l-4 -105q-1 -57 -1 -102q0 -53 38 -53l-11 -93q-14 -5 -33 -5q-72 0 -87 74h-3q-32 -74 -108 -74q-77 0 -120 72q-40 65 -40 164q0 124 54 200q49 69 118 69q67 0 90 -64h4l13 56h98zM159 241q0 -142 57 -142q37 0 47 68q5 42 5 77q0 39 -3 69
q-5 77 -45 77q-27 0 -45 -45q-16 -42 -16 -103v-1z" />
    <glyph glyph-name="beta" unicode="&#x3b2;" horiz-adv-x="454" 
d="M173 25v-42q0 -117 13 -175h-121q-21 44 -21 176v438q0 97 14 148q12 47 45 81q47 49 125 49q77 0 122 -53q42 -49 42 -128q0 -50 -22 -91q-20 -36 -50 -53v-5q44 -15 74 -61q32 -50 32 -118q0 -88 -45 -143q-45 -56 -117 -56q-56 0 -89 33h-2zM173 132q21 -33 58 -33
q66 0 66 104q0 97 -72 108l-10 2h-8v95q6 0 12 2q53 17 53 103q0 32 -11 54q-14 26 -36 26q-52 0 -52 -138v-323z" />
    <glyph glyph-name="gamma" unicode="&#x3b3;" horiz-adv-x="402" 
d="M126 -192v104q-1 47 -3 81q-5 71 -21 142q-12 55 -28 111q-14 48 -30 98l-29 82l-25 63h139q21 -56 41 -140q11 -48 20 -97q11 -56 17 -110h4q20 70 33 140q16 88 15 155q0 36 -1 52h119q3 -16 3 -40q0 -181 -124 -422q0 -1 -1 -2l-1 -2q-1 -3 -2 -4q-2 -5 -2 -10
q2 -41 3 -99l1 -102h-128z" />
    <glyph glyph-name="delta" unicode="&#x3b4;" horiz-adv-x="439" 
d="M354 577q-17 10 -36 16q-26 9 -49 9q-40 0 -40 -27q0 -10 13 -28l13 -18l73 -88q37 -45 58 -91q24 -56 24 -114q0 -119 -63 -186q-54 -58 -130 -58q-85 0 -137 66q-51 66 -51 170q0 80 41 145q34 54 84 85v4l-27 37q-8 13 -14 25q-16 32 -16 58q0 49 38 82q42 36 112 36
q47 0 85 -12q31 -11 50 -27zM216 388q-56 -50 -56 -163q0 -133 61 -133q30 0 46 41q14 35 14 89q0 83 -42 137z" />
    <glyph glyph-name="epsilon" unicode="&#x3b5;" horiz-adv-x="369" 
d="M128 263q-79 19 -79 101q0 55 44 92q49 41 138 41q69 0 106 -25l-20 -90q-32 15 -75 15q-68 0 -68 -48q0 -26 32 -39q26 -10 69 -10h15v-89h-19q-48 -2 -75 -15q-33 -15 -33 -46q0 -56 76 -56q29 0 60 8q26 7 38 14l12 -94q-50 -30 -141 -30q-78 0 -126 35
q-54 38 -54 112q0 44 32 79q30 32 68 40v5z" />
    <glyph glyph-name="zeta" unicode="&#x3b6;" horiz-adv-x="349" 
d="M196 -112q22 44 28 91q-57 14 -92 35q-46 26 -72 70q-31 53 -31 124q0 97 49 201q45 96 121 176v4h-32q-59 0 -95 10l11 91q44 -3 124 -3h127l18 -90q-71 -44 -130 -149q-62 -110 -62 -206q0 -115 81 -150q19 -9 47 -16q20 -5 49 -11q9 -2 9 -12q0 -59 -23 -118
q-18 -46 -41 -74z" />
    <glyph glyph-name="eta" unicode="&#x3b7;" horiz-adv-x="458" 
d="M164 433q42 64 118 64q67 0 100 -51q30 -46 30 -132v-331q0 -49 3 -102q3 -47 6 -73h-121q-19 37 -19 176v322q0 36 -10 56q-12 25 -38 25q-35 0 -49 -44q-7 -17 -7 -45v-298h-131v342q0 100 -14 147h114l10 -25q5 -17 6 -31h2z" />
    <glyph glyph-name="theta" unicode="&#x3b8;" horiz-adv-x="431" 
d="M215 -8q-87 0 -133 80q-53 90 -53 279q0 95 17 166q15 64 44 108q50 75 128 75q86 0 133 -81q51 -89 51 -268q0 -105 -16 -180q-14 -67 -42 -109q-25 -38 -60 -55q-30 -15 -68 -15h-1zM276 405q-1 199 -61 199t-60 -199h121zM154 301q0 -213 62 -213q61 0 61 213h-123z
" />
    <glyph glyph-name="iota" unicode="&#x3b9;" horiz-adv-x="233" 
d="M177 140q0 -52 40 -50l-9 -92q-21 -6 -49 -6q-50 0 -77 23q-36 33 -36 113v361h131v-349z" />
    <glyph glyph-name="kappa" unicode="&#x3ba;" horiz-adv-x="429" 
d="M283 262q29 -12 55 -64q10 -20 21 -49l18 -49l40 -100h-143l-34 104q-34 100 -56 100h-7v-204h-131v366q0 88 -8 123h128q11 -19 11 -83v-125h4q9 17 24 48q12 23 29 59l49 101h138v-4l-64 -104q-38 -60 -74 -115v-4z" />
    <glyph glyph-name="lambda" unicode="&#x3bb;" horiz-adv-x="389" 
d="M210 211q-6 28 -18 98h-4q-5 -41 -15 -97l-40 -212h-130l127 465v9q0 4 -2 12q-1 1 -1 3l-3 11q-25 76 -78 76h-6q-4 0 -7 -1l11 108l33 3q75 0 121 -69q19 -28 35 -71q12 -32 26 -82l127 -464h-131z" />
    <glyph glyph-name="uni03BC" unicode="&#x3bc;" horiz-adv-x="455" 
d="M300 49q-23 -50 -75 -50q-35 0 -54 23v-39q0 -118 11 -175h-120q-16 44 -16 192v489h131v-309q0 -83 47 -83q30 0 45 35q7 14 7 44v313h131v-348q0 -52 34 -52l-12 -91q-13 -6 -40 -6q-61 0 -86 57h-3z" />
    <glyph glyph-name="nu" unicode="&#x3bd;" horiz-adv-x="389" 
d="M134 489l37 -219l21 -134h4q19 68 34 152q17 99 18 167v34h117q3 -19 3 -37q0 -43 -12 -102q-10 -53 -30 -116q-18 -58 -42 -121q-23 -57 -48 -113h-119l-118 489h135z" />
    <glyph glyph-name="xi" unicode="&#x3be;" horiz-adv-x="369" 
d="M316 321h-16q-139 -2 -139 -117q0 -42 26 -72q22 -24 61 -39q44 -17 102 -29q15 -3 15 -12q0 -54 -25 -115q-18 -45 -40 -76l-88 27q22 44 28 92q-43 10 -76 23q-40 17 -68 39q-68 55 -68 150q0 70 40 121q35 44 91 63v6q-93 38 -93 140q0 78 52 127q54 51 144 51
q54 0 94 -19l-15 -95q-28 13 -63 13q-40 0 -63 -28q-20 -23 -20 -54q0 -46 33 -72q27 -21 72 -24l16 -1v-99z" />
    <glyph glyph-name="omicron" unicode="&#x3bf;" horiz-adv-x="431" 
d="M216 -8q-187 0 -187 251q0 124 58 193q52 61 131 61q87 0 136 -68q49 -67 49 -183q0 -72 -19 -125q-16 -47 -47 -78q-26 -27 -60 -40q-29 -11 -60 -11h-1zM219 92q29 0 43 50q11 39 11 103q0 62 -11 102q-14 50 -45 50q-32 0 -47 -50q-11 -39 -11 -102q0 -70 12 -108
q15 -45 47 -45h1z" />
    <glyph glyph-name="pi" unicode="&#x3c0;" horiz-adv-x="471" 
d="M404 384v-269q0 -73 11 -115h-123q-18 33 -18 117v267h-69q-1 -39 -4 -83q-3 -51 -8 -100q-7 -57 -15 -105q-10 -54 -22 -96h-124q22 86 35 200q12 104 11 184q-18 0 -34 -1q-14 -1 -25 -3l-16 80q39 29 156 29h300l-9 -105h-46z" />
    <glyph glyph-name="rho" unicode="&#x3c1;" horiz-adv-x="443" 
d="M173 33v-50q0 -48 4 -102q2 -45 6 -73h-123q-17 41 -18 176v242q0 91 22 150q19 49 54 78q48 43 112 43q94 0 142 -75q43 -66 43 -176q0 -124 -50 -193q-45 -61 -113 -61q-49 0 -77 41h-2zM173 170q0 -25 7 -38q12 -33 40 -33q32 0 49 44q16 40 16 102q0 140 -57 140
q-55 0 -55 -137v-78z" />
    <glyph glyph-name="sigma" unicode="&#x3c3;" horiz-adv-x="438" 
d="M340 405q27 -22 44 -69q16 -44 16 -90q0 -71 -19 -124q-16 -47 -46 -78q-26 -27 -60 -40q-30 -12 -60 -12q-186 0 -186 251q0 124 59 193q52 61 134 61h208l-5 -97q-36 0 -85 8v-3zM219 92q28 0 41 50q11 40 11 103q0 60 -12 102q-15 50 -42 50q-32 0 -47 -50
q-11 -39 -11 -102q0 -69 13 -108q14 -45 46 -45h1z" />
    <glyph glyph-name="tau" unicode="&#x3c4;" horiz-adv-x="358" 
d="M289 -1q-23 -7 -56 -7q-68 0 -98 44q-27 39 -27 115v233h-32q-19 0 -36 -2q-14 -1 -25 -4l-18 84q4 4 12 8q10 5 24 9q37 10 89 10h228l-10 -105h-101v-222q0 -69 38 -69h16z" />
    <glyph glyph-name="upsilon" unicode="&#x3c5;" horiz-adv-x="433" 
d="M375 489q11 -33 18 -76q8 -50 8 -100q0 -66 -9 -119q-9 -60 -30 -103q-48 -99 -155 -99q-165 0 -165 176v178q0 48 -1 80q-2 40 -5 63h127q10 -20 10 -101v-219q0 -67 44 -67q32 0 46 56q11 44 11 127q0 63 -7 124q-5 53 -13 80h121z" />
    <glyph glyph-name="phi" unicode="&#x3c6;" horiz-adv-x="577" 
d="M218 435q-28 -34 -43 -75q-18 -49 -18 -106q0 -132 74 -168v246q0 84 41 127q34 36 87 36q77 0 131 -64q59 -69 59 -176q0 -60 -19 -109q-17 -45 -48 -79q-56 -62 -132 -73v-186h-119v186q-34 5 -65 20q-38 17 -66 44q-34 32 -52 76q-20 49 -20 112q0 54 15 101
q13 40 35 74q19 28 42 48q17 16 32 24zM348 84q74 21 74 170q0 64 -18 107q-17 38 -34 38q-22 0 -22 -34v-281z" />
    <glyph glyph-name="chi" unicode="&#x3c7;" horiz-adv-x="393" 
d="M136 489l73 -225h3q3 10 6 24l16 69l37 132h121l-124 -334l118 -341l-120 -26l-78 247h-4l-11 -49q-8 -33 -15 -56l-41 -142l-115 25l126 344l-123 332h131z" />
    <glyph glyph-name="psi" unicode="&#x3c8;" horiz-adv-x="574" 
d="M229 -8q-38 6 -67 18q-36 14 -60 38q-29 27 -44 68q-17 46 -17 109v135q0 43 -1 71q-2 35 -5 58h114q9 -21 9 -101v-154q0 -74 22 -112q18 -31 51 -37v506h117v-506q38 2 58 64q19 57 19 155q0 57 -7 113q-5 48 -13 72h108q30 -69 30 -172q0 -68 -8 -120
q-10 -59 -31 -100q-47 -94 -154 -105v-184h-121v184z" />
    <glyph glyph-name="omega" unicode="&#x3c9;" horiz-adv-x="595" 
d="M354 167q0 -66 33 -66q50 0 50 154q0 147 -62 231v3h118q29 -31 50 -92q23 -69 23 -146q0 -118 -46 -189q-45 -70 -118 -70t-103 69h-3q-32 -69 -107 -69q-67 0 -111 63q-49 68 -49 187q0 83 25 154q21 60 52 93h114v-3q-65 -88 -65 -239q0 -146 47 -146q17 0 27 23
q8 19 7 44l-2 186h123z" />
    <glyph glyph-name="alphatonos" unicode="&#x3ac;" horiz-adv-x="447" 
d="M325 686l-61 -140h-75l31 140h105zM406 489q-4 -28 -8 -139l-4 -105q-1 -57 -1 -102q0 -53 38 -53l-11 -93q-14 -5 -33 -5q-72 0 -87 74h-3q-32 -74 -108 -74q-77 0 -120 72q-40 65 -40 164q0 124 54 200q49 69 118 69q67 0 90 -64h4l13 56h98zM159 241q0 -142 57 -142
q37 0 47 68q5 42 5 77q0 39 -3 69q-5 77 -45 77q-27 0 -45 -45q-16 -42 -16 -103v-1z" />
    <glyph glyph-name="epsilontonos" unicode="&#x3ad;" horiz-adv-x="369" 
d="M296 686l-62 -140h-74l31 140h105zM128 262q-79 19 -79 102q0 55 44 92q49 41 138 41q69 0 106 -25l-20 -90q-32 15 -75 15q-68 0 -68 -48q0 -26 32 -39q26 -10 69 -10h15v-89h-19q-48 -2 -75 -15q-33 -15 -33 -46q0 -56 76 -56q30 0 60 8q27 6 38 14l12 -94
q-50 -30 -141 -30q-78 0 -126 35q-54 38 -54 112q0 44 32 79q29 32 68 39v5z" />
    <glyph glyph-name="etatonos" unicode="&#x3ae;" horiz-adv-x="458" 
d="M324 686l-62 -140h-74l31 140h105zM164 433q42 64 118 64q67 0 100 -51q30 -46 30 -132v-331q0 -49 3 -102q3 -47 6 -73h-121q-19 37 -19 176v322q0 36 -10 56q-12 25 -38 25q-35 0 -49 -44q-7 -17 -7 -45v-298h-131v342q0 100 -14 147h114l10 -25q5 -17 6 -31h2z" />
    <glyph glyph-name="iotatonos" unicode="&#x3af;" horiz-adv-x="233" 
d="M213 691l-61 -140h-82l31 140h112zM177 140q0 -52 40 -50l-9 -92q-21 -6 -49 -6q-50 0 -77 23q-36 33 -36 113v361h131v-349z" />
    <glyph glyph-name="iotadieresis" unicode="&#x3ca;" horiz-adv-x="233" 
d="M24 556q-60 0 -60 65t61 65t61 -65t-61 -65h-1zM198 556q-60 0 -60 65t61 65q60 0 60 -65t-60 -65h-1zM178 140q0 -52 40 -50l-9 -92q-21 -6 -49 -6q-50 0 -77 23q-36 33 -36 113v361h131v-349z" />
    <glyph glyph-name="omicrontonos" unicode="&#x3cc;" horiz-adv-x="431" 
d="M315 686l-62 -140h-74l31 140h105zM216 -8q-187 0 -187 251q0 124 58 193q52 61 131 61q87 0 136 -68q49 -67 49 -183q0 -72 -19 -125q-16 -47 -47 -78q-26 -27 -60 -40q-29 -11 -60 -11h-1zM219 92q29 0 43 50q11 39 11 103q0 62 -11 102q-14 50 -45 50q-32 0 -47 -50
q-11 -39 -11 -102q0 -70 12 -108q15 -45 47 -45h1z" />
    <glyph glyph-name="upsilontonos" unicode="&#x3cd;" horiz-adv-x="433" 
d="M316 691l-61 -140h-82l30 140h113zM375 489q11 -33 18 -76q8 -50 8 -100q0 -66 -9 -119q-9 -60 -30 -103q-48 -99 -155 -99q-165 0 -165 176v178q0 48 -1 80q-2 40 -5 63h127q10 -20 10 -101v-219q0 -67 44 -67q32 0 46 56q11 44 11 127q0 63 -7 124q-5 53 -13 80h121z
" />
    <glyph glyph-name="upsilondieresis" unicode="&#x3cb;" horiz-adv-x="433" 
d="M123 556q-60 0 -60 65t61 65q60 0 60 -65t-60 -65h-1zM297 556q-60 0 -60 65t61 65q60 0 60 -65t-60 -65h-1zM375 489q11 -33 18 -76q8 -50 8 -100q0 -66 -9 -119q-9 -60 -30 -103q-48 -99 -155 -99q-165 0 -165 176v178q0 48 -1 80q-2 40 -5 63h127q10 -20 10 -101v-219
q0 -67 44 -67q32 0 46 56q11 44 11 127q0 63 -7 124q-5 53 -13 80h121z" />
    <glyph glyph-name="omegatonos" unicode="&#x3ce;" horiz-adv-x="595" 
d="M394 686l-61 -140h-75l31 140h105zM355 167q0 -66 33 -66q50 0 50 154q0 147 -62 231v3h118q29 -31 50 -92q23 -69 23 -146q0 -118 -46 -189q-45 -70 -118 -70t-103 69h-3q-32 -69 -107 -69q-68 0 -112 63q-49 68 -49 187q0 83 25 154q21 60 52 93h115v-3
q-66 -87 -66 -239q0 -146 48 -146q17 0 27 23q8 19 7 44l-2 186h123z" />
    <glyph glyph-name="iotadieresistonos" unicode="&#x390;" horiz-adv-x="233" 
d="M178 140q0 -52 40 -50l-9 -92q-21 -6 -49 -6q-50 0 -77 23q-36 33 -36 113v361h131v-349zM184 703l-42 -153h-66l10 153h98zM-2 561q-54 0 -54 58q0 57 55 57q54 0 54 -57q0 -58 -54 -58h-1zM244 561q-53 0 -53 58q0 57 54 57t54 -57q0 -58 -54 -58h-1z" />
    <glyph glyph-name="upsilondieresistonos" unicode="&#x3b0;" horiz-adv-x="433" 
d="M375 489q11 -33 18 -76q8 -50 8 -100q0 -66 -9 -119q-9 -60 -30 -103q-48 -99 -155 -99q-165 0 -165 176v178q0 48 -1 80q-2 40 -5 63h127q10 -20 10 -101v-219q0 -67 44 -67q32 0 46 56q11 44 11 127q0 63 -7 124q-5 53 -13 80h121zM274 699l-41 -153h-67l11 153h97z
M86 557q-54 0 -54 57t55 57q53 0 53 -56q0 -58 -53 -58h-1zM337 557q-53 0 -53 57t54 57t54 -56q0 -58 -54 -58h-1z" />
    <glyph glyph-name="sigma1" unicode="&#x3c2;" horiz-adv-x="353" 
d="M322 379q-21 7 -46 7q-54 0 -86 -45q-30 -42 -30 -108q0 -106 86 -140q25 -11 86 -27q6 -1 6 -10q0 -61 -23 -122q-16 -45 -38 -74l-89 26q12 23 20 50q6 21 9 42l-37 13q-21 7 -36 15q-48 25 -79 76q-36 60 -36 143q0 113 64 190q67 82 178 82q47 0 70 -15z" />
    <glyph glyph-name="uni037E" unicode="&#x37e;" horiz-adv-x="249" 
d="M28 -125q9 34 16 65l15 70q15 77 18 131l129 5q-19 -67 -45 -136q-27 -74 -54 -126zM131 290q-77 0 -77 88q0 37 23 63q24 26 56 26q79 0 79 -89q0 -88 -80 -88h-1z" />
    <glyph glyph-name="anoteleia" unicode="&#x387;" horiz-adv-x="249" 
d="M124 221q-83 0 -83 95q0 41 26 69q24 27 58 27q84 0 84 -96q0 -95 -84 -95h-1z" />
    <glyph glyph-name="uni0410" unicode="&#x410;" horiz-adv-x="458" 
d="M165 154l-30 -154h-127l146 674h157l131 -674h-128l-28 154h-121zM274 256l-22 141l-11 75q-3 17 -6 41l-5 37h-3l-24 -153l-25 -141h96z" />
    <glyph glyph-name="uni0411" unicode="&#x411;" horiz-adv-x="475" 
d="M401 674v-112h-213v-141q32 5 53 5q89 0 145 -51q65 -57 65 -155q0 -95 -56 -153q-69 -72 -215 -72q-69 0 -122 7v672h343zM189 102q9 -2 29 -2q45 0 72 32q25 31 25 78t-26 78q-29 32 -70 32q-16 0 -30 -3v-215z" />
    <glyph glyph-name="uni0412" unicode="&#x412;" horiz-adv-x="483" 
d="M58 664q58 13 149 13q54 0 92 -9q47 -11 79 -39q51 -42 51 -123q0 -103 -97 -146v-4q119 -34 119 -161q0 -80 -50 -132q-62 -68 -221 -68q-69 0 -122 7v662zM189 397h28q83 0 83 94q0 88 -76 88q-24 0 -35 -4v-178zM189 98q8 -2 29 -2q97 0 97 101q0 49 -29 77
q-28 26 -69 26h-28v-202z" />
    <glyph glyph-name="uni0413" unicode="&#x413;" horiz-adv-x="380" 
d="M368 674v-114h-179v-560h-131v674h310z" />
    <glyph glyph-name="uni0490" unicode="&#x490;" horiz-adv-x="374" 
d="M268 674l14 122h91l-10 -236h-174v-560h-131v674h210z" />
    <glyph glyph-name="uni0414" unicode="&#x414;" horiz-adv-x="538" 
d="M470 674v-562l53 -2l-6 -257h-99l-6 147h-291l-6 -147h-99l-6 257l48 2q31 76 46 157q10 55 15 117q4 55 4 118v170h347zM243 482q0 -115 -17 -228q-11 -76 -33 -140h146v446h-96v-78z" />
    <glyph glyph-name="uni0415" unicode="&#x415;" horiz-adv-x="394" 
d="M342 296h-153v-182h173v-114h-304v674h293v-114h-162v-155h153v-109z" />
    <glyph glyph-name="uni0416" unicode="&#x416;" horiz-adv-x="698" 
d="M156 674l124 -290h9v290h119v-290h10l123 290h149l-181 -308q62 -11 98 -72q15 -24 26 -58q9 -26 17 -62l10 -44q5 -26 10 -44q12 -50 26 -86h-127q-10 26 -20 70l-17 71q-7 30 -14 50q-9 27 -20 47q-30 48 -79 48h-11v-286h-119v286h-11q-50 0 -79 -48q-11 -19 -20 -47
q-6 -18 -14 -50l-17 -71q-10 -44 -20 -70h-126q13 38 26 86l19 88q8 36 17 62q11 34 26 58q37 61 99 72l-182 308h149z" />
    <glyph glyph-name="uni0417" unicode="&#x417;" horiz-adv-x="400" 
d="M22 643q57 39 149 39q91 0 142 -50q46 -45 46 -116q0 -53 -31 -96q-33 -44 -83 -57v-2q133 -25 133 -169q0 -93 -70 -148q-65 -52 -160 -52q-82 0 -137 30l20 107q46 -27 104 -27q107 0 107 94q0 54 -40 81q-34 24 -92 24h-20v100h14q48 0 82 22q37 25 37 68q0 79 -85 79
q-45 0 -94 -28z" />
    <glyph glyph-name="uni0418" unicode="&#x418;" horiz-adv-x="513" 
d="M174 674v-149q0 -44 -1 -91q-1 -41 -4 -84q-1 -36 -4 -74q-1 -26 -4 -61h2l36 102l136 357h119v-674h-115v152q0 48 1 95l2 82q1 34 3 69q1 27 3 57h-2q-11 -40 -32 -100q-8 -24 -18 -51l-117 -304h-121v674h116z" />
    <glyph glyph-name="uni0419" unicode="&#x419;" horiz-adv-x="513" 
d="M174 674v-149q0 -44 -1 -91q-1 -41 -4 -84q-1 -36 -4 -74q-1 -26 -4 -61h2l36 102l136 357h119v-674h-115v152q0 48 1 95l2 82q1 34 3 69q1 27 3 57h-2q-11 -40 -32 -100q-8 -24 -18 -51l-117 -304h-121v674h116zM213 814q3 -57 44 -57q42 0 45 57h83q-13 -115 -129 -115
q-55 0 -87 25q-35 29 -39 90h83z" />
    <glyph glyph-name="uni041A" unicode="&#x41a;" horiz-adv-x="454" 
d="M186 674v-293h10l109 293h144l-154 -311q48 -19 74 -65q21 -35 37 -106l10 -49q6 -30 11 -48q12 -55 24 -95h-130q-11 30 -21 77l-16 79q-14 67 -30 95q-21 35 -58 35h-10v-286h-128v674h128z" />
    <glyph glyph-name="uni041B" unicode="&#x41b;" horiz-adv-x="493" 
d="M435 674v-674h-131v560h-99v-178q0 -67 -3 -112q-4 -58 -13 -101q-21 -102 -79 -147q-41 -33 -91 -33l-28 111q27 7 45 23q48 49 48 247v304h351z" />
    <glyph glyph-name="uni041C" unicode="&#x41c;" horiz-adv-x="637" 
d="M470 236q-4 57 -5 108q-3 65 -2 115h-2q-8 -51 -21 -111q-11 -54 -22 -96l-59 -241h-92l-56 237q-11 47 -22 98q-12 63 -20 113h-2l-22 -459h-112l48 674h139l80 -365q13 -66 21 -115h3q7 51 18 114l24 122l54 244h138l41 -674h-117z" />
    <glyph glyph-name="uni041D" unicode="&#x41d;" horiz-adv-x="515" 
d="M189 674v-270h137v270h131v-674h-131v282h-137v-282h-131v674h131z" />
    <glyph glyph-name="uni041E" unicode="&#x41e;" horiz-adv-x="481" 
d="M238 -8q-108 0 -164 104q-49 92 -49 243q0 147 55 241q61 102 168 102q58 0 101 -30q38 -28 64 -79q22 -45 33 -107q10 -55 10 -117q0 -183 -61 -274q-55 -83 -156 -83h-1zM243 106q40 0 60 67q17 60 17 170q0 100 -16 157q-20 68 -62 68q-41 0 -63 -68q-19 -61 -18 -160
q-2 -106 18 -167q21 -67 63 -67h1z" />
    <glyph glyph-name="uni041F" unicode="&#x41f;" horiz-adv-x="512" 
d="M454 674v-674h-131v560h-134v-560h-131v674h396z" />
    <glyph glyph-name="uni0420" unicode="&#x420;" horiz-adv-x="457" 
d="M58 664q60 13 137 13q63 0 105 -11q47 -12 78 -41q58 -52 58 -148q0 -102 -57 -162q-30 -32 -77 -49q-43 -16 -87 -16q-17 0 -26 1v-251h-131v664zM189 357q5 -1 11 -1h11q95 0 95 110q0 105 -85 105q-19 0 -32 -5v-209z" />
    <glyph glyph-name="uni0421" unicode="&#x421;" horiz-adv-x="395" 
d="M381 10q-34 -16 -101 -16q-125 0 -192 95q-63 88 -63 238q0 91 24 162q22 65 63 110q74 81 185 81q32 0 58 -6q21 -5 33 -12l-22 -110q-28 13 -61 13q-61 0 -98 -53q-43 -61 -43 -178q0 -115 41 -172q36 -52 100 -52q31 0 63 10z" />
    <glyph glyph-name="uni0422" unicode="&#x422;" horiz-adv-x="393" 
d="M131 553h-119v121h370v-121h-120v-553h-131v553z" />
    <glyph glyph-name="uni0423" unicode="&#x423;" horiz-adv-x="396" 
d="M130 674l61 -259q7 -25 13 -57l9 -51h4q2 10 4 26l3 27q5 36 9 58l44 256h133l-117 -429q-11 -36 -20 -63q-23 -69 -46 -107q-51 -88 -136 -88q-33 0 -54 6l6 107l12 -2q10 -1 20 -1q51 0 72 68q6 18 -1 40l-157 469h141z" />
    <glyph glyph-name="uni0424" unicode="&#x424;" horiz-adv-x="592" 
d="M354 698v-51q96 -13 152 -86q61 -80 61 -219q0 -147 -61 -226q-54 -70 -152 -85v-55h-116v55q-98 15 -152 84q-61 79 -61 225q0 71 19 129q17 54 49 93q58 72 145 85v51h116zM239 552q-35 -10 -56 -55q-27 -57 -27 -160q0 -97 26 -154q22 -48 57 -56v425zM353 127
q37 9 58 54q25 56 25 161q0 103 -28 159q-21 44 -55 51v-425z" />
    <glyph glyph-name="uni0425" unicode="&#x425;" horiz-adv-x="407" 
d="M275 0l-42 124l-19 59l-17 61h-3q-3 -14 -8 -32l-23 -90l-36 -122h-130l126 345l-121 329h136l40 -125l30 -108h2l63 233h131l-126 -335l133 -339h-136z" />
    <glyph glyph-name="uni0426" unicode="&#x426;" horiz-adv-x="521" 
d="M189 674v-559h133v559h131v-562l53 -2l-6 -257h-99l-5 147h-338v674h131z" />
    <glyph glyph-name="uni0427" unicode="&#x427;" horiz-adv-x="497" 
d="M183 674v-228q0 -94 73 -94q34 0 53 14v308h130v-682h-129v273h-4q-46 -23 -94 -23q-84 0 -123 53q-36 47 -36 136v243h130z" />
    <glyph glyph-name="uni0428" unicode="&#x428;" horiz-adv-x="720" 
d="M187 674v-560h108v560h129v-560h109v560h129v-674h-604v674h129z" />
    <glyph glyph-name="uni0429" unicode="&#x429;" horiz-adv-x="730" 
d="M187 674v-559h108v559h129v-559h109v559h129v-562l53 -2l-6 -257h-99l-6 147h-546v674h129z" />
    <glyph glyph-name="uni042A" unicode="&#x42a;" horiz-adv-x="570" 
d="M283 674v-252q28 4 53 4q95 0 153 -56q58 -57 58 -150q0 -95 -56 -153q-69 -72 -216 -72q-69 0 -122 7v560h-142v112h272zM284 102q9 -2 29 -2q46 0 73 33q25 30 25 77q0 110 -97 110q-16 0 -30 -3v-215z" />
    <glyph glyph-name="uni042B" unicode="&#x42b;" horiz-adv-x="681" 
d="M188 674v-253q27 5 49 5q91 0 148 -55q57 -57 57 -149q0 -96 -56 -155q-69 -72 -214 -72q-61 0 -114 7v672h130zM189 102q6 -1 13 -2h11q41 0 67 33q26 31 26 77q0 110 -89 110q-14 0 -28 -3v-215zM623 674v-674h-131v674h131z" />
    <glyph glyph-name="uni042C" unicode="&#x42c;" horiz-adv-x="475" 
d="M188 674v-252l21 3q14 1 32 1q96 0 153 -55t57 -151q0 -94 -56 -153q-69 -72 -215 -72q-69 0 -122 7v672h130zM189 102q9 -2 25 -2q48 0 76 33q25 31 25 79q0 108 -96 108q-18 0 -30 -3v-215z" />
    <glyph glyph-name="uni042D" unicode="&#x42d;" horiz-adv-x="407" 
d="M64 400h184q-1 63 -29 109q-34 57 -94 57q-40 0 -77 -17l-30 105q26 12 53 19q34 9 72 9q69 0 119 -33q44 -29 73 -83q25 -48 37 -113q10 -55 10 -119q0 -155 -69 -249q-70 -93 -185 -93q-35 0 -70 9q-28 7 -48 17l24 109q36 -17 76 -17q68 0 104 58q14 24 22 56
q7 28 10 60h-182v116z" />
    <glyph glyph-name="uni042E" unicode="&#x42e;" horiz-adv-x="678" 
d="M187 674v-270h61q13 124 65 198q56 80 143 80q54 0 94 -30q37 -28 61 -79q22 -45 32 -107q10 -55 10 -117q0 -182 -58 -274q-53 -83 -148 -83q-91 0 -144 84q-48 77 -56 210h-60v-286h-129v674h129zM452 106q36 0 54 67q16 60 16 170q0 100 -15 157q-18 68 -56 68
t-58 -68q-17 -60 -17 -159q0 -108 17 -168q19 -67 58 -67h1z" />
    <glyph glyph-name="uni042F" unicode="&#x42f;" horiz-adv-x="466" 
d="M6 0q15 35 25 72q5 19 12 55l10 59q7 32 17 55q12 28 29 46q20 20 48 30v2q-116 35 -116 161q0 96 63 147q60 50 171 50q84 0 143 -13v-664h-131v269h-14q-35 0 -55 -24q-18 -23 -29 -88l-5 -27l-3 -26q-5 -31 -8 -45q-7 -33 -19 -59h-138zM277 572q-10 3 -26 3
q-43 0 -66 -30q-21 -28 -21 -70q0 -105 94 -105q12 0 19 1v201z" />
    <glyph glyph-name="uni0401" unicode="&#x401;" horiz-adv-x="394" 
d="M342 296h-153v-182h173v-114h-304v674h293v-114h-162v-155h153v-109zM114 715q-58 0 -58 64q0 63 59 63t59 -63q0 -64 -59 -64h-1zM298 715q-59 0 -59 64q0 63 60 63q59 0 59 -63q0 -64 -59 -64h-1z" />
    <glyph glyph-name="uni0402" unicode="&#x402;" horiz-adv-x="538" 
d="M425 674v-121h-166v-130h2q34 18 76 18q103 0 148 -104q18 -40 24 -83q6 -36 6 -91q0 -60 -12 -108q-14 -54 -44 -95q-29 -41 -68 -67q-35 -24 -72 -32l-28 116q35 12 60 44q28 40 28 145q0 82 -21 122q-21 41 -61 41q-22 0 -38 -10v-319h-131v553h-116v121h413z" />
    <glyph glyph-name="uni0403" unicode="&#x403;" horiz-adv-x="380" 
d="M368 674v-114h-179v-560h-131v674h310zM359 823l-122 -113h-93l82 113h133z" />
    <glyph glyph-name="uni0404" unicode="&#x404;" horiz-adv-x="403" 
d="M363 543q-31 22 -72 22q-65 0 -101 -59q-27 -46 -31 -112h184v-115h-182q7 -73 33 -114q33 -54 96 -54q49 0 83 18l17 -110q-21 -11 -46 -18q-34 -9 -70 -9q-113 0 -180 89q-69 91 -69 249q0 65 13 124q15 65 44 114q32 53 78 82q52 32 120 32q38 0 67 -9q11 -4 21 -9
q4 -1 9 -4q1 0 2 -1q3 -1 2 -1q3 -1 4 -2z" />
    <glyph glyph-name="uni0405" unicode="&#x405;" horiz-adv-x="394" 
d="M43 134q47 -26 111 -26q92 0 92 76q0 34 -22 60q-17 19 -65 50q-65 40 -98 92q-29 46 -29 96q0 85 54 140q57 58 158 58q65 0 106 -24l-21 -113q-36 23 -85 23q-83 0 -83 -69q0 -50 92 -106q64 -39 95 -90q27 -46 27 -103q0 -92 -62 -148q-61 -56 -160 -56q-81 0 -129 27
z" />
    <glyph glyph-name="uni0406" unicode="&#x406;" horiz-adv-x="248" 
d="M189 674v-674h-131v674h131z" />
    <glyph glyph-name="uni0407" unicode="&#x407;" horiz-adv-x="248" 
d="M189 674v-674h-131v674h131zM30 715q-58 0 -58 64q0 63 59 63t59 -63q0 -64 -59 -64h-1zM214 715q-59 0 -59 64q0 63 60 63q59 0 59 -63q0 -64 -59 -64h-1z" />
    <glyph glyph-name="uni0408" unicode="&#x408;" horiz-adv-x="296" 
d="M115 674h131v-459q0 -132 -59 -184q-24 -22 -60 -31q-30 -8 -70 -8q-43 0 -66 10l11 110q20 -5 43 -5q33 0 49 19q21 24 21 83v465z" />
    <glyph glyph-name="uni0409" unicode="&#x409;" horiz-adv-x="712" 
d="M424 674v-252q28 4 53 4q95 0 153 -56q58 -57 58 -150q0 -94 -56 -153q-70 -73 -216 -73q-74 0 -122 8v558h-91v-179q0 -65 -3 -112q-4 -58 -14 -101q-22 -102 -80 -148q-39 -31 -87 -31l-28 111q27 7 44 27q47 50 47 245v302h342zM425 102q9 -2 29 -2q98 0 98 113
q0 107 -97 107q-16 0 -30 -3v-215z" />
    <glyph glyph-name="uni040A" unicode="&#x40a;" horiz-adv-x="728" 
d="M189 674v-262h121v262h130v-253q13 2 25 3q15 1 28 1q94 0 152 -56t58 -149q0 -94 -56 -153q-69 -72 -215 -72q-69 0 -122 7v294h-121v-296h-131v674h131zM441 102q9 -2 29 -2q46 0 73 33q24 31 24 79q0 107 -96 107q-16 0 -30 -3v-214z" />
    <glyph glyph-name="uni040B" unicode="&#x40b;" horiz-adv-x="557" 
d="M406 674v-121h-152v-143h3q48 39 108 39q77 0 112 -57q31 -51 31 -144v-248h-130v249q0 52 -19 71q-15 19 -44 19q-38 0 -61 -23v-316h-131v553h-111v121h394z" />
    <glyph glyph-name="uni040C" unicode="&#x40c;" horiz-adv-x="454" 
d="M186 674v-293h10l109 293h144l-154 -311q48 -19 74 -65q21 -35 37 -106l10 -49q6 -30 11 -48q12 -55 24 -95h-130q-11 30 -21 77l-16 79q-14 67 -30 95q-21 35 -58 35h-10v-286h-128v674h128zM388 818l-122 -113h-93l82 113h133z" />
    <glyph glyph-name="uni040E" unicode="&#x40e;" horiz-adv-x="396" 
d="M130 674l61 -259q7 -25 13 -57l9 -51h4q2 10 4 26l3 27q5 36 9 58l44 256h133l-117 -429q-11 -36 -20 -63q-23 -69 -46 -107q-51 -88 -136 -88q-33 0 -54 6l6 107l12 -2q10 -1 20 -1q51 0 72 68q6 18 -1 40l-157 469h141zM162 818q3 -57 44 -57q42 0 45 57h83
q-13 -115 -129 -115q-55 0 -87 25q-35 29 -39 90h83z" />
    <glyph glyph-name="uni040F" unicode="&#x40f;" horiz-adv-x="512" 
d="M189 674v-560h134v560h131v-674h-139l-6 -155h-107l-6 155h-138v674h131z" />
    <glyph glyph-name="uni0430" unicode="&#x430;" horiz-adv-x="422" 
d="M376 112q0 -66 7 -112h-117l-7 48h-3q-38 -56 -108 -56q-56 0 -92 42q-37 42 -37 106q0 90 70 139q61 42 154 43v11q0 67 -69 67q-52 0 -100 -29l-24 89q12 6 26 12q17 7 35 12q46 13 92 13q101 0 142 -64q17 -27 25 -66q6 -32 6 -74v-181zM247 238q-42 -1 -68 -17
q-36 -21 -36 -67q0 -66 47 -66q41 0 54 42q3 9 3 23v85z" />
    <glyph glyph-name="uni0431" unicode="&#x431;" horiz-adv-x="452" 
d="M377 589q-13 -6 -35 -10l-20 -4q-2 -1 -5 -1l-16 -3q-56 -8 -89 -27q-27 -16 -44 -46q-21 -37 -26 -88h3q37 79 120 79q72 0 114 -60q45 -65 45 -181q0 -112 -48 -183q-53 -76 -145 -76q-57 0 -99 28q-37 26 -60 73q-21 41 -31 98q-8 48 -8 105q0 85 12 147q14 70 44 119
q57 94 179 115l62 12q42 8 56 14zM295 242q0 56 -13 94q-18 51 -55 51q-39 0 -56 -50q-7 -20 -10 -45q-2 -19 -2 -40q0 -25 3 -49q3 -30 10 -53q18 -58 56 -58q39 0 56 57q6 21 9 49q2 21 2 43v1z" />
    <glyph glyph-name="uni0432" unicode="&#x432;" horiz-adv-x="452" 
d="M45 486q63 11 143 11q39 0 70 -4q41 -5 70 -17q76 -30 76 -102q0 -44 -28 -75q-26 -27 -66 -37v-3q115 -17 115 -116q0 -46 -27 -78q-23 -28 -65 -45q-36 -15 -85 -21q-38 -5 -82 -5q-79 0 -121 6v486zM172 294h29q81 0 81 61q0 57 -77 57q-19 0 -33 -3v-115zM171 82
q14 -3 33 -3q39 0 63 15q28 17 28 50q0 66 -93 66h-31v-128z" />
    <glyph glyph-name="uni0433" unicode="&#x433;" horiz-adv-x="328" 
d="M316 489v-108h-140v-381h-131v489h271z" />
    <glyph glyph-name="uni0491" unicode="&#x491;" horiz-adv-x="327" 
d="M217 489l12 111h95l-8 -220h-140v-380h-131v489h172z" />
    <glyph glyph-name="uni0434" unicode="&#x434;" horiz-adv-x="481" 
d="M422 489v-393l44 -2l-4 -229h-100l-6 135h-236l-7 -135h-100l-4 229l40 2q26 44 37 99q15 70 15 161v133h321zM217 347q0 -75 -12 -149q-8 -54 -30 -100h118v290h-76v-41z" />
    <glyph glyph-name="uni0435" unicode="&#x435;" horiz-adv-x="419" 
d="M156 198q1 -104 103 -104q25 0 51 5q21 4 42 11l17 -93q-54 -23 -133 -23q-207 0 -207 241q0 120 57 193q54 69 139 69q166 0 166 -231q0 -24 -1 -42l-3 -26h-231zM272 290q0 111 -55 111q-30 0 -46 -37q-14 -31 -15 -74h116z" />
    <glyph glyph-name="uni0436" unicode="&#x436;" horiz-adv-x="600" 
d="M141 489l77 -199h19v199h126v-199h20l76 199h137l-123 -218q59 -22 82 -131q7 -32 18 -73q13 -44 23 -67h-128q-8 17 -16 50q-6 22 -15 68q-20 89 -63 89h-11v-207h-126v207h-11q-43 0 -63 -91l-15 -67q-8 -32 -17 -49h-127q11 23 24 68q11 39 18 71q11 49 29 81
q22 39 52 51l-123 218h137z" />
    <glyph glyph-name="uni0437" unicode="&#x437;" horiz-adv-x="376" 
d="M80 296h41q78 0 78 57q0 53 -70 53q-42 0 -86 -23l-20 81q59 33 147 33q78 0 121 -36q40 -34 40 -88q0 -85 -99 -109v-2q118 -19 118 -121q0 -71 -63 -112q-58 -37 -146 -37q-74 0 -132 28l22 86q48 -21 95 -21q90 0 90 61q0 32 -28 49q-25 15 -65 15h-42z" />
    <glyph glyph-name="uni0438" unicode="&#x438;" horiz-adv-x="454" 
d="M164 489v-106q0 -62 -3 -127q-3 -56 -7 -98h3q11 34 27 77l101 254h124v-489h-119v107q0 63 3 122l6 98h-3q-13 -44 -23 -71q-12 -35 -25 -68l-34 -84q-28 -65 -46 -104h-122v489h118z" />
    <glyph glyph-name="uni0439" unicode="&#x439;" horiz-adv-x="454" 
d="M164 489v-106q0 -62 -3 -127q-3 -56 -7 -98h3q11 34 27 77l101 254h124v-489h-119v107q0 63 3 122l6 98h-3q-13 -44 -23 -71q-12 -35 -25 -68l-34 -84q-28 -65 -46 -104h-122v489h118zM181 678q2 -61 45 -61q45 0 47 61h80q-6 -125 -130 -125q-117 0 -122 125h80z" />
    <glyph glyph-name="uni043A" unicode="&#x43a;" horiz-adv-x="415" 
d="M174 489v-195h14l85 195h136l-125 -210q33 -12 56 -53q19 -34 30 -87q7 -30 19 -71q13 -45 24 -68h-130q-10 18 -19 51q-7 23 -17 68q-19 83 -64 83h-9v-202h-128v489h128z" />
    <glyph glyph-name="uni043B" unicode="&#x43b;" horiz-adv-x="438" 
d="M392 489v-489h-131v383h-73v-105q0 -55 -3 -92q-4 -46 -14 -78q-23 -75 -83 -103q-31 -15 -67 -15l-21 104q28 7 44 35q12 21 18 64q4 33 4 81v215h326z" />
    <glyph glyph-name="uni043C" unicode="&#x43c;" horiz-adv-x="593" 
d="M69 489h162l52 -219l17 -80h3l16 79q8 43 13 64l35 156h162l32 -489h-122l-8 253l-2 124h-2l-17 -88l-24 -114l-39 -167h-106l-48 217l-30 153h-2l-10 -378h-118z" />
    <glyph glyph-name="uni043D" unicode="&#x43d;" horiz-adv-x="457" 
d="M177 489v-185h103v185h131v-489h-131v193h-103v-193h-131v489h131z" />
    <glyph glyph-name="uni043E" unicode="&#x43e;" horiz-adv-x="431" 
d="M216 -8q-187 0 -187 251q0 124 58 193q52 61 131 61q87 0 136 -68q49 -67 49 -183q0 -72 -19 -125q-16 -47 -47 -78q-26 -27 -60 -40q-29 -11 -60 -11h-1zM219 92q29 0 43 50q11 39 11 103q0 62 -11 102q-14 50 -45 50q-32 0 -47 -50q-11 -39 -11 -102q0 -70 12 -108
q15 -45 47 -45h1z" />
    <glyph glyph-name="uni043F" unicode="&#x43f;" horiz-adv-x="456" 
d="M410 489v-489h-131v382h-102v-382h-131v489h364z" />
    <glyph glyph-name="uni0440" unicode="&#x440;" horiz-adv-x="447" 
d="M45 334q0 40 -1 82l-3 73h114l7 -57h2q33 65 103 65q76 0 116 -75q35 -67 35 -177q0 -123 -48 -192q-44 -61 -111 -61q-27 0 -50 15q-19 12 -31 32h-2v-231h-131v526zM176 178q0 -27 7 -41q13 -38 42 -38q32 0 49 44q14 37 14 100q0 143 -62 143q-35 0 -44 -41
q-6 -12 -6 -35v-132z" />
    <glyph glyph-name="uni0441" unicode="&#x441;" horiz-adv-x="323" 
d="M317 9q-28 -15 -83 -15q-95 0 -149 63q-56 65 -56 182q0 114 61 185q62 71 163 71q22 0 43 -4q18 -4 29 -9l-17 -103l-20 6q-14 3 -29 3q-100 0 -100 -144q0 -143 98 -143q29 0 49 10z" />
    <glyph glyph-name="uni0442" unicode="&#x442;" horiz-adv-x="370" 
d="M360 489v-107h-109v-382h-131v382h-109v107h349z" />
    <glyph glyph-name="uni0443" unicode="&#x443;" horiz-adv-x="391" 
d="M146 489l48 -255l14 -82h2l11 80l41 257h128l-100 -378q-10 -38 -20 -69q-11 -37 -24 -67q-29 -70 -65 -113q-27 -33 -63 -55q-27 -17 -48 -22l-39 113q35 13 64 40q26 25 41 59l5 11q2 5 2 10q0 4 -1 9l-137 462h141z" />
    <glyph glyph-name="uni0444" unicode="&#x444;" horiz-adv-x="556" 
d="M336 671l-1 -173q192 -32 192 -256q0 -227 -192 -252l1 -182h-117l1 182q-191 25 -191 253q0 222 191 254l-1 174h117zM221 419q-43 -18 -62 -73q-14 -40 -14 -101q0 -64 16 -107q18 -51 60 -68v349zM334 69q41 17 60 69q16 42 16 107q0 58 -15 100q-19 53 -61 73v-349z
" />
    <glyph glyph-name="uni0445" unicode="&#x445;" horiz-adv-x="396" 
d="M149 489l30 -87l24 -82h2l23 82l29 87h131l-111 -240l113 -249h-142l-34 92q-6 16 -12 37q-3 8 -6 19l-5 19h-2l-22 -76l-30 -91h-131l109 243l-108 246h142z" />
    <glyph glyph-name="uni0446" unicode="&#x446;" horiz-adv-x="468" 
d="M177 489v-382h101v382h131v-393l44 -2l-4 -229h-100l-6 135h-297v489h131z" />
    <glyph glyph-name="uni0447" unicode="&#x447;" horiz-adv-x="448" 
d="M172 489v-178q0 -67 53 -67q27 0 46 14v231h132v-494h-131v176h-3q-31 -22 -91 -22q-137 0 -137 155v185h131z" />
    <glyph glyph-name="uni0448" unicode="&#x448;" horiz-adv-x="664" 
d="M175 489v-382h93v382h129v-382h93v382h129v-489h-573v489h129z" />
    <glyph glyph-name="uni0449" unicode="&#x449;" horiz-adv-x="678" 
d="M175 489v-382h93v382h129v-382h93v382h129v-393l44 -2l-4 -229h-100l-6 135h-507v489h129z" />
    <glyph glyph-name="uni044A" unicode="&#x44a;" horiz-adv-x="530" 
d="M254 489v-156q25 4 50 4q85 0 139 -39q61 -43 61 -124q0 -85 -62 -130q-35 -27 -88 -39q-45 -10 -102 -10q-61 0 -128 9v379h-113v106h243zM254 92q9 -1 31 -1q36 0 61 18q27 20 27 57t-28 57q-26 18 -65 18q-8 0 -26 -2v-147z" />
    <glyph glyph-name="uni044B" unicode="&#x44b;" horiz-adv-x="628" 
d="M175 489v-156q21 4 51 4q77 0 129 -39q57 -45 57 -124q0 -85 -62 -130q-34 -26 -87 -39q-42 -10 -90 -10q-61 0 -128 9v485h130zM175 92q8 -1 27 -1q30 0 53 19q26 21 26 56q0 37 -26 57q-23 18 -54 18q-17 0 -26 -2v-147zM583 489v-489h-130v489h130z" />
    <glyph glyph-name="uni044C" unicode="&#x44c;" horiz-adv-x="452" 
d="M175 489v-156q25 4 50 4q87 0 141 -39q59 -44 59 -128q0 -81 -62 -126q-35 -27 -88 -39q-45 -10 -102 -10q-61 0 -128 9v485h130zM175 92q9 -1 27 -1q39 0 64 18q28 20 28 57t-28 57q-26 18 -65 18q-8 0 -26 -2v-147z" />
    <glyph glyph-name="uni044D" unicode="&#x44d;" horiz-adv-x="375" 
d="M48 292h164q-9 106 -104 106q-25 0 -46 -5q-13 -3 -31 -10l-20 90q42 24 118 24q93 0 152 -62q65 -71 65 -187q0 -119 -66 -189q-64 -67 -168 -67q-66 0 -106 21l17 94q22 -7 35 -9q19 -4 40 -4q105 0 114 110h-164v88z" />
    <glyph glyph-name="uni044E" unicode="&#x44e;" horiz-adv-x="610" 
d="M174 489v-186h47q13 95 65 147q48 47 113 47q86 0 134 -68q48 -66 48 -182q0 -72 -18 -126q-17 -47 -46 -78q-26 -27 -60 -40q-29 -11 -59 -11q-162 0 -179 208h-45v-200h-129v489h129zM400 92q28 0 42 50q11 40 11 104q0 61 -11 101q-15 50 -44 50q-31 0 -46 -50
q-11 -39 -11 -101q0 -69 13 -108q14 -46 45 -46h1z" />
    <glyph glyph-name="uni044F" unicode="&#x44f;" horiz-adv-x="437" 
d="M391 0h-126v192h-12q-21 0 -36 -10q-24 -14 -40 -59q-5 -16 -12 -42l-11 -45q-4 -18 -14 -36h-136q17 25 25 54l22 74q17 46 37 68q23 25 59 34v2q-50 11 -80 39q-34 32 -34 81q0 65 57 105q50 35 164 35q89 0 137 -9v-483zM266 407q-13 3 -28 3q-74 0 -74 -67
q0 -73 84 -73q11 0 18 1v136z" />
    <glyph glyph-name="uni0451" unicode="&#x451;" horiz-adv-x="419" 
d="M156 198q1 -104 103 -104q25 0 51 5q21 4 42 11l17 -93q-54 -23 -133 -23q-207 0 -207 241q0 120 57 193q54 69 139 69q166 0 166 -231q0 -24 -1 -42l-3 -26h-231zM272 290q0 111 -55 111q-30 0 -46 -37q-14 -31 -15 -74h116zM139 560q-59 0 -59 64t60 64t60 -64t-60 -64
h-1zM316 560q-59 0 -59 64t60 64t60 -64t-60 -64h-1z" />
    <glyph glyph-name="uni0452" unicode="&#x452;" horiz-adv-x="462" 
d="M56 627v65h131v-65h166v-80h-166v-112h2q40 56 101 56q65 0 100 -65q40 -70 40 -204q0 -116 -24 -191q-22 -67 -65 -108q-49 -46 -97 -51l-30 109q31 7 52 39q18 29 27 87q7 48 7 111q0 31 -3 60q-4 36 -12 61q-16 42 -45 42q-26 0 -40 -25q-13 -22 -13 -50v-306h-131
v547h-53v80h53z" />
    <glyph glyph-name="uni0453" unicode="&#x453;" horiz-adv-x="328" 
d="M316 489v-108h-140v-381h-131v489h271zM306 689l-101 -140h-82l69 140h114z" />
    <glyph glyph-name="uni0454" unicode="&#x454;" horiz-adv-x="372" 
d="M349 383q-16 8 -29 12q-21 6 -45 6q-49 0 -80 -33q-28 -30 -32 -76h166v-88h-166q12 -115 116 -115q37 0 72 15l17 -91q-20 -9 -44 -14q-30 -7 -65 -7q-103 0 -166 66q-64 68 -64 182q0 112 62 183q66 74 179 74q66 0 100 -23z" />
    <glyph glyph-name="uni0455" unicode="&#x455;" horiz-adv-x="324" 
d="M42 118q41 -26 88 -26q53 0 53 43q0 33 -57 67q-55 31 -79 70q-20 32 -20 70q0 67 44 111q45 44 117 44q53 0 99 -23l-23 -96q-35 20 -68 20q-49 0 -49 -41q0 -29 57 -62q99 -56 99 -147q0 -73 -49 -114q-46 -40 -124 -40q-75 0 -111 28z" />
    <glyph glyph-name="uni0456" unicode="&#x456;" horiz-adv-x="223" 
d="M48 0v489h131v-489h-131zM110 547q-67 0 -65 71q-2 72 67 72q67 0 67 -72q1 -71 -68 -71h-1z" />
    <glyph glyph-name="uni0457" unicode="&#x457;" horiz-adv-x="223" 
d="M46 0v489h131v-489h-131zM22 560q-59 0 -59 64t60 64t60 -64t-60 -64h-1zM199 560q-59 0 -59 64t60 64t60 -64t-60 -64h-1z" />
    <glyph glyph-name="uni0458" unicode="&#x458;" horiz-adv-x="224" 
d="M-38 -96q46 6 64 26q22 24 22 130v429h131v-454q0 -79 -17 -125q-15 -42 -48 -68q-25 -20 -67 -31q-36 -10 -75 -11zM111 547q-67 0 -65 71q-2 72 67 72q67 0 67 -72q2 -71 -68 -71h-1z" />
    <glyph glyph-name="uni0459" unicode="&#x459;" horiz-adv-x="669" 
d="M393 489v-155q29 3 49 3q86 0 140 -39q61 -45 61 -127q0 -80 -60 -125q-37 -27 -94 -40q-47 -11 -104 -11q-30 0 -63 3q-28 2 -59 6v379h-75v-105q0 -55 -3 -92q-4 -46 -14 -79q-23 -74 -83 -102q-30 -15 -67 -15l-21 104q28 7 44 35q13 19 18 59q4 33 4 87v214h327z
M393 92q9 -1 27 -1q39 0 64 18q28 20 28 57q0 75 -93 75q-8 0 -26 -2v-147z" />
    <glyph glyph-name="uni045A" unicode="&#x45a;" horiz-adv-x="678" 
d="M177 489v-173h95v173h130v-158q25 4 53 4q86 0 139 -41q58 -45 58 -128q0 -77 -60 -120q-37 -27 -94 -40q-47 -11 -104 -11q-29 0 -63 3q-25 1 -59 5v208h-95v-211h-131v489h131zM402 92q9 -1 28 -1q91 0 91 74t-93 74q-8 0 -26 -2v-145z" />
    <glyph glyph-name="uni045B" unicode="&#x45b;" horiz-adv-x="468" 
d="M56 627v65h131v-65h165v-80h-165v-115h2q17 24 42 41q31 18 66 18q65 0 96 -53q29 -49 29 -141v-297h-131v291q0 41 -9 63q-12 27 -39 27q-37 0 -51 -46l-2 -7q-1 -4 -1 -9q-2 -11 -2 -23v-296h-131v547h-53v80h53z" />
    <glyph glyph-name="uni045C" unicode="&#x45c;" horiz-adv-x="415" 
d="M174 489v-195h14l85 195h136l-125 -210q33 -12 56 -53q19 -34 30 -87q7 -30 19 -71q13 -45 24 -68h-130q-10 18 -19 51q-7 23 -17 68q-19 83 -64 83h-9v-202h-128v489h128zM345 689l-101 -140h-82l69 140h114z" />
    <glyph glyph-name="uni045E" unicode="&#x45e;" horiz-adv-x="391" 
d="M146 489l48 -255l14 -82h2l11 80l41 257h128l-100 -378q-10 -38 -20 -69q-11 -37 -24 -67q-29 -70 -65 -113q-27 -33 -63 -55q-27 -17 -48 -22l-39 113q35 13 64 40q26 25 41 59l5 11q2 5 2 10q0 4 -1 9l-137 462h141zM150 678q2 -61 45 -61q45 0 47 61h80
q-6 -125 -130 -125q-117 0 -122 125h80z" />
    <glyph glyph-name="uni045F" unicode="&#x45f;" horiz-adv-x="455" 
d="M177 489v-382h100v382h132v-489h-125l-7 -139h-101l-6 139h-124v489h131z" />
    <glyph glyph-name="uni04D9" unicode="&#x4d9;" horiz-adv-x="419" 
d="M50 466q60 31 137 31q203 0 203 -242q0 -120 -55 -192q-54 -69 -139 -69q-168 0 -168 232q0 21 1 38l3 26h231q-1 107 -100 107q-27 0 -54 -6q-19 -5 -42 -13zM147 198q0 -108 57 -108q29 0 45 37q13 30 14 71h-116z" />
    <glyph glyph-name="Euro" unicode="&#x20ac;" horiz-adv-x="426" 
d="M406 15q-18 -9 -43 -15q-32 -8 -62 -8q-45 0 -84 16q-44 19 -75 56q-54 61 -67 174h-51v67h46l1 47h-47v67h54q12 85 54 145q64 94 181 94q28 0 55 -7q17 -5 36 -13l-20 -109l-13 6q-8 3 -16 5q-20 6 -38 6q-52 0 -78 -42q-22 -30 -30 -85h153v-67h-160q-1 -11 -1 -36
v-11h161v-67h-156q5 -60 29 -94q27 -40 81 -40q40 0 76 19z" />
    <glyph glyph-name="uni2113" unicode="&#x2113;" horiz-adv-x="455" 
d="M223 369q63 97 63 182q0 58 -29 58q-16 0 -23 -23q-11 -33 -11 -114v-103zM433 93q-31 -52 -81 -79q-46 -25 -101 -25q-77 0 -118 46q-37 42 -40 118v5l-20 -16q-12 -9 -23 -16l-34 66q52 37 77 62v238q0 110 45 167q40 51 110 51q131 0 131 -154q0 -147 -156 -311v-38
q0 -106 67 -106q42 0 87 52z" />
    <glyph glyph-name="uni2116" unicode="&#x2116;" horiz-adv-x="752" 
d="M593 642q129 0 129 -164q0 -91 -42 -133q-34 -34 -88 -34q-133 0 -133 165q0 81 39 125q35 41 94 41h1zM590 573q-22 0 -32 -36q-7 -25 -7 -60q0 -97 40 -97q23 0 32 31q7 23 7 66q0 40 -7 65q-10 31 -32 31h-1zM477 209v66h228v-66h-228zM58 0v655h117l145 -450h1
l-7 132q-2 43 -3 82q-1 46 -1 89v147h110v-655h-119l-81 249q-12 35 -30 97l-28 100h-1l3 -56l4 -149q1 -47 1 -93v-148h-111z" />
    <glyph glyph-name="estimated" unicode="&#x212e;" horiz-adv-x="817" 
d="M177 316q-5 0 -5 -4v-183q0 -10 9 -21q93 -99 229 -99q145 0 240 111h55q-113 -131 -296 -131q-155 0 -264 98q-110 99 -110 238t110 238q109 98 264 98t264 -98q109 -99 109 -238v-9h-605zM646 524q0 12 -10 22q-95 95 -226 95q-133 0 -228 -98q-10 -10 -10 -23v-180
q0 -5 5 -5h464q5 0 5 5v184z" />
    <glyph glyph-name="partialdiff" unicode="&#x2202;" horiz-adv-x="453" 
d="M41 688q31 20 62 31q43 15 88 15q99 0 166 -87q73 -95 73 -256q0 -100 -20 -178q-18 -73 -52 -125q-65 -96 -164 -96q-81 0 -129 60q-46 58 -46 152q0 117 55 187q51 66 130 66q62 0 96 -45h1v12q0 95 -40 150q-37 51 -94 51q-29 0 -55 -8q-19 -7 -34 -17zM206 99
q33 0 59 64q25 63 28 145q-19 46 -60 46q-36 0 -60 -47t-24 -111q0 -97 56 -97h1z" />
    <glyph glyph-name="Delta" unicode="&#x2206;" horiz-adv-x="453" 
d="M19 0v65l142 587h144l130 -584v-68h-416zM265 320q-3 17 -9 48l-9 54q-12 65 -16 92h-3l-31 -164l-51 -239h161z" />
    <glyph glyph-name="product" unicode="&#x220f;" horiz-adv-x="496" 
d="M421 536v-626h-119v626h-117v-626h-119v626h-64v114h483v-114h-64z" />
    <glyph glyph-name="summation" unicode="&#x2211;" horiz-adv-x="411" 
d="M13 -90v80l159 293l-155 284v83h371v-114h-214v-3l128 -243l-141 -263v-3h242v-114h-390z" />
    <glyph glyph-name="radical" unicode="&#x221a;" horiz-adv-x="541" 
d="M338 -76h-90l-121 408l-76 -25l-18 62l158 56l77 -280q16 -62 22 -98h1l5 43q5 32 10 59l133 687h87z" />
    <glyph glyph-name="infinity" unicode="&#x221e;" horiz-adv-x="745" 
d="M550 103q-48 0 -98 34q-20 13 -43 34q-13 11 -38 36l-38 -36q-23 -21 -41 -34q-51 -34 -107 -34q-68 0 -112 46q-43 45 -43 115q0 66 45 113q47 48 118 48q49 0 99 -34q20 -13 43 -33q13 -12 38 -37l38 37q23 20 42 33q50 34 106 34q68 0 112 -46q43 -45 43 -115
q0 -66 -45 -113q-47 -48 -118 -48h-1zM550 184q77 0 77 80t-75 80q-33 0 -69 -26q-13 -10 -30 -26l-27 -27l26 -26q17 -17 29 -26q35 -29 68 -29h1zM193 184q32 0 68 26q13 10 30 26l27 27l-26 27q-17 16 -29 26q-35 28 -68 28q-78 0 -78 -80t75 -80h1z" />
    <glyph glyph-name="integral" unicode="&#x222b;" horiz-adv-x="345" 
d="M308 715q-16 4 -31 4q-23 0 -39 -28q-17 -29 -17 -149q0 -50 1 -110l7 -218q1 -64 1 -121q0 -139 -28 -189q-35 -65 -115 -65q-38 0 -60 10l16 86l6 -2q4 -1 7 -1q9 -2 16 -2q24 0 37 20q16 28 16 139q0 57 -1 122l-7 225q-1 62 -1 115q0 153 51 209q40 44 104 44
q28 0 50 -6z" />
    <glyph glyph-name="approxequal" unicode="&#x2248;" horiz-adv-x="596" 
d="M574 359q-30 -31 -66 -50q-45 -24 -89 -24q-39 0 -75 13q-12 4 -28 11l-48 23q-15 7 -26 11q-33 12 -66 12q-31 0 -66 -18q-27 -14 -51 -36l-38 63q30 30 66 50q45 23 89 23q39 0 75 -13q13 -4 29 -11q3 -2 6 -3l42 -20q15 -7 26 -11q32 -12 65 -12q31 0 66 19
q27 14 51 36zM577 151q-30 -31 -66 -50q-45 -24 -89 -24q-39 0 -75 13q-13 4 -29 11q-3 2 -6 3l-42 20q-15 7 -26 11q-33 12 -66 12q-31 0 -66 -18q-27 -14 -51 -36l-38 63q30 30 66 50q45 23 89 23q39 0 75 -13q13 -4 29 -11q3 -2 6 -3l42 -20q15 -7 26 -11q33 -12 66 -12
q31 0 66 19q27 14 51 36z" />
    <glyph glyph-name="notequal" unicode="&#x2260;" horiz-adv-x="596" 
d="M247 123l-67 -108h-86l68 108h-122v82h175l79 126h-254v82h307l67 108h87l-69 -108h124v-82h-177l-80 -126h257v-82h-309z" />
    <glyph glyph-name="lessequal" unicode="&#x2264;" horiz-adv-x="596" 
d="M61 293v81l474 181v-89l-361 -132v-2l362 -131v-90zM61 0v77h474v-77h-474z" />
    <glyph glyph-name="greaterequal" unicode="&#x2265;" horiz-adv-x="596" 
d="M61 111v90l361 131v2l-361 132v89l474 -181v-81zM61 0v77h474v-77h-474z" />
    <glyph glyph-name="lozenge" unicode="&#x25ca;" horiz-adv-x="499" 
d="M294 -30h-88l-168 355l168 355h88l168 -355zM260 549l-11 30h-2l-10 -26l-97 -225l104 -239l6 -18h3l10 26l97 225z" />
    <glyph glyph-name="uniEFED" unicode="&#xefed;" 
d="M149 715q-61 0 -61 64t62 64q63 0 63 -64t-63 -64h-1z" />
    <glyph glyph-name="uniEFEE" unicode="&#xefee;" 
d="M98 835q2 -44 50 -44q49 0 51 44h70q0 -117 -120 -117q-121 0 -121 117h70z" />
    <glyph glyph-name="uniEFF1" unicode="&#xeff1;" 
d="M175 6q-27 -45 -27 -84q0 -42 40 -42q24 0 39 6l16 -66q-20 -14 -45 -20q-20 -5 -43 -5q-97 0 -97 96q0 32 14 69q5 13 12 27l10 19h81z" />
    <glyph glyph-name="uniEFF2" unicode="&#xeff2;" 
d="M201 5l-25 -49q67 -11 67 -73q0 -45 -34 -67q-29 -20 -76 -20q-46 0 -75 18l18 56q30 -14 53 -14q32 0 32 25q0 31 -68 37l38 87h70z" />
    <glyph glyph-name="uniEFF3" unicode="&#xeff3;" horiz-adv-x="400" 
d="M203 879q52 0 80 -27q24 -25 24 -64t-25 -64q-29 -29 -80 -29q-53 0 -82 28q-25 25 -25 62q0 39 26 65q30 29 81 29h1zM199 832q-36 0 -36 -46q0 -43 37 -43q39 0 39 44q0 45 -39 45h-1z" />
    <glyph glyph-name="uniEFF5" unicode="&#xeff5;" 
d="M34 718q-3 115 66 115q27 0 53 -17q27 -17 37 -17q19 0 24 38h58q3 -115 -69 -115q-29 0 -54 16l-18 11q-9 4 -17 4q-18 0 -21 -35h-59z" />
    <glyph glyph-name="uniEFF7" unicode="&#xeff7;" 
d="M200 820l84 -110h-96l-39 52h-2l-38 -52h-93l81 110h103z" />
    <glyph glyph-name="uniF6C9" unicode="&#xf6c9;" 
d="M311 823l-122 -113h-93l82 113h133z" />
    <glyph glyph-name="uniF6CA" unicode="&#xf6ca;" 
d="M100 710l-84 110h96l39 -52h2l38 52h93l-81 -110h-103z" />
    <glyph glyph-name="uniF6CB" unicode="&#xf6cb;" 
d="M56 715q-58 0 -58 64q0 63 59 63t59 -63q0 -64 -59 -64h-1zM240 715q-59 0 -59 64q0 63 60 63q59 0 59 -63q0 -64 -59 -64h-1z" />
    <glyph glyph-name="uniF6CC" unicode="&#xf6cc;" 
d="M5 715q-52 0 -52 57q0 58 53 58q54 0 54 -58q0 -57 -54 -57h-1zM295 715q-52 0 -52 57q0 58 53 58q54 0 54 -58q0 -57 -54 -57h-1zM249 835l-112 -125h-82l81 125h113z" />
    <glyph glyph-name="uniF6CD" unicode="&#xf6cd;" 
d="M5 715q-52 0 -52 57q0 58 53 58q54 0 54 -58q0 -57 -54 -57h-1zM294 715q-52 0 -52 57q0 58 53 58q54 0 54 -58q0 -57 -54 -57h-1zM165 835l81 -125h-82l-112 125h113z" />
    <glyph glyph-name="uniF6CE" unicode="&#xf6ce;" 
d="M144 823l82 -113h-93l-122 113h133z" />
    <glyph glyph-name="uniF6CF" unicode="&#xf6cf;" 
d="M205 823l-92 -110h-73l57 110h108zM351 823l-92 -110h-73l57 110h108z" />
    <glyph glyph-name="uniF6D0" unicode="&#xf6d0;" 
d="M268 815v-79h-235v79h235z" />
    <glyph glyph-name="uniF6D1" unicode="&#xf6d1;" 
d="M106 835q3 -57 44 -57q42 0 45 57h83q-13 -115 -129 -115q-55 0 -87 25q-35 29 -39 90h83z" />
    <glyph glyph-name="uniF6D2" unicode="&#xf6d2;" 
d="M195 719q-3 57 -44 57q-42 0 -45 -57h-83q13 115 129 115q55 0 87 -25q35 -29 39 -90h-83z" />
    <glyph glyph-name="uniF6D3" unicode="&#xf6d3;" 
d="M52 834l91 -125h-80l-131 125h120zM252 834l91 -125h-81l-130 125h120z" />
    <glyph glyph-name="uniF6D4" unicode="&#xf6d4;" 
d="M104 678q2 -61 45 -61q45 0 47 61h80q-6 -125 -130 -125q-117 0 -122 125h80z" />
    <glyph glyph-name="uniF6D5" unicode="&#xf6d5;" 
d="M25 572q6 125 130 125q117 0 122 -125h-80q-2 61 -45 61q-45 0 -47 -61h-80z" />
    <glyph glyph-name="uniF6D6" unicode="&#xf6d6;" 
d="M66 686l74 -139h-64l-104 139h94zM214 686l75 -139h-64l-104 139h93z" />
    <glyph glyph-name="uniF6D7" unicode="&#xf6d7;" horiz-adv-x="301" 
d="M0 555q-57 0 -57 62t59 62q58 0 58 -62t-59 -62h-1zM296 555q-57 0 -57 62t59 62q58 0 58 -62t-59 -62h-1zM244 689l-101 -140h-76l69 140h108z" />
    <glyph glyph-name="uniF6D8" unicode="&#xf6d8;" horiz-adv-x="301" 
d="M0 555q-57 0 -57 62t59 62q58 0 58 -62t-59 -62h-1zM296 555q-57 0 -57 62t59 62q58 0 58 -62t-59 -62h-1zM167 689l69 -140h-77l-100 140h108z" />
    <glyph glyph-name="uniF634" unicode="&#xf634;" 
d="M66 -166q23 6 38 18q20 15 20 34q0 16 -11 35q-8 13 -21 26l95 12q37 -24 37 -73q0 -50 -40 -79q-36 -25 -97 -31z" />
    <glyph glyph-name="uniF638" unicode="&#xf638;" horiz-adv-x="426" 
d="M261 501q-13 45 -46 45q-68 0 -68 -221q0 -43 5 -78zM165 145q15 -41 47 -41q67 0 67 221q0 45 -5 81zM357 571q25 -46 37 -114q9 -57 9 -129q0 -166 -55 -255q-51 -81 -134 -81q-68 0 -112 46l-27 -52l-47 29l40 73q-23 38 -34 105q-11 59 -11 129q0 156 47 243
q50 93 147 93q63 0 105 -39l29 57l47 -28z" />
    <glyph glyph-name="uniF639" unicode="&#xf639;" horiz-adv-x="426" 
d="M213 -8q-98 0 -147 102q-22 44 -32 106q-10 56 -10 122q0 149 46 238q51 98 147 98q103 0 149 -107q19 -44 28 -106q8 -53 8 -117q0 -167 -55 -255q-50 -81 -133 -81h-1zM216 104q55 0 55 221t-55 221q-62 0 -61 -221q-3 -221 60 -221h1z" />
    <glyph glyph-name="uniF6DC" unicode="&#xf6dc;" horiz-adv-x="317" 
d="M130 527h-2l-110 -57l-22 103l149 77h115v-650h-130v527z" />
    <glyph glyph-name="uniF63A" unicode="&#xf63a;" horiz-adv-x="376" 
d="M1 0v88l64 82q21 26 31 40q16 21 28 38q30 41 49 73q45 76 45 139q0 89 -83 89q-27 0 -55 -11q-11 -4 -23 -10l-19 -11l-24 101q26 16 62 27q42 13 83 13q98 0 147 -59q41 -49 41 -129q0 -82 -47 -167q-20 -34 -49 -72q-21 -29 -55 -68l-39 -46v-2h199v-115h-355z" />
    <glyph glyph-name="uniF63B" unicode="&#xf63b;" horiz-adv-x="361" 
d="M13 124q46 -25 97 -25q99 0 99 94q0 51 -36 78q-32 24 -85 25h-18v96h13q43 1 73 19q36 22 36 65q0 75 -75 75q-42 0 -82 -25l-18 98q54 34 134 34q82 0 129 -47q43 -43 43 -110q0 -102 -94 -146v-2q49 -17 79 -58q32 -44 32 -107q0 -80 -56 -135q-61 -61 -162 -61
q-76 0 -127 29z" />
    <glyph glyph-name="uniF63C" unicode="&#xf63c;" horiz-adv-x="418" 
d="M229 0v155h-223v90l213 405h126v-390h64v-105h-64v-155h-116zM229 260v133q0 22 2 53l5 54h-4q-9 -24 -21 -50l-93 -188v-2h111z" />
    <glyph glyph-name="uniF63D" unicode="&#xf63d;" horiz-adv-x="373" 
d="M338 536h-172l-15 -117q4 1 9 1h10q26 -1 58 -12q39 -13 65 -37q56 -54 56 -150q0 -98 -60 -162q-63 -67 -166 -67q-74 0 -122 26l20 103q44 -22 93 -22q106 0 106 110q0 62 -42 92q-37 25 -99 25h-25l-22 -2l37 326h269v-114z" />
    <glyph glyph-name="uniF63E" unicode="&#xf63e;" horiz-adv-x="426" 
d="M355 552q-28 -2 -54 -7q-61 -13 -99 -62q-33 -44 -47 -111h4q39 52 101 52q66 0 106 -55q41 -55 41 -146q0 -94 -45 -158q-52 -73 -141 -73q-92 0 -145 74q-53 73 -53 195q0 100 31 180q26 70 75 122q64 70 160 88q19 4 40 5q3 1 8 1l18 1v-106zM221 87q30 0 44 39
q12 34 12 97q-1 46 -15 74q-16 33 -46 33q-36 0 -54 -43q-6 -16 -6 -58q0 -142 64 -142h1z" />
    <glyph glyph-name="uniF63F" unicode="&#xf63f;" horiz-adv-x="352" 
d="M355 650v-85l-205 -565h-127l199 535h-221v115h354z" />
    <glyph glyph-name="uniF640" unicode="&#xf640;" horiz-adv-x="426" 
d="M222 658q71 0 119 -44q49 -45 49 -116q0 -39 -17 -72q-22 -43 -69 -72v-3q101 -54 101 -169q0 -88 -57 -140q-55 -50 -138 -50q-85 0 -137 48q-53 49 -53 129q0 57 29 104q25 41 69 69v2q-80 51 -80 143q0 77 54 125q52 46 129 46h1zM214 80q64 0 64 96q0 43 -24 76
q-19 28 -51 45q-56 -39 -56 -114q0 -103 66 -103h1zM217 570q-56 0 -56 -80q0 -63 64 -97q45 23 45 92q0 85 -52 85h-1z" />
    <glyph glyph-name="uniF641" unicode="&#xf641;" horiz-adv-x="426" 
d="M74 101q33 0 59 5q43 8 77 39q47 45 63 131h-3q-37 -40 -93 -40q-65 0 -108 52q-45 55 -45 142q0 90 50 156q54 72 143 72t138 -75q47 -71 47 -192q0 -104 -31 -188q-27 -74 -76 -126q-62 -67 -161 -82q-13 -2 -30 -3h-30v109zM210 563q-60 0 -57 -122q1 -50 16 -81
q16 -34 45 -34q36 0 50 34q6 14 6 69q0 134 -59 134h-1z" />
    <glyph glyph-name="uniF642" unicode="&#xf642;" horiz-adv-x="678" 
d="M151 617q66 0 100 -65q27 -53 27 -132q0 -98 -40 -152q-35 -49 -89 -49q-64 0 -100 62q-31 54 -31 134q0 84 34 141q37 61 98 61h1zM148 548q-42 0 -42 -129q-2 -131 43 -131q41 0 41 129q0 131 -41 131h-1zM140 -10l329 628h68l-329 -628h-68zM533 392q66 0 100 -65
q27 -53 27 -132q0 -98 -40 -152q-35 -49 -89 -49q-64 0 -100 62q-31 54 -31 135q0 83 34 140q37 61 98 61h1zM530 323q-42 0 -42 -129q-2 -131 43 -131q41 0 41 129q0 131 -41 131h-1z" />
    <glyph glyph-name="uniF643" unicode="&#xf643;" horiz-adv-x="431" 
d="M214 -8q-76 0 -126 59q-59 68 -59 194q0 127 59 195q51 59 127 59q77 0 128 -59q59 -68 59 -195q0 -126 -59 -194q-51 -59 -128 -59h-1zM216 92q64 0 64 153q0 154 -65 154q-64 0 -64 -154q0 -153 64 -153h1z" />
    <glyph glyph-name="uniF644" unicode="&#xf644;" horiz-adv-x="431" 
d="M193 0v376l-139 -57l-18 97l184 74h103v-490h-130z" />
    <glyph glyph-name="uniF645" unicode="&#xf645;" horiz-adv-x="431" 
d="M51 0v77l44 41l51 50q26 28 43 51q40 55 40 100q0 76 -74 76q-36 0 -76 -23l-31 85q29 19 65 31q43 14 85 14q69 0 111 -42q44 -44 44 -117q0 -61 -34 -116q-26 -43 -84 -96l-26 -25v-3q20 2 44 3q28 2 43 2h80v-108h-325z" />
    <glyph glyph-name="uniF646" unicode="&#xf646;" horiz-adv-x="431" 
d="M64 -10q23 -7 62 -7q114 0 114 88q0 81 -99 81h-21q-12 0 -19 -1l-1 100l27 2q43 4 71 24q31 22 31 56q0 59 -69 59q-42 0 -82 -18l-18 96q48 29 128 29q72 0 117 -39t45 -100q0 -53 -31 -92q-29 -37 -72 -48v-2q123 -24 123 -148q0 -88 -69 -142q-65 -51 -157 -51
q-55 0 -93 12z" />
    <glyph glyph-name="uniF647" unicode="&#xf647;" horiz-adv-x="431" 
d="M344 39v-159h-112v159h-214v88l200 364h126v-350h64v-102h-64zM232 315q1 26 3 48h-2q-15 -47 -43 -102l-62 -117v-3h104v174z" />
    <glyph glyph-name="uniF648" unicode="&#xf648;" horiz-adv-x="431" 
d="M63 -11q6 -1 11 -2l14 -2q17 -2 37 -2q44 0 75 24q35 27 35 72t-26 67q-39 38 -142 36l49 308h248l-15 -112h-147l-18 -109q86 -10 137 -59q45 -45 45 -120q0 -96 -67 -155q-65 -58 -165 -58q-50 0 -82 12z" />
    <glyph glyph-name="uniF649" unicode="&#xf649;" horiz-adv-x="431" 
d="M372 516q-88 -8 -141 -55q-46 -40 -60 -103l3 -1q29 43 86 43q59 0 99 -48q44 -54 44 -144q0 -97 -55 -158q-53 -58 -130 -58q-81 0 -131 58q-56 65 -56 189q0 155 85 258q91 108 246 117zM220 85q22 0 36 24q17 29 17 87q0 112 -59 112q-19 0 -37 -21q-16 -21 -16 -78
q0 -67 18 -98q14 -26 40 -26h1z" />
    <glyph glyph-name="uniF64A" unicode="&#xf64a;" horiz-adv-x="431" 
d="M380 416q-4 -24 -28 -90q-23 -65 -56 -146q-34 -86 -67 -162q-37 -83 -65 -135l-121 15q56 103 120 249q30 70 52 128q24 63 34 101v2h-194v112h325v-74z" />
    <glyph glyph-name="uniF64B" unicode="&#xf64b;" horiz-adv-x="431" 
d="M305 323q45 -26 69 -61q28 -40 28 -90q0 -84 -58 -134q-54 -46 -133 -46q-83 0 -135 47t-52 122q0 48 27 89q24 37 68 65v3q-77 54 -77 133q0 77 53 123q51 44 128 44q68 0 114 -39q50 -43 50 -117q0 -83 -82 -135v-4zM162 459q0 -59 65 -95q43 39 43 95q0 74 -51 76
q-57 2 -57 -76zM215 79q63 0 63 80q0 38 -22 68q-19 25 -54 44q-54 -35 -54 -105q0 -35 18 -60q19 -27 48 -27h1z" />
    <glyph glyph-name="uniF64C" unicode="&#xf64c;" horiz-adv-x="431" 
d="M47 -25q94 9 149 53q49 39 64 104l-2 1q-27 -39 -87 -39q-56 0 -96 49q-45 54 -45 144q0 95 55 155q53 57 132 57q78 0 129 -61q55 -66 55 -181q0 -166 -90 -269q-92 -105 -252 -110zM221 180q19 0 34 20q16 19 16 78q0 126 -58 126q-23 0 -38 -23q-17 -29 -17 -86
q0 -115 62 -115h1z" />
    <glyph glyph-name="uniF64E" unicode="&#xf64e;" horiz-adv-x="431" 
d="M398 11q-18 -8 -39 -13q-27 -6 -54 -6q-93 0 -150 57q-49 50 -63 129h-49v62h42q-1 7 -1 12v20q0 8 1 15h-42v62h50q14 76 65 130q59 59 152 59q50 0 86 -16l-19 -101q-6 2 -12 3l-13 3q-17 3 -32 3q-40 0 -65 -23q-23 -23 -30 -58h128v-62h-137q-1 -7 -1 -14v-21
q0 -5 1 -12h137v-62h-127q7 -32 28 -53q22 -25 70 -25q31 0 61 13z" />
    <glyph glyph-name="uniF64F" unicode="&#xf64f;" horiz-adv-x="431" 
d="M80 351h72l5 57q8 93 55 149q51 60 137 60q36 0 62 -12l-17 -97q-16 6 -38 6q-64 0 -74 -105l-6 -58h91v-101h-98l-17 -180q-9 -91 -43 -139q-42 -58 -128 -58q-45 0 -72 16l19 93q21 -7 38 -7q23 0 38 20q18 24 24 79l16 176h-64v101z" />
    <glyph glyph-name="uniF650" unicode="&#xf650;" horiz-adv-x="431" 
d="M242 222l14 115h-71l-14 -115h71zM64 -32l23 179h-72v75h82l14 115h-75v75h85l22 174h74l-22 -174h71l22 174h74l-22 -174h71v-75h-81l-14 -115h75v-75h-84l-23 -179h-75l23 179h-71l-22 -179h-75z" />
    <glyph glyph-name="uniF651" unicode="&#xf651;" horiz-adv-x="431" 
d="M39 0v80q82 35 82 106q0 19 -3 38h-72v75h57q-7 35 -7 61q0 82 49 135q51 56 136 56q27 0 50 -6q15 -4 32 -11l-19 -106q-12 6 -24 9q-15 4 -32 4q-68 0 -68 -81q0 -26 7 -61h110v-75h-99l2 -20q0 -31 -15 -57q-12 -21 -32 -37v-2h193v-108h-347z" />
    <glyph glyph-name="uniF652" unicode="&#xf652;" horiz-adv-x="431" 
d="M155 0v108h-119v67h119v45h-119v67h91l-113 243h130l48 -134q21 -62 28 -95h2l11 45q8 27 16 51l46 133h123l-115 -243h91v-67h-119v-45h119v-67h-119v-108h-120z" />
    <glyph glyph-name="uniF653" unicode="&#xf653;" horiz-adv-x="431" 
d="M163 -70v74q-58 1 -107 26l20 93q47 -25 106 -25q71 0 71 44q0 33 -81 71q-114 55 -114 139q0 97 120 129v84h85v-76q29 -1 54 -7q19 -5 41 -14l-25 -93q-35 19 -84 19q-68 0 -68 -38q0 -18 15 -30q16 -13 69 -36q111 -47 111 -140q0 -113 -128 -140v-80h-85z" />
    <glyph glyph-name="uniF654" unicode="&#xf654;" horiz-adv-x="431" 
d="M342 66q-12 -5 -28 -9q-20 -4 -41 -5v-66h-76v70q-72 14 -110 71q-36 52 -36 130q0 170 146 205v70h76v-64q38 -3 64 -15l-15 -90q-30 13 -67 13q-87 0 -87 -119q0 -115 92 -115q42 0 72 13z" />
    <glyph glyph-name="uniF655" unicode="&#xf655;" horiz-adv-x="291" 
d="M145 -5q-67 0 -101 63q-28 52 -28 135q0 87 31 141q35 61 101 61q70 0 102 -65q13 -27 20 -64q5 -32 5 -69q0 -202 -129 -202h-1zM148 72q34 0 34 123t-34 123q-39 0 -39 -123t38 -123h1z" />
    <glyph glyph-name="uniF656" unicode="&#xf656;" horiz-adv-x="239" 
d="M98 0v307h-2l-70 -33l-17 68l99 48h84v-390h-94z" />
    <glyph glyph-name="uniF657" unicode="&#xf657;" horiz-adv-x="274" 
d="M7 53l47 57l36 44q19 23 29 39q27 40 27 69q0 54 -50 54q-33 0 -64 -23l-20 69q39 33 109 33q66 0 99 -37q27 -30 27 -76q0 -48 -34 -98q-13 -19 -34 -42l-55 -59v-3h127v-80h-244v53z" />
    <glyph glyph-name="uniF658" unicode="&#xf658;" horiz-adv-x="260" 
d="M20 372q42 23 95 23q58 0 90 -30q27 -26 27 -64q0 -64 -65 -92v-2q76 -13 76 -91q0 -121 -152 -121q-54 0 -85 19l14 69q32 -17 67 -17q58 0 58 53q0 57 -74 57h-12v62h7q29 0 49 10q24 12 24 35q0 41 -45 41q-28 0 -59 -17z" />
    <glyph glyph-name="uniF659" unicode="&#xf659;" horiz-adv-x="301" 
d="M158 0v89h-148v59l141 243h92v-233h42v-69h-42v-89h-85zM158 228q0 16 1 37l2 30h-2l-12 -26q-6 -15 -13 -26l-46 -85h70v70z" />
    <glyph glyph-name="uniF65A" unicode="&#xf65a;" horiz-adv-x="275" 
d="M241 311h-117l-6 -58h14q50 0 83 -29q37 -31 37 -91q0 -58 -39 -97q-42 -41 -111 -41q-54 0 -86 17l14 72q32 -14 65 -14q64 0 64 56q0 63 -90 63q-14 0 -34 -2l22 203h184v-79z" />
    <glyph glyph-name="uniF65B" unicode="&#xf65b;" horiz-adv-x="295" 
d="M242 321q-15 0 -35 -3q-75 -11 -93 -88h2q25 28 63 28q99 0 99 -123q0 -57 -32 -96q-35 -44 -93 -44q-134 0 -134 164q0 60 20 108q17 41 49 72q44 43 112 53q30 3 42 3v-74zM152 63q33 0 33 73q0 58 -36 58q-21 0 -33 -23q-2 -4 -3 -12q-1 -9 -1 -22q0 -74 39 -74h1z
" />
    <glyph glyph-name="uniF65C" unicode="&#xf65c;" horiz-adv-x="259" 
d="M250 390v-60l-132 -330h-92l129 310h-143v80h238z" />
    <glyph glyph-name="uniF65D" unicode="&#xf65d;" 
d="M155 395q113 0 113 -98q0 -23 -11 -43q-13 -25 -41 -41v-2q63 -30 63 -98q0 -55 -38 -87q-36 -31 -94 -31q-127 0 -127 109q0 66 60 99v1q-49 29 -49 85q0 48 36 78q34 28 87 28h1zM152 57q36 0 36 51q0 48 -45 64q-33 -18 -33 -60q0 -55 41 -55h1zM151 335
q-34 0 -34 -44q0 -35 40 -52q27 10 27 49q0 47 -32 47h-1z" />
    <glyph glyph-name="uniF65E" unicode="&#xf65e;" horiz-adv-x="291" 
d="M50 70q23 0 39 2q32 6 51 21q28 21 39 67h-2q-22 -22 -58 -22q-43 0 -72 32q-30 33 -30 87q0 55 34 95q36 43 95 43q60 0 94 -46q32 -44 32 -118q0 -62 -20 -113q-17 -44 -48 -74q-43 -42 -116 -48q-8 -1 -19 -1h-19v75zM142 327q-34 0 -34 -65q0 -62 36 -62q24 0 30 17
q4 11 4 41q0 69 -35 69h-1z" />
    <glyph glyph-name="uniF65F" unicode="&#xf65f;" horiz-adv-x="152" 
d="M-1 -74q15 45 26 87q12 46 17 83l93 6q-17 -49 -34 -88q-20 -47 -42 -82z" />
    <glyph glyph-name="uniF660" unicode="&#xf660;" horiz-adv-x="152" 
d="M75 -5q-52 0 -52 59t54 59q53 0 53 -59t-54 -59h-1z" />
    <glyph glyph-name="uniF629" unicode="&#xf629;" horiz-adv-x="267" 
d="M129 -5v61q-47 9 -76 45q-29 37 -29 93q0 116 106 142v61h59v-57q32 -4 46 -10l-12 -71q-20 10 -48 10q-57 0 -57 -74q0 -72 61 -72q27 0 51 9l7 -70q-18 -8 -49 -9v-58h-59z" />
    <glyph glyph-name="uniF62A" unicode="&#xf62a;" horiz-adv-x="267" 
d="M97 -52v61q-47 3 -72 16l14 73q36 -18 71 -18q43 0 43 33q0 26 -48 52q-79 43 -79 107q0 76 80 102v61h59v-54q41 -3 66 -17l-15 -70q-12 6 -26 11q-17 5 -33 5q-42 0 -42 -30q0 -23 51 -50q76 -41 76 -111q0 -84 -86 -105v-66h-59z" />
    <glyph glyph-name="uniF62B" unicode="&#xf62b;" horiz-adv-x="160" 
d="M142 222v-65h-124v65h124z" />
    <glyph glyph-name="uniF62C" unicode="&#xf62c;" horiz-adv-x="163" 
d="M165 430q-29 -45 -45 -100q-18 -65 -18 -144q0 -76 18 -140q16 -55 45 -102h-66q-30 39 -48 94q-22 68 -22 148t22 149q19 56 48 95h66z" />
    <glyph glyph-name="uniF62D" unicode="&#xf62d;" horiz-adv-x="163" 
d="M-2 -56q29 46 45 102q18 66 18 143q0 76 -18 140q-16 55 -45 101h66q30 -38 48 -93q22 -68 22 -149q0 -78 -22 -147q-18 -56 -48 -97h-66z" />
    <glyph glyph-name="uniF661" unicode="&#xf661;" horiz-adv-x="291" 
d="M145 258q-67 0 -101 63q-28 52 -28 135q0 87 31 141q35 61 101 61q70 0 102 -65q13 -27 20 -64q5 -32 5 -69q0 -202 -129 -202h-1zM148 335q34 0 34 123t-34 123q-39 0 -39 -123t38 -123h1z" />
    <glyph glyph-name="uniF662" unicode="&#xf662;" horiz-adv-x="239" 
d="M98 263v307h-2l-70 -33l-17 68l99 48h84v-390h-94z" />
    <glyph glyph-name="uniF663" unicode="&#xf663;" horiz-adv-x="274" 
d="M7 316l47 57l36 44q19 23 29 39q27 40 27 69q0 54 -50 54q-33 0 -64 -23l-20 69q39 33 109 33q66 0 99 -37q27 -30 27 -76q0 -48 -34 -98q-13 -19 -34 -42l-55 -59v-3h127v-80h-244v53z" />
    <glyph glyph-name="uniF664" unicode="&#xf664;" horiz-adv-x="260" 
d="M20 635q42 23 95 23q58 0 90 -30q27 -26 27 -64q0 -64 -65 -92v-2q76 -13 76 -91q0 -121 -152 -121q-54 0 -85 19l14 69q32 -17 67 -17q58 0 58 53q0 57 -74 57h-12v62h7q29 0 49 10q24 12 24 35q0 41 -45 41q-28 0 -59 -17z" />
    <glyph glyph-name="uniF665" unicode="&#xf665;" horiz-adv-x="301" 
d="M158 263v89h-148v59l141 243h92v-233h42v-69h-42v-89h-85zM158 491q0 16 1 37l2 30h-2l-12 -26q-6 -15 -13 -26l-46 -85h70v70z" />
    <glyph glyph-name="uniF666" unicode="&#xf666;" horiz-adv-x="275" 
d="M241 574h-117l-6 -58h14q50 0 83 -29q37 -31 37 -91q0 -58 -39 -97q-42 -41 -111 -41q-54 0 -86 17l14 72q32 -14 65 -14q64 0 64 56q0 63 -90 63q-14 0 -34 -2l22 203h184v-79z" />
    <glyph glyph-name="uniF667" unicode="&#xf667;" horiz-adv-x="295" 
d="M242 584q-15 0 -35 -3q-75 -11 -93 -88h2q25 28 63 28q99 0 99 -123q0 -57 -32 -96q-35 -44 -93 -44q-134 0 -134 164q0 60 20 108q17 41 49 72q44 43 112 53q30 3 42 3v-74zM152 326q33 0 33 73q0 58 -36 58q-21 0 -33 -23q-2 -4 -3 -12q-1 -9 -1 -22q0 -74 39 -74h1z
" />
    <glyph glyph-name="uniF668" unicode="&#xf668;" horiz-adv-x="259" 
d="M250 653v-60l-132 -330h-92l129 310h-143v80h238z" />
    <glyph glyph-name="uniF669" unicode="&#xf669;" 
d="M155 658q113 0 113 -98q0 -23 -11 -43q-13 -25 -41 -41v-2q63 -30 63 -98q0 -55 -38 -87q-36 -31 -94 -31q-127 0 -127 109q0 66 60 99v1q-49 29 -49 85q0 48 36 78q34 28 87 28h1zM152 320q36 0 36 51q0 48 -45 64q-33 -18 -33 -60q0 -55 41 -55h1zM151 598
q-34 0 -34 -44q0 -35 40 -52q27 10 27 49q0 47 -32 47h-1z" />
    <glyph glyph-name="uniF66A" unicode="&#xf66a;" horiz-adv-x="291" 
d="M50 333q23 0 39 2q32 6 51 21q28 21 39 67h-2q-22 -22 -58 -22q-43 0 -72 32q-30 33 -30 87q0 55 34 95q36 43 95 43q60 0 94 -46q32 -44 32 -118q0 -62 -20 -113q-17 -44 -48 -74q-43 -42 -116 -48q-8 -1 -19 -1h-19v75zM142 590q-34 0 -34 -65q0 -62 36 -62q24 0 30 17
q4 11 4 41q0 69 -35 69h-1z" />
    <glyph glyph-name="uniF66B" unicode="&#xf66b;" horiz-adv-x="152" 
d="M-1 189q15 45 26 87q12 46 17 83l93 6q-17 -49 -34 -88q-20 -47 -42 -82z" />
    <glyph glyph-name="uniF66C" unicode="&#xf66c;" horiz-adv-x="152" 
d="M75 258q-52 0 -52 59t54 59q53 0 53 -59t-54 -59h-1z" />
    <glyph glyph-name="uniF62E" unicode="&#xf62e;" horiz-adv-x="267" 
d="M129 258v61q-47 9 -76 45q-29 37 -29 93q0 116 106 142v61h59v-57q32 -4 46 -10l-12 -71q-20 10 -48 10q-57 0 -57 -74q0 -72 61 -72q27 0 51 9l7 -70q-18 -8 -49 -9v-58h-59z" />
    <glyph glyph-name="uniF62F" unicode="&#xf62f;" horiz-adv-x="267" 
d="M97 211v61q-47 3 -72 16l14 73q36 -18 71 -18q43 0 43 33q0 26 -48 52q-79 43 -79 107q0 76 80 102v61h59v-54q41 -3 66 -17l-15 -70q-12 6 -26 11q-17 5 -33 5q-42 0 -42 -30q0 -23 51 -50q76 -41 76 -111q0 -84 -86 -105v-66h-59z" />
    <glyph glyph-name="uniF630" unicode="&#xf630;" horiz-adv-x="160" 
d="M142 485v-65h-124v65h124z" />
    <glyph glyph-name="uniF631" unicode="&#xf631;" horiz-adv-x="163" 
d="M165 693q-29 -45 -45 -100q-18 -65 -18 -144q0 -76 18 -140q16 -55 45 -102h-66q-30 39 -48 94q-22 68 -22 148t22 149q19 56 48 95h66z" />
    <glyph glyph-name="uniF632" unicode="&#xf632;" horiz-adv-x="163" 
d="M-2 207q29 46 45 102q18 66 18 143q0 76 -18 140q-16 55 -45 101h66q30 -38 48 -93q22 -68 22 -149q0 -78 -22 -147q-18 -56 -48 -97h-66z" />
    <glyph glyph-name="uniF6AE" unicode="&#xf6ae;" horiz-adv-x="258" 
d="M241 732q-48 -76 -75 -168q-31 -109 -31 -240q0 -126 31 -235q26 -90 75 -169h-94q-49 65 -79 158q-18 54 -27 113q-10 65 -10 134q1 70 12 135q9 60 26 113q30 95 78 159h94z" />
    <glyph glyph-name="uniF6AF" unicode="&#xf6af;" horiz-adv-x="258" 
d="M17 -80q48 76 75 170q31 110 31 238q0 127 -31 236q-27 91 -75 168h94q49 -63 79 -155q18 -53 27 -113q10 -65 10 -136q-1 -71 -12 -136q-9 -60 -26 -113q-29 -93 -78 -159h-94z" />
    <glyph glyph-name="uniF6B0" unicode="&#xf6b0;" horiz-adv-x="258" 
d="M50 -72v798h184v-84h-85v-630h85v-84h-184z" />
    <glyph glyph-name="uniF6B1" unicode="&#xf6b1;" horiz-adv-x="258" 
d="M208 726v-798h-184v84h85v630h-85v84h184z" />
    <glyph glyph-name="uniF6B2" unicode="&#xf6b2;" horiz-adv-x="258" 
d="M10 367q37 0 53 18q13 14 13 38q0 18 -2 39l-4 38q-3 25 -4 40q-2 22 -2 41q0 145 153 145h18v-81h-15q-54 -4 -54 -68q0 -16 1 -34l6 -62q1 -17 1 -30q0 -98 -76 -122v-2q76 -23 76 -122q0 -14 -1 -31l-6 -63q-1 -18 -1 -32q0 -65 56 -70h13v-81h-21q-67 0 -106 32
q-44 37 -44 112q0 19 2 41l8 80q2 22 2 39q0 23 -13 37q-17 19 -53 19v79z" />
    <glyph glyph-name="uniF6B3" unicode="&#xf6b3;" horiz-adv-x="258" 
d="M248 288q-36 0 -53 -19q-13 -14 -13 -37q0 -17 2 -39l8 -80q2 -22 2 -41q0 -75 -44 -112q-39 -32 -106 -32h-21v81h13q56 5 56 70q0 13 -1 32l-2 31q-5 35 -5 63q0 99 76 122v2q-76 24 -76 122q0 25 5 60l2 32q1 19 1 34q0 64 -54 68h-15v81h18q153 0 153 -145
q0 -19 -2 -41q-1 -15 -4 -40l-4 -38q-2 -21 -2 -39q0 -24 13 -38q16 -18 53 -18v-79z" />
    <glyph glyph-name="uniF6B4" unicode="&#xf6b4;" horiz-adv-x="236" 
d="M47 -1l16 456h111l16 -456h-143zM119 684q74 0 74 -81q0 -80 -74 -80q-76 0 -76 80q0 81 75 81h1z" />
    <glyph glyph-name="uniF6B5" unicode="&#xf6b5;" horiz-adv-x="334" 
d="M192 684q74 0 74 -82q0 -80 -74 -80q-76 0 -76 80q0 82 75 82h1zM246 466l2 -18q5 -42 -10 -85q-13 -37 -43 -85q-43 -65 -43 -112q0 -62 66 -62q39 0 64 17l22 -100q-45 -30 -117 -30q-90 0 -134 52q-35 40 -35 102q0 46 24 95q9 20 24 43q5 9 13 20l13 19q43 65 43 123
v21h111z" />
    <glyph glyph-name="uniF6B6" unicode="&#xf6b6;" horiz-adv-x="383" 
d="M108 327l108 -184h-95l-105 184l105 185h95zM268 327l108 -184h-94l-106 184l105 185h95z" />
    <glyph glyph-name="uniF6B7" unicode="&#xf6b7;" horiz-adv-x="383" 
d="M7 512h94l106 -185l-105 -184h-95l108 184zM167 512h94l106 -185l-105 -184h-95l108 184z" />
    <glyph glyph-name="uniF6B8" unicode="&#xf6b8;" horiz-adv-x="221" 
d="M108 327l108 -184h-94l-106 184l105 185h95z" />
    <glyph glyph-name="uniF6B9" unicode="&#xf6b9;" horiz-adv-x="221" 
d="M5 512h94l106 -185l-105 -184h-95l108 184z" />
    <glyph glyph-name="uniF6BA" unicode="&#xf6ba;" horiz-adv-x="259" 
d="M229 398v-94h-199v94h199z" />
    <glyph glyph-name="uniF6BB" unicode="&#xf6bb;" horiz-adv-x="500" 
d="M470 380v-89h-440v89h440z" />
    <glyph glyph-name="uniF6BC" unicode="&#xf6bc;" horiz-adv-x="1000" 
d="M970 380v-89h-940v89h940z" />
    <glyph glyph-name="uniF6BD" unicode="&#xf6bd;" horiz-adv-x="233" 
d="M115 258q-75 0 -75 86q0 87 77 87q76 0 76 -87q0 -86 -77 -86h-1z" />
    <glyph glyph-name="uniF633" unicode="&#xf633;" horiz-adv-x="621" 
d="M371 452q-7 5 -26 5q-37 0 -68 -51q-32 -53 -32 -126q0 -56 35 -56q22 0 43 31q19 29 25 67zM442 31q-71 -40 -160 -40q-103 0 -173 76q-77 83 -77 224q0 157 88 271q94 121 235 121q114 0 178 -79q58 -71 58 -180q0 -269 -157 -269q-74 0 -74 85h-3q-36 -85 -110 -85
q-86 0 -86 120q0 99 55 168q59 75 153 75q54 0 92 -21l-34 -184q-17 -103 28 -103q33 0 56 50q26 56 26 150q0 102 -46 162q-50 66 -147 66q-103 0 -178 -95q-80 -101 -80 -252q0 -123 60 -191q56 -63 150 -63q70 0 131 36z" />
    </font>
</defs>
</svg>
